%TF.GenerationSoftware,KiCad,Pcbnew,(6.0.5-0)*%
%TF.CreationDate,2022-06-08T15:31:11+08:00*%
%TF.ProjectId,dtl,64746c2e-6b69-4636-9164-5f7063625858,rev?*%
%TF.SameCoordinates,Original*%
%TF.FileFunction,Paste,Top*%
%TF.FilePolarity,Positive*%
%FSLAX46Y46*%
G04 Gerber Fmt 4.6, Leading zero omitted, Abs format (unit mm)*
G04 Created by KiCad (PCBNEW (6.0.5-0)) date 2022-06-08 15:31:11*
%MOMM*%
%LPD*%
G01*
G04 APERTURE LIST*
G04 Aperture macros list*
%AMRoundRect*
0 Rectangle with rounded corners*
0 $1 Rounding radius*
0 $2 $3 $4 $5 $6 $7 $8 $9 X,Y pos of 4 corners*
0 Add a 4 corners polygon primitive as box body*
4,1,4,$2,$3,$4,$5,$6,$7,$8,$9,$2,$3,0*
0 Add four circle primitives for the rounded corners*
1,1,$1+$1,$2,$3*
1,1,$1+$1,$4,$5*
1,1,$1+$1,$6,$7*
1,1,$1+$1,$8,$9*
0 Add four rect primitives between the rounded corners*
20,1,$1+$1,$2,$3,$4,$5,0*
20,1,$1+$1,$4,$5,$6,$7,0*
20,1,$1+$1,$6,$7,$8,$9,0*
20,1,$1+$1,$8,$9,$2,$3,0*%
%AMRotRect*
0 Rectangle, with rotation*
0 The origin of the aperture is its center*
0 $1 length*
0 $2 width*
0 $3 Rotation angle, in degrees counterclockwise*
0 Add horizontal line*
21,1,$1,$2,0,0,$3*%
G04 Aperture macros list end*
%ADD10RotRect,0.800000X1.500000X300.000000*%
%ADD11RotRect,1.000000X1.000000X300.000000*%
%ADD12RotRect,1.100000X1.000000X300.000000*%
%ADD13RoundRect,0.250000X-0.591506X-0.524519X-0.158494X-0.774519X0.591506X0.524519X0.158494X0.774519X0*%
%ADD14RoundRect,0.250000X-0.564711X0.078109X-0.214711X-0.528109X0.564711X-0.078109X0.214711X0.528109X0*%
%ADD15RoundRect,0.150000X-0.433790X-0.423654X0.583790X0.163846X0.433790X0.423654X-0.583790X-0.163846X0*%
%ADD16RoundRect,0.250001X0.136964X-1.162226X0.938035X-0.699727X-0.136964X1.162226X-0.938035X0.699727X0*%
%ADD17RoundRect,0.250000X-0.350000X-0.450000X0.350000X-0.450000X0.350000X0.450000X-0.350000X0.450000X0*%
%ADD18RoundRect,0.250000X0.528109X0.214711X-0.078109X0.564711X-0.528109X-0.214711X0.078109X-0.564711X0*%
%ADD19RotRect,2.800000X1.000000X240.000000*%
%ADD20RoundRect,0.150000X-0.587500X-0.150000X0.587500X-0.150000X0.587500X0.150000X-0.587500X0.150000X0*%
%ADD21R,2.800000X1.000000*%
%ADD22RoundRect,0.250001X0.462499X1.074999X-0.462499X1.074999X-0.462499X-1.074999X0.462499X-1.074999X0*%
%ADD23RoundRect,0.250000X-0.750000X0.250000X-0.750000X-0.250000X0.750000X-0.250000X0.750000X0.250000X0*%
%ADD24RoundRect,0.250000X-0.528109X-0.214711X0.078109X-0.564711X0.528109X0.214711X-0.078109X0.564711X0*%
%ADD25RotRect,2.800000X1.000000X225.000000*%
%ADD26RoundRect,0.250000X-0.707107X-0.353553X-0.353553X-0.707107X0.707107X0.353553X0.353553X0.707107X0*%
%ADD27RoundRect,0.250001X0.938035X0.699727X0.136964X1.162226X-0.938035X-0.699727X-0.136964X-1.162226X0*%
%ADD28RoundRect,0.250000X-0.214711X0.528109X-0.564711X-0.078109X0.214711X-0.528109X0.564711X0.078109X0*%
%ADD29RoundRect,0.250000X0.350000X0.450000X-0.350000X0.450000X-0.350000X-0.450000X0.350000X-0.450000X0*%
%ADD30RoundRect,0.150000X0.423654X-0.433790X-0.163846X0.583790X-0.423654X0.433790X0.163846X-0.583790X0*%
G04 APERTURE END LIST*
D10*
%TO.C,SW2*%
X198808193Y-67602112D03*
X200308193Y-70200188D03*
X201058193Y-71499226D03*
D11*
X196957360Y-66996375D03*
X200657360Y-73404963D03*
D12*
X195398514Y-67896375D03*
D11*
X199098514Y-74304963D03*
%TD*%
D13*
%TO.C,SW6*%
X234176731Y-68034937D03*
X231701731Y-72321763D03*
X232073270Y-66878238D03*
X229623270Y-71121763D03*
%TD*%
D14*
%TO.C,R19*%
X229962106Y-55297619D03*
X230962106Y-57029669D03*
%TD*%
D15*
%TO.C,Q4*%
X222013101Y-71596026D03*
X222963101Y-73241474D03*
X224111899Y-71481250D03*
%TD*%
D16*
%TO.C,D1*%
X205571787Y-45143750D03*
X208148213Y-43656250D03*
%TD*%
D17*
%TO.C,R16*%
X213700000Y-47000000D03*
X215700000Y-47000000D03*
%TD*%
D18*
%TO.C,R7*%
X220166025Y-48400000D03*
X218433975Y-47400000D03*
%TD*%
D14*
%TO.C,R12*%
X204500000Y-63183975D03*
X205500000Y-64916025D03*
%TD*%
D19*
%TO.C,SW19*%
X234400000Y-67777052D03*
X231500000Y-72800000D03*
X230935898Y-65777052D03*
X228035898Y-70800000D03*
%TD*%
D20*
%TO.C,Q1*%
X217962500Y-41850000D03*
X217962500Y-43750000D03*
X219837500Y-42800000D03*
%TD*%
D21*
%TO.C,SW14*%
X201500000Y-62025000D03*
X195700000Y-62025000D03*
X201500000Y-58025000D03*
X195700000Y-58025000D03*
%TD*%
D22*
%TO.C,D9*%
X216987500Y-70050000D03*
X214012500Y-70050000D03*
%TD*%
D23*
%TO.C,SW9*%
X201075000Y-62000000D03*
X196125000Y-62000000D03*
X201025000Y-59600000D03*
X196125000Y-59600000D03*
%TD*%
D24*
%TO.C,R18*%
X225267950Y-41600000D03*
X227000000Y-42600000D03*
%TD*%
D25*
%TO.C,SW15*%
X210364823Y-74563604D03*
X206263604Y-78664823D03*
X207536396Y-71735177D03*
X203435177Y-75836396D03*
%TD*%
D26*
%TO.C,SW10*%
X209998618Y-74880762D03*
X206498439Y-78380940D03*
X208266206Y-73219061D03*
X204801383Y-76683884D03*
%TD*%
D27*
%TO.C,D8*%
X209738213Y-68793750D03*
X207161787Y-67306250D03*
%TD*%
D22*
%TO.C,D2*%
X213900000Y-42900000D03*
X210925000Y-42900000D03*
%TD*%
D28*
%TO.C,R2*%
X204200000Y-53033975D03*
X203200000Y-54766025D03*
%TD*%
D17*
%TO.C,R1*%
X217271606Y-74660669D03*
X219271606Y-74660669D03*
%TD*%
D29*
%TO.C,R4*%
X211500000Y-47500000D03*
X209500000Y-47500000D03*
%TD*%
D30*
%TO.C,Q7*%
X225446026Y-50686899D03*
X227091474Y-49736899D03*
X225331250Y-48588101D03*
%TD*%
M02*
