%TF.GenerationSoftware,KiCad,Pcbnew,(6.0.5-0)*%
%TF.CreationDate,2022-06-08T15:31:11+08:00*%
%TF.ProjectId,dtl,64746c2e-6b69-4636-9164-5f7063625858,rev?*%
%TF.SameCoordinates,Original*%
%TF.FileFunction,Legend,Bot*%
%TF.FilePolarity,Positive*%
%FSLAX46Y46*%
G04 Gerber Fmt 4.6, Leading zero omitted, Abs format (unit mm)*
G04 Created by KiCad (PCBNEW (6.0.5-0)) date 2022-06-08 15:31:11*
%MOMM*%
%LPD*%
G01*
G04 APERTURE LIST*
%ADD10C,0.150000*%
%ADD11C,0.200000*%
%ADD12C,0.120000*%
G04 APERTURE END LIST*
D10*
X196500918Y-65262941D02*
X195468226Y-65474266D01*
X196167585Y-64685591D01*
X194492036Y-63783455D02*
X194777750Y-64278326D01*
X194634893Y-64030891D02*
X195500918Y-63530891D01*
X195424819Y-63684798D01*
X195389960Y-63814895D01*
X195396339Y-63921183D01*
X194360229Y-63364682D02*
X194295180Y-63347252D01*
X194277750Y-63412301D01*
X194342799Y-63429731D01*
X194360229Y-63364682D01*
X194277750Y-63412301D01*
X194953299Y-62582387D02*
X194643775Y-62046276D01*
X194480528Y-62525427D01*
X194409099Y-62401709D01*
X194320241Y-62343040D01*
X194255192Y-62325610D01*
X194148904Y-62331990D01*
X193942707Y-62451037D01*
X193884038Y-62539896D01*
X193866608Y-62604945D01*
X193872988Y-62711233D01*
X194015845Y-62958669D01*
X194104704Y-63017338D01*
X194169752Y-63034767D01*
X193645943Y-62127503D02*
X193580894Y-62110073D01*
X193563464Y-62175122D01*
X193628513Y-62192552D01*
X193645943Y-62127503D01*
X193563464Y-62175122D01*
X193953299Y-60850336D02*
X194191394Y-61262729D01*
X193802811Y-61542063D01*
X193820241Y-61477014D01*
X193813861Y-61370726D01*
X193694813Y-61164530D01*
X193605955Y-61105861D01*
X193540906Y-61088431D01*
X193434618Y-61094811D01*
X193228421Y-61213858D01*
X193169752Y-61302717D01*
X193152323Y-61367765D01*
X193158702Y-61474054D01*
X193277750Y-61680250D01*
X193366608Y-61738919D01*
X193431657Y-61756349D01*
X192931657Y-60890324D02*
X192866608Y-60872894D01*
X192849178Y-60937943D01*
X192914227Y-60955372D01*
X192931657Y-60890324D01*
X192849178Y-60937943D01*
X193034526Y-60116117D02*
X193123385Y-60174786D01*
X193188434Y-60192216D01*
X193294722Y-60185837D01*
X193335961Y-60162027D01*
X193394630Y-60073169D01*
X193412060Y-60008120D01*
X193405680Y-59901832D01*
X193310442Y-59736874D01*
X193221584Y-59678205D01*
X193156535Y-59660776D01*
X193050247Y-59667155D01*
X193009007Y-59690965D01*
X192950338Y-59779823D01*
X192932908Y-59844872D01*
X192939288Y-59951160D01*
X193034526Y-60116117D01*
X193040906Y-60222406D01*
X193023476Y-60287454D01*
X192964807Y-60376313D01*
X192799850Y-60471551D01*
X192693562Y-60477931D01*
X192628513Y-60460501D01*
X192539655Y-60401832D01*
X192444417Y-60236874D01*
X192438037Y-60130586D01*
X192455467Y-60065537D01*
X192514136Y-59976679D01*
X192679093Y-59881441D01*
X192785381Y-59875061D01*
X192850430Y-59892491D01*
X192939288Y-59951160D01*
X224938095Y-40833095D02*
X223842857Y-40833095D01*
X224795238Y-41499761D02*
X223938095Y-41499761D01*
X224795238Y-41071190D02*
X224795238Y-41547380D01*
X224795238Y-41071190D02*
X223938095Y-41071190D01*
X223938095Y-41547380D01*
X224080952Y-40595000D02*
X223747619Y-40928333D01*
X224557142Y-40452142D02*
X224795238Y-40833095D01*
X222985714Y-40499761D02*
X222319047Y-40499761D01*
X222938095Y-40642619D02*
X222366666Y-40642619D01*
X223461904Y-40785476D02*
X222271428Y-40785476D01*
X222938095Y-41023571D02*
X222366666Y-41023571D01*
X222938095Y-41214047D02*
X222366666Y-41214047D01*
X222938095Y-41356904D02*
X222366666Y-41356904D01*
X223223809Y-40499761D02*
X223223809Y-41547380D01*
X222938095Y-40880714D02*
X222938095Y-41356904D01*
X222652380Y-40404523D02*
X222652380Y-40737857D01*
X222938095Y-40880714D02*
X222366666Y-40880714D01*
X222366666Y-41356904D01*
X223223809Y-40880714D02*
X223033333Y-41118809D01*
X222509523Y-41452142D02*
X222271428Y-41547380D01*
X223223809Y-40785476D02*
X223461904Y-41261666D01*
X222795238Y-41404523D02*
X223033333Y-41547380D01*
X223080952Y-40452142D02*
X223461904Y-40499761D01*
X221938095Y-40499761D02*
X220938095Y-40499761D01*
X221890476Y-40785476D02*
X221604761Y-40785476D01*
X221319047Y-40785476D02*
X220985714Y-40785476D01*
X221938095Y-40928333D02*
X221604761Y-40928333D01*
X221319047Y-40928333D02*
X220938095Y-40928333D01*
X221890476Y-41214047D02*
X220938095Y-41214047D01*
X221890476Y-41404523D02*
X220938095Y-41404523D01*
X221414285Y-41547380D02*
X220842857Y-41547380D01*
X222033333Y-40642619D02*
X222033333Y-40833095D01*
X221890476Y-41071190D02*
X221890476Y-41452142D01*
X221461904Y-40499761D02*
X221461904Y-40975952D01*
X221414285Y-41071190D02*
X221414285Y-41547380D01*
X221890476Y-41071190D02*
X220938095Y-41071190D01*
X220938095Y-41404523D01*
X222033333Y-40642619D02*
X220842857Y-40642619D01*
X220842857Y-40833095D01*
X220795238Y-41404523D02*
X220842857Y-41547380D01*
X219938095Y-40737857D02*
X219414285Y-40737857D01*
X220509523Y-40833095D02*
X220128571Y-40833095D01*
X219938095Y-40975952D02*
X219414285Y-40975952D01*
X220319047Y-41071190D02*
X220080952Y-41071190D01*
X220509523Y-40499761D02*
X220509523Y-40785476D01*
X220461904Y-41023571D02*
X220461904Y-41452142D01*
X220319047Y-40833095D02*
X220319047Y-41404523D01*
X220509523Y-40499761D02*
X220128571Y-40499761D01*
X220128571Y-40785476D01*
X219938095Y-40499761D02*
X219938095Y-41499761D01*
X219938095Y-40499761D02*
X219414285Y-40499761D01*
X219414285Y-40975952D01*
X219604761Y-41309285D02*
X219366666Y-41547380D01*
X219414285Y-41166428D02*
X219604761Y-41261666D01*
X219747619Y-40975952D02*
X219557142Y-41404523D01*
X220080952Y-41356904D02*
X220557142Y-41452142D01*
X219652380Y-41452142D02*
X220080952Y-41499761D01*
X219080952Y-40547380D02*
X217842857Y-40547380D01*
X218700000Y-40404523D02*
X218700000Y-40737857D01*
X218223809Y-40404523D02*
X218223809Y-40737857D01*
X218795238Y-40880714D02*
X218700000Y-41071190D01*
X218461904Y-41309285D01*
X218223809Y-41452142D01*
X217842857Y-41547380D01*
X218128571Y-40833095D02*
X218223809Y-41118809D01*
X218461904Y-41309285D01*
X218700000Y-41452142D01*
X219080952Y-41547380D01*
X217604761Y-40737857D02*
X216604761Y-40737857D01*
X217461904Y-41309285D02*
X216747619Y-41309285D01*
X216700000Y-41547380D02*
X216366666Y-41547380D01*
X217461904Y-40975952D02*
X217461904Y-41404523D01*
X217461904Y-40975952D02*
X216747619Y-40975952D01*
X216747619Y-41309285D01*
X217604761Y-40499761D02*
X216366666Y-40499761D01*
X216366666Y-41547380D01*
X215985714Y-40547380D02*
X214890476Y-40547380D01*
X215890476Y-40690238D02*
X215414285Y-40690238D01*
X215366666Y-40690238D02*
X214938095Y-40690238D01*
X215842857Y-41166428D02*
X214985714Y-41166428D01*
X215938095Y-41356904D02*
X214890476Y-41356904D01*
X215652380Y-41547380D02*
X215414285Y-41547380D01*
X215652380Y-40595000D02*
X215652380Y-40975952D01*
X215461904Y-40404523D02*
X215461904Y-40547380D01*
X215842857Y-41071190D02*
X215414285Y-41071190D01*
X215414285Y-41547380D01*
X215128571Y-40595000D02*
X215128571Y-40928333D01*
X215128571Y-40690238D02*
X214890476Y-40928333D01*
X215128571Y-40690238D02*
X215366666Y-40928333D01*
X215652380Y-40690238D02*
X215890476Y-40928333D01*
X215700000Y-40737857D02*
X215461904Y-40833095D01*
X215985714Y-40547380D02*
X215985714Y-41166428D01*
X216080952Y-41499761D01*
X215080952Y-40975952D02*
X215414285Y-41023571D01*
X214604761Y-40499761D02*
X213414285Y-40499761D01*
X213747619Y-41547380D02*
X213557142Y-41547380D01*
X214509523Y-40785476D02*
X214509523Y-41547380D01*
X214033333Y-40499761D02*
X214033333Y-41547380D01*
X214509523Y-40785476D02*
X213509523Y-40785476D01*
X213509523Y-41547380D01*
X213795238Y-41261666D02*
X213700000Y-41356904D01*
X214366666Y-40928333D02*
X214176190Y-40975952D01*
X214319047Y-41261666D02*
X214176190Y-41356904D01*
X214223809Y-41214047D02*
X214414285Y-41452142D01*
X213700000Y-40833095D02*
X213938095Y-41071190D01*
X213700000Y-41214047D02*
X213938095Y-41452142D01*
X214176190Y-40833095D02*
X214414285Y-41071190D01*
X213890476Y-40928333D02*
X213700000Y-40975952D01*
X213795238Y-40595000D02*
X213414285Y-40737857D01*
X214319047Y-40595000D02*
X214652380Y-40737857D01*
X213128571Y-40499761D02*
X211985714Y-40499761D01*
X213080952Y-40928333D02*
X212033333Y-40928333D01*
X213176190Y-41118809D02*
X211938095Y-41118809D01*
X213080952Y-40690238D02*
X213080952Y-40928333D01*
X212747619Y-40499761D02*
X212747619Y-40928333D01*
X212366666Y-40499761D02*
X212366666Y-40928333D01*
X213080952Y-40690238D02*
X212033333Y-40690238D01*
X212033333Y-40928333D01*
X212223809Y-41118809D02*
X212414285Y-41356904D01*
X212604761Y-41452142D01*
X213176190Y-41547380D01*
X212700000Y-41023571D02*
X212985714Y-41356904D01*
X212033333Y-41499761D01*
X211319047Y-40642619D02*
X210985714Y-40642619D01*
X210842857Y-40642619D02*
X210557142Y-40642619D01*
X211319047Y-40785476D02*
X210985714Y-40785476D01*
X210842857Y-40785476D02*
X210461904Y-40785476D01*
X211319047Y-40975952D02*
X210509523Y-40975952D01*
X211366666Y-41214047D02*
X210461904Y-41214047D01*
X211080952Y-40880714D02*
X211080952Y-41214047D01*
X211319047Y-40499761D02*
X210985714Y-40499761D01*
X210985714Y-40642619D01*
X210747619Y-40880714D02*
X210747619Y-41214047D01*
X210842857Y-40499761D02*
X210557142Y-40499761D01*
X210557142Y-40642619D01*
X211652380Y-40452142D02*
X211461904Y-40642619D01*
X211700000Y-40928333D02*
X211509523Y-40928333D01*
X211509523Y-41356904D01*
X211700000Y-41547380D01*
X211319047Y-40642619D02*
X211319047Y-40833095D01*
X210747619Y-41309285D02*
X210509523Y-41404523D01*
X211080952Y-41309285D02*
X211319047Y-41404523D01*
X210842857Y-40642619D02*
X210842857Y-40833095D01*
X211557142Y-41404523D02*
X211080952Y-41547380D01*
X210461904Y-41547380D01*
X209842857Y-40785476D02*
X209414285Y-40785476D01*
X209842857Y-41118809D02*
X209414285Y-41118809D01*
X210223809Y-41214047D02*
X209985714Y-41214047D01*
X210223809Y-40499761D02*
X210223809Y-41309285D01*
X210223809Y-40499761D02*
X209985714Y-40499761D01*
X209985714Y-41214047D01*
X209319047Y-40499761D02*
X209319047Y-41547380D01*
X209319047Y-40499761D02*
X208985714Y-40499761D01*
X209128571Y-40880714D01*
X209700000Y-40499761D02*
X209700000Y-41166428D01*
X209890476Y-41547380D01*
X209033333Y-41356904D02*
X209176190Y-41356904D01*
X209890476Y-40499761D02*
X209461904Y-40499761D01*
X209509523Y-41499761D01*
X209700000Y-41547380D01*
X209080952Y-40975952D02*
X208985714Y-41214047D01*
X209033333Y-41356904D01*
X209700000Y-40833095D02*
X209795238Y-41356904D01*
X208747619Y-40690238D02*
X208271428Y-40690238D01*
X208033333Y-40690238D02*
X207509523Y-40690238D01*
X208747619Y-40880714D02*
X208271428Y-40880714D01*
X208033333Y-40880714D02*
X207509523Y-40880714D01*
X208414285Y-41214047D02*
X207890476Y-41214047D01*
X208414285Y-41452142D02*
X207890476Y-41452142D01*
X207795238Y-41547380D02*
X207509523Y-41547380D01*
X208747619Y-40499761D02*
X208747619Y-41547380D01*
X208414285Y-41023571D02*
X208414285Y-41499761D01*
X208747619Y-40499761D02*
X208271428Y-40499761D01*
X208271428Y-40880714D01*
X208033333Y-40499761D02*
X208033333Y-40880714D01*
X208414285Y-41023571D02*
X207890476Y-41023571D01*
X207890476Y-41404523D01*
X208033333Y-40499761D02*
X207509523Y-40499761D01*
X207509523Y-41547380D01*
X207128571Y-41356904D02*
X207080952Y-41404523D01*
X207128571Y-41452142D01*
X207176190Y-41404523D01*
X207128571Y-41356904D01*
X207128571Y-41452142D01*
X207080952Y-41404523D02*
X207080952Y-41547380D01*
X207128571Y-41595000D01*
X222723809Y-42109761D02*
X221580952Y-42109761D01*
X222676190Y-42538333D02*
X221628571Y-42538333D01*
X222771428Y-42728809D02*
X221533333Y-42728809D01*
X222676190Y-42300238D02*
X222676190Y-42538333D01*
X222342857Y-42109761D02*
X222342857Y-42538333D01*
X221961904Y-42109761D02*
X221961904Y-42538333D01*
X222676190Y-42300238D02*
X221628571Y-42300238D01*
X221628571Y-42538333D01*
X221819047Y-42728809D02*
X222009523Y-42966904D01*
X222200000Y-43062142D01*
X222771428Y-43157380D01*
X222295238Y-42633571D02*
X222580952Y-42966904D01*
X221628571Y-43109761D01*
X221104761Y-42443095D02*
X220057142Y-42443095D01*
X221104761Y-42776428D02*
X220057142Y-42776428D01*
X220342857Y-43157380D02*
X220057142Y-43157380D01*
X220628571Y-42109761D02*
X220628571Y-43157380D01*
X221104761Y-42109761D02*
X220057142Y-42109761D01*
X220057142Y-43157380D01*
X221104761Y-42109761D02*
X221104761Y-42728809D01*
X221152380Y-43014523D01*
X219438095Y-42490714D02*
X218580952Y-42490714D01*
X219533333Y-42252619D02*
X219533333Y-43157380D01*
X219009523Y-42014523D02*
X219009523Y-43157380D01*
X219580952Y-42347857D02*
X219819047Y-42538333D01*
X219485714Y-42014523D02*
X219628571Y-42347857D01*
X218247619Y-42157380D02*
X217104761Y-42157380D01*
X218104761Y-42300238D02*
X217723809Y-42300238D01*
X217580952Y-42300238D02*
X217152380Y-42300238D01*
X217247619Y-42633571D02*
X217104761Y-42633571D01*
X218104761Y-43157380D02*
X217152380Y-43157380D01*
X217914285Y-42205000D02*
X217914285Y-42633571D01*
X217723809Y-42395476D02*
X217723809Y-42585952D01*
X217676190Y-42014523D02*
X217676190Y-42157380D01*
X217390476Y-42205000D02*
X217390476Y-42633571D01*
X217200000Y-42395476D02*
X217200000Y-42633571D01*
X217295238Y-43014523D02*
X217152380Y-43157380D01*
X217438095Y-42966904D02*
X217295238Y-43014523D01*
X217723809Y-42681190D02*
X217914285Y-42871666D01*
X217485714Y-42776428D02*
X217676190Y-42966904D01*
X218009523Y-42824047D02*
X217771428Y-42966904D01*
X217723809Y-43014523D02*
X217914285Y-43109761D01*
X218057142Y-42443095D02*
X218104761Y-42681190D01*
X217580952Y-42395476D02*
X217580952Y-42633571D01*
X218247619Y-42157380D02*
X218247619Y-42776428D01*
X218295238Y-43157380D01*
X216485714Y-42252619D02*
X215676190Y-42252619D01*
X216057142Y-42490714D02*
X215628571Y-42490714D01*
X216057142Y-42633571D02*
X215676190Y-42633571D01*
X216580952Y-42728809D02*
X216200000Y-42728809D01*
X216057142Y-42824047D02*
X215676190Y-42824047D01*
X216057142Y-42966904D02*
X215628571Y-42966904D01*
X216438095Y-43157380D02*
X215628571Y-43157380D01*
X216485714Y-42062142D02*
X216485714Y-42252619D01*
X216342857Y-42681190D02*
X216342857Y-43062142D01*
X216009523Y-42395476D02*
X216009523Y-43062142D01*
X215819047Y-42395476D02*
X215819047Y-42966904D01*
X216819047Y-42062142D02*
X216676190Y-42205000D01*
X216295238Y-42585952D02*
X216152380Y-42728809D01*
X216533333Y-42443095D02*
X216390476Y-42538333D01*
X216819047Y-42347857D02*
X216676190Y-42443095D01*
X216866666Y-42633571D02*
X216676190Y-42633571D01*
X216723809Y-43014523D01*
X216866666Y-43157380D01*
X216390476Y-42347857D02*
X216485714Y-42443095D01*
X216247619Y-42443095D02*
X216533333Y-42681190D01*
X216247619Y-42776428D02*
X216200000Y-42919285D01*
X216533333Y-42776428D02*
X216533333Y-42966904D01*
X216009523Y-42300238D02*
X216152380Y-42585952D01*
X216247619Y-42062142D02*
X216247619Y-42252619D01*
X215961904Y-42062142D02*
X215961904Y-42252619D01*
X216485714Y-42062142D02*
X215676190Y-42062142D01*
X215723809Y-42252619D01*
X216723809Y-43014523D02*
X216485714Y-43109761D01*
X216200000Y-43157380D01*
X215390476Y-42205000D02*
X214819047Y-42205000D01*
X214723809Y-42300238D02*
X214247619Y-42300238D01*
X215342857Y-42538333D02*
X214866666Y-42538333D01*
X214676190Y-42633571D02*
X214247619Y-42633571D01*
X215342857Y-42728809D02*
X214866666Y-42728809D01*
X214676190Y-42824047D02*
X214247619Y-42824047D01*
X215390476Y-42919285D02*
X214819047Y-42919285D01*
X214723809Y-43014523D02*
X214247619Y-43014523D01*
X214819047Y-43062142D02*
X214390476Y-43062142D01*
X215342857Y-42347857D02*
X215342857Y-42728809D01*
X215104761Y-42014523D02*
X215104761Y-43157380D01*
X215342857Y-42347857D02*
X214866666Y-42347857D01*
X214866666Y-42728809D01*
X214723809Y-42062142D02*
X214723809Y-42300238D01*
X214676190Y-42443095D02*
X214676190Y-43014523D01*
X214771428Y-42443095D02*
X214200000Y-42443095D01*
X214247619Y-43157380D01*
X214723809Y-42062142D02*
X214247619Y-42062142D01*
X214247619Y-42300238D01*
X213914285Y-42252619D02*
X213438095Y-42252619D01*
X213200000Y-42252619D02*
X212676190Y-42252619D01*
X213914285Y-42443095D02*
X213438095Y-42443095D01*
X213200000Y-42443095D02*
X212676190Y-42443095D01*
X213628571Y-42728809D02*
X212961904Y-42728809D01*
X213628571Y-42919285D02*
X212961904Y-42919285D01*
X212866666Y-43157380D02*
X212676190Y-43157380D01*
X213914285Y-42109761D02*
X213914285Y-43157380D01*
X213628571Y-42585952D02*
X213628571Y-42966904D01*
X213914285Y-42109761D02*
X213390476Y-42109761D01*
X213390476Y-42443095D01*
X213295238Y-42585952D02*
X213295238Y-43157380D01*
X213200000Y-42109761D02*
X213200000Y-42443095D01*
X213628571Y-42585952D02*
X212961904Y-42585952D01*
X212961904Y-42966904D01*
X213200000Y-42109761D02*
X212676190Y-42109761D01*
X212676190Y-43157380D01*
X212390476Y-42443095D02*
X211723809Y-42443095D01*
X212438095Y-42728809D02*
X211676190Y-42728809D01*
X211485714Y-43157380D02*
X211200000Y-43157380D01*
X212057142Y-42014523D02*
X212057142Y-43157380D01*
X211580952Y-42157380D02*
X211580952Y-42824047D01*
X211200000Y-42062142D02*
X211200000Y-43157380D01*
X212342857Y-42109761D02*
X212247619Y-42347857D01*
X211771428Y-42109761D02*
X211866666Y-42347857D01*
X210914285Y-42395476D02*
X210628571Y-42395476D01*
X210580952Y-42395476D02*
X210295238Y-42395476D01*
X210200000Y-42490714D02*
X209723809Y-42490714D01*
X210961904Y-42490714D02*
X210295238Y-42490714D01*
X210580952Y-42966904D02*
X210295238Y-42966904D01*
X210961904Y-43014523D02*
X210342857Y-43014523D01*
X210961904Y-42062142D02*
X210961904Y-43109761D01*
X209866666Y-42490714D02*
X209866666Y-43157380D01*
X210866666Y-42205000D02*
X210771428Y-42300238D01*
X210866666Y-42681190D02*
X210771428Y-42824047D01*
X210771428Y-42062142D02*
X210819047Y-42205000D01*
X210914285Y-42966904D02*
X210676190Y-42919285D01*
X210676190Y-42966904D01*
X210723809Y-42157380D02*
X210819047Y-42395476D01*
X210771428Y-42585952D02*
X210771428Y-42681190D01*
X210819047Y-42919285D01*
X210485714Y-42062142D02*
X210533333Y-42205000D01*
X210438095Y-42252619D01*
X210485714Y-42395476D01*
X210485714Y-42538333D02*
X210533333Y-42681190D01*
X210438095Y-42776428D01*
X210485714Y-42919285D01*
X209723809Y-42062142D02*
X210200000Y-42157380D01*
X210200000Y-42776428D01*
X210247619Y-43062142D01*
X209057142Y-43014523D02*
X209009523Y-43062142D01*
X209057142Y-43109761D01*
X209104761Y-43062142D01*
X209057142Y-43014523D01*
X209057142Y-43109761D01*
X209247619Y-42157380D02*
X209152380Y-42109761D01*
X208914285Y-42109761D01*
X208819047Y-42157380D01*
X208771428Y-42252619D01*
X208771428Y-42347857D01*
X208819047Y-42443095D01*
X208866666Y-42490714D01*
X208961904Y-42538333D01*
X209009523Y-42585952D01*
X209057142Y-42681190D01*
X209057142Y-42728809D01*
X225152380Y-54680952D02*
X225866666Y-54680952D01*
X226009523Y-54633333D01*
X226104761Y-54538095D01*
X226152380Y-54395238D01*
X226152380Y-54300000D01*
X226152380Y-55633333D02*
X226152380Y-55157142D01*
X225152380Y-55157142D01*
X226057142Y-56538095D02*
X226104761Y-56490476D01*
X226152380Y-56347619D01*
X226152380Y-56252380D01*
X226104761Y-56109523D01*
X226009523Y-56014285D01*
X225914285Y-55966666D01*
X225723809Y-55919047D01*
X225580952Y-55919047D01*
X225390476Y-55966666D01*
X225295238Y-56014285D01*
X225200000Y-56109523D01*
X225152380Y-56252380D01*
X225152380Y-56347619D01*
X225200000Y-56490476D01*
X225247619Y-56538095D01*
X225152380Y-57252380D02*
X225866666Y-57252380D01*
X226009523Y-57204761D01*
X226104761Y-57109523D01*
X226152380Y-56966666D01*
X226152380Y-56871428D01*
X226152380Y-58204761D02*
X226152380Y-57728571D01*
X225152380Y-57728571D01*
X226057142Y-59109523D02*
X226104761Y-59061904D01*
X226152380Y-58919047D01*
X226152380Y-58823809D01*
X226104761Y-58680952D01*
X226009523Y-58585714D01*
X225914285Y-58538095D01*
X225723809Y-58490476D01*
X225580952Y-58490476D01*
X225390476Y-58538095D01*
X225295238Y-58585714D01*
X225200000Y-58680952D01*
X225152380Y-58823809D01*
X225152380Y-58919047D01*
X225200000Y-59061904D01*
X225247619Y-59109523D01*
X225152380Y-59823809D02*
X225866666Y-59823809D01*
X226009523Y-59776190D01*
X226104761Y-59680952D01*
X226152380Y-59538095D01*
X226152380Y-59442857D01*
X226152380Y-60776190D02*
X226152380Y-60300000D01*
X225152380Y-60300000D01*
X226057142Y-61680952D02*
X226104761Y-61633333D01*
X226152380Y-61490476D01*
X226152380Y-61395238D01*
X226104761Y-61252380D01*
X226009523Y-61157142D01*
X225914285Y-61109523D01*
X225723809Y-61061904D01*
X225580952Y-61061904D01*
X225390476Y-61109523D01*
X225295238Y-61157142D01*
X225200000Y-61252380D01*
X225152380Y-61395238D01*
X225152380Y-61490476D01*
X225200000Y-61633333D01*
X225247619Y-61680952D01*
X225152380Y-62395238D02*
X225866666Y-62395238D01*
X226009523Y-62347619D01*
X226104761Y-62252380D01*
X226152380Y-62109523D01*
X226152380Y-62014285D01*
X226152380Y-63347619D02*
X226152380Y-62871428D01*
X225152380Y-62871428D01*
X226057142Y-64252380D02*
X226104761Y-64204761D01*
X226152380Y-64061904D01*
X226152380Y-63966666D01*
X226104761Y-63823809D01*
X226009523Y-63728571D01*
X225914285Y-63680952D01*
X225723809Y-63633333D01*
X225580952Y-63633333D01*
X225390476Y-63680952D01*
X225295238Y-63728571D01*
X225200000Y-63823809D01*
X225152380Y-63966666D01*
X225152380Y-64061904D01*
X225200000Y-64204761D01*
X225247619Y-64252380D01*
X219928571Y-75857142D02*
X219880952Y-75904761D01*
X219928571Y-75952380D01*
X219976190Y-75904761D01*
X219928571Y-75857142D01*
X219928571Y-75952380D01*
X219452380Y-75857142D02*
X219404761Y-75904761D01*
X219452380Y-75952380D01*
X219500000Y-75904761D01*
X219452380Y-75857142D01*
X219452380Y-75952380D01*
X218976190Y-75857142D02*
X218928571Y-75904761D01*
X218976190Y-75952380D01*
X219023809Y-75904761D01*
X218976190Y-75857142D01*
X218976190Y-75952380D01*
X218500000Y-75857142D02*
X218452380Y-75904761D01*
X218500000Y-75952380D01*
X218547619Y-75904761D01*
X218500000Y-75857142D01*
X218500000Y-75952380D01*
X218023809Y-75857142D02*
X217976190Y-75904761D01*
X218023809Y-75952380D01*
X218071428Y-75904761D01*
X218023809Y-75857142D01*
X218023809Y-75952380D01*
X217547619Y-75857142D02*
X217500000Y-75904761D01*
X217547619Y-75952380D01*
X217595238Y-75904761D01*
X217547619Y-75857142D01*
X217547619Y-75952380D01*
X217071428Y-75857142D02*
X217023809Y-75904761D01*
X217071428Y-75952380D01*
X217119047Y-75904761D01*
X217071428Y-75857142D01*
X217071428Y-75952380D01*
X216595238Y-75857142D02*
X216547619Y-75904761D01*
X216595238Y-75952380D01*
X216642857Y-75904761D01*
X216595238Y-75857142D01*
X216595238Y-75952380D01*
X215928571Y-74952380D02*
X215738095Y-74952380D01*
X215642857Y-75000000D01*
X215547619Y-75095238D01*
X215500000Y-75285714D01*
X215500000Y-75619047D01*
X215547619Y-75809523D01*
X215642857Y-75904761D01*
X215738095Y-75952380D01*
X215928571Y-75952380D01*
X216023809Y-75904761D01*
X216119047Y-75809523D01*
X216166666Y-75619047D01*
X216166666Y-75285714D01*
X216119047Y-75095238D01*
X216023809Y-75000000D01*
X215928571Y-74952380D01*
X214500000Y-75952380D02*
X214833333Y-75476190D01*
X215071428Y-75952380D02*
X215071428Y-74952380D01*
X214690476Y-74952380D01*
X214595238Y-75000000D01*
X214547619Y-75047619D01*
X214500000Y-75142857D01*
X214500000Y-75285714D01*
X214547619Y-75380952D01*
X214595238Y-75428571D01*
X214690476Y-75476190D01*
X215071428Y-75476190D01*
X214214285Y-75047619D02*
X213738095Y-75047619D01*
X213500000Y-75047619D02*
X212976190Y-75047619D01*
X214214285Y-75238095D02*
X213738095Y-75238095D01*
X213500000Y-75238095D02*
X212976190Y-75238095D01*
X213928571Y-75523809D02*
X213261904Y-75523809D01*
X213928571Y-75714285D02*
X213261904Y-75714285D01*
X213166666Y-75952380D02*
X212976190Y-75952380D01*
X214214285Y-74904761D02*
X214214285Y-75952380D01*
X213928571Y-75380952D02*
X213928571Y-75761904D01*
X214214285Y-74904761D02*
X213690476Y-74904761D01*
X213690476Y-75238095D01*
X213595238Y-75380952D02*
X213595238Y-75952380D01*
X213500000Y-74904761D02*
X213500000Y-75238095D01*
X213928571Y-75380952D02*
X213261904Y-75380952D01*
X213261904Y-75761904D01*
X213500000Y-74904761D02*
X212976190Y-74904761D01*
X212976190Y-75952380D01*
D11*
G36*
X234160159Y-70497725D02*
G01*
X228419760Y-80440389D01*
X218323116Y-74611089D01*
X224063516Y-64668425D01*
X234160159Y-70497725D01*
G37*
X234160159Y-70497725D02*
X228419760Y-80440389D01*
X218323116Y-74611089D01*
X224063516Y-64668425D01*
X234160159Y-70497725D01*
%TO.C,G\u002A\u002A\u002A*%
G36*
X211562611Y-74302680D02*
G01*
X211542427Y-74469240D01*
X211513913Y-74636948D01*
X211475834Y-74816295D01*
X211426952Y-75017770D01*
X211407911Y-75091647D01*
X211349087Y-75301286D01*
X211286369Y-75493433D01*
X211214853Y-75681276D01*
X211129639Y-75877999D01*
X211025825Y-76096789D01*
X210851419Y-76424086D01*
X210597620Y-76822499D01*
X210312266Y-77194782D01*
X209997398Y-77539514D01*
X209655055Y-77855275D01*
X209287279Y-78140644D01*
X208896110Y-78394201D01*
X208483589Y-78614525D01*
X208051756Y-78800197D01*
X207602652Y-78949795D01*
X207138317Y-79061901D01*
X206660792Y-79135092D01*
X206597596Y-79140642D01*
X206461418Y-79147187D01*
X206298486Y-79150166D01*
X206118550Y-79149792D01*
X205931357Y-79146282D01*
X205746656Y-79139849D01*
X205574197Y-79130711D01*
X205423727Y-79119081D01*
X205304995Y-79105174D01*
X205162478Y-79080839D01*
X204967453Y-79040773D01*
X204761955Y-78992466D01*
X204559123Y-78939220D01*
X204372093Y-78884334D01*
X204214003Y-78831109D01*
X204163356Y-78811891D01*
X203987807Y-78738706D01*
X203794995Y-78650132D01*
X203596397Y-78551971D01*
X203403487Y-78450026D01*
X203227744Y-78350101D01*
X203080642Y-78257998D01*
X203054507Y-78240419D01*
X202658825Y-77948282D01*
X202294936Y-77628907D01*
X201963624Y-77283183D01*
X201665674Y-76911996D01*
X201401868Y-76516236D01*
X201172990Y-76096789D01*
X201137011Y-76022666D01*
X201039761Y-75812471D01*
X200959523Y-75620069D01*
X200891395Y-75432276D01*
X200830476Y-75235904D01*
X200771863Y-75017770D01*
X200756041Y-74954607D01*
X200712565Y-74770059D01*
X202274899Y-74770059D01*
X202280812Y-74813686D01*
X202296604Y-74851498D01*
X202325204Y-74884469D01*
X202369540Y-74913572D01*
X202432539Y-74939781D01*
X202517129Y-74964070D01*
X202626237Y-74987414D01*
X202762792Y-75010784D01*
X202929720Y-75035157D01*
X203129950Y-75061504D01*
X203366410Y-75090801D01*
X203642026Y-75124021D01*
X203674692Y-75128005D01*
X203783135Y-75142211D01*
X203876718Y-75155913D01*
X203946357Y-75167718D01*
X203982970Y-75176237D01*
X203999783Y-75184900D01*
X204015275Y-75204619D01*
X204025821Y-75241693D01*
X204033555Y-75304451D01*
X204040610Y-75401224D01*
X204047165Y-75505164D01*
X204063456Y-75776593D01*
X204076151Y-76011891D01*
X204085413Y-76215555D01*
X204091403Y-76392084D01*
X204094285Y-76545975D01*
X204094221Y-76681725D01*
X204091375Y-76803833D01*
X204088171Y-76895523D01*
X204085515Y-76993928D01*
X204085722Y-77062310D01*
X204089534Y-77107881D01*
X204097691Y-77137854D01*
X204110934Y-77159441D01*
X204130004Y-77179854D01*
X204130221Y-77180071D01*
X204181798Y-77215447D01*
X204235187Y-77230151D01*
X204236337Y-77230137D01*
X204283195Y-77216059D01*
X204334947Y-77183229D01*
X204376828Y-77143087D01*
X204394070Y-77107072D01*
X204394359Y-77105241D01*
X204416442Y-77086770D01*
X204462919Y-77068741D01*
X204512968Y-77045220D01*
X204563544Y-76983012D01*
X204564481Y-76981060D01*
X204585207Y-76945361D01*
X204612203Y-76924125D01*
X204657472Y-76911620D01*
X204733019Y-76902118D01*
X204801055Y-76892212D01*
X204872122Y-76875673D01*
X204917636Y-76857677D01*
X204962736Y-76834107D01*
X205011518Y-76830763D01*
X205052708Y-76863077D01*
X205093420Y-76934143D01*
X205125375Y-76990482D01*
X205179712Y-77044905D01*
X205237375Y-77061298D01*
X205295475Y-77041826D01*
X205351125Y-76988654D01*
X205401436Y-76903947D01*
X205443518Y-76789868D01*
X205474485Y-76648583D01*
X205477637Y-76626983D01*
X205484253Y-76556479D01*
X205486045Y-76475186D01*
X205482652Y-76377939D01*
X205473712Y-76259569D01*
X205458864Y-76114911D01*
X205437748Y-75938798D01*
X205410001Y-75726064D01*
X205403006Y-75673803D01*
X205387084Y-75552856D01*
X205376704Y-75466381D01*
X205371799Y-75408827D01*
X205372305Y-75374642D01*
X205378154Y-75358277D01*
X205389281Y-75354180D01*
X205405621Y-75356800D01*
X205407308Y-75357168D01*
X205532467Y-75383436D01*
X205669427Y-75410483D01*
X205811518Y-75437172D01*
X205952073Y-75462364D01*
X206084424Y-75484924D01*
X206201902Y-75503714D01*
X206297841Y-75517597D01*
X206365571Y-75525436D01*
X206398425Y-75526094D01*
X206436586Y-75505268D01*
X206471177Y-75458515D01*
X206472256Y-75455726D01*
X206496142Y-75419015D01*
X206528684Y-75418540D01*
X206543967Y-75424383D01*
X206629668Y-75445937D01*
X206693348Y-75437081D01*
X206742232Y-75397087D01*
X206745731Y-75392557D01*
X206775626Y-75345707D01*
X206787898Y-75311109D01*
X206777131Y-75257806D01*
X206734031Y-75193861D01*
X206668558Y-75153154D01*
X206632917Y-75140381D01*
X206593960Y-75116149D01*
X206588464Y-75082188D01*
X206611104Y-75026786D01*
X206611135Y-75026723D01*
X206632287Y-74977141D01*
X206631589Y-74941068D01*
X206608603Y-74895477D01*
X206605805Y-74890729D01*
X206584626Y-74848588D01*
X206587641Y-74820316D01*
X206616262Y-74785662D01*
X206620240Y-74781224D01*
X206652837Y-74716476D01*
X206657474Y-74642614D01*
X206632645Y-74578650D01*
X206624013Y-74570192D01*
X206570544Y-74542285D01*
X206476144Y-74510391D01*
X206341727Y-74474736D01*
X206168205Y-74435550D01*
X205956491Y-74393060D01*
X205707497Y-74347494D01*
X205614273Y-74330896D01*
X205482726Y-74306746D01*
X205369200Y-74285031D01*
X205279632Y-74266925D01*
X205219957Y-74253605D01*
X205196110Y-74246244D01*
X205192897Y-74240052D01*
X205180835Y-74200276D01*
X205163869Y-74132109D01*
X205143809Y-74044260D01*
X205122465Y-73945436D01*
X205101651Y-73844344D01*
X205083176Y-73749691D01*
X205068853Y-73670186D01*
X205060492Y-73614537D01*
X205059905Y-73591449D01*
X205074540Y-73591131D01*
X205126167Y-73595854D01*
X205209398Y-73605654D01*
X205318468Y-73619805D01*
X205447613Y-73637582D01*
X205591069Y-73658260D01*
X205717424Y-73676704D01*
X205862730Y-73696917D01*
X205974555Y-73710288D01*
X206057792Y-73716657D01*
X206117337Y-73715866D01*
X206158085Y-73707755D01*
X206184930Y-73692164D01*
X206202767Y-73668935D01*
X206216491Y-73637908D01*
X206225377Y-73583881D01*
X206205026Y-73513657D01*
X206153383Y-73454639D01*
X206076566Y-73416509D01*
X206024465Y-73397130D01*
X205979864Y-73364890D01*
X205969114Y-73330857D01*
X205995983Y-73300459D01*
X206033663Y-73273232D01*
X206079287Y-73231610D01*
X206126416Y-73198933D01*
X206182023Y-73183945D01*
X206239958Y-73175512D01*
X206301624Y-73140021D01*
X206336461Y-73085168D01*
X206339545Y-73020088D01*
X206305955Y-72953918D01*
X206276210Y-72932239D01*
X206205873Y-72902567D01*
X206097322Y-72869099D01*
X205949781Y-72831638D01*
X205762472Y-72789992D01*
X205534618Y-72743965D01*
X205265442Y-72693363D01*
X204770426Y-72603001D01*
X204741702Y-72538636D01*
X204722365Y-72495029D01*
X204690277Y-72422362D01*
X204650065Y-72331122D01*
X204606216Y-72231480D01*
X204533483Y-72070885D01*
X204466613Y-71936103D01*
X204407541Y-71834216D01*
X204353436Y-71761451D01*
X204301468Y-71714033D01*
X204248806Y-71688190D01*
X204192618Y-71680148D01*
X204163137Y-71672464D01*
X204125121Y-71639942D01*
X204110647Y-71624803D01*
X204074544Y-71602409D01*
X205099055Y-71602409D01*
X205101672Y-71639683D01*
X205109102Y-71665872D01*
X205121163Y-71687677D01*
X205164747Y-71728410D01*
X205224526Y-71754941D01*
X205285311Y-71773888D01*
X205339675Y-71800223D01*
X205346568Y-71804382D01*
X205388030Y-71818144D01*
X205450240Y-71821741D01*
X205543570Y-71815975D01*
X205605666Y-71810563D01*
X205661639Y-71808075D01*
X205692138Y-71813444D01*
X205706850Y-71828983D01*
X205715463Y-71857004D01*
X205738056Y-71902520D01*
X205781984Y-71946835D01*
X205816480Y-71963958D01*
X205902186Y-71985244D01*
X206001656Y-71992436D01*
X206097661Y-71984871D01*
X206172969Y-71961885D01*
X206182703Y-71956611D01*
X206218982Y-71931368D01*
X206247214Y-71898126D01*
X206268245Y-71851984D01*
X206282926Y-71788039D01*
X206292104Y-71701387D01*
X206296627Y-71587128D01*
X206297345Y-71440357D01*
X206295106Y-71256172D01*
X206294583Y-71225575D01*
X206294152Y-71204150D01*
X206978557Y-71204150D01*
X206978559Y-71204531D01*
X206994236Y-71252979D01*
X207039168Y-71326385D01*
X207111242Y-71421289D01*
X207126642Y-71440357D01*
X207145704Y-71463960D01*
X207316758Y-71683121D01*
X207491598Y-71918341D01*
X207665650Y-72162811D01*
X207834340Y-72409724D01*
X207993094Y-72652273D01*
X208137339Y-72883652D01*
X208262499Y-73097053D01*
X208364002Y-73285669D01*
X208392776Y-73344168D01*
X208405401Y-73378734D01*
X208400454Y-73392997D01*
X208379151Y-73395789D01*
X208348085Y-73383931D01*
X208318153Y-73337532D01*
X208310683Y-73320522D01*
X208274518Y-73264469D01*
X208226047Y-73208583D01*
X208210823Y-73193833D01*
X208166031Y-73158102D01*
X208123808Y-73145798D01*
X208064745Y-73149853D01*
X208063392Y-73150034D01*
X208004897Y-73154399D01*
X207972377Y-73144138D01*
X207950880Y-73114624D01*
X207910249Y-73050693D01*
X207846573Y-72992514D01*
X207778475Y-72972102D01*
X207715514Y-72979367D01*
X207655760Y-73013760D01*
X207624717Y-73077848D01*
X207617274Y-73105073D01*
X207593978Y-73134646D01*
X207546012Y-73141577D01*
X207545049Y-73141578D01*
X207469291Y-73149316D01*
X207393344Y-73168918D01*
X207331372Y-73195641D01*
X207297539Y-73224746D01*
X207294835Y-73232080D01*
X207287307Y-73278678D01*
X207282059Y-73351462D01*
X207280094Y-73438157D01*
X207281128Y-73500227D01*
X207287398Y-73581101D01*
X207301466Y-73662958D01*
X207325732Y-73758681D01*
X207362594Y-73881150D01*
X207390859Y-73973357D01*
X207489940Y-74331988D01*
X207576424Y-74701457D01*
X207644799Y-75058758D01*
X207645098Y-75060546D01*
X207663180Y-75173838D01*
X207683873Y-75311109D01*
X207684947Y-75318232D01*
X207709291Y-75485617D01*
X207735099Y-75667882D01*
X207761262Y-75856916D01*
X207786668Y-76044608D01*
X207810209Y-76222847D01*
X207830772Y-76383522D01*
X207847247Y-76518523D01*
X207858525Y-76619739D01*
X207872942Y-76761370D01*
X207971246Y-76786779D01*
X207987855Y-76791370D01*
X208062197Y-76825017D01*
X208112198Y-76878175D01*
X208120662Y-76890656D01*
X208166320Y-76933933D01*
X208228712Y-76949359D01*
X208297203Y-76946397D01*
X208354705Y-76917840D01*
X208385353Y-76859696D01*
X208405361Y-76820424D01*
X208449538Y-76806464D01*
X208485916Y-76803984D01*
X208533872Y-76793606D01*
X208554282Y-76790735D01*
X208567381Y-76813589D01*
X208567384Y-76814220D01*
X208586542Y-76860123D01*
X208636534Y-76892057D01*
X208707607Y-76907838D01*
X208790009Y-76905284D01*
X208873986Y-76882212D01*
X208892534Y-76873527D01*
X208926439Y-76849102D01*
X208951841Y-76813089D01*
X208969674Y-76760373D01*
X208980873Y-76685842D01*
X208986372Y-76584382D01*
X208987107Y-76450880D01*
X208984010Y-76280221D01*
X208983411Y-76258371D01*
X208970483Y-76020321D01*
X208945803Y-75751133D01*
X208910656Y-75459109D01*
X208866327Y-75152550D01*
X208814102Y-74839756D01*
X208755264Y-74529027D01*
X208691098Y-74228666D01*
X208622889Y-73946973D01*
X208613914Y-73911982D01*
X208589384Y-73812443D01*
X208570761Y-73730893D01*
X208559731Y-73674978D01*
X208557977Y-73652343D01*
X208568823Y-73660686D01*
X208594364Y-73703534D01*
X208632036Y-73778130D01*
X208680070Y-73880301D01*
X208736698Y-74005871D01*
X208800150Y-74150667D01*
X208868656Y-74310513D01*
X208940448Y-74481236D01*
X209013756Y-74658659D01*
X209086811Y-74838610D01*
X209157844Y-75016914D01*
X209225086Y-75189395D01*
X209286767Y-75351880D01*
X209341118Y-75500194D01*
X209370130Y-75574447D01*
X209410635Y-75649297D01*
X209453342Y-75688218D01*
X209502892Y-75694804D01*
X209563927Y-75672646D01*
X209595612Y-75652106D01*
X209631918Y-75602074D01*
X209642230Y-75529839D01*
X209628367Y-75428508D01*
X209626466Y-75419617D01*
X209615900Y-75360095D01*
X209618428Y-75318045D01*
X209638190Y-75276367D01*
X209679323Y-75217960D01*
X209710328Y-75171617D01*
X209741594Y-75112743D01*
X209753703Y-75071808D01*
X209754111Y-75062076D01*
X209768916Y-75034353D01*
X209813207Y-75026981D01*
X209861591Y-75022369D01*
X209915465Y-74994761D01*
X209948449Y-74937433D01*
X209965130Y-74844886D01*
X209972197Y-74780159D01*
X209983391Y-74739050D01*
X210004352Y-74718034D01*
X210041444Y-74705488D01*
X210105305Y-74669193D01*
X210143511Y-74599598D01*
X210156205Y-74496376D01*
X210156209Y-74492924D01*
X210159609Y-74440385D01*
X210174320Y-74417590D01*
X210207652Y-74412636D01*
X210245044Y-74406105D01*
X210291557Y-74380179D01*
X210298899Y-74371254D01*
X210321149Y-74326458D01*
X210338369Y-74269701D01*
X210346284Y-74217779D01*
X210340617Y-74187485D01*
X210339238Y-74184912D01*
X210342460Y-74154016D01*
X210359285Y-74104353D01*
X210366699Y-74085756D01*
X210376116Y-74049333D01*
X210373918Y-74010806D01*
X210358396Y-73957903D01*
X210327845Y-73878349D01*
X210252795Y-73697432D01*
X210107320Y-73376685D01*
X209943458Y-73046237D01*
X209767919Y-72718892D01*
X209587415Y-72407455D01*
X209408658Y-72124729D01*
X209387773Y-72093508D01*
X209242263Y-71884479D01*
X209084954Y-71671486D01*
X208921367Y-71461292D01*
X208757018Y-71260662D01*
X208597427Y-71076358D01*
X208448112Y-70915144D01*
X208314591Y-70783785D01*
X208240057Y-70716300D01*
X208173509Y-70660865D01*
X208120692Y-70625022D01*
X208073007Y-70603057D01*
X208021852Y-70589255D01*
X207996329Y-70584940D01*
X207959314Y-70588112D01*
X207923538Y-70611339D01*
X207875383Y-70661321D01*
X207825879Y-70710968D01*
X207778551Y-70739897D01*
X207727055Y-70747749D01*
X207715799Y-70748062D01*
X207668350Y-70758921D01*
X207617986Y-70790151D01*
X207553270Y-70848374D01*
X207501179Y-70901805D01*
X207460421Y-70948613D01*
X207441682Y-70976802D01*
X207438866Y-70983712D01*
X207418358Y-70994085D01*
X207373066Y-70981764D01*
X207347913Y-70973653D01*
X207301097Y-70973222D01*
X207246401Y-70998906D01*
X207244468Y-71000057D01*
X207180910Y-71031720D01*
X207121012Y-71052739D01*
X207049235Y-71085419D01*
X206997981Y-71139680D01*
X206978557Y-71204150D01*
X206294152Y-71204150D01*
X206291525Y-71073685D01*
X206287896Y-70956086D01*
X206283072Y-70865903D01*
X206276431Y-70796261D01*
X206267347Y-70740284D01*
X206255197Y-70691098D01*
X206239358Y-70641827D01*
X206212359Y-70570287D01*
X206185987Y-70511388D01*
X206166695Y-70479944D01*
X206157862Y-70473399D01*
X206114186Y-70449190D01*
X206046329Y-70416316D01*
X205964732Y-70379950D01*
X205890219Y-70348619D01*
X205829981Y-70326363D01*
X205789549Y-70317998D01*
X205758762Y-70321609D01*
X205727461Y-70335286D01*
X205708332Y-70344833D01*
X205652533Y-70363575D01*
X205611474Y-70353402D01*
X205570476Y-70312149D01*
X205536677Y-70281325D01*
X205465654Y-70250901D01*
X205383998Y-70242380D01*
X205303915Y-70254873D01*
X205237611Y-70287490D01*
X205197292Y-70339342D01*
X205189942Y-70378054D01*
X205183697Y-70449771D01*
X205179482Y-70543390D01*
X205177949Y-70648502D01*
X205177351Y-70695399D01*
X205172020Y-70823591D01*
X205162051Y-70972181D01*
X205148527Y-71126312D01*
X205132532Y-71271128D01*
X205121915Y-71357055D01*
X205114610Y-71419668D01*
X205108994Y-71467797D01*
X205101435Y-71547347D01*
X205099055Y-71602409D01*
X204074544Y-71602409D01*
X204060344Y-71593601D01*
X203992342Y-71563400D01*
X203922001Y-71540592D01*
X203864682Y-71531568D01*
X203828449Y-71543291D01*
X203783773Y-71574712D01*
X203774549Y-71582986D01*
X203735045Y-71605134D01*
X203696434Y-71595896D01*
X203637901Y-71575973D01*
X203575635Y-71588402D01*
X203514927Y-71641346D01*
X203495255Y-71666390D01*
X203469815Y-71718052D01*
X203470789Y-71771673D01*
X203471334Y-71774462D01*
X203471635Y-71827787D01*
X203443476Y-71862536D01*
X203415360Y-71889597D01*
X203396789Y-71935949D01*
X203396879Y-72001838D01*
X203415807Y-72093341D01*
X203453749Y-72216538D01*
X203476482Y-72284927D01*
X203501823Y-72363727D01*
X203519116Y-72420712D01*
X203525512Y-72446750D01*
X203508688Y-72452061D01*
X203457459Y-72454761D01*
X203380075Y-72454155D01*
X203284918Y-72450124D01*
X203215765Y-72446567D01*
X203101465Y-72443845D01*
X203020073Y-72448198D01*
X202965463Y-72460681D01*
X202931506Y-72482347D01*
X202912075Y-72514252D01*
X202888507Y-72548185D01*
X202828749Y-72576551D01*
X202822062Y-72578005D01*
X202749029Y-72610910D01*
X202697593Y-72664812D01*
X202678140Y-72729187D01*
X202685681Y-72779254D01*
X202712564Y-72851651D01*
X202751805Y-72922287D01*
X202795863Y-72978047D01*
X202837197Y-73005815D01*
X202876154Y-73024428D01*
X202887615Y-73058555D01*
X202858206Y-73099208D01*
X202835089Y-73132646D01*
X202825729Y-73192962D01*
X202839226Y-73254435D01*
X202874095Y-73298430D01*
X202881376Y-73302628D01*
X202936006Y-73322126D01*
X203025809Y-73341580D01*
X203152579Y-73361277D01*
X203318112Y-73381503D01*
X203524204Y-73402548D01*
X203787699Y-73427565D01*
X203814690Y-73533487D01*
X203821100Y-73559923D01*
X203838125Y-73639507D01*
X203855875Y-73732911D01*
X203872864Y-73830903D01*
X203887603Y-73924253D01*
X203898605Y-74003729D01*
X203904381Y-74060100D01*
X203903444Y-74084135D01*
X203883359Y-74085094D01*
X203827410Y-74081876D01*
X203742575Y-74074795D01*
X203635709Y-74064428D01*
X203513667Y-74051352D01*
X203435163Y-74042790D01*
X203244108Y-74023779D01*
X203065383Y-74008505D01*
X202903937Y-73997239D01*
X202764721Y-73990252D01*
X202652683Y-73987813D01*
X202572775Y-73990192D01*
X202529945Y-73997661D01*
X202488917Y-74032897D01*
X202469427Y-74090665D01*
X202475113Y-74156247D01*
X202504678Y-74216968D01*
X202556823Y-74260156D01*
X202587877Y-74279142D01*
X202612569Y-74311854D01*
X202603735Y-74338240D01*
X202560945Y-74349083D01*
X202529190Y-74350720D01*
X202433554Y-74380219D01*
X202358824Y-74444959D01*
X202306999Y-74542647D01*
X202280077Y-74670995D01*
X202275939Y-74719642D01*
X202274899Y-74770059D01*
X200712565Y-74770059D01*
X200711073Y-74763725D01*
X200676290Y-74591877D01*
X200650498Y-74428846D01*
X200632506Y-74264418D01*
X200621120Y-74088377D01*
X200615147Y-73890507D01*
X200613395Y-73660593D01*
X200613609Y-73565708D01*
X200616471Y-73357869D01*
X200623588Y-73177882D01*
X200636126Y-73015485D01*
X200655251Y-72860417D01*
X200682130Y-72702416D01*
X200717926Y-72531222D01*
X200763807Y-72336573D01*
X200803135Y-72183613D01*
X200874213Y-71944295D01*
X200956284Y-71714003D01*
X201054521Y-71478711D01*
X201174098Y-71224396D01*
X201284301Y-71011994D01*
X201531716Y-70603016D01*
X201640107Y-70454776D01*
X201837879Y-70454776D01*
X201854177Y-70518735D01*
X201894752Y-70605324D01*
X201959192Y-70720872D01*
X201966243Y-70733219D01*
X202018186Y-70829235D01*
X202081198Y-70952360D01*
X202150279Y-71092483D01*
X202220432Y-71239492D01*
X202286658Y-71383278D01*
X202482507Y-71817557D01*
X202558841Y-71824114D01*
X202568772Y-71824827D01*
X202633316Y-71816941D01*
X202686731Y-71779115D01*
X202740569Y-71737135D01*
X202803542Y-71704811D01*
X202846907Y-71692130D01*
X202865386Y-71699699D01*
X202868799Y-71733921D01*
X202879149Y-71778142D01*
X202911167Y-71828149D01*
X202914675Y-71831518D01*
X202971778Y-71862130D01*
X203037782Y-71866695D01*
X203100337Y-71848612D01*
X203147094Y-71811281D01*
X203165703Y-71758099D01*
X203166040Y-71747134D01*
X203184072Y-71687405D01*
X203232994Y-71652972D01*
X203241899Y-71649206D01*
X203293222Y-71602482D01*
X203326215Y-71523745D01*
X203337880Y-71419668D01*
X203337792Y-71406087D01*
X203321022Y-71214160D01*
X203277431Y-71003844D01*
X203210208Y-70785618D01*
X203122542Y-70569958D01*
X203017620Y-70367340D01*
X203005022Y-70345933D01*
X202959082Y-70273658D01*
X202918749Y-70225907D01*
X202873203Y-70191817D01*
X202811626Y-70160526D01*
X202759846Y-70139865D01*
X202679279Y-70116878D01*
X202614142Y-70108400D01*
X202567541Y-70112775D01*
X202491740Y-70133780D01*
X202429889Y-70166497D01*
X202396194Y-70204654D01*
X202388864Y-70214049D01*
X202348232Y-70235472D01*
X202286520Y-70253513D01*
X202218544Y-70264434D01*
X202159124Y-70264494D01*
X202122476Y-70268707D01*
X202059241Y-70286682D01*
X201985632Y-70314510D01*
X201938761Y-70335408D01*
X201879759Y-70369440D01*
X201846269Y-70407120D01*
X201837879Y-70454776D01*
X201640107Y-70454776D01*
X201812474Y-70219039D01*
X202124797Y-69861848D01*
X202466909Y-69533224D01*
X202837031Y-69234951D01*
X203233386Y-68968813D01*
X203654195Y-68736592D01*
X204021262Y-68569254D01*
X204452061Y-68411253D01*
X204888104Y-68293202D01*
X205333510Y-68214208D01*
X205792396Y-68173379D01*
X206268882Y-68169821D01*
X206342056Y-68172326D01*
X206625355Y-68188631D01*
X206884742Y-68216070D01*
X207134426Y-68256862D01*
X207388613Y-68313227D01*
X207661512Y-68387384D01*
X208019946Y-68506101D01*
X208450019Y-68687543D01*
X208860958Y-68904495D01*
X209250812Y-69154829D01*
X209617629Y-69436417D01*
X209959457Y-69747132D01*
X210274344Y-70084847D01*
X210560340Y-70447434D01*
X210815493Y-70832767D01*
X211037850Y-71238719D01*
X211225461Y-71663161D01*
X211376374Y-72103966D01*
X211488637Y-72559008D01*
X211491964Y-72575698D01*
X211522238Y-72735213D01*
X211545427Y-72877055D01*
X211562402Y-73011225D01*
X211574036Y-73147723D01*
X211581200Y-73296549D01*
X211584767Y-73467703D01*
X211585608Y-73671185D01*
X211585542Y-73704981D01*
X211582932Y-73931041D01*
X211578561Y-74049333D01*
X211575700Y-74126777D01*
X211562611Y-74302680D01*
G37*
D12*
%TO.C,BT1*%
X200561606Y-62860669D02*
X200561606Y-57360669D01*
X205361606Y-62860669D02*
X200561606Y-62860669D01*
X220061606Y-70960669D02*
X212161606Y-70960669D01*
X200561606Y-57360669D02*
X205361606Y-57360669D01*
X212161606Y-70960669D02*
X205361606Y-66160669D01*
X231661606Y-57360669D02*
X231661606Y-62860669D01*
X231661606Y-62860669D02*
X226861606Y-62860669D01*
X226661606Y-50610669D02*
X219961606Y-50610669D01*
X226861606Y-57360669D02*
X231661606Y-57360669D01*
X205561606Y-50610669D02*
X212261606Y-50610669D01*
X219957991Y-50609205D02*
G75*
G03*
X212261606Y-50610669I-3846385J-9501464D01*
G01*
%TD*%
M02*
