%TF.GenerationSoftware,KiCad,Pcbnew,(6.0.5-0)*%
%TF.CreationDate,2022-06-08T15:31:11+08:00*%
%TF.ProjectId,dtl,64746c2e-6b69-4636-9164-5f7063625858,rev?*%
%TF.SameCoordinates,Original*%
%TF.FileFunction,Legend,Top*%
%TF.FilePolarity,Positive*%
%FSLAX46Y46*%
G04 Gerber Fmt 4.6, Leading zero omitted, Abs format (unit mm)*
G04 Created by KiCad (PCBNEW (6.0.5-0)) date 2022-06-08 15:31:11*
%MOMM*%
%LPD*%
G01*
G04 APERTURE LIST*
%ADD10C,0.150000*%
%ADD11C,0.529166*%
%ADD12C,0.200000*%
%ADD13C,0.120000*%
%ADD14C,1.000000*%
G04 APERTURE END LIST*
D10*
G36*
X226640248Y-63504361D02*
G01*
X224494675Y-62265614D01*
X224501588Y-62253641D01*
X224539398Y-62253641D01*
X226628254Y-63459643D01*
X228461819Y-60283816D01*
X226372963Y-59077813D01*
X224539398Y-62253641D01*
X224501588Y-62253641D01*
X226360976Y-59033084D01*
X226389335Y-59049456D01*
X228506550Y-60271829D01*
X226640248Y-63504361D01*
G37*
X226640248Y-63504361D02*
X224494675Y-62265614D01*
X224501588Y-62253641D01*
X224539398Y-62253641D01*
X226628254Y-63459643D01*
X228461819Y-60283816D01*
X226372963Y-59077813D01*
X224539398Y-62253641D01*
X224501588Y-62253641D01*
X226360976Y-59033084D01*
X226389335Y-59049456D01*
X228506550Y-60271829D01*
X226640248Y-63504361D01*
G36*
X226807592Y-59863531D02*
G01*
X226839759Y-59864598D01*
X226869840Y-59866328D01*
X226896100Y-59868644D01*
X226907256Y-59869998D01*
X226916806Y-59871469D01*
X226924535Y-59873048D01*
X226930224Y-59874726D01*
X226932254Y-59875398D01*
X226934480Y-59876058D01*
X226939435Y-59877329D01*
X226944907Y-59878509D01*
X226950719Y-59879573D01*
X226956690Y-59880487D01*
X226962642Y-59881232D01*
X226968397Y-59881774D01*
X226973773Y-59882090D01*
X226984106Y-59882896D01*
X226996496Y-59884910D01*
X227010722Y-59888045D01*
X227026565Y-59892219D01*
X227043804Y-59897344D01*
X227062219Y-59903340D01*
X227081589Y-59910119D01*
X227101698Y-59917598D01*
X227143238Y-59934320D01*
X227185083Y-59952830D01*
X227205568Y-59962546D01*
X227225469Y-59972455D01*
X227244564Y-59982473D01*
X227262634Y-59992517D01*
X227288082Y-60007565D01*
X227312918Y-60023113D01*
X227337118Y-60039138D01*
X227360660Y-60055623D01*
X227383517Y-60072541D01*
X227405666Y-60089874D01*
X227427082Y-60107600D01*
X227447741Y-60125698D01*
X227467619Y-60144147D01*
X227486691Y-60162926D01*
X227504933Y-60182009D01*
X227522321Y-60201382D01*
X227538830Y-60221020D01*
X227554437Y-60240901D01*
X227569117Y-60261005D01*
X227582845Y-60281309D01*
X227599905Y-60309037D01*
X227617989Y-60340934D01*
X227636073Y-60374905D01*
X227653137Y-60408858D01*
X227668162Y-60440694D01*
X227680127Y-60468324D01*
X227684642Y-60479904D01*
X227688009Y-60489648D01*
X227690102Y-60497293D01*
X227690790Y-60502577D01*
X227690800Y-60504518D01*
X227690889Y-60506467D01*
X227691054Y-60508419D01*
X227691290Y-60510355D01*
X227691593Y-60512263D01*
X227691961Y-60514131D01*
X227692390Y-60515946D01*
X227692872Y-60517695D01*
X227693409Y-60519367D01*
X227693990Y-60520948D01*
X227694619Y-60522422D01*
X227695287Y-60523783D01*
X227695993Y-60525013D01*
X227696729Y-60526102D01*
X227697497Y-60527034D01*
X227697889Y-60527439D01*
X227698286Y-60527800D01*
X227698638Y-60528124D01*
X227698972Y-60528463D01*
X227699288Y-60528820D01*
X227699586Y-60529188D01*
X227699866Y-60529569D01*
X227700126Y-60529964D01*
X227700369Y-60530370D01*
X227700591Y-60530782D01*
X227700792Y-60531204D01*
X227700974Y-60531635D01*
X227701135Y-60532071D01*
X227701274Y-60532512D01*
X227701391Y-60532957D01*
X227701486Y-60533404D01*
X227701558Y-60533853D01*
X227701608Y-60534304D01*
X227701633Y-60534754D01*
X227701637Y-60535200D01*
X227701614Y-60535645D01*
X227701568Y-60536087D01*
X227701498Y-60536522D01*
X227701401Y-60536952D01*
X227701279Y-60537373D01*
X227701131Y-60537788D01*
X227700956Y-60538191D01*
X227700752Y-60538586D01*
X227700524Y-60538966D01*
X227700267Y-60539334D01*
X227699981Y-60539691D01*
X227699667Y-60540029D01*
X227699323Y-60540352D01*
X227698949Y-60540659D01*
X227698575Y-60540969D01*
X227698239Y-60541276D01*
X227697946Y-60541582D01*
X227697691Y-60541881D01*
X227697477Y-60542177D01*
X227697300Y-60542467D01*
X227697160Y-60542752D01*
X227697057Y-60543031D01*
X227696990Y-60543303D01*
X227696958Y-60543570D01*
X227696961Y-60543828D01*
X227696996Y-60544078D01*
X227697065Y-60544320D01*
X227697165Y-60544554D01*
X227697295Y-60544779D01*
X227697458Y-60544993D01*
X227697649Y-60545198D01*
X227697869Y-60545394D01*
X227698116Y-60545578D01*
X227698391Y-60545750D01*
X227698692Y-60545909D01*
X227699019Y-60546058D01*
X227699370Y-60546194D01*
X227699745Y-60546315D01*
X227700142Y-60546425D01*
X227700564Y-60546518D01*
X227701006Y-60546598D01*
X227701468Y-60546664D01*
X227701953Y-60546714D01*
X227702454Y-60546745D01*
X227702973Y-60546763D01*
X227703513Y-60546763D01*
X227704769Y-60547148D01*
X227706151Y-60548403D01*
X227707647Y-60550478D01*
X227709242Y-60553317D01*
X227712685Y-60561062D01*
X227716379Y-60571202D01*
X227720223Y-60583294D01*
X227724117Y-60596901D01*
X227727960Y-60611583D01*
X227731653Y-60626896D01*
X227735091Y-60642407D01*
X227738177Y-60657672D01*
X227740810Y-60672251D01*
X227742889Y-60685709D01*
X227744314Y-60697599D01*
X227744981Y-60707487D01*
X227745003Y-60711541D01*
X227744796Y-60714930D01*
X227744349Y-60717598D01*
X227743651Y-60719490D01*
X227743390Y-60720015D01*
X227743150Y-60720610D01*
X227742939Y-60721272D01*
X227742750Y-60721997D01*
X227742443Y-60723631D01*
X227742227Y-60725491D01*
X227742100Y-60727560D01*
X227742057Y-60729814D01*
X227742095Y-60732240D01*
X227742213Y-60734810D01*
X227742406Y-60737510D01*
X227742669Y-60740320D01*
X227743001Y-60743217D01*
X227743398Y-60746187D01*
X227743859Y-60749203D01*
X227744376Y-60752253D01*
X227744951Y-60755310D01*
X227745576Y-60758361D01*
X227747439Y-60768169D01*
X227748898Y-60779341D01*
X227749958Y-60791781D01*
X227750626Y-60805390D01*
X227750905Y-60820075D01*
X227750802Y-60835741D01*
X227750324Y-60852287D01*
X227749472Y-60869621D01*
X227748256Y-60887644D01*
X227746679Y-60906263D01*
X227744747Y-60925381D01*
X227742466Y-60944900D01*
X227739838Y-60964727D01*
X227736875Y-60984762D01*
X227733576Y-61004912D01*
X227729950Y-61025080D01*
X227718646Y-61075374D01*
X227703712Y-61125792D01*
X227685365Y-61176048D01*
X227663819Y-61225856D01*
X227639291Y-61274926D01*
X227611995Y-61322974D01*
X227582147Y-61369714D01*
X227549961Y-61414858D01*
X227515654Y-61458120D01*
X227479441Y-61499211D01*
X227441537Y-61537848D01*
X227402159Y-61573744D01*
X227361518Y-61606611D01*
X227319836Y-61636160D01*
X227277322Y-61662108D01*
X227234196Y-61684169D01*
X227200000Y-61700000D01*
X227191612Y-61791921D01*
X227188361Y-61824678D01*
X227184679Y-61855791D01*
X227180500Y-61885449D01*
X227175768Y-61913839D01*
X227170421Y-61941158D01*
X227164398Y-61967587D01*
X227157641Y-61993324D01*
X227150086Y-62018551D01*
X227141676Y-62043464D01*
X227132348Y-62068249D01*
X227122044Y-62093098D01*
X227110700Y-62118200D01*
X227098261Y-62143743D01*
X227084662Y-62169918D01*
X227069844Y-62196915D01*
X227053747Y-62224924D01*
X227026028Y-62269302D01*
X226996234Y-62311611D01*
X226964473Y-62351825D01*
X226930847Y-62389927D01*
X226895466Y-62425893D01*
X226858431Y-62459701D01*
X226819849Y-62491332D01*
X226779826Y-62520763D01*
X226738466Y-62547970D01*
X226695876Y-62572935D01*
X226652161Y-62595635D01*
X226607424Y-62616047D01*
X226561775Y-62634151D01*
X226515313Y-62649925D01*
X226468150Y-62663345D01*
X226420385Y-62674392D01*
X226372130Y-62683044D01*
X226323486Y-62689279D01*
X226274558Y-62693074D01*
X226225456Y-62694410D01*
X226176280Y-62693263D01*
X226127137Y-62689613D01*
X226078133Y-62683435D01*
X226029374Y-62674712D01*
X225980963Y-62663420D01*
X225933009Y-62649535D01*
X225885613Y-62633041D01*
X225838884Y-62613912D01*
X225792928Y-62592125D01*
X225747847Y-62567663D01*
X225703747Y-62540501D01*
X225660734Y-62510617D01*
X225611069Y-62471633D01*
X225564505Y-62430151D01*
X225521090Y-62386278D01*
X225480873Y-62340116D01*
X225443902Y-62291773D01*
X225410223Y-62241351D01*
X225379885Y-62188956D01*
X225352937Y-62134693D01*
X225329425Y-62078667D01*
X225309399Y-62020981D01*
X225292905Y-61961743D01*
X225279989Y-61901059D01*
X225270706Y-61839028D01*
X225265095Y-61775760D01*
X225263209Y-61711357D01*
X225265095Y-61645928D01*
X225266298Y-61629594D01*
X225268064Y-61612621D01*
X225270375Y-61595071D01*
X225273213Y-61577010D01*
X225276564Y-61558503D01*
X225280407Y-61539615D01*
X225284729Y-61520415D01*
X225289510Y-61500964D01*
X225300386Y-61461578D01*
X225312893Y-61421981D01*
X225319720Y-61402267D01*
X225326903Y-61382696D01*
X225334428Y-61363336D01*
X225342275Y-61344249D01*
X225356220Y-61311825D01*
X225368464Y-61284706D01*
X225379869Y-61261404D01*
X225385525Y-61250719D01*
X225391293Y-61240427D01*
X225397282Y-61230343D01*
X225403596Y-61220282D01*
X225417642Y-61199481D01*
X225434284Y-61176530D01*
X225454390Y-61149939D01*
X225454586Y-61149630D01*
X225471252Y-61128606D01*
X225489017Y-61107562D01*
X225507744Y-61086611D01*
X225527303Y-61065872D01*
X225547555Y-61045454D01*
X225568369Y-61025474D01*
X225589608Y-61006046D01*
X225611140Y-60987285D01*
X225632829Y-60969302D01*
X225654538Y-60952215D01*
X225676135Y-60936134D01*
X225697486Y-60921178D01*
X225718456Y-60907460D01*
X225738910Y-60895092D01*
X225758713Y-60884191D01*
X225777730Y-60874870D01*
X225815547Y-60857555D01*
X225820775Y-60777092D01*
X225825152Y-60728186D01*
X225831871Y-60679777D01*
X225840884Y-60631962D01*
X225852148Y-60584836D01*
X225865613Y-60538493D01*
X225881234Y-60493034D01*
X225898967Y-60448548D01*
X225918760Y-60405137D01*
X225940571Y-60362891D01*
X225964351Y-60321911D01*
X225990055Y-60282289D01*
X226017636Y-60244121D01*
X226047049Y-60207506D01*
X226078245Y-60172535D01*
X226111180Y-60139308D01*
X226145806Y-60107920D01*
X226173609Y-60085080D01*
X226205458Y-60060628D01*
X226239325Y-60035944D01*
X226273183Y-60012400D01*
X226305003Y-59991374D01*
X226332757Y-59974243D01*
X226354414Y-59962384D01*
X226362323Y-59958859D01*
X226367946Y-59957170D01*
X226369153Y-59956936D01*
X226370888Y-59956468D01*
X226373123Y-59955781D01*
X226375822Y-59954886D01*
X226382495Y-59952529D01*
X226390645Y-59949504D01*
X226400019Y-59945909D01*
X226410365Y-59941858D01*
X226421422Y-59937451D01*
X226432937Y-59932798D01*
X226447140Y-59927288D01*
X226462725Y-59921728D01*
X226479504Y-59916164D01*
X226497276Y-59910643D01*
X226535000Y-59899922D01*
X226574323Y-59889944D01*
X226613657Y-59881092D01*
X226651423Y-59873743D01*
X226669223Y-59870753D01*
X226686039Y-59868281D01*
X226701669Y-59866375D01*
X226715920Y-59865081D01*
X226743940Y-59863695D01*
X226775075Y-59863206D01*
X226807592Y-59863531D01*
G37*
X226807592Y-59863531D02*
X226839759Y-59864598D01*
X226869840Y-59866328D01*
X226896100Y-59868644D01*
X226907256Y-59869998D01*
X226916806Y-59871469D01*
X226924535Y-59873048D01*
X226930224Y-59874726D01*
X226932254Y-59875398D01*
X226934480Y-59876058D01*
X226939435Y-59877329D01*
X226944907Y-59878509D01*
X226950719Y-59879573D01*
X226956690Y-59880487D01*
X226962642Y-59881232D01*
X226968397Y-59881774D01*
X226973773Y-59882090D01*
X226984106Y-59882896D01*
X226996496Y-59884910D01*
X227010722Y-59888045D01*
X227026565Y-59892219D01*
X227043804Y-59897344D01*
X227062219Y-59903340D01*
X227081589Y-59910119D01*
X227101698Y-59917598D01*
X227143238Y-59934320D01*
X227185083Y-59952830D01*
X227205568Y-59962546D01*
X227225469Y-59972455D01*
X227244564Y-59982473D01*
X227262634Y-59992517D01*
X227288082Y-60007565D01*
X227312918Y-60023113D01*
X227337118Y-60039138D01*
X227360660Y-60055623D01*
X227383517Y-60072541D01*
X227405666Y-60089874D01*
X227427082Y-60107600D01*
X227447741Y-60125698D01*
X227467619Y-60144147D01*
X227486691Y-60162926D01*
X227504933Y-60182009D01*
X227522321Y-60201382D01*
X227538830Y-60221020D01*
X227554437Y-60240901D01*
X227569117Y-60261005D01*
X227582845Y-60281309D01*
X227599905Y-60309037D01*
X227617989Y-60340934D01*
X227636073Y-60374905D01*
X227653137Y-60408858D01*
X227668162Y-60440694D01*
X227680127Y-60468324D01*
X227684642Y-60479904D01*
X227688009Y-60489648D01*
X227690102Y-60497293D01*
X227690790Y-60502577D01*
X227690800Y-60504518D01*
X227690889Y-60506467D01*
X227691054Y-60508419D01*
X227691290Y-60510355D01*
X227691593Y-60512263D01*
X227691961Y-60514131D01*
X227692390Y-60515946D01*
X227692872Y-60517695D01*
X227693409Y-60519367D01*
X227693990Y-60520948D01*
X227694619Y-60522422D01*
X227695287Y-60523783D01*
X227695993Y-60525013D01*
X227696729Y-60526102D01*
X227697497Y-60527034D01*
X227697889Y-60527439D01*
X227698286Y-60527800D01*
X227698638Y-60528124D01*
X227698972Y-60528463D01*
X227699288Y-60528820D01*
X227699586Y-60529188D01*
X227699866Y-60529569D01*
X227700126Y-60529964D01*
X227700369Y-60530370D01*
X227700591Y-60530782D01*
X227700792Y-60531204D01*
X227700974Y-60531635D01*
X227701135Y-60532071D01*
X227701274Y-60532512D01*
X227701391Y-60532957D01*
X227701486Y-60533404D01*
X227701558Y-60533853D01*
X227701608Y-60534304D01*
X227701633Y-60534754D01*
X227701637Y-60535200D01*
X227701614Y-60535645D01*
X227701568Y-60536087D01*
X227701498Y-60536522D01*
X227701401Y-60536952D01*
X227701279Y-60537373D01*
X227701131Y-60537788D01*
X227700956Y-60538191D01*
X227700752Y-60538586D01*
X227700524Y-60538966D01*
X227700267Y-60539334D01*
X227699981Y-60539691D01*
X227699667Y-60540029D01*
X227699323Y-60540352D01*
X227698949Y-60540659D01*
X227698575Y-60540969D01*
X227698239Y-60541276D01*
X227697946Y-60541582D01*
X227697691Y-60541881D01*
X227697477Y-60542177D01*
X227697300Y-60542467D01*
X227697160Y-60542752D01*
X227697057Y-60543031D01*
X227696990Y-60543303D01*
X227696958Y-60543570D01*
X227696961Y-60543828D01*
X227696996Y-60544078D01*
X227697065Y-60544320D01*
X227697165Y-60544554D01*
X227697295Y-60544779D01*
X227697458Y-60544993D01*
X227697649Y-60545198D01*
X227697869Y-60545394D01*
X227698116Y-60545578D01*
X227698391Y-60545750D01*
X227698692Y-60545909D01*
X227699019Y-60546058D01*
X227699370Y-60546194D01*
X227699745Y-60546315D01*
X227700142Y-60546425D01*
X227700564Y-60546518D01*
X227701006Y-60546598D01*
X227701468Y-60546664D01*
X227701953Y-60546714D01*
X227702454Y-60546745D01*
X227702973Y-60546763D01*
X227703513Y-60546763D01*
X227704769Y-60547148D01*
X227706151Y-60548403D01*
X227707647Y-60550478D01*
X227709242Y-60553317D01*
X227712685Y-60561062D01*
X227716379Y-60571202D01*
X227720223Y-60583294D01*
X227724117Y-60596901D01*
X227727960Y-60611583D01*
X227731653Y-60626896D01*
X227735091Y-60642407D01*
X227738177Y-60657672D01*
X227740810Y-60672251D01*
X227742889Y-60685709D01*
X227744314Y-60697599D01*
X227744981Y-60707487D01*
X227745003Y-60711541D01*
X227744796Y-60714930D01*
X227744349Y-60717598D01*
X227743651Y-60719490D01*
X227743390Y-60720015D01*
X227743150Y-60720610D01*
X227742939Y-60721272D01*
X227742750Y-60721997D01*
X227742443Y-60723631D01*
X227742227Y-60725491D01*
X227742100Y-60727560D01*
X227742057Y-60729814D01*
X227742095Y-60732240D01*
X227742213Y-60734810D01*
X227742406Y-60737510D01*
X227742669Y-60740320D01*
X227743001Y-60743217D01*
X227743398Y-60746187D01*
X227743859Y-60749203D01*
X227744376Y-60752253D01*
X227744951Y-60755310D01*
X227745576Y-60758361D01*
X227747439Y-60768169D01*
X227748898Y-60779341D01*
X227749958Y-60791781D01*
X227750626Y-60805390D01*
X227750905Y-60820075D01*
X227750802Y-60835741D01*
X227750324Y-60852287D01*
X227749472Y-60869621D01*
X227748256Y-60887644D01*
X227746679Y-60906263D01*
X227744747Y-60925381D01*
X227742466Y-60944900D01*
X227739838Y-60964727D01*
X227736875Y-60984762D01*
X227733576Y-61004912D01*
X227729950Y-61025080D01*
X227718646Y-61075374D01*
X227703712Y-61125792D01*
X227685365Y-61176048D01*
X227663819Y-61225856D01*
X227639291Y-61274926D01*
X227611995Y-61322974D01*
X227582147Y-61369714D01*
X227549961Y-61414858D01*
X227515654Y-61458120D01*
X227479441Y-61499211D01*
X227441537Y-61537848D01*
X227402159Y-61573744D01*
X227361518Y-61606611D01*
X227319836Y-61636160D01*
X227277322Y-61662108D01*
X227234196Y-61684169D01*
X227200000Y-61700000D01*
X227191612Y-61791921D01*
X227188361Y-61824678D01*
X227184679Y-61855791D01*
X227180500Y-61885449D01*
X227175768Y-61913839D01*
X227170421Y-61941158D01*
X227164398Y-61967587D01*
X227157641Y-61993324D01*
X227150086Y-62018551D01*
X227141676Y-62043464D01*
X227132348Y-62068249D01*
X227122044Y-62093098D01*
X227110700Y-62118200D01*
X227098261Y-62143743D01*
X227084662Y-62169918D01*
X227069844Y-62196915D01*
X227053747Y-62224924D01*
X227026028Y-62269302D01*
X226996234Y-62311611D01*
X226964473Y-62351825D01*
X226930847Y-62389927D01*
X226895466Y-62425893D01*
X226858431Y-62459701D01*
X226819849Y-62491332D01*
X226779826Y-62520763D01*
X226738466Y-62547970D01*
X226695876Y-62572935D01*
X226652161Y-62595635D01*
X226607424Y-62616047D01*
X226561775Y-62634151D01*
X226515313Y-62649925D01*
X226468150Y-62663345D01*
X226420385Y-62674392D01*
X226372130Y-62683044D01*
X226323486Y-62689279D01*
X226274558Y-62693074D01*
X226225456Y-62694410D01*
X226176280Y-62693263D01*
X226127137Y-62689613D01*
X226078133Y-62683435D01*
X226029374Y-62674712D01*
X225980963Y-62663420D01*
X225933009Y-62649535D01*
X225885613Y-62633041D01*
X225838884Y-62613912D01*
X225792928Y-62592125D01*
X225747847Y-62567663D01*
X225703747Y-62540501D01*
X225660734Y-62510617D01*
X225611069Y-62471633D01*
X225564505Y-62430151D01*
X225521090Y-62386278D01*
X225480873Y-62340116D01*
X225443902Y-62291773D01*
X225410223Y-62241351D01*
X225379885Y-62188956D01*
X225352937Y-62134693D01*
X225329425Y-62078667D01*
X225309399Y-62020981D01*
X225292905Y-61961743D01*
X225279989Y-61901059D01*
X225270706Y-61839028D01*
X225265095Y-61775760D01*
X225263209Y-61711357D01*
X225265095Y-61645928D01*
X225266298Y-61629594D01*
X225268064Y-61612621D01*
X225270375Y-61595071D01*
X225273213Y-61577010D01*
X225276564Y-61558503D01*
X225280407Y-61539615D01*
X225284729Y-61520415D01*
X225289510Y-61500964D01*
X225300386Y-61461578D01*
X225312893Y-61421981D01*
X225319720Y-61402267D01*
X225326903Y-61382696D01*
X225334428Y-61363336D01*
X225342275Y-61344249D01*
X225356220Y-61311825D01*
X225368464Y-61284706D01*
X225379869Y-61261404D01*
X225385525Y-61250719D01*
X225391293Y-61240427D01*
X225397282Y-61230343D01*
X225403596Y-61220282D01*
X225417642Y-61199481D01*
X225434284Y-61176530D01*
X225454390Y-61149939D01*
X225454586Y-61149630D01*
X225471252Y-61128606D01*
X225489017Y-61107562D01*
X225507744Y-61086611D01*
X225527303Y-61065872D01*
X225547555Y-61045454D01*
X225568369Y-61025474D01*
X225589608Y-61006046D01*
X225611140Y-60987285D01*
X225632829Y-60969302D01*
X225654538Y-60952215D01*
X225676135Y-60936134D01*
X225697486Y-60921178D01*
X225718456Y-60907460D01*
X225738910Y-60895092D01*
X225758713Y-60884191D01*
X225777730Y-60874870D01*
X225815547Y-60857555D01*
X225820775Y-60777092D01*
X225825152Y-60728186D01*
X225831871Y-60679777D01*
X225840884Y-60631962D01*
X225852148Y-60584836D01*
X225865613Y-60538493D01*
X225881234Y-60493034D01*
X225898967Y-60448548D01*
X225918760Y-60405137D01*
X225940571Y-60362891D01*
X225964351Y-60321911D01*
X225990055Y-60282289D01*
X226017636Y-60244121D01*
X226047049Y-60207506D01*
X226078245Y-60172535D01*
X226111180Y-60139308D01*
X226145806Y-60107920D01*
X226173609Y-60085080D01*
X226205458Y-60060628D01*
X226239325Y-60035944D01*
X226273183Y-60012400D01*
X226305003Y-59991374D01*
X226332757Y-59974243D01*
X226354414Y-59962384D01*
X226362323Y-59958859D01*
X226367946Y-59957170D01*
X226369153Y-59956936D01*
X226370888Y-59956468D01*
X226373123Y-59955781D01*
X226375822Y-59954886D01*
X226382495Y-59952529D01*
X226390645Y-59949504D01*
X226400019Y-59945909D01*
X226410365Y-59941858D01*
X226421422Y-59937451D01*
X226432937Y-59932798D01*
X226447140Y-59927288D01*
X226462725Y-59921728D01*
X226479504Y-59916164D01*
X226497276Y-59910643D01*
X226535000Y-59899922D01*
X226574323Y-59889944D01*
X226613657Y-59881092D01*
X226651423Y-59873743D01*
X226669223Y-59870753D01*
X226686039Y-59868281D01*
X226701669Y-59866375D01*
X226715920Y-59865081D01*
X226743940Y-59863695D01*
X226775075Y-59863206D01*
X226807592Y-59863531D01*
D11*
X216467484Y-62982218D02*
X210280815Y-66554093D01*
D12*
G36*
X211467861Y-57448008D02*
G01*
X210687129Y-57154073D01*
X210842678Y-57064267D01*
X212430178Y-57064267D01*
X212771562Y-57262328D01*
X213158457Y-57512290D01*
X213365283Y-57657990D01*
X213579062Y-57818172D01*
X213798318Y-57993340D01*
X214021576Y-58183994D01*
X214247361Y-58390639D01*
X214474197Y-58613774D01*
X214700610Y-58853905D01*
X214925125Y-59111532D01*
X215146264Y-59387160D01*
X215362556Y-59681288D01*
X215572523Y-59994420D01*
X215774691Y-60327057D01*
X215961256Y-60667532D01*
X216127284Y-61005105D01*
X216273918Y-61338748D01*
X216402303Y-61667432D01*
X216513578Y-61990131D01*
X216608888Y-62305814D01*
X216689376Y-62613457D01*
X216756181Y-62912030D01*
X216810451Y-63200505D01*
X216853324Y-63477854D01*
X216885945Y-63743050D01*
X216909457Y-63995065D01*
X216925000Y-64232871D01*
X216933719Y-64455439D01*
X216935254Y-64850753D01*
X219513032Y-63362472D01*
X219741160Y-63229556D01*
X220007287Y-63067012D01*
X220304780Y-62870751D01*
X220627006Y-62636688D01*
X220795320Y-62504203D01*
X220967330Y-62360735D01*
X221142206Y-62205772D01*
X221319119Y-62038804D01*
X221497241Y-61859320D01*
X221675740Y-61666810D01*
X221853790Y-61460762D01*
X222030559Y-61240665D01*
X222199106Y-61013655D01*
X222363135Y-60773111D01*
X222521734Y-60518645D01*
X222673985Y-60249870D01*
X222818973Y-59966396D01*
X222955783Y-59667837D01*
X223083500Y-59353803D01*
X223201208Y-59023906D01*
X223307993Y-58677760D01*
X223402938Y-58314976D01*
X223485127Y-57935164D01*
X223553647Y-57537938D01*
X223607582Y-57122910D01*
X223646015Y-56689691D01*
X223668033Y-56237894D01*
X223672718Y-55767130D01*
X223256359Y-55532159D01*
X222848232Y-55322360D01*
X222448457Y-55136693D01*
X222057148Y-54974116D01*
X221674425Y-54833590D01*
X221300403Y-54714073D01*
X220935203Y-54614526D01*
X220578939Y-54533907D01*
X220231730Y-54471176D01*
X219893694Y-54425291D01*
X219564946Y-54395213D01*
X219245606Y-54379900D01*
X218935790Y-54378313D01*
X218635616Y-54389410D01*
X218345202Y-54412151D01*
X218064664Y-54445495D01*
X217794121Y-54488401D01*
X217533689Y-54539830D01*
X217043629Y-54664090D01*
X216595425Y-54809948D01*
X216190015Y-54969082D01*
X215828341Y-55133164D01*
X215511339Y-55293870D01*
X215015116Y-55571852D01*
X212430178Y-57064267D01*
X210842678Y-57064267D01*
X214618241Y-54884445D01*
X215148776Y-54592347D01*
X215502044Y-54418655D01*
X215910986Y-54239382D01*
X216373356Y-54064165D01*
X216886911Y-53902636D01*
X217449407Y-53764434D01*
X218058597Y-53659191D01*
X218712238Y-53596546D01*
X219055027Y-53584207D01*
X219408086Y-53586131D01*
X219771135Y-53603521D01*
X220143895Y-53637583D01*
X220526084Y-53689521D01*
X220917422Y-53760538D01*
X221317627Y-53851840D01*
X221726420Y-53964630D01*
X222143521Y-54100114D01*
X222568647Y-54259496D01*
X223001520Y-54443979D01*
X223441858Y-54654770D01*
X223889380Y-54893071D01*
X224343807Y-55160088D01*
X224138151Y-55498412D01*
X224533976Y-55489471D01*
X224538239Y-56016646D01*
X224521515Y-56523819D01*
X224484931Y-57011296D01*
X224429608Y-57479385D01*
X224356673Y-57928392D01*
X224267250Y-58358628D01*
X224162463Y-58770396D01*
X224043437Y-59164005D01*
X223911296Y-59539764D01*
X223767165Y-59897978D01*
X223612168Y-60238955D01*
X223447430Y-60563003D01*
X223274075Y-60870429D01*
X223093229Y-61161540D01*
X222906014Y-61436643D01*
X222713557Y-61696048D01*
X222517006Y-61940165D01*
X222317579Y-62169470D01*
X222116501Y-62384369D01*
X221914996Y-62585261D01*
X221714293Y-62772549D01*
X221515615Y-62946635D01*
X221320189Y-63107923D01*
X221129241Y-63256813D01*
X220943995Y-63393707D01*
X220765677Y-63519008D01*
X220434730Y-63736439D01*
X220146206Y-63912324D01*
X219909907Y-64049879D01*
X215978795Y-66319508D01*
X216114606Y-65496407D01*
X216150585Y-65091053D01*
X216157990Y-64624514D01*
X216148088Y-64336991D01*
X216124942Y-64017759D01*
X216085421Y-63670164D01*
X216026393Y-63297554D01*
X215944730Y-62903274D01*
X215837299Y-62490669D01*
X215700969Y-62063087D01*
X215532612Y-61623873D01*
X215329093Y-61176372D01*
X215087284Y-60723932D01*
X214953961Y-60501597D01*
X214816364Y-60288300D01*
X214675050Y-60083910D01*
X214530577Y-59888298D01*
X214383503Y-59701334D01*
X214234385Y-59522888D01*
X214083783Y-59352831D01*
X213932253Y-59191032D01*
X213780353Y-59037362D01*
X213628643Y-58891692D01*
X213477678Y-58753891D01*
X213328017Y-58623829D01*
X213180219Y-58501377D01*
X213034841Y-58386406D01*
X212753576Y-58178382D01*
X212488686Y-57998720D01*
X212244634Y-57846383D01*
X212025883Y-57720331D01*
X211836897Y-57619526D01*
X211682138Y-57542930D01*
X211637054Y-57522177D01*
X211566071Y-57489503D01*
X211467861Y-57448008D01*
G37*
X211467861Y-57448008D02*
X210687129Y-57154073D01*
X210842678Y-57064267D01*
X212430178Y-57064267D01*
X212771562Y-57262328D01*
X213158457Y-57512290D01*
X213365283Y-57657990D01*
X213579062Y-57818172D01*
X213798318Y-57993340D01*
X214021576Y-58183994D01*
X214247361Y-58390639D01*
X214474197Y-58613774D01*
X214700610Y-58853905D01*
X214925125Y-59111532D01*
X215146264Y-59387160D01*
X215362556Y-59681288D01*
X215572523Y-59994420D01*
X215774691Y-60327057D01*
X215961256Y-60667532D01*
X216127284Y-61005105D01*
X216273918Y-61338748D01*
X216402303Y-61667432D01*
X216513578Y-61990131D01*
X216608888Y-62305814D01*
X216689376Y-62613457D01*
X216756181Y-62912030D01*
X216810451Y-63200505D01*
X216853324Y-63477854D01*
X216885945Y-63743050D01*
X216909457Y-63995065D01*
X216925000Y-64232871D01*
X216933719Y-64455439D01*
X216935254Y-64850753D01*
X219513032Y-63362472D01*
X219741160Y-63229556D01*
X220007287Y-63067012D01*
X220304780Y-62870751D01*
X220627006Y-62636688D01*
X220795320Y-62504203D01*
X220967330Y-62360735D01*
X221142206Y-62205772D01*
X221319119Y-62038804D01*
X221497241Y-61859320D01*
X221675740Y-61666810D01*
X221853790Y-61460762D01*
X222030559Y-61240665D01*
X222199106Y-61013655D01*
X222363135Y-60773111D01*
X222521734Y-60518645D01*
X222673985Y-60249870D01*
X222818973Y-59966396D01*
X222955783Y-59667837D01*
X223083500Y-59353803D01*
X223201208Y-59023906D01*
X223307993Y-58677760D01*
X223402938Y-58314976D01*
X223485127Y-57935164D01*
X223553647Y-57537938D01*
X223607582Y-57122910D01*
X223646015Y-56689691D01*
X223668033Y-56237894D01*
X223672718Y-55767130D01*
X223256359Y-55532159D01*
X222848232Y-55322360D01*
X222448457Y-55136693D01*
X222057148Y-54974116D01*
X221674425Y-54833590D01*
X221300403Y-54714073D01*
X220935203Y-54614526D01*
X220578939Y-54533907D01*
X220231730Y-54471176D01*
X219893694Y-54425291D01*
X219564946Y-54395213D01*
X219245606Y-54379900D01*
X218935790Y-54378313D01*
X218635616Y-54389410D01*
X218345202Y-54412151D01*
X218064664Y-54445495D01*
X217794121Y-54488401D01*
X217533689Y-54539830D01*
X217043629Y-54664090D01*
X216595425Y-54809948D01*
X216190015Y-54969082D01*
X215828341Y-55133164D01*
X215511339Y-55293870D01*
X215015116Y-55571852D01*
X212430178Y-57064267D01*
X210842678Y-57064267D01*
X214618241Y-54884445D01*
X215148776Y-54592347D01*
X215502044Y-54418655D01*
X215910986Y-54239382D01*
X216373356Y-54064165D01*
X216886911Y-53902636D01*
X217449407Y-53764434D01*
X218058597Y-53659191D01*
X218712238Y-53596546D01*
X219055027Y-53584207D01*
X219408086Y-53586131D01*
X219771135Y-53603521D01*
X220143895Y-53637583D01*
X220526084Y-53689521D01*
X220917422Y-53760538D01*
X221317627Y-53851840D01*
X221726420Y-53964630D01*
X222143521Y-54100114D01*
X222568647Y-54259496D01*
X223001520Y-54443979D01*
X223441858Y-54654770D01*
X223889380Y-54893071D01*
X224343807Y-55160088D01*
X224138151Y-55498412D01*
X224533976Y-55489471D01*
X224538239Y-56016646D01*
X224521515Y-56523819D01*
X224484931Y-57011296D01*
X224429608Y-57479385D01*
X224356673Y-57928392D01*
X224267250Y-58358628D01*
X224162463Y-58770396D01*
X224043437Y-59164005D01*
X223911296Y-59539764D01*
X223767165Y-59897978D01*
X223612168Y-60238955D01*
X223447430Y-60563003D01*
X223274075Y-60870429D01*
X223093229Y-61161540D01*
X222906014Y-61436643D01*
X222713557Y-61696048D01*
X222517006Y-61940165D01*
X222317579Y-62169470D01*
X222116501Y-62384369D01*
X221914996Y-62585261D01*
X221714293Y-62772549D01*
X221515615Y-62946635D01*
X221320189Y-63107923D01*
X221129241Y-63256813D01*
X220943995Y-63393707D01*
X220765677Y-63519008D01*
X220434730Y-63736439D01*
X220146206Y-63912324D01*
X219909907Y-64049879D01*
X215978795Y-66319508D01*
X216114606Y-65496407D01*
X216150585Y-65091053D01*
X216157990Y-64624514D01*
X216148088Y-64336991D01*
X216124942Y-64017759D01*
X216085421Y-63670164D01*
X216026393Y-63297554D01*
X215944730Y-62903274D01*
X215837299Y-62490669D01*
X215700969Y-62063087D01*
X215532612Y-61623873D01*
X215329093Y-61176372D01*
X215087284Y-60723932D01*
X214953961Y-60501597D01*
X214816364Y-60288300D01*
X214675050Y-60083910D01*
X214530577Y-59888298D01*
X214383503Y-59701334D01*
X214234385Y-59522888D01*
X214083783Y-59352831D01*
X213932253Y-59191032D01*
X213780353Y-59037362D01*
X213628643Y-58891692D01*
X213477678Y-58753891D01*
X213328017Y-58623829D01*
X213180219Y-58501377D01*
X213034841Y-58386406D01*
X212753576Y-58178382D01*
X212488686Y-57998720D01*
X212244634Y-57846383D01*
X212025883Y-57720331D01*
X211836897Y-57619526D01*
X211682138Y-57542930D01*
X211637054Y-57522177D01*
X211566071Y-57489503D01*
X211467861Y-57448008D01*
D11*
X223851731Y-55663777D02*
X229580127Y-52356486D01*
X213592515Y-58531793D02*
X207634982Y-61971376D01*
D10*
X206495052Y-51561425D02*
X207283828Y-51379322D01*
X206966199Y-51697010D02*
X207383786Y-51600602D01*
X206998335Y-51836206D02*
X207369523Y-51750510D01*
X206509374Y-52046834D02*
X206880563Y-51961139D01*
X207041182Y-52021800D02*
X207412371Y-51936104D01*
X207073318Y-52160996D02*
X207490905Y-52064588D01*
X206744977Y-52432286D02*
X207533753Y-52250182D01*
X206452204Y-51375830D02*
X206495052Y-51561425D01*
X206730655Y-51946876D02*
X206816351Y-52318065D01*
X206991173Y-51593501D02*
X207141141Y-52243081D01*
X207176768Y-51550653D02*
X207305311Y-52107436D01*
X206127414Y-51450814D02*
X206298746Y-51557874D01*
X206755630Y-51843367D02*
X206926961Y-51950427D01*
X206491501Y-51757731D02*
X206652121Y-51818392D01*
X206191686Y-51729206D02*
X206352305Y-51789867D01*
X206209559Y-52018309D02*
X206395153Y-51975461D01*
X206434450Y-52357362D01*
X206327390Y-52528693D01*
X206609273Y-51632798D02*
X206537900Y-51747019D01*
X206769892Y-51693459D02*
X206545061Y-51989724D01*
X206844876Y-52018249D02*
X206923411Y-52146733D01*
X206566485Y-52082521D02*
X206609333Y-52268115D01*
X206969749Y-51500704D02*
X206894825Y-51811231D01*
X206684197Y-51322271D02*
X206727045Y-51507865D01*
X206962588Y-51257999D02*
X207005436Y-51443593D01*
X206452204Y-51375830D02*
X207240980Y-51193727D01*
X207237429Y-51390033D01*
X206434450Y-52357362D02*
X206687867Y-52396599D01*
X206976970Y-52378726D01*
X207551507Y-51268651D02*
X208108290Y-51140108D01*
X208222511Y-51211481D02*
X208686497Y-51104361D01*
X207672889Y-51582729D02*
X208136875Y-51475610D01*
X208343893Y-51525559D02*
X208761480Y-51429151D01*
X207715737Y-51768324D02*
X208179723Y-51661204D01*
X208386741Y-51711153D02*
X208804328Y-51614746D01*
X207712186Y-51964630D02*
X208268969Y-51836086D01*
X208383190Y-51907460D02*
X208847176Y-51800340D01*
X208301105Y-51975282D02*
X208718692Y-51878875D01*
X207630041Y-51397135D02*
X207715737Y-51768324D01*
X207787051Y-51018785D02*
X208044138Y-52132351D01*
X207630041Y-51397135D02*
X208094027Y-51290015D01*
X208179723Y-51661204D01*
X208168951Y-50979488D02*
X208222511Y-51211481D01*
X208301045Y-51339965D02*
X208429589Y-51896748D01*
X208208248Y-51361389D02*
X208765031Y-51232845D01*
X208879312Y-51939536D01*
X208168951Y-50979488D02*
X208632937Y-50872369D01*
X208686497Y-51104361D01*
X209000575Y-50982979D02*
X209464561Y-50875860D01*
X209696553Y-50822300D02*
X210206938Y-50704468D01*
X209043423Y-51168573D02*
X209507408Y-51061454D01*
X209739401Y-51007894D02*
X210249786Y-50890063D01*
X209386086Y-51382693D02*
X210035666Y-51232726D01*
X209428934Y-51568288D02*
X210078514Y-51418320D01*
X210224871Y-51628889D02*
X210410465Y-51586041D01*
X208968439Y-50843783D02*
X209204102Y-51864552D01*
X209353950Y-51243497D02*
X209439646Y-51614686D01*
X208968439Y-50843783D02*
X209478823Y-50725952D01*
X209553807Y-51050742D01*
X209678740Y-51168514D02*
X209807283Y-51725297D01*
X209664418Y-50683104D02*
X209739401Y-51007894D01*
X209353950Y-51243497D02*
X210003530Y-51093530D01*
X210089226Y-51464719D01*
X209664418Y-50683104D02*
X210174802Y-50565273D01*
X210410465Y-51586041D01*
X210624525Y-50608061D02*
X211459699Y-50415246D01*
X210667373Y-50793655D02*
X211502547Y-50600840D01*
X210524626Y-51022097D02*
X211730989Y-50743586D01*
X211181367Y-51114835D02*
X211691752Y-50997003D01*
X210592389Y-50468865D02*
X210667373Y-50793655D01*
X211174206Y-50872130D02*
X211281326Y-51336116D01*
X210592389Y-50468865D02*
X211427563Y-50276050D01*
X211502547Y-50600840D01*
X210824442Y-51050623D02*
X210688856Y-51521770D01*
X210774492Y-51257641D02*
X211038621Y-51343277D01*
X211477632Y-51339666D01*
X211895219Y-51243259D01*
X207132063Y-53262195D02*
X207642448Y-53144364D01*
X206571730Y-53587045D02*
X207035716Y-53479925D01*
X207207047Y-53586985D02*
X207717431Y-53469154D01*
X207142835Y-53943911D02*
X207885212Y-53772520D01*
X206839409Y-53476375D02*
X206967953Y-54033158D01*
X207057080Y-52937405D02*
X207282031Y-53911775D01*
X207057080Y-52937405D02*
X207567464Y-52819574D01*
X207792415Y-53793944D01*
X206532433Y-53205144D02*
X206750163Y-53301492D01*
X206618128Y-53576333D01*
X207021453Y-53629833D02*
X207110699Y-53804715D01*
X206900071Y-53315755D02*
X207046427Y-53526324D01*
X206618069Y-52941016D02*
X206589543Y-53240831D01*
X206835799Y-53037364D02*
X206750163Y-53301492D01*
X206685951Y-53658418D02*
X206714536Y-53993920D01*
X208063586Y-52851650D02*
X209130753Y-52605275D01*
X208409859Y-53504781D02*
X208549055Y-53472645D01*
X208127857Y-53130041D02*
X208452647Y-53055058D01*
X208549055Y-53472645D01*
X208809514Y-52483952D02*
X209062930Y-52523190D01*
X209034405Y-52823005D02*
X208970193Y-53179931D01*
X208756073Y-53522594D01*
X208581191Y-53611841D01*
X208063586Y-52851650D02*
X208181417Y-53362034D01*
X208163604Y-53708248D01*
X208613207Y-52480402D02*
X208677479Y-52758793D01*
X208977354Y-53422636D01*
X209287881Y-53497560D01*
X209280720Y-53254855D01*
X209362746Y-52551715D02*
X210058724Y-52391036D01*
X209487679Y-52669487D02*
X209998063Y-52551656D01*
X209505552Y-52958590D02*
X210062335Y-52830047D01*
X209491289Y-53108498D02*
X210187268Y-52947819D01*
X209473416Y-52819395D02*
X209551951Y-52947878D01*
X209423407Y-52391096D02*
X209487679Y-52669487D01*
X209423407Y-52391096D02*
X209933791Y-52273264D01*
X209998063Y-52551656D01*
X209473416Y-52819395D02*
X210030199Y-52690851D01*
X210062335Y-52830047D01*
X210487083Y-52976344D02*
X210772636Y-53154777D01*
X210429973Y-52940658D02*
X210215853Y-53283321D01*
X210272904Y-52683690D02*
X210612016Y-53094116D01*
X209651909Y-53169159D02*
X210112344Y-53258346D01*
X210494185Y-52583732D02*
X210415710Y-53090565D01*
X209633976Y-52244739D02*
X209737545Y-52905031D01*
X209673333Y-53261957D01*
X210162233Y-52416011D02*
X210487083Y-52976344D01*
X210162233Y-52416011D02*
X210533422Y-52330315D01*
X210429973Y-52940658D01*
X210144360Y-52126907D02*
X210133708Y-52715826D01*
X210012386Y-53037065D02*
X209916038Y-53254795D01*
X209612671Y-53422576D01*
X211183002Y-52180348D02*
X211971778Y-51998244D01*
X211318707Y-52979835D02*
X212200280Y-52776308D01*
X211033094Y-52166085D02*
X211236622Y-53047658D01*
X211536318Y-51805548D02*
X211600589Y-52083940D01*
X211864718Y-52169576D02*
X211829091Y-52862004D01*
X211400732Y-52276695D02*
X211564962Y-52776368D01*
X211083044Y-51959067D02*
X211008120Y-52269594D01*
X210865373Y-52498036D01*
X212346577Y-52351560D02*
X213460143Y-52094473D01*
X212949758Y-52212304D02*
X213046166Y-52629891D01*
X213260286Y-52287228D02*
X213363795Y-52312203D01*
X213638636Y-52444238D01*
X213231701Y-51951726D02*
X213527965Y-52176558D01*
X212657104Y-52426484D02*
X212478671Y-52712036D01*
X213310175Y-51444893D02*
X212728418Y-51676945D01*
X212310831Y-51773353D01*
X212682019Y-51687657D02*
X212514298Y-52019609D01*
X212814113Y-52048134D01*
X213074632Y-51694759D02*
X212717766Y-52265864D01*
X214131087Y-51401985D02*
X214827066Y-51241306D01*
X214252469Y-51716063D02*
X214855651Y-51576808D01*
X213763509Y-51926692D02*
X214181096Y-51830284D01*
X214809312Y-52222837D02*
X215087703Y-52158565D01*
X214031188Y-51816022D02*
X214159732Y-52372805D01*
X214459428Y-51130695D02*
X214502276Y-51316290D01*
X214737879Y-51701741D02*
X214855710Y-52212125D01*
X215055567Y-52019370D02*
X215087703Y-52158565D01*
X214673607Y-51423349D02*
X214902049Y-51566096D01*
X213724212Y-51544791D02*
X213906255Y-51698250D01*
X213809907Y-51915980D01*
X214166833Y-51980192D02*
X214291766Y-52097964D01*
X214091850Y-51655402D02*
X214191808Y-51876683D01*
X213809848Y-51280663D02*
X213781322Y-51580478D01*
X213981179Y-51387723D02*
X213952654Y-51687538D01*
X214409478Y-51337714D02*
X214345266Y-51694639D01*
X213888442Y-52044464D02*
X213849204Y-52297881D01*
X214470199Y-51812411D02*
X214498785Y-52147913D01*
X214391725Y-52319245D01*
X215201865Y-51594621D02*
X215665850Y-51487502D01*
X215298272Y-52012209D02*
X215762258Y-51905089D01*
X216154871Y-51912191D02*
X216433262Y-51847919D01*
X215116169Y-51223433D02*
X215319696Y-52105006D01*
X215116169Y-51223433D02*
X215580155Y-51116313D01*
X215762258Y-51905089D01*
X215922818Y-51330433D02*
X216219083Y-51555265D01*
X215294602Y-50937880D02*
X215255365Y-51191297D01*
X215851385Y-50809337D02*
X215726512Y-51326882D01*
X215812148Y-51062753D02*
X216322532Y-50944922D01*
X216429652Y-51408908D01*
X216433262Y-51847919D01*
X216590211Y-50834252D02*
X217703777Y-50577165D01*
X216900739Y-50909176D02*
X217503920Y-50769920D01*
X216943587Y-51094770D02*
X217546768Y-50955515D01*
X216650932Y-51308949D02*
X217857295Y-51030439D01*
X216982884Y-51476670D02*
X217632464Y-51326703D01*
X216850849Y-51751511D02*
X217871618Y-51515848D01*
X217275538Y-51262491D02*
X217361233Y-51633680D01*
X216825755Y-50584386D02*
X216975722Y-51233966D01*
X216808001Y-51565917D01*
X217428937Y-50445130D02*
X217578904Y-51094710D01*
X217714549Y-51258881D01*
X217967966Y-51298118D01*
X218060703Y-50641377D02*
X219174269Y-50384290D01*
X218467638Y-51133888D02*
X219024421Y-51005344D01*
X218542502Y-50188043D02*
X218799589Y-51301609D01*
X218617486Y-50512833D02*
X218556825Y-50673453D01*
X218271332Y-51130337D01*
X218142848Y-51208872D01*
X218617486Y-50512833D02*
X218753131Y-50677004D01*
X219142193Y-50880411D01*
X219349211Y-50930361D01*
X219930909Y-50062991D02*
X220626887Y-49902312D01*
X220041579Y-50330670D02*
X220691159Y-50180703D01*
X219516932Y-50598410D02*
X219980918Y-50491290D01*
X220216521Y-50876741D02*
X220726905Y-50758910D01*
X219784612Y-50487739D02*
X219913155Y-51044522D01*
X220141537Y-50551951D02*
X220237945Y-50969538D01*
X220259250Y-49791701D02*
X220366369Y-50255687D01*
X220141537Y-50551951D02*
X220651922Y-50434120D01*
X220794728Y-50840995D01*
X219477635Y-50216509D02*
X219706077Y-50359255D01*
X219563331Y-50587698D01*
X219966655Y-50641198D02*
X220055902Y-50816080D01*
X219845273Y-50327120D02*
X219991630Y-50537689D01*
X219563271Y-49952380D02*
X219534746Y-50252196D01*
X219781001Y-50048728D02*
X219706077Y-50359255D01*
X219631153Y-50669783D02*
X219659738Y-51005285D01*
X221312154Y-49695234D02*
X222008133Y-49534554D01*
X221390689Y-49823717D02*
X222040269Y-49673750D01*
X220880304Y-49941549D02*
X221297891Y-49845141D01*
X221376426Y-49973625D02*
X222118803Y-49802234D01*
X221497808Y-50287703D02*
X222100990Y-50148448D01*
X221447859Y-50494721D02*
X222236635Y-50312618D01*
X222001091Y-50562484D02*
X222186685Y-50519636D01*
X221048025Y-49609598D02*
X221305112Y-50723164D01*
X221465672Y-50148507D02*
X221583504Y-50658892D01*
X221465613Y-49513190D02*
X221562020Y-49930777D01*
X221701216Y-49898641D02*
X221808335Y-50362627D01*
X221790403Y-49438206D02*
X221886810Y-49855794D01*
X221465672Y-50148507D02*
X222068854Y-50009252D01*
X222186685Y-50519636D01*
X221155145Y-50073583D02*
X221326476Y-50180643D01*
X221101585Y-49841591D02*
X221090933Y-50430509D01*
X207847610Y-55091450D02*
X208589987Y-54920058D01*
X208896904Y-54555971D02*
X209232465Y-55162703D01*
X209310940Y-54655870D01*
X209603654Y-55077008D01*
X209639281Y-54384580D01*
X210160437Y-54948464D02*
X210010469Y-54298884D01*
X209935486Y-53974094D02*
X209899799Y-54031205D01*
X209956910Y-54066891D01*
X209992596Y-54009781D01*
X209935486Y-53974094D01*
X209956910Y-54066891D01*
X210624423Y-54841345D02*
X210399471Y-53866975D01*
X210631524Y-54448732D02*
X210995611Y-54755649D01*
X210845644Y-54106069D02*
X210560151Y-54562953D01*
X211413198Y-54659242D02*
X211263231Y-54009662D01*
X211188247Y-53684871D02*
X211152561Y-53741982D01*
X211209671Y-53777669D01*
X211245358Y-53720558D01*
X211188247Y-53684871D01*
X211209671Y-53777669D01*
X211727217Y-53902542D02*
X211952168Y-54876912D01*
X211737929Y-53948941D02*
X211820014Y-53881118D01*
X212005608Y-53838270D01*
X212109117Y-53863245D01*
X212166228Y-53898932D01*
X212234050Y-53981017D01*
X212298322Y-54259408D01*
X212273347Y-54362917D01*
X212237661Y-54420028D01*
X212155575Y-54487850D01*
X211969981Y-54530698D01*
X211866472Y-54505723D01*
X213119234Y-54216501D02*
X213037148Y-54284323D01*
X212851554Y-54327171D01*
X212748045Y-54302196D01*
X212680223Y-54220111D01*
X212594527Y-53848922D01*
X212619502Y-53745413D01*
X212701587Y-53677591D01*
X212887181Y-53634743D01*
X212990690Y-53659718D01*
X213058513Y-53741803D01*
X213079937Y-53834600D01*
X212637375Y-54034517D01*
X214011518Y-54059372D02*
X213786567Y-53085002D01*
X214000807Y-54012974D02*
X213918721Y-54080796D01*
X213733127Y-54123644D01*
X213629618Y-54098669D01*
X213572507Y-54062983D01*
X213504685Y-53980897D01*
X213440413Y-53702506D01*
X213465388Y-53598997D01*
X213501074Y-53541886D01*
X213583160Y-53474064D01*
X213768754Y-53431216D01*
X213872263Y-53456191D01*
X214475504Y-53952253D02*
X214325537Y-53302672D01*
X214250553Y-52977882D02*
X214214867Y-53034993D01*
X214271977Y-53070680D01*
X214307664Y-53013569D01*
X214250553Y-52977882D01*
X214271977Y-53070680D01*
X215357077Y-53748725D02*
X215239246Y-53238341D01*
X215171423Y-53156256D01*
X215067914Y-53131281D01*
X214882320Y-53174129D01*
X214800235Y-53241952D01*
X215346365Y-53702327D02*
X215264280Y-53770149D01*
X215032287Y-53823709D01*
X214928778Y-53798734D01*
X214860956Y-53716649D01*
X214839532Y-53623852D01*
X214864506Y-53520343D01*
X214946591Y-53452520D01*
X215178584Y-53398961D01*
X215260670Y-53331138D01*
X221757953Y-78627669D02*
X222234144Y-78627669D01*
X222472239Y-78770526D02*
X222805572Y-78770526D01*
X221805572Y-78961002D02*
X222186525Y-78961002D01*
X222329382Y-79151478D02*
X222567477Y-79151478D01*
X221805572Y-79151478D02*
X222186525Y-79151478D01*
X222329382Y-79294335D02*
X222567477Y-79294335D01*
X221757953Y-79341954D02*
X222234144Y-79341954D01*
X222805572Y-79580049D02*
X222948429Y-79580049D01*
X221805572Y-78770526D02*
X221805572Y-79151478D01*
X221996048Y-78437192D02*
X221996048Y-79580049D01*
X221805572Y-78770526D02*
X222234144Y-78770526D01*
X222234144Y-79151478D01*
X222329382Y-78961002D02*
X222329382Y-79580049D01*
X222757953Y-78961002D02*
X222757953Y-79389573D01*
X222948429Y-78913383D02*
X222948429Y-79580049D01*
X222662715Y-78437192D02*
X222948429Y-78770526D01*
X222615096Y-78437192D02*
X222281763Y-78770526D01*
X222329382Y-78961002D02*
X222567477Y-78961002D01*
X222567477Y-79580049D01*
X222472239Y-79580049D01*
X223519858Y-78580049D02*
X223853191Y-78580049D01*
X223948429Y-78865764D01*
X224091286Y-79246716D01*
X224424620Y-79580049D01*
X223853191Y-78675288D02*
X223805572Y-78961002D01*
X223662715Y-79246716D01*
X223329382Y-79580049D01*
X208226403Y-57738919D02*
X207035927Y-59800884D01*
X207223901Y-57380067D02*
X206795329Y-58122374D01*
X207801251Y-57713400D02*
X207223901Y-57380067D01*
X207801251Y-57713400D02*
X207372679Y-58455708D01*
X206795329Y-58122374D01*
X206084462Y-58591727D02*
X205611691Y-58648687D01*
X207651556Y-59496489D02*
X207248504Y-59813644D01*
X206801251Y-59445451D02*
X206449236Y-58912301D01*
X206240079Y-58131715D01*
X206313217Y-57624084D01*
X205833608Y-59216696D02*
X205468834Y-58896123D01*
X205611691Y-58648687D01*
X206500274Y-58061996D02*
X206906746Y-56977014D01*
X207876892Y-59296672D02*
X207299541Y-58963339D01*
X206132081Y-58509248D01*
X197623488Y-53454060D02*
X197385393Y-53866453D01*
X197142628Y-54001221D02*
X196975961Y-54289896D01*
X197311004Y-53328632D02*
X197120528Y-53658547D01*
X196884142Y-53687027D02*
X196765094Y-53893223D01*
X197146047Y-53233394D02*
X196955570Y-53563309D01*
X196760424Y-53615598D02*
X196641376Y-53821795D01*
X197004899Y-53096917D02*
X196766804Y-53509310D01*
X196274893Y-53885134D02*
X196203464Y-54008852D01*
X197475961Y-53423870D02*
X197146047Y-53233394D01*
X197669398Y-53755494D02*
X196679655Y-53184066D01*
X197475961Y-53423870D02*
X197261675Y-53795024D01*
X196931761Y-53604548D01*
X197049099Y-53782265D02*
X196512988Y-53472741D01*
X196834813Y-54153418D02*
X196463660Y-53939133D01*
X196780814Y-54342185D02*
X196203464Y-54008852D01*
X197336065Y-54332845D02*
X196904532Y-54413614D01*
X197359874Y-54291605D02*
X197237866Y-53836263D01*
X197049099Y-53782265D02*
X196930051Y-53988461D01*
X196393940Y-53678937D01*
X196441559Y-53596459D01*
X196783775Y-55003723D02*
X196617109Y-55292399D01*
X196322054Y-55232020D01*
X195920711Y-55165262D01*
X195465369Y-55287270D01*
X196534630Y-55244780D02*
X196311004Y-55060683D01*
X196134996Y-54794108D01*
X196012988Y-54338766D01*
X220421398Y-66546734D02*
X220751312Y-66356257D01*
X220963889Y-66343498D01*
X221224084Y-66413217D01*
X221497039Y-66695512D01*
X221830372Y-67272863D01*
X221938370Y-67650396D01*
X221868650Y-67910591D01*
X221751312Y-68088308D01*
X221421398Y-68278784D01*
X221208822Y-68291544D01*
X220948626Y-68221825D01*
X220675671Y-67939529D01*
X220342338Y-67362179D01*
X220234341Y-66984646D01*
X220304060Y-66724450D01*
X220421398Y-66546734D01*
X223895756Y-66850213D02*
X222842215Y-66358760D01*
X222906013Y-67421642D02*
X221906013Y-65689591D01*
X222565842Y-65308638D01*
X222778418Y-65295879D01*
X222908516Y-65330738D01*
X223086232Y-65448077D01*
X223229089Y-65695512D01*
X223241849Y-65908089D01*
X223206989Y-66038186D01*
X223089651Y-66215903D01*
X222429822Y-66596855D01*
X196270344Y-64867078D02*
X196508440Y-65279471D01*
X196627487Y-65485668D02*
X196889392Y-65939300D01*
X196064148Y-64986126D02*
X196302243Y-65398519D01*
X196421291Y-65604716D02*
X196683195Y-66058348D01*
X196100717Y-65239942D02*
X196481669Y-65899770D01*
X195870711Y-65317750D02*
X196299282Y-66060057D01*
X195986798Y-66185485D02*
X196105845Y-66391681D01*
X196394062Y-64795650D02*
X195486798Y-65319459D01*
X196394062Y-64795650D02*
X196632157Y-65208043D01*
X196343482Y-65374710D01*
X196751205Y-65414239D02*
X196462530Y-65580906D01*
X196362622Y-65693574D02*
X195867750Y-65979288D01*
X196751205Y-65414239D02*
X197013110Y-65867872D01*
X196105845Y-66391681D01*
X196154716Y-65428708D02*
X195866040Y-65595375D01*
X195694704Y-65584325D01*
X195605845Y-65525656D01*
X230367463Y-45095939D02*
X230129368Y-44683546D01*
X230134038Y-44405921D02*
X229967371Y-44117246D01*
X230632329Y-44888033D02*
X230441852Y-44558119D01*
X230535381Y-44339163D02*
X230416333Y-44132966D01*
X230797286Y-44792795D02*
X230606810Y-44462881D01*
X230659099Y-44267734D02*
X230540051Y-44061538D01*
X230986053Y-44738796D02*
X230747957Y-44326403D01*
X230668440Y-43712484D02*
X230597011Y-43588766D01*
X230467371Y-44983271D02*
X230797286Y-44792795D01*
X230083458Y-44984981D02*
X231073201Y-44413552D01*
X230467371Y-44983271D02*
X230253086Y-44612118D01*
X230583000Y-44421642D01*
X230370424Y-44434401D02*
X230906535Y-44124877D01*
X230156138Y-44063247D02*
X230527292Y-43848962D01*
X230019661Y-43922100D02*
X230597011Y-43588766D01*
X229750125Y-44407631D02*
X229895943Y-43993528D01*
X229773934Y-44448870D02*
X230229276Y-44570878D01*
X230370424Y-44434401D02*
X230251376Y-44228204D01*
X230787487Y-43918681D01*
X230835106Y-44001159D01*
X229894233Y-43609615D02*
X229322805Y-42619872D01*
X230371675Y-43388949D02*
X229752628Y-42316728D01*
X230041761Y-43579426D02*
X230454154Y-43341330D01*
X229564319Y-43800091D02*
X229894233Y-43609615D01*
X229154887Y-43376648D02*
X230062151Y-42852838D01*
X228992890Y-42810348D02*
X229322805Y-42619872D01*
X229422713Y-42507204D02*
X229835106Y-42269108D01*
%TO.C,SW2*%
X199503464Y-66526084D02*
X200369490Y-66026084D01*
X200559966Y-66355998D01*
X200566346Y-66462286D01*
X200548916Y-66527335D01*
X200490247Y-66616193D01*
X200366529Y-66687622D01*
X200260241Y-66694002D01*
X200195192Y-66676572D01*
X200106333Y-66617903D01*
X199915857Y-66287988D01*
X200964728Y-67057066D02*
X201059966Y-67222024D01*
X201066346Y-67328312D01*
X201031486Y-67458409D01*
X200890338Y-67594887D01*
X200601663Y-67761553D01*
X200412896Y-67815552D01*
X200282799Y-67780693D01*
X200193940Y-67722024D01*
X200098702Y-67557066D01*
X200092323Y-67450778D01*
X200127182Y-67320681D01*
X200268330Y-67184203D01*
X200557005Y-67017536D01*
X200745772Y-66963538D01*
X200875869Y-66998397D01*
X200964728Y-67057066D01*
X201345680Y-67716895D02*
X200598702Y-68423092D01*
X201312530Y-68230906D01*
X200789178Y-68753006D01*
X201774252Y-68459203D01*
X201552335Y-69027212D02*
X201719001Y-69315887D01*
X201336798Y-69701510D02*
X201098702Y-69289117D01*
X201964728Y-68789117D01*
X202202823Y-69201510D01*
X201836798Y-70567536D02*
X202082524Y-70040765D01*
X201551083Y-70072664D02*
X202417109Y-69572664D01*
X202607585Y-69902578D01*
X202613965Y-70008866D01*
X202596535Y-70073915D01*
X202537866Y-70162774D01*
X202414148Y-70234202D01*
X202307860Y-70240582D01*
X202242811Y-70223152D01*
X202153952Y-70164483D01*
X201963476Y-69834569D01*
%TO.C,SW6*%
X227227182Y-79878357D02*
X227370039Y-79630921D01*
X227836431Y-79680249D02*
X228145955Y-79144138D01*
X227887011Y-80259309D02*
X228006059Y-80053112D01*
X226955937Y-79776739D02*
X227122603Y-79488064D01*
X227370039Y-79630921D01*
X227588995Y-79537392D02*
X227836431Y-79680249D01*
X227588995Y-79537392D02*
X227898519Y-79001281D01*
X228145955Y-79144138D01*
X228245863Y-79256806D02*
X228506059Y-79187087D01*
X227497176Y-78934523D02*
X227757371Y-78864804D01*
X227227182Y-79878357D02*
X227450808Y-80062453D01*
X227576236Y-79749968D01*
X227782432Y-79869016D01*
X228006059Y-80053112D01*
X228101297Y-79888155D02*
X228352151Y-79263186D01*
X227271840Y-79134340D02*
X227447848Y-79400915D01*
X227733562Y-78906043D01*
X227590705Y-79153479D02*
X228250534Y-79534431D01*
X227865369Y-78487270D02*
X228174893Y-77951159D01*
X227982707Y-78664987D02*
X228387469Y-77963919D01*
X228780723Y-78520878D02*
X228875961Y-78355921D01*
X229101297Y-78156104D02*
X229220344Y-77949908D01*
X228236523Y-78701556D02*
X228566437Y-78892032D01*
X227802030Y-78120787D02*
X228791773Y-78692215D01*
X228236523Y-78701556D02*
X228546047Y-78165445D01*
X228875961Y-78355921D01*
X228235271Y-77656104D02*
X228812622Y-77989438D01*
X228230601Y-77378479D02*
X229220344Y-77949908D01*
X227748031Y-78309554D02*
X227965277Y-78599938D01*
X228514606Y-77267521D02*
X228752701Y-76855128D01*
X228995467Y-76720360D02*
X229162133Y-76431685D01*
X228827091Y-77392948D02*
X229017567Y-77063034D01*
X229253952Y-77034554D02*
X229373000Y-76828357D01*
X228992048Y-77488186D02*
X229182524Y-77158272D01*
X229377670Y-77105983D02*
X229496718Y-76899786D01*
X229133195Y-77624664D02*
X229371291Y-77212271D01*
X229863201Y-76836447D02*
X229934630Y-76712729D01*
X228662133Y-77297710D02*
X228992048Y-77488186D01*
X228468696Y-76966086D02*
X229458440Y-77537515D01*
X228662133Y-77297710D02*
X228876419Y-76926556D01*
X229206333Y-77117033D01*
X229088995Y-76939316D02*
X229625106Y-77248840D01*
X229303281Y-76568162D02*
X229674435Y-76782448D01*
X229357280Y-76379395D02*
X229934630Y-76712729D01*
X228802030Y-76388736D02*
X229233562Y-76307967D01*
X228778220Y-76429975D02*
X228900229Y-76885317D01*
X229088995Y-76939316D02*
X229208043Y-76733119D01*
X229744154Y-77042643D01*
X229696535Y-77125122D01*
X229565186Y-76114530D02*
X230136614Y-75124786D01*
X229995009Y-76417674D02*
X230614056Y-75345452D01*
X229665094Y-76227198D02*
X230077487Y-76465293D01*
X229235271Y-75924054D02*
X229565186Y-76114530D01*
X229397268Y-75357753D02*
X230304532Y-75881563D01*
X229806700Y-74934310D02*
X230136614Y-75124786D01*
X230284142Y-75154976D02*
X230696535Y-75393071D01*
%TO.C,R19*%
X232536880Y-60392056D02*
X232471831Y-60374626D01*
X232382973Y-60315957D01*
X232263925Y-60109761D01*
X232257545Y-60003472D01*
X232274975Y-59938424D01*
X232333644Y-59849565D01*
X232416123Y-59801946D01*
X232563650Y-59771757D01*
X233344236Y-59980914D01*
X233034712Y-59444803D01*
X232060689Y-59567270D02*
X231995640Y-59549840D01*
X231906782Y-59491171D01*
X231787734Y-59284974D01*
X231781355Y-59178686D01*
X231798784Y-59113637D01*
X231857454Y-59024779D01*
X231939932Y-58977160D01*
X232087460Y-58946971D01*
X232868046Y-59156128D01*
X232558522Y-58620017D01*
X231382973Y-58583906D02*
X231335353Y-58501428D01*
X231328974Y-58395139D01*
X231346404Y-58330091D01*
X231405073Y-58241232D01*
X231546220Y-58104755D01*
X231752417Y-57985707D01*
X231941184Y-57931708D01*
X232047472Y-57925329D01*
X232112521Y-57942759D01*
X232201379Y-58001428D01*
X232248998Y-58083906D01*
X232255378Y-58190194D01*
X232237948Y-58255243D01*
X232179279Y-58344102D01*
X232038131Y-58480579D01*
X231831935Y-58599627D01*
X231643168Y-58653625D01*
X231536880Y-58660005D01*
X231471831Y-58642575D01*
X231382973Y-58583906D01*
%TO.C,Q4*%
X222805372Y-75474233D02*
X222952900Y-75444043D01*
X223159096Y-75324996D01*
X223217765Y-75236137D01*
X223235195Y-75171089D01*
X223228816Y-75064800D01*
X223181196Y-74982322D01*
X223092338Y-74923653D01*
X223027289Y-74906223D01*
X222921001Y-74912603D01*
X222732234Y-74966602D01*
X222625946Y-74972981D01*
X222560897Y-74955552D01*
X222472039Y-74896882D01*
X222424420Y-74814404D01*
X222418040Y-74708116D01*
X222435470Y-74643067D01*
X222494139Y-74554208D01*
X222700336Y-74435161D01*
X222847863Y-74404972D01*
X223533211Y-74449172D02*
X223426923Y-74455552D01*
X223361874Y-74438122D01*
X223273016Y-74379453D01*
X223249206Y-74338213D01*
X223242826Y-74231925D01*
X223260256Y-74166876D01*
X223318925Y-74078018D01*
X223483882Y-73982780D01*
X223590171Y-73976400D01*
X223655219Y-73993830D01*
X223744078Y-74052499D01*
X223767887Y-74093738D01*
X223774267Y-74200026D01*
X223756837Y-74265075D01*
X223698168Y-74353934D01*
X223533211Y-74449172D01*
X223474542Y-74538030D01*
X223457112Y-74603079D01*
X223463492Y-74709367D01*
X223558730Y-74874324D01*
X223647588Y-74932993D01*
X223712637Y-74950423D01*
X223818925Y-74944043D01*
X223983882Y-74848805D01*
X224042552Y-74759947D01*
X224059981Y-74694898D01*
X224053602Y-74588610D01*
X223958364Y-74423653D01*
X223869505Y-74364984D01*
X223804456Y-74347554D01*
X223698168Y-74353934D01*
X224184951Y-73578018D02*
X224267429Y-73530399D01*
X224373717Y-73524019D01*
X224438766Y-73541449D01*
X224527625Y-73600118D01*
X224664102Y-73741266D01*
X224783150Y-73947462D01*
X224837148Y-74136229D01*
X224843528Y-74242517D01*
X224826098Y-74307566D01*
X224767429Y-74396424D01*
X224684951Y-74444043D01*
X224578663Y-74450423D01*
X224513614Y-74432993D01*
X224424755Y-74374324D01*
X224288278Y-74233177D01*
X224169230Y-74026980D01*
X224115232Y-73838213D01*
X224108852Y-73731925D01*
X224126282Y-73666876D01*
X224184951Y-73578018D01*
X225257173Y-72958970D02*
X224844780Y-73197066D01*
X225041635Y-73633268D01*
X225059065Y-73568219D01*
X225117734Y-73479361D01*
X225323931Y-73360313D01*
X225430219Y-73353934D01*
X225495268Y-73371363D01*
X225584126Y-73430033D01*
X225703174Y-73636229D01*
X225709554Y-73742517D01*
X225692124Y-73807566D01*
X225633455Y-73896424D01*
X225427258Y-74015472D01*
X225320970Y-74021852D01*
X225255921Y-74004422D01*
X225834523Y-72625637D02*
X225917001Y-72578018D01*
X226023290Y-72571638D01*
X226088338Y-72589068D01*
X226177197Y-72647737D01*
X226313674Y-72788885D01*
X226432722Y-72995081D01*
X226486721Y-73183848D01*
X226493100Y-73290136D01*
X226475671Y-73355185D01*
X226417001Y-73444043D01*
X226334523Y-73491662D01*
X226228235Y-73498042D01*
X226163186Y-73480612D01*
X226074328Y-73421943D01*
X225937850Y-73280796D01*
X225818803Y-73074599D01*
X225764804Y-72885832D01*
X225758424Y-72779544D01*
X225775854Y-72714495D01*
X225834523Y-72625637D01*
%TO.C,D1*%
X209629578Y-44911336D02*
X210124449Y-44625621D01*
X209877014Y-44768478D02*
X210377014Y-45634504D01*
X210388064Y-45463167D01*
X210422923Y-45333069D01*
X210481592Y-45244211D01*
X209258424Y-45125621D02*
X209758424Y-45991647D01*
X208763552Y-45411336D01*
X209263552Y-46277361D01*
X208313339Y-46441067D02*
X207980006Y-45863716D01*
X208710012Y-46651934D02*
X208559065Y-45914296D01*
X208022954Y-46223820D01*
X207072741Y-46387526D02*
X207567612Y-46101812D01*
X207320177Y-46244669D02*
X207820177Y-47110694D01*
X207831227Y-46939357D01*
X207866086Y-46809260D01*
X207924755Y-46720401D01*
X206663767Y-47393448D02*
X206330433Y-46816097D01*
X207060439Y-47604315D02*
X206909493Y-46866677D01*
X206373382Y-47176201D01*
X206038797Y-47644302D02*
X206145086Y-47637923D01*
X206210134Y-47655352D01*
X206298993Y-47714022D01*
X206322802Y-47755261D01*
X206329182Y-47861549D01*
X206311752Y-47926598D01*
X206253083Y-48015456D01*
X206088126Y-48110694D01*
X205981838Y-48117074D01*
X205916789Y-48099644D01*
X205827931Y-48040975D01*
X205804121Y-47999736D01*
X205797741Y-47893448D01*
X205815171Y-47828399D01*
X205873840Y-47739541D01*
X206038797Y-47644302D01*
X206097466Y-47555444D01*
X206114896Y-47490395D01*
X206108516Y-47384107D01*
X206013278Y-47219150D01*
X205924420Y-47160481D01*
X205859371Y-47143051D01*
X205753083Y-47149431D01*
X205588126Y-47244669D01*
X205529457Y-47333527D01*
X205512027Y-47398576D01*
X205518407Y-47504864D01*
X205613645Y-47669821D01*
X205702503Y-47728490D01*
X205767552Y-47745920D01*
X205873840Y-47739541D01*
%TO.C,R16*%
X215766666Y-45752380D02*
X215719047Y-45800000D01*
X215623809Y-45847619D01*
X215385714Y-45847619D01*
X215290476Y-45800000D01*
X215242857Y-45752380D01*
X215195238Y-45657142D01*
X215195238Y-45561904D01*
X215242857Y-45419047D01*
X215814285Y-44847619D01*
X215195238Y-44847619D01*
X214766666Y-44847619D02*
X214766666Y-45847619D01*
X214671428Y-45228571D02*
X214385714Y-44847619D01*
X214385714Y-45514285D02*
X214766666Y-45133333D01*
X214004761Y-45752380D02*
X213957142Y-45800000D01*
X213861904Y-45847619D01*
X213623809Y-45847619D01*
X213528571Y-45800000D01*
X213480952Y-45752380D01*
X213433333Y-45657142D01*
X213433333Y-45561904D01*
X213480952Y-45419047D01*
X214052380Y-44847619D01*
X213433333Y-44847619D01*
%TO.C,R7*%
X220909172Y-47446164D02*
X220844123Y-47463594D01*
X220737835Y-47457214D01*
X220531639Y-47338167D01*
X220472969Y-47249308D01*
X220455540Y-47184259D01*
X220461919Y-47077971D01*
X220509538Y-46995493D01*
X220622206Y-46895584D01*
X221402792Y-46686427D01*
X220866681Y-46376903D01*
X220495528Y-46162617D02*
X219995528Y-47028643D01*
X220222573Y-46444913D02*
X220165613Y-45972141D01*
X219832280Y-46549492D02*
X220352670Y-46410053D01*
X219383318Y-46565212D02*
X219318269Y-46582642D01*
X219211981Y-46576262D01*
X219005784Y-46457214D01*
X218947115Y-46368356D01*
X218929685Y-46303307D01*
X218936065Y-46197019D01*
X218983684Y-46114540D01*
X219096352Y-46014632D01*
X219876938Y-45805475D01*
X219340827Y-45495951D01*
%TO.C,J1*%
X202045680Y-46002015D02*
X201950442Y-46166972D01*
X201861584Y-46225641D01*
X201731486Y-46260501D01*
X201542719Y-46206502D01*
X201254044Y-46039835D01*
X201112896Y-45903358D01*
X201078037Y-45773260D01*
X201084417Y-45666972D01*
X201179655Y-45502015D01*
X201268513Y-45443346D01*
X201398611Y-45408486D01*
X201587377Y-45462485D01*
X201876053Y-45629152D01*
X202017200Y-45765629D01*
X202052060Y-45895727D01*
X202045680Y-46002015D01*
X200465369Y-46739194D02*
X201044429Y-46688614D01*
X200751083Y-46244322D02*
X201617109Y-46744322D01*
X201426632Y-47074237D01*
X201337774Y-47132906D01*
X201272725Y-47150336D01*
X201166437Y-47143956D01*
X201042719Y-47072527D01*
X200984050Y-46983669D01*
X200966620Y-46918620D01*
X200973000Y-46812332D01*
X201163476Y-46482418D01*
X200287652Y-46856532D02*
X199906700Y-47516361D01*
X199870131Y-47770177D02*
X200736156Y-48270177D01*
X199632036Y-48182570D02*
X200498061Y-48682570D01*
X199346321Y-48677441D01*
X200212347Y-49177441D01*
X199108226Y-49089834D02*
X199974252Y-49589834D01*
X199783775Y-49919749D01*
X199694917Y-49978418D01*
X199629868Y-49995848D01*
X199523580Y-49989468D01*
X199399862Y-49918039D01*
X199341193Y-49829181D01*
X199323763Y-49764132D01*
X199330143Y-49657844D01*
X199520619Y-49327930D01*
X199474252Y-50455860D02*
X198773183Y-50051098D01*
X198666895Y-50044718D01*
X198601846Y-50062148D01*
X198512988Y-50120817D01*
X198417750Y-50285774D01*
X198411370Y-50392062D01*
X198428800Y-50457111D01*
X198487469Y-50545970D01*
X199188537Y-50950731D01*
X199021871Y-51239407D02*
X198736156Y-51734278D01*
X198012988Y-50986842D02*
X198879013Y-51486842D01*
%TO.C,R12*%
X206102338Y-62432911D02*
X205524988Y-62766244D01*
X206313205Y-62036238D02*
X205575568Y-62187184D01*
X205885092Y-62723295D01*
X205786893Y-63219876D02*
X206652918Y-62719876D01*
X206164426Y-63111879D02*
X205977369Y-63549791D01*
X206554719Y-63216458D02*
X206034329Y-63077019D01*
X207010061Y-63338466D02*
X207343394Y-63915816D01*
X206263083Y-64044663D01*
%TO.C,Q1*%
X220376976Y-39855238D02*
X220234119Y-39807619D01*
X219996023Y-39807619D01*
X219900785Y-39855238D01*
X219853166Y-39902857D01*
X219805547Y-39998095D01*
X219805547Y-40093333D01*
X219853166Y-40188571D01*
X219900785Y-40236190D01*
X219996023Y-40283809D01*
X220186500Y-40331428D01*
X220281738Y-40379047D01*
X220329357Y-40426666D01*
X220376976Y-40521904D01*
X220376976Y-40617142D01*
X220329357Y-40712380D01*
X220281738Y-40760000D01*
X220186500Y-40807619D01*
X219948404Y-40807619D01*
X219805547Y-40760000D01*
X219234119Y-40379047D02*
X219329357Y-40426666D01*
X219376976Y-40474285D01*
X219424595Y-40569523D01*
X219424595Y-40617142D01*
X219376976Y-40712380D01*
X219329357Y-40760000D01*
X219234119Y-40807619D01*
X219043642Y-40807619D01*
X218948404Y-40760000D01*
X218900785Y-40712380D01*
X218853166Y-40617142D01*
X218853166Y-40569523D01*
X218900785Y-40474285D01*
X218948404Y-40426666D01*
X219043642Y-40379047D01*
X219234119Y-40379047D01*
X219329357Y-40331428D01*
X219376976Y-40283809D01*
X219424595Y-40188571D01*
X219424595Y-39998095D01*
X219376976Y-39902857D01*
X219329357Y-39855238D01*
X219234119Y-39807619D01*
X219043642Y-39807619D01*
X218948404Y-39855238D01*
X218900785Y-39902857D01*
X218853166Y-39998095D01*
X218853166Y-40188571D01*
X218900785Y-40283809D01*
X218948404Y-40331428D01*
X219043642Y-40379047D01*
X218234119Y-40807619D02*
X218138880Y-40807619D01*
X218043642Y-40760000D01*
X217996023Y-40712380D01*
X217948404Y-40617142D01*
X217900785Y-40426666D01*
X217900785Y-40188571D01*
X217948404Y-39998095D01*
X217996023Y-39902857D01*
X218043642Y-39855238D01*
X218138880Y-39807619D01*
X218234119Y-39807619D01*
X218329357Y-39855238D01*
X218376976Y-39902857D01*
X218424595Y-39998095D01*
X218472214Y-40188571D01*
X218472214Y-40426666D01*
X218424595Y-40617142D01*
X218376976Y-40712380D01*
X218329357Y-40760000D01*
X218234119Y-40807619D01*
X216996023Y-40807619D02*
X217472214Y-40807619D01*
X217519833Y-40331428D01*
X217472214Y-40379047D01*
X217376976Y-40426666D01*
X217138880Y-40426666D01*
X217043642Y-40379047D01*
X216996023Y-40331428D01*
X216948404Y-40236190D01*
X216948404Y-39998095D01*
X216996023Y-39902857D01*
X217043642Y-39855238D01*
X217138880Y-39807619D01*
X217376976Y-39807619D01*
X217472214Y-39855238D01*
X217519833Y-39902857D01*
X216329357Y-40807619D02*
X216234119Y-40807619D01*
X216138880Y-40760000D01*
X216091261Y-40712380D01*
X216043642Y-40617142D01*
X215996023Y-40426666D01*
X215996023Y-40188571D01*
X216043642Y-39998095D01*
X216091261Y-39902857D01*
X216138880Y-39855238D01*
X216234119Y-39807619D01*
X216329357Y-39807619D01*
X216424595Y-39855238D01*
X216472214Y-39902857D01*
X216519833Y-39998095D01*
X216567452Y-40188571D01*
X216567452Y-40426666D01*
X216519833Y-40617142D01*
X216472214Y-40712380D01*
X216424595Y-40760000D01*
X216329357Y-40807619D01*
%TO.C,J3*%
X214328748Y-79723049D02*
X214519225Y-79723049D01*
X214614463Y-79770669D01*
X214709701Y-79865907D01*
X214757320Y-80056383D01*
X214757320Y-80389716D01*
X214709701Y-80580192D01*
X214614463Y-80675430D01*
X214519225Y-80723049D01*
X214328748Y-80723049D01*
X214233510Y-80675430D01*
X214138272Y-80580192D01*
X214090653Y-80389716D01*
X214090653Y-80056383D01*
X214138272Y-79865907D01*
X214233510Y-79770669D01*
X214328748Y-79723049D01*
X215757320Y-80723049D02*
X215423986Y-80246859D01*
X215185891Y-80723049D02*
X215185891Y-79723049D01*
X215566844Y-79723049D01*
X215662082Y-79770669D01*
X215709701Y-79818288D01*
X215757320Y-79913526D01*
X215757320Y-80056383D01*
X215709701Y-80151621D01*
X215662082Y-80199240D01*
X215566844Y-80246859D01*
X215185891Y-80246859D01*
X215947796Y-80818288D02*
X216709701Y-80818288D01*
X216947796Y-80723049D02*
X216947796Y-79723049D01*
X217423986Y-80723049D02*
X217423986Y-79723049D01*
X217995415Y-80723049D01*
X217995415Y-79723049D01*
X218471606Y-80723049D02*
X218471606Y-79723049D01*
X218852558Y-79723049D01*
X218947796Y-79770669D01*
X218995415Y-79818288D01*
X219043034Y-79913526D01*
X219043034Y-80056383D01*
X218995415Y-80151621D01*
X218947796Y-80199240D01*
X218852558Y-80246859D01*
X218471606Y-80246859D01*
X219471606Y-79723049D02*
X219471606Y-80532573D01*
X219519225Y-80627811D01*
X219566844Y-80675430D01*
X219662082Y-80723049D01*
X219852558Y-80723049D01*
X219947796Y-80675430D01*
X219995415Y-80627811D01*
X220043034Y-80532573D01*
X220043034Y-79723049D01*
X220376367Y-79723049D02*
X220947796Y-79723049D01*
X220662082Y-80723049D02*
X220662082Y-79723049D01*
%TO.C,D9*%
X211457142Y-72852380D02*
X210885714Y-72852380D01*
X211171428Y-72852380D02*
X211171428Y-71852380D01*
X211076190Y-71995238D01*
X210980952Y-72090476D01*
X210885714Y-72138095D01*
X211885714Y-72852380D02*
X211885714Y-71852380D01*
X212457142Y-72852380D01*
X212457142Y-71852380D01*
X213361904Y-72185714D02*
X213361904Y-72852380D01*
X213123809Y-71804761D02*
X212885714Y-72519047D01*
X213504761Y-72519047D01*
X214409523Y-72852380D02*
X213838095Y-72852380D01*
X214123809Y-72852380D02*
X214123809Y-71852380D01*
X214028571Y-71995238D01*
X213933333Y-72090476D01*
X213838095Y-72138095D01*
X215266666Y-72185714D02*
X215266666Y-72852380D01*
X215028571Y-71804761D02*
X214790476Y-72519047D01*
X215409523Y-72519047D01*
X215933333Y-72280952D02*
X215838095Y-72233333D01*
X215790476Y-72185714D01*
X215742857Y-72090476D01*
X215742857Y-72042857D01*
X215790476Y-71947619D01*
X215838095Y-71900000D01*
X215933333Y-71852380D01*
X216123809Y-71852380D01*
X216219047Y-71900000D01*
X216266666Y-71947619D01*
X216314285Y-72042857D01*
X216314285Y-72090476D01*
X216266666Y-72185714D01*
X216219047Y-72233333D01*
X216123809Y-72280952D01*
X215933333Y-72280952D01*
X215838095Y-72328571D01*
X215790476Y-72376190D01*
X215742857Y-72471428D01*
X215742857Y-72661904D01*
X215790476Y-72757142D01*
X215838095Y-72804761D01*
X215933333Y-72852380D01*
X216123809Y-72852380D01*
X216219047Y-72804761D01*
X216266666Y-72757142D01*
X216314285Y-72661904D01*
X216314285Y-72471428D01*
X216266666Y-72376190D01*
X216219047Y-72328571D01*
X216123809Y-72280952D01*
%TO.C,SW9*%
X197890476Y-64065476D02*
X198176190Y-64065476D01*
X198366666Y-64494047D02*
X198985714Y-64494047D01*
X197890476Y-64827380D02*
X198128571Y-64827380D01*
X197842857Y-63779761D02*
X198176190Y-63779761D01*
X198176190Y-64065476D01*
X198366666Y-64208333D02*
X198366666Y-64494047D01*
X198366666Y-64208333D02*
X198985714Y-64208333D01*
X198985714Y-64494047D01*
X198938095Y-64636904D02*
X199128571Y-64827380D01*
X198842857Y-63827380D02*
X199033333Y-64017857D01*
X197890476Y-64065476D02*
X197842857Y-64351190D01*
X198176190Y-64303571D01*
X198176190Y-64541666D01*
X198128571Y-64827380D01*
X198319047Y-64827380D02*
X198985714Y-64732142D01*
X198557142Y-63732142D02*
X198414285Y-64017857D01*
X198985714Y-64017857D01*
X198700000Y-64017857D02*
X198700000Y-64779761D01*
X199414285Y-63922619D02*
X200033333Y-63922619D01*
X199319047Y-64113095D02*
X200128571Y-64113095D01*
X199842857Y-64732142D02*
X200033333Y-64732142D01*
X200319047Y-64827380D02*
X200557142Y-64827380D01*
X199414285Y-64351190D02*
X199414285Y-64732142D01*
X199700000Y-63684523D02*
X199700000Y-64827380D01*
X199414285Y-64351190D02*
X200033333Y-64351190D01*
X200033333Y-64732142D01*
X200319047Y-63827380D02*
X200319047Y-64494047D01*
X200557142Y-63684523D02*
X200557142Y-64827380D01*
X199509523Y-63732142D02*
X199366666Y-64065476D01*
X200795238Y-63875000D02*
X201271428Y-63875000D01*
X201509523Y-64017857D02*
X201842857Y-64017857D01*
X200842857Y-64208333D02*
X201223809Y-64208333D01*
X201366666Y-64398809D02*
X201604761Y-64398809D01*
X200842857Y-64398809D02*
X201223809Y-64398809D01*
X201366666Y-64541666D02*
X201604761Y-64541666D01*
X200795238Y-64589285D02*
X201271428Y-64589285D01*
X201842857Y-64827380D02*
X201985714Y-64827380D01*
X200842857Y-64017857D02*
X200842857Y-64398809D01*
X201033333Y-63684523D02*
X201033333Y-64827380D01*
X200842857Y-64017857D02*
X201271428Y-64017857D01*
X201271428Y-64398809D01*
X201366666Y-64208333D02*
X201366666Y-64827380D01*
X201795238Y-64208333D02*
X201795238Y-64636904D01*
X201985714Y-64160714D02*
X201985714Y-64827380D01*
X201700000Y-63684523D02*
X201985714Y-64017857D01*
X201652380Y-63684523D02*
X201319047Y-64017857D01*
X201366666Y-64208333D02*
X201604761Y-64208333D01*
X201604761Y-64827380D01*
X201509523Y-64827380D01*
X202557142Y-63827380D02*
X202890476Y-63827380D01*
X202985714Y-64113095D01*
X203128571Y-64494047D01*
X203461904Y-64827380D01*
X202890476Y-63922619D02*
X202842857Y-64208333D01*
X202700000Y-64494047D01*
X202366666Y-64827380D01*
%TO.C,R18*%
X226106324Y-44716988D02*
X226041275Y-44734418D01*
X225934987Y-44728038D01*
X225728791Y-44608991D01*
X225670121Y-44520132D01*
X225652692Y-44455083D01*
X225659071Y-44348795D01*
X225706690Y-44266317D01*
X225819358Y-44166408D01*
X226599944Y-43957251D01*
X226063833Y-43647727D01*
X225692680Y-43433441D02*
X225192680Y-44299467D01*
X225419725Y-43715737D02*
X225362765Y-43242965D01*
X225029432Y-43820316D02*
X225549822Y-43680877D01*
X224580470Y-43836036D02*
X224515421Y-43853466D01*
X224409133Y-43847086D01*
X224202936Y-43728038D01*
X224144267Y-43639180D01*
X224126837Y-43574131D01*
X224133217Y-43467843D01*
X224180836Y-43385364D01*
X224293504Y-43285456D01*
X225074090Y-43076299D01*
X224537979Y-42766775D01*
%TO.C,SW10*%
X207494500Y-80267766D02*
X207696530Y-80065736D01*
X208134263Y-80234095D02*
X208571996Y-79796362D01*
X208033248Y-80806514D02*
X208201607Y-80638156D01*
X207258798Y-80099408D02*
X207494500Y-79863705D01*
X207696530Y-80065736D01*
X207932233Y-80032064D02*
X208134263Y-80234095D01*
X207932233Y-80032064D02*
X208369965Y-79594331D01*
X208571996Y-79796362D01*
X208639339Y-79931049D02*
X208908713Y-79931049D01*
X207999576Y-79425973D02*
X208268950Y-79425973D01*
X207494500Y-80267766D02*
X207662859Y-80503469D01*
X207864889Y-80234095D01*
X208033248Y-80402453D01*
X208201607Y-80638156D01*
X208336294Y-80503469D02*
X208740355Y-79964721D01*
X207730202Y-79560660D02*
X207831217Y-79863705D01*
X208235278Y-79459644D01*
X208033248Y-79661675D02*
X208571996Y-80200423D01*
X208470981Y-79089255D02*
X208908713Y-78651522D01*
X208538324Y-79291286D02*
X209110744Y-78718866D01*
X209346446Y-79358629D02*
X209481133Y-79223942D01*
X209750507Y-79089255D02*
X209918866Y-78920896D01*
X208774026Y-79392301D02*
X209043400Y-79661675D01*
X208504652Y-78718866D02*
X209312774Y-79526988D01*
X208774026Y-79392301D02*
X209211759Y-78954568D01*
X209481133Y-79223942D01*
X209043400Y-78382148D02*
X209514805Y-78853553D01*
X209110744Y-78112774D02*
X209918866Y-78920896D01*
X208403637Y-78887225D02*
X208538324Y-79223942D01*
X209413790Y-78079103D02*
X209750507Y-77742385D01*
X210019881Y-77675042D02*
X210255583Y-77439339D01*
X209683164Y-78281133D02*
X209952538Y-78011759D01*
X210188240Y-78045431D02*
X210356599Y-77877072D01*
X209817851Y-78415820D02*
X210087225Y-78146446D01*
X210289255Y-78146446D02*
X210457614Y-77978087D01*
X209918866Y-78584179D02*
X210255583Y-78247461D01*
X210828003Y-78011759D02*
X210929018Y-77910744D01*
X209548477Y-78146446D02*
X209817851Y-78415820D01*
X209447461Y-77776057D02*
X210255583Y-78584179D01*
X209548477Y-78146446D02*
X209851522Y-77843400D01*
X210120896Y-78112774D01*
X210053553Y-77910744D02*
X210491286Y-78348477D01*
X210356599Y-77607698D02*
X210659644Y-77910744D01*
X210457614Y-77439339D02*
X210929018Y-77910744D01*
X209918866Y-77304652D02*
X210356599Y-77338324D01*
X209885194Y-77338324D02*
X209885194Y-77809729D01*
X210053553Y-77910744D02*
X210221912Y-77742385D01*
X210659644Y-78180118D01*
X210592301Y-78247461D01*
X210625973Y-76799576D02*
X210861675Y-76563874D01*
X211131049Y-76698561D01*
X211501438Y-76866920D01*
X211972843Y-76866920D01*
X210929018Y-76631217D02*
X211097377Y-76866920D01*
X211198392Y-77169965D01*
X211198392Y-77641370D01*
%TO.C,D8*%
X203218040Y-68320344D02*
X202723169Y-68034630D01*
X202970604Y-68177487D02*
X203470604Y-67311462D01*
X203316697Y-67387561D01*
X203186600Y-67422420D01*
X203080311Y-67416040D01*
X203589194Y-68534630D02*
X204089194Y-67668605D01*
X204084066Y-68820344D01*
X204584066Y-67954319D01*
X205200946Y-68695375D02*
X204867612Y-69272725D01*
X205185225Y-68246413D02*
X204621886Y-68745955D01*
X205157997Y-69055479D01*
X205774877Y-69796535D02*
X205280006Y-69510821D01*
X205527441Y-69653678D02*
X206027441Y-68787652D01*
X205873534Y-68863751D01*
X205743437Y-68898611D01*
X205637148Y-68892231D01*
X206850518Y-69647756D02*
X206517185Y-70225106D01*
X206834798Y-69198794D02*
X206271458Y-69698336D01*
X206807569Y-70007860D01*
X207380249Y-70063568D02*
X207321580Y-69974710D01*
X207304150Y-69909661D01*
X207310530Y-69803373D01*
X207334340Y-69762133D01*
X207423198Y-69703464D01*
X207488247Y-69686034D01*
X207594535Y-69692414D01*
X207759492Y-69787652D01*
X207818161Y-69876511D01*
X207835591Y-69941559D01*
X207829211Y-70047848D01*
X207805402Y-70089087D01*
X207716543Y-70147756D01*
X207651495Y-70165186D01*
X207545206Y-70158806D01*
X207380249Y-70063568D01*
X207273961Y-70057188D01*
X207208912Y-70074618D01*
X207120054Y-70133287D01*
X207024816Y-70298244D01*
X207018436Y-70404532D01*
X207035866Y-70469581D01*
X207094535Y-70558440D01*
X207259492Y-70653678D01*
X207365780Y-70660057D01*
X207430829Y-70642628D01*
X207519688Y-70583959D01*
X207614926Y-70419001D01*
X207621305Y-70312713D01*
X207603876Y-70247664D01*
X207545206Y-70158806D01*
%TO.C,J9*%
X235059615Y-53363622D02*
X234964377Y-53198665D01*
X234957998Y-53092377D01*
X234992857Y-52962279D01*
X235134005Y-52825802D01*
X235422680Y-52659135D01*
X235611447Y-52605137D01*
X235741544Y-52639996D01*
X235830403Y-52698665D01*
X235925641Y-52863622D01*
X235932021Y-52969911D01*
X235897161Y-53100008D01*
X235756013Y-53236486D01*
X235467338Y-53403152D01*
X235278571Y-53457151D01*
X235148474Y-53422292D01*
X235059615Y-53363622D01*
X235211355Y-51626443D02*
X234965629Y-52153214D01*
X235497069Y-52121315D02*
X234631044Y-52621315D01*
X234440568Y-52291400D01*
X234434188Y-52185112D01*
X234451618Y-52120064D01*
X234510287Y-52031205D01*
X234634005Y-51959777D01*
X234740293Y-51953397D01*
X234805342Y-51970827D01*
X234894200Y-52029496D01*
X235084676Y-52359410D01*
X235198596Y-51413867D02*
X234817643Y-50754038D01*
X233654853Y-50930503D02*
X233559615Y-50765546D01*
X233553236Y-50659258D01*
X233588095Y-50529160D01*
X233729243Y-50392683D01*
X234017918Y-50226016D01*
X234206685Y-50172018D01*
X234336782Y-50206877D01*
X234425641Y-50265546D01*
X234520879Y-50430503D01*
X234527259Y-50536792D01*
X234492399Y-50666889D01*
X234351251Y-50803367D01*
X234062576Y-50970033D01*
X233873810Y-51024032D01*
X233743712Y-50989173D01*
X233654853Y-50930503D01*
X233226282Y-50188196D02*
X233927350Y-49783434D01*
X233986019Y-49694576D01*
X234003449Y-49629527D01*
X233997069Y-49523239D01*
X233901831Y-49358281D01*
X233812973Y-49299612D01*
X233747924Y-49282183D01*
X233641636Y-49288562D01*
X232940568Y-49693324D01*
X232773901Y-49404649D02*
X232488187Y-48909777D01*
X233497069Y-48657213D02*
X232631044Y-49157213D01*
X233187546Y-48121102D02*
X232321520Y-48621102D01*
X232131044Y-48291188D01*
X232124664Y-48184900D01*
X232142094Y-48119851D01*
X232200763Y-48030993D01*
X232324481Y-47959564D01*
X232430769Y-47953184D01*
X232495818Y-47970614D01*
X232584676Y-48029283D01*
X232775153Y-48359198D01*
X231821520Y-47755077D02*
X232522588Y-47350315D01*
X232581257Y-47261457D01*
X232598687Y-47196408D01*
X232592307Y-47090120D01*
X232497069Y-46925163D01*
X232408211Y-46866493D01*
X232343162Y-46849064D01*
X232236874Y-46855443D01*
X231535806Y-47260205D01*
X231369139Y-46971530D02*
X231083425Y-46476658D01*
X232092307Y-46224094D02*
X231226282Y-46724094D01*
%TO.C,D2*%
X214542857Y-40047619D02*
X215114285Y-40047619D01*
X214828571Y-40047619D02*
X214828571Y-41047619D01*
X214923809Y-40904761D01*
X215019047Y-40809523D01*
X215114285Y-40761904D01*
X214114285Y-40047619D02*
X214114285Y-41047619D01*
X213542857Y-40047619D01*
X213542857Y-41047619D01*
X212638095Y-40714285D02*
X212638095Y-40047619D01*
X212876190Y-41095238D02*
X213114285Y-40380952D01*
X212495238Y-40380952D01*
X211590476Y-40047619D02*
X212161904Y-40047619D01*
X211876190Y-40047619D02*
X211876190Y-41047619D01*
X211971428Y-40904761D01*
X212066666Y-40809523D01*
X212161904Y-40761904D01*
X210733333Y-40714285D02*
X210733333Y-40047619D01*
X210971428Y-41095238D02*
X211209523Y-40380952D01*
X210590476Y-40380952D01*
X210066666Y-40619047D02*
X210161904Y-40666666D01*
X210209523Y-40714285D01*
X210257142Y-40809523D01*
X210257142Y-40857142D01*
X210209523Y-40952380D01*
X210161904Y-41000000D01*
X210066666Y-41047619D01*
X209876190Y-41047619D01*
X209780952Y-41000000D01*
X209733333Y-40952380D01*
X209685714Y-40857142D01*
X209685714Y-40809523D01*
X209733333Y-40714285D01*
X209780952Y-40666666D01*
X209876190Y-40619047D01*
X210066666Y-40619047D01*
X210161904Y-40571428D01*
X210209523Y-40523809D01*
X210257142Y-40428571D01*
X210257142Y-40238095D01*
X210209523Y-40142857D01*
X210161904Y-40095238D01*
X210066666Y-40047619D01*
X209876190Y-40047619D01*
X209780952Y-40095238D01*
X209733333Y-40142857D01*
X209685714Y-40238095D01*
X209685714Y-40428571D01*
X209733333Y-40523809D01*
X209780952Y-40571428D01*
X209876190Y-40619047D01*
%TO.C,R2*%
X205266529Y-55147313D02*
X204689178Y-54813980D01*
X205715491Y-55131593D02*
X205215949Y-54568254D01*
X204906425Y-55104365D01*
X205340918Y-55685134D02*
X205007585Y-56262484D01*
X204355845Y-55391330D01*
X204721871Y-56757356D02*
X204674252Y-56839834D01*
X204585393Y-56898504D01*
X204520344Y-56915933D01*
X204414056Y-56909554D01*
X204225289Y-56855555D01*
X204019093Y-56736507D01*
X203877945Y-56600030D01*
X203819276Y-56511171D01*
X203801846Y-56446123D01*
X203808226Y-56339834D01*
X203855845Y-56257356D01*
X203944704Y-56198687D01*
X204009752Y-56181257D01*
X204116040Y-56187637D01*
X204304807Y-56241635D01*
X204511004Y-56360683D01*
X204652151Y-56497161D01*
X204710821Y-56586019D01*
X204728250Y-56651068D01*
X204721871Y-56757356D01*
%TO.C,R1*%
X217500201Y-72690383D02*
X217500201Y-73357049D01*
X217262106Y-72309430D02*
X217024010Y-73023716D01*
X217643058Y-73023716D01*
X217928772Y-72357049D02*
X218595439Y-72357049D01*
X218166867Y-73357049D01*
X219166867Y-72357049D02*
X219262106Y-72357049D01*
X219357344Y-72404669D01*
X219404963Y-72452288D01*
X219452582Y-72547526D01*
X219500201Y-72738002D01*
X219500201Y-72976097D01*
X219452582Y-73166573D01*
X219404963Y-73261811D01*
X219357344Y-73309430D01*
X219262106Y-73357049D01*
X219166867Y-73357049D01*
X219071629Y-73309430D01*
X219024010Y-73261811D01*
X218976391Y-73166573D01*
X218928772Y-72976097D01*
X218928772Y-72738002D01*
X218976391Y-72547526D01*
X219024010Y-72452288D01*
X219071629Y-72404669D01*
X219166867Y-72357049D01*
%TO.C,R4*%
X211417540Y-49336616D02*
X211417540Y-48669950D01*
X211655635Y-49717569D02*
X211893730Y-49003283D01*
X211274683Y-49003283D01*
X210893730Y-48669950D02*
X210893730Y-49669950D01*
X210798492Y-49050902D02*
X210512778Y-48669950D01*
X210512778Y-49336616D02*
X210893730Y-48955664D01*
X210179444Y-49669950D02*
X209512778Y-49669950D01*
X209941349Y-48669950D01*
%TO.C,Q7*%
X229245772Y-49994627D02*
X229215582Y-49847099D01*
X229096535Y-49640903D01*
X229007676Y-49582234D01*
X228942628Y-49564804D01*
X228836339Y-49571183D01*
X228753861Y-49618803D01*
X228695192Y-49707661D01*
X228677762Y-49772710D01*
X228684142Y-49878998D01*
X228738141Y-50067765D01*
X228744520Y-50174053D01*
X228727091Y-50239102D01*
X228668421Y-50327960D01*
X228585943Y-50375579D01*
X228479655Y-50381959D01*
X228414606Y-50364529D01*
X228325747Y-50305860D01*
X228206700Y-50099663D01*
X228176511Y-49952136D01*
X228220711Y-49266788D02*
X228227091Y-49373076D01*
X228209661Y-49438125D01*
X228150992Y-49526983D01*
X228109752Y-49550793D01*
X228003464Y-49557173D01*
X227938415Y-49539743D01*
X227849557Y-49481074D01*
X227754319Y-49316117D01*
X227747939Y-49209828D01*
X227765369Y-49144780D01*
X227824038Y-49055921D01*
X227865277Y-49032112D01*
X227971565Y-49025732D01*
X228036614Y-49043162D01*
X228125473Y-49101831D01*
X228220711Y-49266788D01*
X228309569Y-49325457D01*
X228374618Y-49342887D01*
X228480906Y-49336507D01*
X228645863Y-49241269D01*
X228704532Y-49152411D01*
X228721962Y-49087362D01*
X228715582Y-48981074D01*
X228620344Y-48816117D01*
X228531486Y-48757447D01*
X228466437Y-48740018D01*
X228360149Y-48746397D01*
X228195192Y-48841635D01*
X228136523Y-48930494D01*
X228119093Y-48995543D01*
X228125473Y-49101831D01*
X227206700Y-48367612D02*
X227444795Y-48780006D01*
X227880998Y-48583150D01*
X227815949Y-48565720D01*
X227727091Y-48507051D01*
X227608043Y-48300854D01*
X227601663Y-48194566D01*
X227619093Y-48129517D01*
X227677762Y-48040659D01*
X227883959Y-47921611D01*
X227990247Y-47915232D01*
X228055295Y-47932661D01*
X228144154Y-47991330D01*
X228263201Y-48197527D01*
X228269581Y-48303815D01*
X228252151Y-48368864D01*
X226730509Y-47542826D02*
X226968605Y-47955219D01*
X227404807Y-47758364D01*
X227339758Y-47740934D01*
X227250900Y-47682265D01*
X227131852Y-47476068D01*
X227125473Y-47369780D01*
X227142902Y-47304731D01*
X227201572Y-47215873D01*
X227407768Y-47096825D01*
X227514056Y-47090445D01*
X227579105Y-47107875D01*
X227667963Y-47166544D01*
X227787011Y-47372741D01*
X227793391Y-47479029D01*
X227775961Y-47544078D01*
X226397176Y-46965476D02*
X226349557Y-46882998D01*
X226343177Y-46776709D01*
X226360607Y-46711661D01*
X226419276Y-46622802D01*
X226560424Y-46486325D01*
X226766620Y-46367277D01*
X226955387Y-46313278D01*
X227061675Y-46306899D01*
X227126724Y-46324328D01*
X227215582Y-46382998D01*
X227263201Y-46465476D01*
X227269581Y-46571764D01*
X227252151Y-46636813D01*
X227193482Y-46725671D01*
X227052335Y-46862149D01*
X226846138Y-46981196D01*
X226657371Y-47035195D01*
X226551083Y-47041575D01*
X226486034Y-47024145D01*
X226397176Y-46965476D01*
%TO.C,SW2*%
X197629770Y-67361024D02*
X200677770Y-72640314D01*
D13*
%TO.C,SW6*%
X231357116Y-71718654D02*
X230317885Y-71118654D01*
X229976860Y-69709327D02*
X231026860Y-67890674D01*
X232417885Y-67481347D02*
X233457116Y-68081347D01*
X233798141Y-69490674D02*
X232748141Y-71309327D01*
%TO.C,R19*%
X230985103Y-55599501D02*
X231212167Y-55992787D01*
X229712045Y-56334501D02*
X229939109Y-56727787D01*
%TO.C,Q4*%
X224080000Y-73301000D02*
X223517083Y-73626000D01*
X222520000Y-70599000D02*
X223082917Y-70274000D01*
X222520000Y-70599000D02*
X221069407Y-71436500D01*
X224080000Y-73301000D02*
X224642917Y-72976000D01*
%TO.C,D1*%
X205522078Y-47002650D02*
X209038141Y-44972650D01*
X207453141Y-42227350D02*
X203937078Y-44257350D01*
X203937078Y-44257350D02*
X205522078Y-47002650D01*
%TO.C,R16*%
X214472936Y-46265000D02*
X214927064Y-46265000D01*
X214472936Y-47735000D02*
X214927064Y-47735000D01*
%TO.C,R7*%
X219864143Y-47377003D02*
X219470857Y-47149939D01*
X219129143Y-48650061D02*
X218735857Y-48422997D01*
%TO.C,J1*%
X203816814Y-49973956D02*
X199976814Y-56625031D01*
X197673186Y-55295031D02*
X199976814Y-56625031D01*
X201513186Y-48643956D02*
X203816814Y-49973956D01*
X202813186Y-46392290D02*
X203965000Y-47057290D01*
X202148186Y-47544104D02*
X202813186Y-46392290D01*
X201513186Y-48643956D02*
X197673186Y-55295031D01*
%TO.C,R12*%
X205522997Y-63485857D02*
X205750061Y-63879143D01*
X204249939Y-64220857D02*
X204477003Y-64614143D01*
%TO.C,SW19*%
X235602891Y-68113584D02*
X235247820Y-67908584D01*
X232392891Y-73673468D02*
X235602891Y-68113584D01*
X230043007Y-64903584D02*
X226833007Y-70463468D01*
X230398078Y-65108584D02*
X230043007Y-64903584D01*
X226833007Y-70463468D02*
X227075495Y-70603468D01*
X232037820Y-73468468D02*
X232392891Y-73673468D01*
%TO.C,Q1*%
X218900000Y-41240000D02*
X217225000Y-41240000D01*
X218900000Y-41240000D02*
X219550000Y-41240000D01*
X218900000Y-44360000D02*
X218250000Y-44360000D01*
X218900000Y-44360000D02*
X219550000Y-44360000D01*
%TO.C,SW14*%
X195390000Y-56815000D02*
X195390000Y-57095000D01*
X201810000Y-63235000D02*
X201810000Y-62825000D01*
X195390000Y-63235000D02*
X201810000Y-63235000D01*
X201810000Y-57225000D02*
X201810000Y-56815000D01*
X195390000Y-62825000D02*
X195390000Y-63235000D01*
X201810000Y-56815000D02*
X195390000Y-56815000D01*
%TO.C,J3*%
X211031606Y-79440669D02*
X211031606Y-78110669D01*
X213631606Y-76780669D02*
X221311606Y-76780669D01*
X213631606Y-79440669D02*
X213631606Y-76780669D01*
X213631606Y-79440669D02*
X221311606Y-79440669D01*
X221311606Y-79440669D02*
X221311606Y-76780669D01*
X212361606Y-79440669D02*
X211031606Y-79440669D01*
%TO.C,D9*%
X213900000Y-71635000D02*
X217960000Y-71635000D01*
X217960000Y-68465000D02*
X213900000Y-68465000D01*
X217960000Y-71635000D02*
X217960000Y-68465000D01*
%TO.C,SW9*%
X197175000Y-59200000D02*
X199975000Y-59200000D01*
X196475000Y-61400000D02*
X196475000Y-60200000D01*
X200675000Y-60200000D02*
X200675000Y-61400000D01*
X200025000Y-62400000D02*
X197175000Y-62400000D01*
%TO.C,R18*%
X225569832Y-42622997D02*
X225963118Y-42850061D01*
X226304832Y-41349939D02*
X226698118Y-41577003D01*
%TO.C,SW15*%
X206900000Y-70660374D02*
X202360374Y-75200000D01*
X211439626Y-75200000D02*
X211149712Y-74910086D01*
X206900000Y-79739626D02*
X211439626Y-75200000D01*
X202360374Y-75200000D02*
X202558364Y-75397990D01*
X207189914Y-70950288D02*
X206900000Y-70660374D01*
X206610086Y-79449712D02*
X206900000Y-79739626D01*
%TO.C,SW10*%
X206038820Y-77426346D02*
X205473134Y-76860661D01*
X205261002Y-75658579D02*
X207240901Y-73678680D01*
X208442983Y-73890812D02*
X209008668Y-74456498D01*
%TO.C,D12*%
X235060106Y-61896669D02*
X235216106Y-61896669D01*
X237376106Y-61896669D02*
X237532106Y-61896669D01*
X235217498Y-58664334D02*
G75*
G03*
X235060590Y-61896669I1078608J-1672335D01*
G01*
X237376106Y-61377630D02*
G75*
G03*
X237375943Y-59295539I-1080000J1040961D01*
G01*
X237531622Y-61896669D02*
G75*
G03*
X237374714Y-58664334I-1235516J1560000D01*
G01*
X235216269Y-59295539D02*
G75*
G03*
X235216106Y-61377630I1079837J-1041130D01*
G01*
%TO.C,D8*%
X206271859Y-68622650D02*
X209787922Y-70652650D01*
X211372922Y-67907350D02*
X207856859Y-65877350D01*
X209787922Y-70652650D02*
X211372922Y-67907350D01*
%TO.C,J9*%
X233157292Y-56281596D02*
X235460920Y-54951596D01*
X229317292Y-49630521D02*
X231620920Y-48300521D01*
X228017292Y-47378855D02*
X229169106Y-46713855D01*
X229317292Y-49630521D02*
X233157292Y-56281596D01*
X231620920Y-48300521D02*
X235460920Y-54951596D01*
X228682292Y-48530669D02*
X228017292Y-47378855D01*
%TO.C,D2*%
X214872500Y-44485000D02*
X214872500Y-41315000D01*
X210812500Y-44485000D02*
X214872500Y-44485000D01*
X214872500Y-41315000D02*
X210812500Y-41315000D01*
%TO.C,R2*%
X204450061Y-54070857D02*
X204222997Y-54464143D01*
X203177003Y-53335857D02*
X202949939Y-53729143D01*
%TO.C,R1*%
X218044542Y-75395669D02*
X218498670Y-75395669D01*
X218044542Y-73925669D02*
X218498670Y-73925669D01*
%TO.C,R4*%
X210727064Y-48235000D02*
X210272936Y-48235000D01*
X210727064Y-46765000D02*
X210272936Y-46765000D01*
%TO.C,Q7*%
X224449000Y-50180000D02*
X225286500Y-51630593D01*
X224449000Y-50180000D02*
X224124000Y-49617083D01*
X227151000Y-48620000D02*
X226826000Y-48057083D01*
X227151000Y-48620000D02*
X227476000Y-49182917D01*
%TD*%
D14*
%TO.C,SW2*%
X197277937Y-69351631D03*
X198777937Y-71949707D03*
%TD*%
M02*
