%TF.GenerationSoftware,KiCad,Pcbnew,(6.0.5-0)*%
%TF.CreationDate,2022-06-08T15:29:45+08:00*%
%TF.ProjectId,dtl,64746c2e-6b69-4636-9164-5f7063625858,rev?*%
%TF.SameCoordinates,Original*%
%TF.FileFunction,Copper,L2,Bot*%
%TF.FilePolarity,Positive*%
%FSLAX46Y46*%
G04 Gerber Fmt 4.6, Leading zero omitted, Abs format (unit mm)*
G04 Created by KiCad (PCBNEW (6.0.5-0)) date 2022-06-08 15:29:45*
%MOMM*%
%LPD*%
G01*
G04 APERTURE LIST*
G04 Aperture macros list*
%AMHorizOval*
0 Thick line with rounded ends*
0 $1 width*
0 $2 $3 position (X,Y) of the first rounded end (center of the circle)*
0 $4 $5 position (X,Y) of the second rounded end (center of the circle)*
0 Add line between two ends*
20,1,$1,$2,$3,$4,$5,0*
0 Add two circle primitives to create the rounded ends*
1,1,$1,$2,$3*
1,1,$1,$4,$5*%
%AMRotRect*
0 Rectangle, with rotation*
0 The origin of the aperture is its center*
0 $1 length*
0 $2 width*
0 $3 Rotation angle, in degrees counterclockwise*
0 Add horizontal line*
21,1,$1,$2,0,0,$3*%
G04 Aperture macros list end*
%TA.AperFunction,ComponentPad*%
%ADD10RotRect,1.700000X1.700000X330.000000*%
%TD*%
%TA.AperFunction,ComponentPad*%
%ADD11HorizOval,1.700000X0.000000X0.000000X0.000000X0.000000X0*%
%TD*%
%TA.AperFunction,ComponentPad*%
%ADD12C,1.000000*%
%TD*%
%TA.AperFunction,ComponentPad*%
%ADD13R,1.700000X1.700000*%
%TD*%
%TA.AperFunction,ComponentPad*%
%ADD14O,1.700000X1.700000*%
%TD*%
%TA.AperFunction,ComponentPad*%
%ADD15RotRect,1.700000X1.700000X30.000000*%
%TD*%
%TA.AperFunction,ComponentPad*%
%ADD16HorizOval,1.700000X0.000000X0.000000X0.000000X0.000000X0*%
%TD*%
%TA.AperFunction,ComponentPad*%
%ADD17R,1.800000X1.800000*%
%TD*%
%TA.AperFunction,ComponentPad*%
%ADD18C,1.800000*%
%TD*%
%TA.AperFunction,SMDPad,CuDef*%
%ADD19R,5.100000X5.100000*%
%TD*%
%TA.AperFunction,SMDPad,CuDef*%
%ADD20C,17.800000*%
%TD*%
%TA.AperFunction,ViaPad*%
%ADD21C,0.800000*%
%TD*%
%TA.AperFunction,Conductor*%
%ADD22C,0.250000*%
%TD*%
G04 APERTURE END LIST*
D10*
%TO.P,J2,1,Pin_1*%
%TO.N,Net-(Q6-Pad2)*%
X63920000Y-47974031D03*
D11*
%TO.P,J2,2,Pin_2*%
%TO.N,Net-(D4-Pad1)*%
X62670000Y-50139095D03*
%TO.P,J2,3,Pin_3*%
%TO.N,unconnected-(J2-Pad3)*%
X61420000Y-52304158D03*
%TO.P,J2,4,Pin_4*%
%TO.N,GNDREF*%
X60170000Y-54469222D03*
%TD*%
D12*
%TO.P,SW1,8*%
%TO.N,N/C*%
X58927031Y-69727889D03*
%TO.P,SW1,9*%
X60427031Y-72325965D03*
%TD*%
D13*
%TO.P,J4,1,Pin_1*%
%TO.N,Net-(Q6-Pad2)*%
X73880000Y-78244927D03*
D14*
%TO.P,J4,2,Pin_2*%
%TO.N,unconnected-(J4-Pad2)*%
X76380000Y-78244927D03*
%TO.P,J4,3,Pin_3*%
%TO.N,Net-(D5-Pad1)*%
X78880000Y-78244927D03*
%TO.P,J4,4,Pin_4*%
%TO.N,GNDREF*%
X81380000Y-78244927D03*
%TD*%
D15*
%TO.P,J8,1,Pin_1*%
%TO.N,unconnected-(J8-Pad1)*%
X91335000Y-48019927D03*
D16*
%TO.P,J8,2,Pin_2*%
%TO.N,Net-(J8-Pad2)*%
X92585000Y-50184991D03*
%TO.P,J8,3,Pin_3*%
X93835000Y-52350054D03*
%TO.P,J8,4,Pin_4*%
%TO.N,GNDREF*%
X95085000Y-54515118D03*
%TD*%
D17*
%TO.P,D11,1,K*%
%TO.N,GNDREF*%
X98164400Y-62626327D03*
D18*
%TO.P,D11,2,A*%
%TO.N,Net-(D11-Pad2)*%
X98164400Y-60086327D03*
%TD*%
D19*
%TO.P,BT3,1,+*%
%TO.N,Net-(BT3-Pad1)*%
X64830000Y-60264927D03*
X90430000Y-60264927D03*
D20*
%TO.P,BT3,2,-*%
%TO.N,GNDREF*%
X77630000Y-60264927D03*
%TD*%
D21*
%TO.N,GNDREF*%
X70360000Y-80650000D03*
X71610000Y-48150000D03*
X69600000Y-65400000D03*
X87360000Y-64650000D03*
%TO.N,Net-(BT3-Pad1)*%
X62400000Y-67100000D03*
%TD*%
D22*
%TO.N,GNDREF*%
X60170000Y-54469222D02*
X71834295Y-54469222D01*
X70360000Y-80650000D02*
X81360000Y-80650000D01*
X81380000Y-80630000D02*
X81380000Y-78244927D01*
X95085000Y-54515118D02*
X83379809Y-54515118D01*
X71834295Y-54469222D02*
X77630000Y-60264927D01*
X83379809Y-54515118D02*
X77630000Y-60264927D01*
X81360000Y-80650000D02*
X81380000Y-80630000D01*
%TO.N,Net-(BT3-Pad1)*%
X90430000Y-60264927D02*
X90430000Y-66376927D01*
X64830000Y-66332927D02*
X64662927Y-66500000D01*
X90430000Y-66376927D02*
X85145000Y-71661927D01*
X64830000Y-66332927D02*
X64830000Y-60264927D01*
X63000000Y-66500000D02*
X62400000Y-67100000D01*
X85145000Y-71661927D02*
X70159000Y-71661927D01*
X64662927Y-66500000D02*
X63000000Y-66500000D01*
X70159000Y-71661927D02*
X64830000Y-66332927D01*
%TD*%
%TA.AperFunction,Conductor*%
%TO.N,GNDREF*%
G36*
X88852783Y-38264927D02*
G01*
X88867617Y-38267237D01*
X88867620Y-38267237D01*
X88876490Y-38268618D01*
X88894100Y-38266315D01*
X88917757Y-38265464D01*
X89164688Y-38279844D01*
X89179231Y-38281543D01*
X89450117Y-38329306D01*
X89464364Y-38332683D01*
X89727879Y-38411574D01*
X89741640Y-38416583D01*
X89830103Y-38454742D01*
X89994195Y-38525525D01*
X90007290Y-38532101D01*
X90245499Y-38669634D01*
X90257741Y-38677686D01*
X90478370Y-38841942D01*
X90489594Y-38851361D01*
X90689661Y-39040122D01*
X90699704Y-39050768D01*
X90876507Y-39261482D01*
X90876508Y-39261483D01*
X90885249Y-39273223D01*
X91017246Y-39473928D01*
X91029482Y-39497697D01*
X91029579Y-39497949D01*
X91029583Y-39497956D01*
X91032820Y-39506324D01*
X91038278Y-39513450D01*
X91052183Y-39531606D01*
X91061269Y-39545218D01*
X95088126Y-46519937D01*
X102239595Y-58906642D01*
X102274106Y-58966417D01*
X102282501Y-58983959D01*
X102291157Y-59006335D01*
X102301952Y-59020429D01*
X102314520Y-59040497D01*
X102425525Y-59261529D01*
X102431329Y-59274983D01*
X102525405Y-59533459D01*
X102529607Y-59547497D01*
X102593037Y-59815140D01*
X102595581Y-59829569D01*
X102627511Y-60102762D01*
X102628363Y-60117390D01*
X102628361Y-60392446D01*
X102627509Y-60407074D01*
X102595573Y-60680278D01*
X102593028Y-60694707D01*
X102529597Y-60962337D01*
X102525395Y-60976375D01*
X102431313Y-61234854D01*
X102425510Y-61248306D01*
X102348214Y-61402213D01*
X102317712Y-61462946D01*
X102303238Y-61485440D01*
X102297437Y-61492642D01*
X102285223Y-61522054D01*
X102277985Y-61536715D01*
X91065146Y-80957923D01*
X91054155Y-80973958D01*
X91039111Y-80992634D01*
X91035669Y-81000923D01*
X91035668Y-81000924D01*
X91032299Y-81009035D01*
X91021205Y-81029950D01*
X90885279Y-81236604D01*
X90876529Y-81248356D01*
X90699722Y-81459059D01*
X90689667Y-81469716D01*
X90489587Y-81658477D01*
X90478381Y-81667879D01*
X90282493Y-81813710D01*
X90257737Y-81832140D01*
X90245496Y-81840191D01*
X90007287Y-81977720D01*
X89994193Y-81984296D01*
X89741629Y-82093242D01*
X89727861Y-82098253D01*
X89464365Y-82177140D01*
X89450108Y-82180520D01*
X89335557Y-82200720D01*
X89179217Y-82228288D01*
X89164672Y-82229989D01*
X88924940Y-82243956D01*
X88898230Y-82242669D01*
X88889025Y-82241236D01*
X88860803Y-82244927D01*
X88857469Y-82245363D01*
X88841129Y-82246427D01*
X66415466Y-82246427D01*
X66396081Y-82244927D01*
X66381248Y-82242617D01*
X66381244Y-82242617D01*
X66372375Y-82241236D01*
X66363473Y-82242400D01*
X66363471Y-82242400D01*
X66359274Y-82242949D01*
X66354769Y-82243538D01*
X66331111Y-82244389D01*
X66084176Y-82230007D01*
X66069631Y-82228307D01*
X65879998Y-82194869D01*
X65798744Y-82180542D01*
X65784488Y-82177163D01*
X65633189Y-82131868D01*
X65520975Y-82098274D01*
X65507220Y-82093268D01*
X65254650Y-81984319D01*
X65241560Y-81977746D01*
X65003350Y-81840217D01*
X64991107Y-81832165D01*
X64991074Y-81832140D01*
X64770472Y-81667909D01*
X64759249Y-81658492D01*
X64559175Y-81469734D01*
X64549120Y-81459076D01*
X64372316Y-81248372D01*
X64363566Y-81236619D01*
X64231677Y-81036094D01*
X64219437Y-81012322D01*
X64219269Y-81011887D01*
X64219268Y-81011885D01*
X64216029Y-81003513D01*
X64196672Y-80978241D01*
X64187582Y-80964624D01*
X63135902Y-79143061D01*
X72521500Y-79143061D01*
X72528255Y-79205243D01*
X72579385Y-79341632D01*
X72666739Y-79458188D01*
X72783295Y-79545542D01*
X72919684Y-79596672D01*
X72981866Y-79603427D01*
X74778134Y-79603427D01*
X74840316Y-79596672D01*
X74976705Y-79545542D01*
X75093261Y-79458188D01*
X75180615Y-79341632D01*
X75212515Y-79256539D01*
X75255156Y-79199774D01*
X75321718Y-79175074D01*
X75391067Y-79190281D01*
X75418285Y-79212243D01*
X75419170Y-79211339D01*
X75422864Y-79214956D01*
X75426250Y-79218865D01*
X75598126Y-79361559D01*
X75791000Y-79474265D01*
X75999692Y-79553957D01*
X76004760Y-79554988D01*
X76004763Y-79554989D01*
X76099862Y-79574337D01*
X76218597Y-79598494D01*
X76223772Y-79598684D01*
X76223774Y-79598684D01*
X76436673Y-79606491D01*
X76436677Y-79606491D01*
X76441837Y-79606680D01*
X76446957Y-79606024D01*
X76446959Y-79606024D01*
X76658288Y-79578952D01*
X76658289Y-79578952D01*
X76663416Y-79578295D01*
X76668366Y-79576810D01*
X76872429Y-79515588D01*
X76872434Y-79515586D01*
X76877384Y-79514101D01*
X77077994Y-79415823D01*
X77259860Y-79286100D01*
X77289525Y-79256539D01*
X77403400Y-79143061D01*
X77418096Y-79128416D01*
X77477814Y-79045310D01*
X77528681Y-78974520D01*
X77584676Y-78930872D01*
X77655379Y-78924426D01*
X77718344Y-78957229D01*
X77738437Y-78982212D01*
X77777287Y-79045610D01*
X77777291Y-79045615D01*
X77779987Y-79050015D01*
X77926250Y-79218865D01*
X78098126Y-79361559D01*
X78291000Y-79474265D01*
X78499692Y-79553957D01*
X78504760Y-79554988D01*
X78504763Y-79554989D01*
X78599862Y-79574337D01*
X78718597Y-79598494D01*
X78723772Y-79598684D01*
X78723774Y-79598684D01*
X78936673Y-79606491D01*
X78936677Y-79606491D01*
X78941837Y-79606680D01*
X78946957Y-79606024D01*
X78946959Y-79606024D01*
X79158288Y-79578952D01*
X79158289Y-79578952D01*
X79163416Y-79578295D01*
X79168366Y-79576810D01*
X79372429Y-79515588D01*
X79372434Y-79515586D01*
X79377384Y-79514101D01*
X79577994Y-79415823D01*
X79759860Y-79286100D01*
X79789525Y-79256539D01*
X79903400Y-79143061D01*
X79918096Y-79128416D01*
X79977598Y-79045610D01*
X80028998Y-78974079D01*
X80084993Y-78930431D01*
X80155696Y-78923985D01*
X80218661Y-78956788D01*
X80238754Y-78981771D01*
X80277690Y-79045310D01*
X80283777Y-79053626D01*
X80423213Y-79214594D01*
X80430580Y-79221810D01*
X80594434Y-79357843D01*
X80602881Y-79363758D01*
X80786756Y-79471206D01*
X80796042Y-79475656D01*
X80995001Y-79551630D01*
X81004899Y-79554506D01*
X81108250Y-79575533D01*
X81122299Y-79574337D01*
X81126000Y-79563992D01*
X81126000Y-79563444D01*
X81634000Y-79563444D01*
X81638064Y-79577286D01*
X81651478Y-79579320D01*
X81658184Y-79578461D01*
X81668262Y-79576319D01*
X81872255Y-79515118D01*
X81881842Y-79511360D01*
X82073095Y-79417666D01*
X82081945Y-79412391D01*
X82255328Y-79288719D01*
X82263200Y-79282066D01*
X82414052Y-79131739D01*
X82420730Y-79123892D01*
X82545003Y-78950947D01*
X82550313Y-78942110D01*
X82644670Y-78751194D01*
X82648469Y-78741599D01*
X82710377Y-78537837D01*
X82712555Y-78527764D01*
X82713986Y-78516889D01*
X82711775Y-78502705D01*
X82698617Y-78498927D01*
X81652115Y-78498927D01*
X81636876Y-78503402D01*
X81635671Y-78504792D01*
X81634000Y-78512475D01*
X81634000Y-79563444D01*
X81126000Y-79563444D01*
X81126000Y-77972812D01*
X81634000Y-77972812D01*
X81638475Y-77988051D01*
X81639865Y-77989256D01*
X81647548Y-77990927D01*
X82698344Y-77990927D01*
X82711875Y-77986954D01*
X82713180Y-77977874D01*
X82671214Y-77810802D01*
X82667894Y-77801051D01*
X82582972Y-77605741D01*
X82578105Y-77596666D01*
X82462426Y-77417853D01*
X82456136Y-77409684D01*
X82312806Y-77252167D01*
X82305273Y-77245142D01*
X82138139Y-77113149D01*
X82129552Y-77107444D01*
X81943117Y-77004526D01*
X81933705Y-77000296D01*
X81732959Y-76929207D01*
X81722988Y-76926573D01*
X81651837Y-76913899D01*
X81638540Y-76915359D01*
X81634000Y-76929916D01*
X81634000Y-77972812D01*
X81126000Y-77972812D01*
X81126000Y-76928029D01*
X81122082Y-76914685D01*
X81107806Y-76912698D01*
X81069324Y-76918587D01*
X81059288Y-76920978D01*
X80856868Y-76987139D01*
X80847359Y-76991136D01*
X80658463Y-77089469D01*
X80649738Y-77094963D01*
X80479433Y-77222832D01*
X80471726Y-77229675D01*
X80324590Y-77383644D01*
X80318108Y-77391649D01*
X80234028Y-77514905D01*
X80179116Y-77559907D01*
X80108592Y-77568078D01*
X80044845Y-77536824D01*
X80024148Y-77512340D01*
X79962822Y-77417544D01*
X79962820Y-77417541D01*
X79960014Y-77413204D01*
X79809670Y-77247978D01*
X79805619Y-77244779D01*
X79805615Y-77244775D01*
X79638414Y-77112727D01*
X79638410Y-77112725D01*
X79634359Y-77109525D01*
X79598028Y-77089469D01*
X79582136Y-77080696D01*
X79438789Y-77001565D01*
X79433920Y-76999841D01*
X79433916Y-76999839D01*
X79233087Y-76928722D01*
X79233083Y-76928721D01*
X79228212Y-76926996D01*
X79223119Y-76926089D01*
X79223116Y-76926088D01*
X79013373Y-76888727D01*
X79013367Y-76888726D01*
X79008284Y-76887821D01*
X78934452Y-76886919D01*
X78790081Y-76885155D01*
X78790079Y-76885155D01*
X78784911Y-76885092D01*
X78564091Y-76918882D01*
X78351756Y-76988284D01*
X78153607Y-77091434D01*
X78149474Y-77094537D01*
X78149471Y-77094539D01*
X78066771Y-77156632D01*
X77974965Y-77225562D01*
X77820629Y-77387065D01*
X77733732Y-77514452D01*
X77678823Y-77559452D01*
X77608298Y-77567623D01*
X77544551Y-77536369D01*
X77523854Y-77511885D01*
X77462822Y-77417544D01*
X77462820Y-77417541D01*
X77460014Y-77413204D01*
X77309670Y-77247978D01*
X77305619Y-77244779D01*
X77305615Y-77244775D01*
X77138414Y-77112727D01*
X77138410Y-77112725D01*
X77134359Y-77109525D01*
X77098028Y-77089469D01*
X77082136Y-77080696D01*
X76938789Y-77001565D01*
X76933920Y-76999841D01*
X76933916Y-76999839D01*
X76733087Y-76928722D01*
X76733083Y-76928721D01*
X76728212Y-76926996D01*
X76723119Y-76926089D01*
X76723116Y-76926088D01*
X76513373Y-76888727D01*
X76513367Y-76888726D01*
X76508284Y-76887821D01*
X76434452Y-76886919D01*
X76290081Y-76885155D01*
X76290079Y-76885155D01*
X76284911Y-76885092D01*
X76064091Y-76918882D01*
X75851756Y-76988284D01*
X75653607Y-77091434D01*
X75649474Y-77094537D01*
X75649471Y-77094539D01*
X75566771Y-77156632D01*
X75474965Y-77225562D01*
X75471398Y-77229295D01*
X75471392Y-77229300D01*
X75423011Y-77279928D01*
X75361487Y-77315357D01*
X75290574Y-77311900D01*
X75232788Y-77270653D01*
X75213936Y-77237105D01*
X75183768Y-77156632D01*
X75183767Y-77156630D01*
X75180615Y-77148222D01*
X75093261Y-77031666D01*
X74976705Y-76944312D01*
X74840316Y-76893182D01*
X74778134Y-76886427D01*
X72981866Y-76886427D01*
X72919684Y-76893182D01*
X72783295Y-76944312D01*
X72666739Y-77031666D01*
X72579385Y-77148222D01*
X72528255Y-77284611D01*
X72521500Y-77346793D01*
X72521500Y-79143061D01*
X63135902Y-79143061D01*
X62054866Y-77270653D01*
X59829076Y-73415471D01*
X59812338Y-73346477D01*
X59835558Y-73279385D01*
X59891366Y-73235498D01*
X59962041Y-73228749D01*
X59999666Y-73242484D01*
X60015947Y-73251584D01*
X60015953Y-73251586D01*
X60021325Y-73254589D01*
X60209423Y-73315705D01*
X60405808Y-73339123D01*
X60411943Y-73338651D01*
X60411945Y-73338651D01*
X60596861Y-73324422D01*
X60596865Y-73324421D01*
X60603003Y-73323949D01*
X60793494Y-73270763D01*
X60798998Y-73267983D01*
X60799000Y-73267982D01*
X60964526Y-73184369D01*
X60964528Y-73184368D01*
X60970027Y-73181590D01*
X61125878Y-73059826D01*
X61255109Y-72910110D01*
X61352800Y-72738144D01*
X61415228Y-72550478D01*
X61440016Y-72354260D01*
X61440411Y-72325965D01*
X61421111Y-72129132D01*
X61417017Y-72115570D01*
X61365728Y-71945696D01*
X61363947Y-71939796D01*
X61271097Y-71765169D01*
X61200740Y-71678903D01*
X61149991Y-71616678D01*
X61149988Y-71616675D01*
X61146096Y-71611903D01*
X61139755Y-71606657D01*
X60998456Y-71489764D01*
X60998452Y-71489762D01*
X60993706Y-71485835D01*
X60819732Y-71391767D01*
X60630799Y-71333283D01*
X60624674Y-71332639D01*
X60624673Y-71332639D01*
X60440235Y-71313254D01*
X60440233Y-71313254D01*
X60434106Y-71312610D01*
X60351607Y-71320118D01*
X60243282Y-71329976D01*
X60243279Y-71329977D01*
X60237143Y-71330535D01*
X60231237Y-71332273D01*
X60231233Y-71332274D01*
X60126107Y-71363214D01*
X60047412Y-71386375D01*
X60041954Y-71389228D01*
X60041950Y-71389230D01*
X59951178Y-71436685D01*
X59872141Y-71478005D01*
X59718006Y-71601933D01*
X59590877Y-71753439D01*
X59587910Y-71758837D01*
X59587906Y-71758842D01*
X59584428Y-71765169D01*
X59495598Y-71926752D01*
X59493737Y-71932619D01*
X59493736Y-71932621D01*
X59444208Y-72088754D01*
X59435796Y-72115271D01*
X59434436Y-72127399D01*
X59420375Y-72252749D01*
X59392904Y-72318215D01*
X59334400Y-72358437D01*
X59263438Y-72360644D01*
X59202547Y-72324136D01*
X59186041Y-72301703D01*
X59182741Y-72295986D01*
X58329076Y-70817396D01*
X58312338Y-70748401D01*
X58335558Y-70681309D01*
X58391366Y-70637422D01*
X58462041Y-70630673D01*
X58499666Y-70644408D01*
X58515947Y-70653508D01*
X58515953Y-70653510D01*
X58521325Y-70656513D01*
X58709423Y-70717629D01*
X58905808Y-70741047D01*
X58911943Y-70740575D01*
X58911945Y-70740575D01*
X59096861Y-70726346D01*
X59096865Y-70726345D01*
X59103003Y-70725873D01*
X59293494Y-70672687D01*
X59298998Y-70669907D01*
X59299000Y-70669906D01*
X59464526Y-70586293D01*
X59464528Y-70586292D01*
X59470027Y-70583514D01*
X59625878Y-70461750D01*
X59755109Y-70312034D01*
X59852800Y-70140068D01*
X59915228Y-69952402D01*
X59940016Y-69756184D01*
X59940411Y-69727889D01*
X59921111Y-69531056D01*
X59911442Y-69499029D01*
X59865728Y-69347620D01*
X59863947Y-69341720D01*
X59771097Y-69167093D01*
X59700740Y-69080827D01*
X59649991Y-69018602D01*
X59649988Y-69018599D01*
X59646096Y-69013827D01*
X59639755Y-69008581D01*
X59498456Y-68891688D01*
X59498452Y-68891686D01*
X59493706Y-68887759D01*
X59319732Y-68793691D01*
X59130799Y-68735207D01*
X59124674Y-68734563D01*
X59124673Y-68734563D01*
X58940235Y-68715178D01*
X58940233Y-68715178D01*
X58934106Y-68714534D01*
X58851607Y-68722042D01*
X58743282Y-68731900D01*
X58743279Y-68731901D01*
X58737143Y-68732459D01*
X58731237Y-68734197D01*
X58731233Y-68734198D01*
X58626107Y-68765138D01*
X58547412Y-68788299D01*
X58541954Y-68791152D01*
X58541950Y-68791154D01*
X58451178Y-68838609D01*
X58372141Y-68879929D01*
X58218006Y-69003857D01*
X58090877Y-69155363D01*
X58087910Y-69160761D01*
X58087906Y-69160766D01*
X58073544Y-69186891D01*
X57995598Y-69328676D01*
X57993737Y-69334543D01*
X57993736Y-69334545D01*
X57941810Y-69498236D01*
X57935796Y-69517195D01*
X57933553Y-69537190D01*
X57920375Y-69654673D01*
X57892904Y-69720140D01*
X57834400Y-69760362D01*
X57763438Y-69762569D01*
X57702547Y-69726061D01*
X57686044Y-69703633D01*
X56182836Y-67100000D01*
X61486496Y-67100000D01*
X61506458Y-67289928D01*
X61565473Y-67471556D01*
X61660960Y-67636944D01*
X61788747Y-67778866D01*
X61943248Y-67891118D01*
X61949276Y-67893802D01*
X61949278Y-67893803D01*
X62111681Y-67966109D01*
X62117712Y-67968794D01*
X62211112Y-67988647D01*
X62298056Y-68007128D01*
X62298061Y-68007128D01*
X62304513Y-68008500D01*
X62495487Y-68008500D01*
X62501939Y-68007128D01*
X62501944Y-68007128D01*
X62588888Y-67988647D01*
X62682288Y-67968794D01*
X62688319Y-67966109D01*
X62850722Y-67893803D01*
X62850724Y-67893802D01*
X62856752Y-67891118D01*
X63011253Y-67778866D01*
X63139040Y-67636944D01*
X63234527Y-67471556D01*
X63293542Y-67289928D01*
X63298124Y-67246329D01*
X63325137Y-67180673D01*
X63383358Y-67140043D01*
X63423434Y-67133500D01*
X64584160Y-67133500D01*
X64595343Y-67134027D01*
X64602836Y-67135702D01*
X64610762Y-67135453D01*
X64610763Y-67135453D01*
X64670913Y-67133562D01*
X64674872Y-67133500D01*
X64682479Y-67133500D01*
X64750600Y-67153502D01*
X64771574Y-67170405D01*
X67255841Y-69654673D01*
X69655348Y-72054180D01*
X69662888Y-72062466D01*
X69667000Y-72068945D01*
X69672777Y-72074370D01*
X69716651Y-72115570D01*
X69719493Y-72118325D01*
X69739230Y-72138062D01*
X69742427Y-72140542D01*
X69751447Y-72148245D01*
X69783679Y-72178513D01*
X69790625Y-72182332D01*
X69790628Y-72182334D01*
X69801434Y-72188275D01*
X69817953Y-72199126D01*
X69833959Y-72211541D01*
X69841228Y-72214686D01*
X69841232Y-72214689D01*
X69874537Y-72229101D01*
X69885187Y-72234318D01*
X69923940Y-72255622D01*
X69931615Y-72257593D01*
X69931616Y-72257593D01*
X69943562Y-72260660D01*
X69962267Y-72267064D01*
X69980855Y-72275108D01*
X69988678Y-72276347D01*
X69988688Y-72276350D01*
X70024524Y-72282026D01*
X70036144Y-72284432D01*
X70067959Y-72292600D01*
X70078970Y-72295427D01*
X70099224Y-72295427D01*
X70118934Y-72296978D01*
X70138943Y-72300147D01*
X70146835Y-72299401D01*
X70165580Y-72297629D01*
X70182962Y-72295986D01*
X70194819Y-72295427D01*
X85066233Y-72295427D01*
X85077416Y-72295954D01*
X85084909Y-72297629D01*
X85092835Y-72297380D01*
X85092836Y-72297380D01*
X85152986Y-72295489D01*
X85156945Y-72295427D01*
X85184856Y-72295427D01*
X85188791Y-72294930D01*
X85188856Y-72294922D01*
X85200693Y-72293989D01*
X85232951Y-72292975D01*
X85236970Y-72292849D01*
X85244889Y-72292600D01*
X85264343Y-72286948D01*
X85283700Y-72282940D01*
X85295930Y-72281395D01*
X85295931Y-72281395D01*
X85303797Y-72280401D01*
X85311168Y-72277482D01*
X85311170Y-72277482D01*
X85344912Y-72264123D01*
X85356142Y-72260278D01*
X85390983Y-72250156D01*
X85390984Y-72250156D01*
X85398593Y-72247945D01*
X85405412Y-72243912D01*
X85405417Y-72243910D01*
X85416028Y-72237634D01*
X85433776Y-72228939D01*
X85452617Y-72221479D01*
X85488387Y-72195491D01*
X85498307Y-72188975D01*
X85529535Y-72170507D01*
X85529538Y-72170505D01*
X85536362Y-72166469D01*
X85550683Y-72152148D01*
X85565717Y-72139307D01*
X85575694Y-72132058D01*
X85582107Y-72127399D01*
X85610298Y-72093322D01*
X85618288Y-72084543D01*
X90822247Y-66880584D01*
X90830537Y-66873040D01*
X90837018Y-66868927D01*
X90883659Y-66819259D01*
X90886413Y-66816418D01*
X90906135Y-66796696D01*
X90908612Y-66793503D01*
X90916317Y-66784482D01*
X90941159Y-66758027D01*
X90946586Y-66752248D01*
X90956217Y-66734729D01*
X90956346Y-66734495D01*
X90967202Y-66717968D01*
X90974757Y-66708229D01*
X90974758Y-66708227D01*
X90979614Y-66701967D01*
X90997174Y-66661387D01*
X91002391Y-66650739D01*
X91019875Y-66618936D01*
X91019876Y-66618934D01*
X91023695Y-66611987D01*
X91028733Y-66592364D01*
X91035137Y-66573661D01*
X91040033Y-66562347D01*
X91040033Y-66562346D01*
X91043181Y-66555072D01*
X91044420Y-66547249D01*
X91044423Y-66547239D01*
X91050099Y-66511403D01*
X91052505Y-66499783D01*
X91061528Y-66464638D01*
X91061528Y-66464637D01*
X91063500Y-66456957D01*
X91063500Y-66436703D01*
X91065051Y-66416992D01*
X91066980Y-66404813D01*
X91068220Y-66396984D01*
X91064059Y-66352965D01*
X91063500Y-66341108D01*
X91063500Y-63570996D01*
X96756401Y-63570996D01*
X96756771Y-63577817D01*
X96762295Y-63628679D01*
X96765921Y-63643931D01*
X96811076Y-63764381D01*
X96819614Y-63779976D01*
X96896115Y-63882051D01*
X96908676Y-63894612D01*
X97010751Y-63971113D01*
X97026346Y-63979651D01*
X97146794Y-64024805D01*
X97162049Y-64028432D01*
X97212914Y-64033958D01*
X97219728Y-64034327D01*
X97892285Y-64034327D01*
X97907524Y-64029852D01*
X97908729Y-64028462D01*
X97910400Y-64020779D01*
X97910400Y-64016211D01*
X98418400Y-64016211D01*
X98422875Y-64031450D01*
X98424265Y-64032655D01*
X98431948Y-64034326D01*
X99109069Y-64034326D01*
X99115890Y-64033956D01*
X99166752Y-64028432D01*
X99182004Y-64024806D01*
X99302454Y-63979651D01*
X99318049Y-63971113D01*
X99420124Y-63894612D01*
X99432685Y-63882051D01*
X99509186Y-63779976D01*
X99517724Y-63764381D01*
X99562878Y-63643933D01*
X99566505Y-63628678D01*
X99572031Y-63577813D01*
X99572400Y-63570999D01*
X99572400Y-62898442D01*
X99567925Y-62883203D01*
X99566535Y-62881998D01*
X99558852Y-62880327D01*
X98436515Y-62880327D01*
X98421276Y-62884802D01*
X98420071Y-62886192D01*
X98418400Y-62893875D01*
X98418400Y-64016211D01*
X97910400Y-64016211D01*
X97910400Y-62898442D01*
X97905925Y-62883203D01*
X97904535Y-62881998D01*
X97896852Y-62880327D01*
X96774516Y-62880327D01*
X96759277Y-62884802D01*
X96758072Y-62886192D01*
X96756401Y-62893875D01*
X96756401Y-63570996D01*
X91063500Y-63570996D01*
X91063500Y-63449427D01*
X91083502Y-63381306D01*
X91137158Y-63334813D01*
X91189500Y-63323427D01*
X93028134Y-63323427D01*
X93090316Y-63316672D01*
X93226705Y-63265542D01*
X93343261Y-63178188D01*
X93430615Y-63061632D01*
X93481745Y-62925243D01*
X93488500Y-62863061D01*
X93488500Y-60051796D01*
X96751495Y-60051796D01*
X96751792Y-60056949D01*
X96751792Y-60056952D01*
X96764336Y-60274507D01*
X96764827Y-60283024D01*
X96765964Y-60288070D01*
X96765965Y-60288076D01*
X96791143Y-60399796D01*
X96815746Y-60508969D01*
X96817688Y-60513751D01*
X96817689Y-60513755D01*
X96888269Y-60687572D01*
X96902884Y-60723564D01*
X97023901Y-60921046D01*
X97027282Y-60924949D01*
X97136053Y-61050518D01*
X97165535Y-61115103D01*
X97155420Y-61185376D01*
X97108919Y-61239024D01*
X97085046Y-61250997D01*
X97026344Y-61273004D01*
X97010751Y-61281541D01*
X96908676Y-61358042D01*
X96896115Y-61370603D01*
X96819614Y-61472678D01*
X96811076Y-61488273D01*
X96765922Y-61608721D01*
X96762295Y-61623976D01*
X96756769Y-61674841D01*
X96756400Y-61681655D01*
X96756400Y-62354212D01*
X96760875Y-62369451D01*
X96762265Y-62370656D01*
X96769948Y-62372327D01*
X99554284Y-62372327D01*
X99569523Y-62367852D01*
X99570728Y-62366462D01*
X99572399Y-62358779D01*
X99572399Y-61681658D01*
X99572029Y-61674837D01*
X99566505Y-61623975D01*
X99562879Y-61608723D01*
X99517724Y-61488273D01*
X99509186Y-61472678D01*
X99432685Y-61370603D01*
X99420124Y-61358042D01*
X99318049Y-61281541D01*
X99302452Y-61273002D01*
X99243815Y-61251020D01*
X99187050Y-61208379D01*
X99162350Y-61141817D01*
X99177557Y-61072468D01*
X99199103Y-61043788D01*
X99237041Y-61005981D01*
X99240703Y-61002332D01*
X99375858Y-60814244D01*
X99405236Y-60754803D01*
X99476184Y-60611249D01*
X99476185Y-60611247D01*
X99478478Y-60606607D01*
X99545808Y-60384998D01*
X99576040Y-60155368D01*
X99577325Y-60102771D01*
X99577645Y-60089692D01*
X99577645Y-60089688D01*
X99577727Y-60086327D01*
X99562440Y-59900388D01*
X99559173Y-59860645D01*
X99559172Y-59860639D01*
X99558749Y-59855494D01*
X99509523Y-59659515D01*
X99503584Y-59635871D01*
X99503583Y-59635867D01*
X99502325Y-59630860D01*
X99500266Y-59626124D01*
X99412030Y-59423195D01*
X99412028Y-59423192D01*
X99409970Y-59418458D01*
X99284164Y-59223992D01*
X99128287Y-59052685D01*
X99124236Y-59049486D01*
X99124232Y-59049482D01*
X98950577Y-58912338D01*
X98950572Y-58912335D01*
X98946523Y-58909137D01*
X98942007Y-58906644D01*
X98942004Y-58906642D01*
X98748279Y-58799700D01*
X98748275Y-58799698D01*
X98743755Y-58797203D01*
X98738886Y-58795479D01*
X98738882Y-58795477D01*
X98530303Y-58721615D01*
X98530299Y-58721614D01*
X98525428Y-58719889D01*
X98520335Y-58718982D01*
X98520332Y-58718981D01*
X98302495Y-58680178D01*
X98302489Y-58680177D01*
X98297406Y-58679272D01*
X98224496Y-58678381D01*
X98070981Y-58676506D01*
X98070979Y-58676506D01*
X98065811Y-58676443D01*
X97836864Y-58711477D01*
X97616714Y-58783433D01*
X97612126Y-58785821D01*
X97612122Y-58785823D01*
X97585465Y-58799700D01*
X97411272Y-58890379D01*
X97407139Y-58893482D01*
X97407136Y-58893484D01*
X97233046Y-59024195D01*
X97226055Y-59029444D01*
X97066039Y-59196891D01*
X97063125Y-59201163D01*
X97063124Y-59201164D01*
X97047552Y-59223992D01*
X96935519Y-59388226D01*
X96838002Y-59598308D01*
X96776107Y-59821496D01*
X96751495Y-60051796D01*
X93488500Y-60051796D01*
X93488500Y-57666793D01*
X93481745Y-57604611D01*
X93430615Y-57468222D01*
X93343261Y-57351666D01*
X93226705Y-57264312D01*
X93090316Y-57213182D01*
X93028134Y-57206427D01*
X87831866Y-57206427D01*
X87769684Y-57213182D01*
X87633295Y-57264312D01*
X87516739Y-57351666D01*
X87429385Y-57468222D01*
X87378255Y-57604611D01*
X87371500Y-57666793D01*
X87371500Y-62863061D01*
X87378255Y-62925243D01*
X87429385Y-63061632D01*
X87516739Y-63178188D01*
X87633295Y-63265542D01*
X87769684Y-63316672D01*
X87831866Y-63323427D01*
X89670500Y-63323427D01*
X89738621Y-63343429D01*
X89785114Y-63397085D01*
X89796500Y-63449427D01*
X89796500Y-66062333D01*
X89776498Y-66130454D01*
X89759595Y-66151428D01*
X84919500Y-70991522D01*
X84857188Y-71025548D01*
X84830405Y-71028427D01*
X70473594Y-71028427D01*
X70405473Y-71008425D01*
X70384499Y-70991522D01*
X66489792Y-67096814D01*
X71163653Y-67096814D01*
X71163677Y-67097153D01*
X71169500Y-67105785D01*
X71502715Y-67410587D01*
X71505846Y-67413271D01*
X71976614Y-67791102D01*
X71979897Y-67793567D01*
X72474088Y-68140246D01*
X72477515Y-68142489D01*
X72993060Y-68456562D01*
X72996595Y-68458562D01*
X73531368Y-68738729D01*
X73535006Y-68740488D01*
X74086712Y-68985546D01*
X74090502Y-68987085D01*
X74656872Y-69196030D01*
X74660737Y-69197316D01*
X75239415Y-69369277D01*
X75243356Y-69370311D01*
X75831917Y-69504569D01*
X75835912Y-69505346D01*
X76431930Y-69601346D01*
X76435969Y-69601863D01*
X77036918Y-69659199D01*
X77040987Y-69659455D01*
X77644384Y-69677891D01*
X77648470Y-69677883D01*
X78251812Y-69657341D01*
X78255856Y-69657072D01*
X78856622Y-69597637D01*
X78860658Y-69597106D01*
X79456321Y-69499029D01*
X79460324Y-69498236D01*
X80048425Y-69361922D01*
X80052345Y-69360879D01*
X80630442Y-69186891D01*
X80634275Y-69185601D01*
X81199914Y-68974680D01*
X81203707Y-68973124D01*
X81754544Y-68726146D01*
X81758205Y-68724360D01*
X82291987Y-68442333D01*
X82295493Y-68440333D01*
X82809963Y-68124448D01*
X82813360Y-68122207D01*
X83306367Y-67773785D01*
X83309591Y-67771347D01*
X83779100Y-67391824D01*
X83782167Y-67389177D01*
X84087854Y-67107590D01*
X84096032Y-67093973D01*
X84096018Y-67093514D01*
X84090673Y-67084810D01*
X77642812Y-60636949D01*
X77628868Y-60629335D01*
X77627035Y-60629466D01*
X77620420Y-60633717D01*
X71171267Y-67082870D01*
X71163653Y-67096814D01*
X66489792Y-67096814D01*
X65500405Y-66107427D01*
X65466379Y-66045115D01*
X65463500Y-66018332D01*
X65463500Y-63449427D01*
X65483502Y-63381306D01*
X65537158Y-63334813D01*
X65589500Y-63323427D01*
X67428134Y-63323427D01*
X67490316Y-63316672D01*
X67626705Y-63265542D01*
X67743261Y-63178188D01*
X67830615Y-63061632D01*
X67881745Y-62925243D01*
X67888500Y-62863061D01*
X67888500Y-60476441D01*
X68219403Y-60476441D01*
X68219495Y-60480515D01*
X68252667Y-61083295D01*
X68253022Y-61087347D01*
X68325028Y-61686749D01*
X68325638Y-61690739D01*
X68436173Y-62284244D01*
X68437045Y-62288209D01*
X68585647Y-62873332D01*
X68586772Y-62877230D01*
X68772827Y-63451551D01*
X68774203Y-63455372D01*
X68996923Y-64016468D01*
X68998554Y-64020219D01*
X69257015Y-64565766D01*
X69258873Y-64569380D01*
X69552019Y-65097144D01*
X69554094Y-65100611D01*
X69880683Y-65608351D01*
X69882999Y-65611708D01*
X70241653Y-66097286D01*
X70244184Y-66100491D01*
X70633434Y-66561922D01*
X70636161Y-66564951D01*
X70787555Y-66722548D01*
X70801340Y-66730438D01*
X70802504Y-66730378D01*
X70810137Y-66725580D01*
X77257978Y-60277739D01*
X77264356Y-60266059D01*
X77994408Y-60266059D01*
X77994539Y-60267892D01*
X77998790Y-60274507D01*
X84446962Y-66722679D01*
X84460906Y-66730293D01*
X84461950Y-66730219D01*
X84469643Y-66725145D01*
X84645787Y-66540500D01*
X84648510Y-66537454D01*
X85036152Y-66074661D01*
X85038646Y-66071481D01*
X85395621Y-65584628D01*
X85397921Y-65581268D01*
X85722732Y-65072399D01*
X85724803Y-65068911D01*
X86016104Y-64540129D01*
X86017940Y-64536527D01*
X86274512Y-63990047D01*
X86276114Y-63986328D01*
X86496884Y-63424429D01*
X86498241Y-63420619D01*
X86682293Y-62845641D01*
X86683399Y-62841759D01*
X86829966Y-62256092D01*
X86830818Y-62252148D01*
X86939281Y-61658262D01*
X86939882Y-61654237D01*
X87009790Y-61054625D01*
X87010132Y-61050548D01*
X87041238Y-60446939D01*
X87041318Y-60444322D01*
X87043027Y-60266264D01*
X87042997Y-60263588D01*
X87023486Y-59659515D01*
X87023223Y-59655457D01*
X86964836Y-59054589D01*
X86964316Y-59050579D01*
X86867275Y-58454723D01*
X86866487Y-58450710D01*
X86731206Y-57862401D01*
X86730160Y-57858445D01*
X86557195Y-57280090D01*
X86555897Y-57276209D01*
X86345959Y-56710189D01*
X86344433Y-56706451D01*
X86098405Y-56155158D01*
X86096625Y-56151493D01*
X85815537Y-55617230D01*
X85813528Y-55613695D01*
X85684385Y-55402539D01*
X94063300Y-55402539D01*
X94069488Y-55416991D01*
X94128217Y-55484790D01*
X94135579Y-55492000D01*
X94299434Y-55628034D01*
X94307881Y-55633949D01*
X94491756Y-55741397D01*
X94501042Y-55745847D01*
X94700001Y-55821821D01*
X94709899Y-55824697D01*
X94918595Y-55867156D01*
X94928823Y-55868375D01*
X95141650Y-55876180D01*
X95151936Y-55875713D01*
X95363185Y-55848652D01*
X95373262Y-55846510D01*
X95515410Y-55803863D01*
X95527226Y-55796171D01*
X95525790Y-55786588D01*
X95001087Y-54877777D01*
X94989592Y-54866817D01*
X94987784Y-54866468D01*
X94980297Y-54868861D01*
X94072314Y-55393085D01*
X94063300Y-55402539D01*
X85684385Y-55402539D01*
X85498550Y-55098689D01*
X85496322Y-55095298D01*
X85148748Y-54601666D01*
X85146322Y-54598447D01*
X84767619Y-54128276D01*
X84764975Y-54125203D01*
X84472813Y-53806921D01*
X84459209Y-53798719D01*
X84458810Y-53798731D01*
X84450017Y-53804120D01*
X78002022Y-60252115D01*
X77994408Y-60266059D01*
X77264356Y-60266059D01*
X77265592Y-60263795D01*
X77265461Y-60261962D01*
X77261210Y-60255347D01*
X70810806Y-53804943D01*
X70796862Y-53797329D01*
X70795057Y-53797458D01*
X70788404Y-53801737D01*
X70758383Y-53831812D01*
X70755621Y-53834762D01*
X70357560Y-54288664D01*
X70354995Y-54291787D01*
X69987060Y-54770424D01*
X69984697Y-54773712D01*
X69648413Y-55275099D01*
X69646271Y-55278528D01*
X69343052Y-55800557D01*
X69341126Y-55804135D01*
X69072232Y-56344633D01*
X69070535Y-56348342D01*
X68837078Y-56905073D01*
X68835638Y-56908843D01*
X68638586Y-57479506D01*
X68637390Y-57483370D01*
X68477586Y-58065518D01*
X68476629Y-58069505D01*
X68354729Y-58660733D01*
X68354033Y-58664762D01*
X68270539Y-59262640D01*
X68270107Y-59266684D01*
X68225367Y-59868729D01*
X68225197Y-59872787D01*
X68219403Y-60476441D01*
X67888500Y-60476441D01*
X67888500Y-57666793D01*
X67881745Y-57604611D01*
X67830615Y-57468222D01*
X67743261Y-57351666D01*
X67626705Y-57264312D01*
X67490316Y-57213182D01*
X67428134Y-57206427D01*
X62231866Y-57206427D01*
X62169684Y-57213182D01*
X62033295Y-57264312D01*
X61916739Y-57351666D01*
X61829385Y-57468222D01*
X61778255Y-57604611D01*
X61771500Y-57666793D01*
X61771500Y-62863061D01*
X61778255Y-62925243D01*
X61829385Y-63061632D01*
X61916739Y-63178188D01*
X62033295Y-63265542D01*
X62169684Y-63316672D01*
X62231866Y-63323427D01*
X64070500Y-63323427D01*
X64138621Y-63343429D01*
X64185114Y-63397085D01*
X64196500Y-63449427D01*
X64196500Y-65740500D01*
X64176498Y-65808621D01*
X64122842Y-65855114D01*
X64070500Y-65866500D01*
X63078767Y-65866500D01*
X63067584Y-65865973D01*
X63060091Y-65864298D01*
X63052165Y-65864547D01*
X63052164Y-65864547D01*
X62992014Y-65866438D01*
X62988055Y-65866500D01*
X62960144Y-65866500D01*
X62956210Y-65866997D01*
X62956209Y-65866997D01*
X62956144Y-65867005D01*
X62944307Y-65867938D01*
X62912490Y-65868938D01*
X62908029Y-65869078D01*
X62900110Y-65869327D01*
X62882454Y-65874456D01*
X62880658Y-65874978D01*
X62861306Y-65878986D01*
X62854235Y-65879880D01*
X62841203Y-65881526D01*
X62833834Y-65884443D01*
X62833832Y-65884444D01*
X62800097Y-65897800D01*
X62788869Y-65901645D01*
X62746407Y-65913982D01*
X62739584Y-65918017D01*
X62739582Y-65918018D01*
X62728972Y-65924293D01*
X62711224Y-65932988D01*
X62692383Y-65940448D01*
X62685967Y-65945110D01*
X62685966Y-65945110D01*
X62656613Y-65966436D01*
X62646693Y-65972952D01*
X62615465Y-65991420D01*
X62615462Y-65991422D01*
X62608638Y-65995458D01*
X62594317Y-66009779D01*
X62579284Y-66022619D01*
X62562893Y-66034528D01*
X62557840Y-66040636D01*
X62534708Y-66068598D01*
X62526718Y-66077378D01*
X62449501Y-66154595D01*
X62387189Y-66188621D01*
X62360406Y-66191500D01*
X62304513Y-66191500D01*
X62298061Y-66192872D01*
X62298056Y-66192872D01*
X62211113Y-66211353D01*
X62117712Y-66231206D01*
X62111682Y-66233891D01*
X62111681Y-66233891D01*
X61949278Y-66306197D01*
X61949276Y-66306198D01*
X61943248Y-66308882D01*
X61788747Y-66421134D01*
X61784326Y-66426044D01*
X61784325Y-66426045D01*
X61707469Y-66511403D01*
X61660960Y-66563056D01*
X61637143Y-66604308D01*
X61580760Y-66701967D01*
X61565473Y-66728444D01*
X61506458Y-66910072D01*
X61486496Y-67100000D01*
X56182836Y-67100000D01*
X52974750Y-61543432D01*
X52966357Y-61525895D01*
X52960941Y-61511893D01*
X52960939Y-61511890D01*
X52957701Y-61503519D01*
X52946905Y-61489424D01*
X52934336Y-61469355D01*
X52823328Y-61248317D01*
X52817530Y-61234878D01*
X52723450Y-60976389D01*
X52719251Y-60962363D01*
X52655817Y-60694711D01*
X52653273Y-60680282D01*
X52621341Y-60407085D01*
X52620489Y-60392457D01*
X52620489Y-60117399D01*
X52621341Y-60102771D01*
X52653273Y-59829575D01*
X52655817Y-59815146D01*
X52719252Y-59547491D01*
X52723455Y-59533454D01*
X52817525Y-59274997D01*
X52823328Y-59261542D01*
X52931081Y-59046988D01*
X52945550Y-59024501D01*
X52945796Y-59024195D01*
X52945797Y-59024193D01*
X52951425Y-59017206D01*
X52954866Y-59008920D01*
X52954868Y-59008916D01*
X52963635Y-58987804D01*
X52970882Y-58973124D01*
X54831877Y-55749786D01*
X59728436Y-55749786D01*
X59740027Y-55758751D01*
X59785006Y-55775927D01*
X59794891Y-55778799D01*
X60003595Y-55821260D01*
X60013823Y-55822479D01*
X60226650Y-55830284D01*
X60236936Y-55829817D01*
X60448185Y-55802756D01*
X60458262Y-55800614D01*
X60662255Y-55739413D01*
X60671842Y-55735655D01*
X60863095Y-55641961D01*
X60871945Y-55636686D01*
X61045328Y-55513014D01*
X61053200Y-55506361D01*
X61189000Y-55371032D01*
X61195781Y-55358666D01*
X61190651Y-55351788D01*
X60278660Y-54825250D01*
X60263225Y-54821505D01*
X60261485Y-54822108D01*
X60256198Y-54827924D01*
X59731679Y-55736416D01*
X59728436Y-55749786D01*
X54831877Y-55749786D01*
X55587456Y-54441085D01*
X58808050Y-54441085D01*
X58820309Y-54653699D01*
X58821745Y-54663919D01*
X58868565Y-54871668D01*
X58871645Y-54881497D01*
X58951770Y-55078825D01*
X58956413Y-55088016D01*
X59067694Y-55269610D01*
X59073777Y-55277921D01*
X59213213Y-55438889D01*
X59220580Y-55446104D01*
X59268916Y-55486234D01*
X59281337Y-55491592D01*
X59292339Y-55481376D01*
X59813972Y-54577882D01*
X59817717Y-54562447D01*
X59817114Y-54560707D01*
X59811298Y-54555420D01*
X58900758Y-54029718D01*
X58887053Y-54026393D01*
X58881532Y-54033415D01*
X58832864Y-54208904D01*
X58830933Y-54219022D01*
X58808302Y-54430796D01*
X58808050Y-54441085D01*
X55587456Y-54441085D01*
X56084189Y-53580719D01*
X59146096Y-53580719D01*
X59151917Y-53588138D01*
X60077030Y-54122252D01*
X61437673Y-54907819D01*
X61451378Y-54911144D01*
X61457450Y-54903422D01*
X61500378Y-54762129D01*
X61502555Y-54752059D01*
X61530590Y-54539109D01*
X61531109Y-54532434D01*
X61532572Y-54472586D01*
X61532378Y-54465868D01*
X61514781Y-54251826D01*
X61513096Y-54241646D01*
X61461214Y-54035097D01*
X61457894Y-54025346D01*
X61377883Y-53841332D01*
X61369063Y-53770886D01*
X61399730Y-53706854D01*
X61460147Y-53669566D01*
X61481867Y-53666143D01*
X61481837Y-53665911D01*
X61698288Y-53638183D01*
X61698289Y-53638183D01*
X61703416Y-53637526D01*
X61708366Y-53636041D01*
X61912429Y-53574819D01*
X61912434Y-53574817D01*
X61917384Y-53573332D01*
X62117994Y-53475054D01*
X62175921Y-53433735D01*
X71162090Y-53433735D01*
X71162225Y-53435597D01*
X71166453Y-53442170D01*
X77617188Y-59892905D01*
X77631132Y-59900519D01*
X77632965Y-59900388D01*
X77639580Y-59896137D01*
X84087803Y-53447914D01*
X84095417Y-53433970D01*
X84095339Y-53432868D01*
X84090326Y-53425252D01*
X83917807Y-53260102D01*
X83914777Y-53257383D01*
X83452650Y-52868925D01*
X83449478Y-52866429D01*
X82963249Y-52508604D01*
X82959891Y-52506296D01*
X82451601Y-52180606D01*
X82448083Y-52178509D01*
X81919845Y-51886304D01*
X81916220Y-51884449D01*
X81370225Y-51626941D01*
X81366457Y-51625311D01*
X80804988Y-51403576D01*
X80801159Y-51402205D01*
X80226502Y-51217149D01*
X80222627Y-51216038D01*
X79637229Y-51068453D01*
X79633268Y-51067590D01*
X79039588Y-50958094D01*
X79035566Y-50957485D01*
X78436029Y-50886525D01*
X78432027Y-50886182D01*
X77829136Y-50854058D01*
X77825119Y-50853974D01*
X77221442Y-50860823D01*
X77217380Y-50861000D01*
X76615416Y-50906791D01*
X76611389Y-50907228D01*
X76013660Y-50991766D01*
X76009623Y-50992470D01*
X75418587Y-51115405D01*
X75414639Y-51116361D01*
X74832765Y-51277181D01*
X74828873Y-51278394D01*
X74258579Y-51476433D01*
X74254796Y-51477886D01*
X73698481Y-51712311D01*
X73694782Y-51714012D01*
X73154758Y-51983847D01*
X73151156Y-51985795D01*
X72629693Y-52289902D01*
X72626229Y-52292075D01*
X72125452Y-52629219D01*
X72122161Y-52631592D01*
X71644195Y-53000341D01*
X71641040Y-53002940D01*
X71187848Y-53401781D01*
X71184900Y-53404549D01*
X71169690Y-53419786D01*
X71162090Y-53433735D01*
X62175921Y-53433735D01*
X62299860Y-53345331D01*
X62325195Y-53320085D01*
X62454435Y-53191295D01*
X62458096Y-53187647D01*
X62513805Y-53110120D01*
X62585435Y-53010435D01*
X62588453Y-53006235D01*
X62592949Y-52997139D01*
X62685136Y-52810611D01*
X62685137Y-52810609D01*
X62687430Y-52805969D01*
X62752370Y-52592227D01*
X62781529Y-52370748D01*
X62781611Y-52367398D01*
X62783074Y-52307523D01*
X62783074Y-52307519D01*
X62783156Y-52304158D01*
X62764852Y-52081519D01*
X62710431Y-51864860D01*
X62628418Y-51676243D01*
X62619598Y-51605799D01*
X62650265Y-51541767D01*
X62710681Y-51504479D01*
X62731874Y-51501138D01*
X62731837Y-51500848D01*
X62948288Y-51473120D01*
X62948289Y-51473120D01*
X62953416Y-51472463D01*
X62958366Y-51470978D01*
X63162429Y-51409756D01*
X63162434Y-51409754D01*
X63167384Y-51408269D01*
X63367994Y-51309991D01*
X63549860Y-51180268D01*
X63575195Y-51155022D01*
X63684690Y-51045908D01*
X63708096Y-51022584D01*
X63728741Y-50993854D01*
X63835435Y-50845372D01*
X63838453Y-50841172D01*
X63861362Y-50794820D01*
X63935136Y-50645548D01*
X63935137Y-50645546D01*
X63937430Y-50640906D01*
X64002370Y-50427164D01*
X64031529Y-50205685D01*
X64031611Y-50202335D01*
X64033074Y-50142460D01*
X64033074Y-50142456D01*
X64033156Y-50139095D01*
X64014852Y-49916456D01*
X64006616Y-49883665D01*
X63982610Y-49788094D01*
X63985414Y-49717153D01*
X64026127Y-49658990D01*
X64091822Y-49632071D01*
X64125498Y-49633109D01*
X64176956Y-49641674D01*
X64210609Y-49647275D01*
X64210611Y-49647275D01*
X64219467Y-49648749D01*
X64263722Y-49643433D01*
X64355172Y-49632447D01*
X64355175Y-49632446D01*
X64364084Y-49631376D01*
X64438417Y-49599594D01*
X64489760Y-49577642D01*
X64489762Y-49577641D01*
X64498013Y-49574113D01*
X64562465Y-49521078D01*
X64604383Y-49486586D01*
X64604385Y-49486584D01*
X64610488Y-49481562D01*
X64647429Y-49431088D01*
X65545563Y-47875474D01*
X65570804Y-47818245D01*
X65587080Y-47720460D01*
X89660282Y-47720460D01*
X89661756Y-47729316D01*
X89661756Y-47729318D01*
X89677760Y-47825470D01*
X89684196Y-47864141D01*
X89709437Y-47921370D01*
X90607571Y-49476984D01*
X90644512Y-49527458D01*
X90650615Y-49532480D01*
X90650617Y-49532482D01*
X90701211Y-49574113D01*
X90756987Y-49620009D01*
X90765238Y-49623537D01*
X90765240Y-49623538D01*
X90816583Y-49645490D01*
X90890916Y-49677272D01*
X90899825Y-49678342D01*
X90899828Y-49678343D01*
X90976389Y-49687540D01*
X91035533Y-49694645D01*
X91044389Y-49693171D01*
X91044391Y-49693171D01*
X91101136Y-49683726D01*
X91129568Y-49678994D01*
X91200047Y-49687540D01*
X91254719Y-49732835D01*
X91276223Y-49800496D01*
X91271671Y-49836956D01*
X91245989Y-49929561D01*
X91222251Y-50151686D01*
X91222548Y-50156839D01*
X91222548Y-50156842D01*
X91228011Y-50251581D01*
X91235110Y-50374706D01*
X91236247Y-50379752D01*
X91236248Y-50379758D01*
X91256119Y-50467930D01*
X91284222Y-50592630D01*
X91368266Y-50799607D01*
X91387858Y-50831578D01*
X91465387Y-50958094D01*
X91484987Y-50990079D01*
X91631250Y-51158929D01*
X91803126Y-51301623D01*
X91996000Y-51414329D01*
X92204692Y-51494021D01*
X92209760Y-51495052D01*
X92209763Y-51495053D01*
X92256094Y-51504479D01*
X92423597Y-51538558D01*
X92428772Y-51538748D01*
X92428774Y-51538748D01*
X92519506Y-51542075D01*
X92586848Y-51564560D01*
X92631344Y-51619883D01*
X92638866Y-51690480D01*
X92629177Y-51721039D01*
X92555688Y-51879359D01*
X92495989Y-52094624D01*
X92472251Y-52316749D01*
X92472548Y-52321902D01*
X92472548Y-52321905D01*
X92478011Y-52416644D01*
X92485110Y-52539769D01*
X92486247Y-52544815D01*
X92486248Y-52544821D01*
X92506119Y-52632993D01*
X92534222Y-52757693D01*
X92578375Y-52866429D01*
X92597686Y-52913986D01*
X92618266Y-52964670D01*
X92620965Y-52969074D01*
X92728939Y-53145272D01*
X92734987Y-53155142D01*
X92881250Y-53323992D01*
X93053126Y-53466686D01*
X93246000Y-53579392D01*
X93454692Y-53659084D01*
X93459760Y-53660115D01*
X93459763Y-53660116D01*
X93506212Y-53669566D01*
X93673597Y-53703621D01*
X93678771Y-53703811D01*
X93678773Y-53703811D01*
X93770049Y-53707158D01*
X93837390Y-53729643D01*
X93881886Y-53784966D01*
X93889408Y-53855563D01*
X93879719Y-53886123D01*
X93808338Y-54039901D01*
X93804775Y-54049588D01*
X93747864Y-54254799D01*
X93745933Y-54264918D01*
X93723302Y-54476692D01*
X93723050Y-54486981D01*
X93735309Y-54699595D01*
X93736745Y-54709815D01*
X93783565Y-54917564D01*
X93786644Y-54927393D01*
X93794314Y-54946282D01*
X93803151Y-54957405D01*
X93816683Y-54954087D01*
X94408617Y-54612334D01*
X95436350Y-54612334D01*
X95438743Y-54619821D01*
X95964782Y-55530948D01*
X95974988Y-55540679D01*
X95983062Y-55537447D01*
X96119053Y-55401928D01*
X96125731Y-55394081D01*
X96250003Y-55221138D01*
X96255313Y-55212301D01*
X96349670Y-55021385D01*
X96353469Y-55011790D01*
X96415376Y-54808033D01*
X96417555Y-54797952D01*
X96445590Y-54585005D01*
X96446109Y-54578330D01*
X96447572Y-54518482D01*
X96447378Y-54511764D01*
X96429781Y-54297722D01*
X96428096Y-54287542D01*
X96376214Y-54080993D01*
X96376062Y-54080547D01*
X96368462Y-54071446D01*
X96355798Y-54074716D01*
X95447659Y-54599031D01*
X95436699Y-54610526D01*
X95436350Y-54612334D01*
X94408617Y-54612334D01*
X95177970Y-54168148D01*
X96098108Y-53636907D01*
X96107839Y-53626701D01*
X96103979Y-53617061D01*
X96017806Y-53522358D01*
X96010273Y-53515333D01*
X95843139Y-53383340D01*
X95834552Y-53377635D01*
X95648117Y-53274717D01*
X95638705Y-53270487D01*
X95437959Y-53199398D01*
X95427989Y-53196764D01*
X95218327Y-53159419D01*
X95208073Y-53158449D01*
X95152520Y-53157770D01*
X95084649Y-53136937D01*
X95038815Y-53082717D01*
X95029571Y-53012325D01*
X95041101Y-52975956D01*
X95102430Y-52851865D01*
X95167370Y-52638123D01*
X95196529Y-52416644D01*
X95196611Y-52413294D01*
X95198074Y-52353419D01*
X95198074Y-52353415D01*
X95198156Y-52350054D01*
X95179852Y-52127415D01*
X95125431Y-51910756D01*
X95036354Y-51705894D01*
X94985030Y-51626559D01*
X94917822Y-51522671D01*
X94917820Y-51522668D01*
X94915014Y-51518331D01*
X94764670Y-51353105D01*
X94760619Y-51349906D01*
X94760615Y-51349902D01*
X94593414Y-51217854D01*
X94593410Y-51217852D01*
X94589359Y-51214652D01*
X94393789Y-51106692D01*
X94388920Y-51104968D01*
X94388916Y-51104966D01*
X94188087Y-51033849D01*
X94188083Y-51033848D01*
X94183212Y-51032123D01*
X94178119Y-51031216D01*
X94178116Y-51031215D01*
X93968373Y-50993854D01*
X93968367Y-50993853D01*
X93963284Y-50992948D01*
X93902766Y-50992209D01*
X93834896Y-50971376D01*
X93789062Y-50917157D01*
X93779817Y-50846765D01*
X93791349Y-50810391D01*
X93850136Y-50691444D01*
X93850137Y-50691442D01*
X93852430Y-50686802D01*
X93917370Y-50473060D01*
X93946529Y-50251581D01*
X93946611Y-50248231D01*
X93948074Y-50188356D01*
X93948074Y-50188352D01*
X93948156Y-50184991D01*
X93929852Y-49962352D01*
X93875431Y-49745693D01*
X93786354Y-49540831D01*
X93665014Y-49353268D01*
X93514670Y-49188042D01*
X93510619Y-49184843D01*
X93510615Y-49184839D01*
X93343414Y-49052791D01*
X93343410Y-49052789D01*
X93339359Y-49049589D01*
X93143789Y-48941629D01*
X93138920Y-48939905D01*
X93138916Y-48939903D01*
X92933212Y-48867060D01*
X92934003Y-48864828D01*
X92881706Y-48833178D01*
X92850482Y-48769416D01*
X92858688Y-48698895D01*
X92877372Y-48668073D01*
X92935082Y-48597940D01*
X92954706Y-48552044D01*
X92988816Y-48472264D01*
X92992345Y-48464011D01*
X93009718Y-48319394D01*
X93003563Y-48282412D01*
X92987101Y-48183503D01*
X92987100Y-48183500D01*
X92985804Y-48175713D01*
X92960563Y-48118484D01*
X92062429Y-46562870D01*
X92025488Y-46512396D01*
X92019385Y-46507374D01*
X92019383Y-46507372D01*
X91919946Y-46425550D01*
X91919947Y-46425550D01*
X91913013Y-46419845D01*
X91904762Y-46416317D01*
X91904760Y-46416316D01*
X91846048Y-46391213D01*
X91779084Y-46362582D01*
X91770175Y-46361512D01*
X91770172Y-46361511D01*
X91675805Y-46350175D01*
X91634467Y-46345209D01*
X91625611Y-46346683D01*
X91625609Y-46346683D01*
X91498576Y-46367826D01*
X91498573Y-46367827D01*
X91490786Y-46369123D01*
X91433557Y-46394364D01*
X89877943Y-47292498D01*
X89827469Y-47329439D01*
X89734918Y-47441914D01*
X89677655Y-47575843D01*
X89660282Y-47720460D01*
X65587080Y-47720460D01*
X65593244Y-47683422D01*
X65593244Y-47683420D01*
X65594718Y-47674564D01*
X65577345Y-47529947D01*
X65543234Y-47450167D01*
X65523611Y-47404271D01*
X65523610Y-47404269D01*
X65520082Y-47396018D01*
X65496837Y-47367769D01*
X65432555Y-47289648D01*
X65432553Y-47289646D01*
X65427531Y-47283543D01*
X65377057Y-47246602D01*
X63821443Y-46348468D01*
X63764214Y-46323227D01*
X63756427Y-46321931D01*
X63756424Y-46321930D01*
X63629391Y-46300787D01*
X63629389Y-46300787D01*
X63620533Y-46299313D01*
X63576278Y-46304629D01*
X63484828Y-46315615D01*
X63484825Y-46315616D01*
X63475916Y-46316686D01*
X63460618Y-46323227D01*
X63350240Y-46370420D01*
X63350238Y-46370421D01*
X63341987Y-46373949D01*
X63335053Y-46379654D01*
X63335054Y-46379654D01*
X63235617Y-46461476D01*
X63235615Y-46461478D01*
X63229512Y-46466500D01*
X63192571Y-46516974D01*
X62294437Y-48072588D01*
X62269196Y-48129817D01*
X62267900Y-48137604D01*
X62267899Y-48137607D01*
X62246756Y-48264640D01*
X62245282Y-48273498D01*
X62262655Y-48418115D01*
X62319918Y-48552044D01*
X62363386Y-48604869D01*
X62379159Y-48624038D01*
X62406998Y-48689349D01*
X62395107Y-48759343D01*
X62347263Y-48811797D01*
X62321010Y-48823863D01*
X62141756Y-48882452D01*
X61943607Y-48985602D01*
X61939474Y-48988705D01*
X61939471Y-48988707D01*
X61769100Y-49116625D01*
X61764965Y-49119730D01*
X61610629Y-49281233D01*
X61607715Y-49285505D01*
X61607714Y-49285506D01*
X61522556Y-49410344D01*
X61484743Y-49465775D01*
X61438367Y-49565684D01*
X61399810Y-49648749D01*
X61390688Y-49668400D01*
X61330989Y-49883665D01*
X61307251Y-50105790D01*
X61307548Y-50110943D01*
X61307548Y-50110946D01*
X61313011Y-50205685D01*
X61320110Y-50328810D01*
X61321247Y-50333856D01*
X61321248Y-50333862D01*
X61341119Y-50422034D01*
X61369222Y-50546734D01*
X61453266Y-50753711D01*
X61455960Y-50758107D01*
X61457803Y-50761756D01*
X61470662Y-50831578D01*
X61443730Y-50897268D01*
X61385559Y-50937970D01*
X61343797Y-50944554D01*
X61334518Y-50944440D01*
X61330079Y-50944386D01*
X61330077Y-50944386D01*
X61324911Y-50944323D01*
X61104091Y-50978113D01*
X60891756Y-51047515D01*
X60693607Y-51150665D01*
X60689474Y-51153768D01*
X60689471Y-51153770D01*
X60519100Y-51281688D01*
X60514965Y-51284793D01*
X60360629Y-51446296D01*
X60357715Y-51450568D01*
X60357714Y-51450569D01*
X60295503Y-51541767D01*
X60234743Y-51630838D01*
X60140688Y-51833463D01*
X60080989Y-52048728D01*
X60057251Y-52270853D01*
X60057548Y-52276006D01*
X60057548Y-52276009D01*
X60063011Y-52370748D01*
X60070110Y-52493873D01*
X60071247Y-52498919D01*
X60071248Y-52498925D01*
X60091119Y-52587097D01*
X60119222Y-52711797D01*
X60203266Y-52918774D01*
X60205967Y-52923182D01*
X60208056Y-52927317D01*
X60220918Y-52997139D01*
X60193989Y-53062830D01*
X60135819Y-53103535D01*
X60094054Y-53110120D01*
X60080118Y-53109950D01*
X60069832Y-53110670D01*
X59859321Y-53142883D01*
X59849293Y-53145272D01*
X59646868Y-53211434D01*
X59637359Y-53215431D01*
X59448463Y-53313764D01*
X59439738Y-53319258D01*
X59269433Y-53447127D01*
X59261726Y-53453970D01*
X59152571Y-53568194D01*
X59146096Y-53580719D01*
X56084189Y-53580719D01*
X63261067Y-41150000D01*
X64996526Y-41150000D01*
X65016391Y-41402403D01*
X65075495Y-41648591D01*
X65172384Y-41882502D01*
X65304672Y-42098376D01*
X65469102Y-42290898D01*
X65661624Y-42455328D01*
X65877498Y-42587616D01*
X65882068Y-42589509D01*
X65882072Y-42589511D01*
X66106836Y-42682611D01*
X66111409Y-42684505D01*
X66196032Y-42704821D01*
X66352784Y-42742454D01*
X66352790Y-42742455D01*
X66357597Y-42743609D01*
X66457416Y-42751465D01*
X66544345Y-42758307D01*
X66544352Y-42758307D01*
X66546801Y-42758500D01*
X66673199Y-42758500D01*
X66675648Y-42758307D01*
X66675655Y-42758307D01*
X66762584Y-42751465D01*
X66862403Y-42743609D01*
X66867210Y-42742455D01*
X66867216Y-42742454D01*
X67023968Y-42704821D01*
X67108591Y-42684505D01*
X67113164Y-42682611D01*
X67337928Y-42589511D01*
X67337932Y-42589509D01*
X67342502Y-42587616D01*
X67558376Y-42455328D01*
X67750898Y-42290898D01*
X67915328Y-42098376D01*
X68047616Y-41882502D01*
X68144505Y-41648591D01*
X68203609Y-41402403D01*
X68223474Y-41150000D01*
X68203609Y-40897597D01*
X68144505Y-40651409D01*
X68047616Y-40417498D01*
X67915328Y-40201624D01*
X67750898Y-40009102D01*
X67558376Y-39844672D01*
X67342502Y-39712384D01*
X67337932Y-39710491D01*
X67337928Y-39710489D01*
X67113164Y-39617389D01*
X67113162Y-39617388D01*
X67108591Y-39615495D01*
X67023968Y-39595179D01*
X66867216Y-39557546D01*
X66867210Y-39557545D01*
X66862403Y-39556391D01*
X66762584Y-39548535D01*
X66675655Y-39541693D01*
X66675648Y-39541693D01*
X66673199Y-39541500D01*
X66546801Y-39541500D01*
X66544352Y-39541693D01*
X66544345Y-39541693D01*
X66457416Y-39548535D01*
X66357597Y-39556391D01*
X66352790Y-39557545D01*
X66352784Y-39557546D01*
X66196032Y-39595179D01*
X66111409Y-39615495D01*
X66106838Y-39617388D01*
X66106836Y-39617389D01*
X65882072Y-39710489D01*
X65882068Y-39710491D01*
X65877498Y-39712384D01*
X65661624Y-39844672D01*
X65469102Y-40009102D01*
X65304672Y-40201624D01*
X65172384Y-40417498D01*
X65075495Y-40651409D01*
X65016391Y-40897597D01*
X64996526Y-41150000D01*
X63261067Y-41150000D01*
X64183714Y-39551929D01*
X64194704Y-39535893D01*
X64198157Y-39531606D01*
X64209757Y-39517204D01*
X64213197Y-39508919D01*
X64213199Y-39508916D01*
X64216568Y-39500802D01*
X64227663Y-39479884D01*
X64363576Y-39273235D01*
X64372326Y-39261482D01*
X64549129Y-39050773D01*
X64559184Y-39040114D01*
X64759256Y-38851354D01*
X64770481Y-38841936D01*
X64991113Y-38677680D01*
X65003354Y-38669628D01*
X65241567Y-38532094D01*
X65254648Y-38525525D01*
X65507222Y-38416574D01*
X65520978Y-38411567D01*
X65631122Y-38378593D01*
X65784489Y-38332678D01*
X65798746Y-38329299D01*
X65981921Y-38296999D01*
X66069630Y-38281534D01*
X66084178Y-38279833D01*
X66276735Y-38268618D01*
X66323779Y-38265878D01*
X66350490Y-38267165D01*
X66350949Y-38267237D01*
X66350954Y-38267237D01*
X66359823Y-38268618D01*
X66368725Y-38267454D01*
X66368727Y-38267454D01*
X66383776Y-38265486D01*
X66391385Y-38264491D01*
X66407720Y-38263427D01*
X88833399Y-38263427D01*
X88852783Y-38264927D01*
G37*
%TD.AperFunction*%
%TD*%
M02*
