%TF.GenerationSoftware,KiCad,Pcbnew,(6.0.5-0)*%
%TF.CreationDate,2022-06-08T15:29:45+08:00*%
%TF.ProjectId,dtl,64746c2e-6b69-4636-9164-5f7063625858,rev?*%
%TF.SameCoordinates,Original*%
%TF.FileFunction,Legend,Top*%
%TF.FilePolarity,Positive*%
%FSLAX46Y46*%
G04 Gerber Fmt 4.6, Leading zero omitted, Abs format (unit mm)*
G04 Created by KiCad (PCBNEW (6.0.5-0)) date 2022-06-08 15:29:45*
%MOMM*%
%LPD*%
G01*
G04 APERTURE LIST*
%ADD10C,0.150000*%
%ADD11C,0.529166*%
%ADD12C,0.200000*%
%ADD13C,0.120000*%
%ADD14C,1.000000*%
G04 APERTURE END LIST*
D10*
G36*
X81196892Y-46705938D02*
G01*
X77964362Y-44839636D01*
X77971282Y-44827650D01*
X78009092Y-44827650D01*
X81184906Y-46661207D01*
X82390909Y-44572351D01*
X79215094Y-42738794D01*
X78009092Y-44827650D01*
X77971282Y-44827650D01*
X79203108Y-42694063D01*
X82435638Y-44560364D01*
X82419266Y-44588724D01*
X81196892Y-46705938D01*
G37*
X81196892Y-46705938D02*
X77964362Y-44839636D01*
X77971282Y-44827650D01*
X78009092Y-44827650D01*
X81184906Y-46661207D01*
X82390909Y-44572351D01*
X79215094Y-42738794D01*
X78009092Y-44827650D01*
X77971282Y-44827650D01*
X79203108Y-42694063D01*
X82435638Y-44560364D01*
X82419266Y-44588724D01*
X81196892Y-46705938D01*
D11*
X84402905Y-56343193D02*
X90131301Y-53035902D01*
D10*
G36*
X81461069Y-45491337D02*
G01*
X81425064Y-45545685D01*
X81385476Y-45597578D01*
X81342433Y-45646776D01*
X81296062Y-45693039D01*
X81246491Y-45736126D01*
X81193847Y-45775793D01*
X81138256Y-45811803D01*
X81105944Y-45830243D01*
X81072813Y-45847421D01*
X81038929Y-45863322D01*
X81004359Y-45877929D01*
X80969168Y-45891228D01*
X80933422Y-45903202D01*
X80897186Y-45913837D01*
X80860527Y-45923117D01*
X80823512Y-45931029D01*
X80786206Y-45937552D01*
X80748673Y-45942675D01*
X80710982Y-45946384D01*
X80673196Y-45948660D01*
X80635384Y-45949489D01*
X80597610Y-45948855D01*
X80559941Y-45946744D01*
X80501605Y-45940381D01*
X80443823Y-45930269D01*
X80386791Y-45916538D01*
X80330699Y-45899304D01*
X80275743Y-45878692D01*
X80222117Y-45854829D01*
X80170015Y-45827836D01*
X80119628Y-45797834D01*
X80071154Y-45764950D01*
X80024783Y-45729303D01*
X79980710Y-45691018D01*
X79939131Y-45650220D01*
X79900237Y-45607032D01*
X79864223Y-45561573D01*
X79831283Y-45513969D01*
X79801609Y-45464345D01*
X79765641Y-45399232D01*
X79765157Y-45399190D01*
X79798082Y-45399190D01*
X79798104Y-45400209D01*
X79798230Y-45401320D01*
X79798461Y-45402525D01*
X79798787Y-45403832D01*
X79799208Y-45405242D01*
X79799718Y-45406766D01*
X79800995Y-45410163D01*
X79802587Y-45414062D01*
X79804462Y-45418509D01*
X79811357Y-45433626D01*
X79819908Y-45449924D01*
X79829985Y-45467233D01*
X79841450Y-45485388D01*
X79854176Y-45504229D01*
X79868025Y-45523585D01*
X79882867Y-45543293D01*
X79898566Y-45563187D01*
X79914990Y-45583101D01*
X79932007Y-45602872D01*
X79949481Y-45622333D01*
X79967282Y-45641319D01*
X79985273Y-45659664D01*
X80003325Y-45677204D01*
X80021302Y-45693771D01*
X80039072Y-45709205D01*
X80051928Y-45719609D01*
X80066181Y-45730422D01*
X80098176Y-45752872D01*
X80133659Y-45775745D01*
X80171233Y-45798232D01*
X80209494Y-45819528D01*
X80247046Y-45838821D01*
X80282490Y-45855308D01*
X80298981Y-45862246D01*
X80314423Y-45868178D01*
X80371127Y-45886721D01*
X80428650Y-45901514D01*
X80486800Y-45912588D01*
X80545386Y-45919970D01*
X80604216Y-45923690D01*
X80663103Y-45923781D01*
X80721850Y-45920267D01*
X80780269Y-45913180D01*
X80838170Y-45902548D01*
X80895359Y-45888401D01*
X80951646Y-45870767D01*
X81006842Y-45849678D01*
X81060752Y-45825160D01*
X81113189Y-45797243D01*
X81163957Y-45765959D01*
X81212870Y-45731335D01*
X81250788Y-45700732D01*
X81287207Y-45667555D01*
X81322024Y-45632005D01*
X81355134Y-45594274D01*
X81386428Y-45554563D01*
X81415801Y-45513069D01*
X81443151Y-45469988D01*
X81468369Y-45425522D01*
X81491353Y-45379864D01*
X81511992Y-45333212D01*
X81530187Y-45285769D01*
X81545828Y-45237726D01*
X81558809Y-45189285D01*
X81569028Y-45140643D01*
X81576379Y-45091996D01*
X81580754Y-45043542D01*
X81582006Y-45009027D01*
X81581767Y-44973883D01*
X81580072Y-44938246D01*
X81576954Y-44902253D01*
X81572447Y-44866035D01*
X81566587Y-44829731D01*
X81559410Y-44793478D01*
X81550946Y-44757409D01*
X81541230Y-44721658D01*
X81530296Y-44686365D01*
X81518183Y-44651661D01*
X81504921Y-44617685D01*
X81490546Y-44584574D01*
X81475092Y-44552457D01*
X81458591Y-44521476D01*
X81441081Y-44491761D01*
X81423241Y-44463723D01*
X81405491Y-44437329D01*
X81387675Y-44412437D01*
X81369637Y-44388907D01*
X81351220Y-44366594D01*
X81332268Y-44345353D01*
X81312624Y-44325048D01*
X81292132Y-44305530D01*
X81270637Y-44286659D01*
X81247978Y-44268291D01*
X81224005Y-44250286D01*
X81198557Y-44232497D01*
X81171478Y-44214786D01*
X81142613Y-44197006D01*
X81111805Y-44179018D01*
X81078897Y-44160677D01*
X81043680Y-44141828D01*
X81012684Y-44125869D01*
X80985124Y-44112477D01*
X80960215Y-44101324D01*
X80937174Y-44092086D01*
X80915211Y-44084440D01*
X80893544Y-44078059D01*
X80871384Y-44072619D01*
X80871060Y-44072449D01*
X80853715Y-44068792D01*
X80834347Y-44065070D01*
X80813610Y-44061387D01*
X80792151Y-44057847D01*
X80770627Y-44054557D01*
X80749686Y-44051620D01*
X80729981Y-44049140D01*
X80712163Y-44047222D01*
X80631445Y-44039418D01*
X80633122Y-44045273D01*
X80664299Y-44154112D01*
X80677398Y-44204038D01*
X80687996Y-44253572D01*
X80696094Y-44302720D01*
X80701690Y-44351488D01*
X80704786Y-44399884D01*
X80705378Y-44447914D01*
X80703467Y-44495582D01*
X80699051Y-44542898D01*
X80692132Y-44589865D01*
X80682705Y-44636492D01*
X80670773Y-44682783D01*
X80656334Y-44728747D01*
X80639387Y-44774389D01*
X80619933Y-44819715D01*
X80597969Y-44864730D01*
X80573494Y-44909444D01*
X80558345Y-44935005D01*
X80542979Y-44959561D01*
X80527348Y-44983166D01*
X80511400Y-45005876D01*
X80495083Y-45027744D01*
X80478344Y-45048828D01*
X80461137Y-45069183D01*
X80443406Y-45088860D01*
X80425102Y-45107919D01*
X80406176Y-45126414D01*
X80386572Y-45144398D01*
X80366243Y-45161929D01*
X80345135Y-45179058D01*
X80323198Y-45195847D01*
X80300384Y-45212346D01*
X80276636Y-45228610D01*
X80252522Y-45244066D01*
X80227314Y-45259001D01*
X80201131Y-45273374D01*
X80174091Y-45287143D01*
X80146309Y-45300265D01*
X80117906Y-45312699D01*
X80089001Y-45324402D01*
X80059707Y-45335333D01*
X80030145Y-45345450D01*
X80000432Y-45354710D01*
X79970685Y-45363072D01*
X79941023Y-45370494D01*
X79911562Y-45376935D01*
X79882421Y-45382350D01*
X79853719Y-45386700D01*
X79825571Y-45389941D01*
X79815131Y-45391016D01*
X79810944Y-45391556D01*
X79807405Y-45392152D01*
X79805868Y-45392484D01*
X79804483Y-45392845D01*
X79803245Y-45393240D01*
X79802148Y-45393676D01*
X79801193Y-45394156D01*
X79800371Y-45394686D01*
X79799683Y-45395269D01*
X79799121Y-45395912D01*
X79798686Y-45396623D01*
X79798369Y-45397402D01*
X79798168Y-45398254D01*
X79798082Y-45399190D01*
X79765157Y-45399190D01*
X79675252Y-45391393D01*
X79606527Y-45383311D01*
X79539588Y-45371144D01*
X79474556Y-45354975D01*
X79411553Y-45334893D01*
X79350699Y-45310982D01*
X79292118Y-45283325D01*
X79235932Y-45252010D01*
X79182262Y-45217121D01*
X79131232Y-45178745D01*
X79082959Y-45136967D01*
X79037570Y-45091872D01*
X78995184Y-45043545D01*
X78955923Y-44992072D01*
X78919910Y-44937537D01*
X78887266Y-44880027D01*
X78858114Y-44819627D01*
X78831677Y-44753932D01*
X78810313Y-44688077D01*
X78793892Y-44622229D01*
X78782285Y-44556557D01*
X78775364Y-44491229D01*
X78773883Y-44450617D01*
X78798242Y-44450617D01*
X78798334Y-44466036D01*
X78798853Y-44480910D01*
X78799833Y-44495527D01*
X78801308Y-44510175D01*
X78803311Y-44525135D01*
X78805874Y-44540694D01*
X78809035Y-44557141D01*
X78812822Y-44574759D01*
X78817273Y-44593833D01*
X78822422Y-44614648D01*
X78834941Y-44662651D01*
X78843894Y-44695236D01*
X78852940Y-44725899D01*
X78862177Y-44754835D01*
X78871713Y-44782236D01*
X78881648Y-44808297D01*
X78892084Y-44833212D01*
X78903126Y-44857177D01*
X78914877Y-44880382D01*
X78927438Y-44903024D01*
X78940914Y-44925296D01*
X78955407Y-44947392D01*
X78971020Y-44969507D01*
X78987856Y-44991832D01*
X79006018Y-45014566D01*
X79025608Y-45037899D01*
X79046729Y-45062026D01*
X79065212Y-45081937D01*
X79084924Y-45101629D01*
X79105757Y-45121036D01*
X79127603Y-45140080D01*
X79150355Y-45158693D01*
X79173905Y-45176803D01*
X79198142Y-45194340D01*
X79222962Y-45211231D01*
X79248255Y-45227404D01*
X79273913Y-45242787D01*
X79299830Y-45257313D01*
X79325894Y-45270907D01*
X79352002Y-45283497D01*
X79378040Y-45295011D01*
X79403905Y-45305380D01*
X79429488Y-45314534D01*
X79467452Y-45326245D01*
X79508805Y-45337238D01*
X79551632Y-45347158D01*
X79594001Y-45355647D01*
X79633989Y-45362353D01*
X79669674Y-45366916D01*
X79685300Y-45368284D01*
X79699129Y-45368982D01*
X79710919Y-45368968D01*
X79720431Y-45368194D01*
X79724937Y-45367517D01*
X79726970Y-45367154D01*
X79728856Y-45366758D01*
X79730595Y-45366317D01*
X79732190Y-45365818D01*
X79733639Y-45365249D01*
X79734946Y-45364597D01*
X79736110Y-45363850D01*
X79736638Y-45363437D01*
X79737129Y-45362996D01*
X79737587Y-45362525D01*
X79738008Y-45362023D01*
X79738395Y-45361488D01*
X79738746Y-45360918D01*
X79739062Y-45360312D01*
X79739344Y-45359668D01*
X79739590Y-45358986D01*
X79739800Y-45358261D01*
X79739978Y-45357496D01*
X79740119Y-45356687D01*
X79740299Y-45354929D01*
X79740343Y-45352978D01*
X79740247Y-45350821D01*
X79740017Y-45348444D01*
X79739650Y-45345838D01*
X79739148Y-45342988D01*
X79738512Y-45339882D01*
X79737743Y-45336508D01*
X79736841Y-45332853D01*
X79735806Y-45328905D01*
X79734641Y-45324652D01*
X79731917Y-45315180D01*
X79728675Y-45304340D01*
X79724921Y-45292029D01*
X79714270Y-45255199D01*
X79704910Y-45218606D01*
X79696839Y-45182241D01*
X79690057Y-45146103D01*
X79684565Y-45110184D01*
X79680360Y-45074481D01*
X79677447Y-45038990D01*
X79675821Y-45003703D01*
X79675484Y-44968619D01*
X79676434Y-44933733D01*
X79678673Y-44899039D01*
X79682200Y-44864531D01*
X79687014Y-44830209D01*
X79693116Y-44796061D01*
X79700505Y-44762089D01*
X79709180Y-44728284D01*
X79725920Y-44674409D01*
X79746009Y-44621525D01*
X79769293Y-44569806D01*
X79795612Y-44519434D01*
X79824807Y-44470582D01*
X79856723Y-44423430D01*
X79891198Y-44378157D01*
X79928076Y-44334939D01*
X79967200Y-44293952D01*
X80008410Y-44255377D01*
X80051550Y-44219389D01*
X80096459Y-44186166D01*
X80142981Y-44155886D01*
X80190957Y-44128727D01*
X80240230Y-44104866D01*
X80290640Y-44084480D01*
X80303902Y-44079833D01*
X80318825Y-44074992D01*
X80352519Y-44065001D01*
X80389444Y-44055042D01*
X80427321Y-44045653D01*
X80463874Y-44037374D01*
X80496828Y-44030744D01*
X80511241Y-44028214D01*
X80523903Y-44026300D01*
X80534524Y-44025066D01*
X80542822Y-44024583D01*
X80546420Y-44024462D01*
X80549933Y-44024240D01*
X80553344Y-44023919D01*
X80556638Y-44023509D01*
X80559790Y-44023008D01*
X80562787Y-44022428D01*
X80565607Y-44021771D01*
X80568234Y-44021043D01*
X80570649Y-44020248D01*
X80572832Y-44019394D01*
X80574768Y-44018483D01*
X80576433Y-44017524D01*
X80577814Y-44016519D01*
X80578391Y-44016001D01*
X80578890Y-44015474D01*
X80579308Y-44014938D01*
X80579641Y-44014396D01*
X80579892Y-44013845D01*
X80580052Y-44013288D01*
X80580189Y-44011247D01*
X80579877Y-44008658D01*
X80579134Y-44005549D01*
X80577976Y-44001945D01*
X80574491Y-43993367D01*
X80569558Y-43983139D01*
X80563321Y-43971475D01*
X80555916Y-43958589D01*
X80547483Y-43944697D01*
X80538164Y-43930018D01*
X80528096Y-43914762D01*
X80517419Y-43899145D01*
X80506273Y-43883387D01*
X80494797Y-43867697D01*
X80483130Y-43852294D01*
X80471413Y-43837391D01*
X80459784Y-43823205D01*
X80448382Y-43809951D01*
X80417227Y-43775390D01*
X80403044Y-43760312D01*
X80389459Y-43746452D01*
X80376227Y-43733614D01*
X80363098Y-43721608D01*
X80349825Y-43710244D01*
X80336159Y-43699331D01*
X80321853Y-43688678D01*
X80306660Y-43678092D01*
X80290331Y-43667385D01*
X80272620Y-43656367D01*
X80253276Y-43644844D01*
X80232052Y-43632626D01*
X80182977Y-43605341D01*
X80143459Y-43583977D01*
X80110111Y-43566637D01*
X80081391Y-43552689D01*
X80055769Y-43541496D01*
X80043640Y-43536732D01*
X80031709Y-43532422D01*
X80019785Y-43528479D01*
X80007676Y-43524830D01*
X79982137Y-43518088D01*
X79953556Y-43511559D01*
X79919922Y-43504864D01*
X79886685Y-43499270D01*
X79853805Y-43494780D01*
X79821237Y-43491396D01*
X79788942Y-43489122D01*
X79756876Y-43487956D01*
X79724995Y-43487902D01*
X79693260Y-43488964D01*
X79661625Y-43491141D01*
X79630051Y-43494435D01*
X79598493Y-43498850D01*
X79566910Y-43504386D01*
X79535261Y-43511047D01*
X79503503Y-43518833D01*
X79471589Y-43527746D01*
X79439483Y-43537791D01*
X79395291Y-43553422D01*
X79352688Y-43570695D01*
X79311644Y-43589633D01*
X79272135Y-43610260D01*
X79234130Y-43632597D01*
X79197610Y-43656672D01*
X79162542Y-43682501D01*
X79128903Y-43710111D01*
X79096665Y-43739525D01*
X79065801Y-43770763D01*
X79036287Y-43803851D01*
X79008096Y-43838813D01*
X78981199Y-43875669D01*
X78955573Y-43914442D01*
X78931188Y-43955156D01*
X78908021Y-43997834D01*
X78881826Y-44050226D01*
X78870583Y-44074189D01*
X78860475Y-44097014D01*
X78851433Y-44118964D01*
X78843383Y-44140302D01*
X78836252Y-44161288D01*
X78829970Y-44182191D01*
X78824461Y-44203266D01*
X78819654Y-44224780D01*
X78815474Y-44246998D01*
X78811851Y-44270179D01*
X78808711Y-44294586D01*
X78805981Y-44320484D01*
X78801464Y-44377800D01*
X78799200Y-44417008D01*
X78798542Y-44434370D01*
X78798242Y-44450617D01*
X78773883Y-44450617D01*
X78773001Y-44426413D01*
X78775065Y-44362276D01*
X78781432Y-44298989D01*
X78791966Y-44236719D01*
X78806543Y-44175634D01*
X78825035Y-44115902D01*
X78847310Y-44057692D01*
X78873242Y-44001171D01*
X78902699Y-43946509D01*
X78935556Y-43893872D01*
X78971683Y-43843432D01*
X79010949Y-43795354D01*
X79053229Y-43749806D01*
X79098391Y-43706959D01*
X79146307Y-43666979D01*
X79196850Y-43630035D01*
X79249889Y-43596294D01*
X79305298Y-43565926D01*
X79362945Y-43539099D01*
X79422703Y-43515981D01*
X79484443Y-43496739D01*
X79548036Y-43481544D01*
X79613355Y-43470561D01*
X79680269Y-43463961D01*
X79748649Y-43461911D01*
X79818368Y-43464579D01*
X79889297Y-43472132D01*
X79915380Y-43476385D01*
X79942258Y-43481882D01*
X79969788Y-43488561D01*
X79997823Y-43496365D01*
X80026222Y-43505231D01*
X80054837Y-43515096D01*
X80083525Y-43525904D01*
X80112141Y-43537590D01*
X80140542Y-43550094D01*
X80168581Y-43563355D01*
X80196116Y-43577312D01*
X80223001Y-43591905D01*
X80249091Y-43607073D01*
X80274243Y-43622753D01*
X80298313Y-43638887D01*
X80321153Y-43655411D01*
X80321106Y-43655401D01*
X80341488Y-43671322D01*
X80361995Y-43688469D01*
X80382505Y-43706700D01*
X80402892Y-43725870D01*
X80423040Y-43745835D01*
X80442822Y-43766450D01*
X80462116Y-43787571D01*
X80480801Y-43809053D01*
X80498753Y-43830754D01*
X80515849Y-43852527D01*
X80531968Y-43874227D01*
X80546986Y-43895715D01*
X80560782Y-43916843D01*
X80573233Y-43937466D01*
X80584216Y-43957442D01*
X80593609Y-43976626D01*
X80610667Y-44014066D01*
X80714997Y-44022570D01*
X80761642Y-44027494D01*
X80807687Y-44034566D01*
X80853093Y-44043769D01*
X80897818Y-44055081D01*
X80941818Y-44068480D01*
X80985051Y-44083945D01*
X81027478Y-44101455D01*
X81069052Y-44120989D01*
X81109735Y-44142526D01*
X81149486Y-44166047D01*
X81188260Y-44191528D01*
X81226015Y-44218952D01*
X81262711Y-44248294D01*
X81298307Y-44279533D01*
X81332757Y-44312653D01*
X81366023Y-44347627D01*
X81377863Y-44361162D01*
X81390097Y-44376116D01*
X81402603Y-44392283D01*
X81415255Y-44409459D01*
X81440495Y-44446022D01*
X81464815Y-44484173D01*
X81487213Y-44522281D01*
X81497380Y-44540808D01*
X81506690Y-44558710D01*
X81515019Y-44575786D01*
X81522242Y-44591831D01*
X81528235Y-44606638D01*
X81532871Y-44620009D01*
X81536395Y-44631005D01*
X81539815Y-44641047D01*
X81543044Y-44649929D01*
X81546001Y-44657445D01*
X81548603Y-44663393D01*
X81549745Y-44665714D01*
X81550766Y-44667566D01*
X81551657Y-44668922D01*
X81552407Y-44669757D01*
X81552726Y-44669974D01*
X81553006Y-44670049D01*
X81553244Y-44669981D01*
X81553441Y-44669767D01*
X81554266Y-44669124D01*
X81555244Y-44669613D01*
X81556364Y-44671177D01*
X81557615Y-44673760D01*
X81560472Y-44681758D01*
X81563727Y-44693157D01*
X81567295Y-44707508D01*
X81571093Y-44724360D01*
X81579034Y-44763772D01*
X81586868Y-44807796D01*
X81593916Y-44852833D01*
X81596931Y-44874607D01*
X81599494Y-44895289D01*
X81601521Y-44914423D01*
X81602924Y-44931561D01*
X81604885Y-44997146D01*
X81602118Y-45062447D01*
X81594749Y-45127222D01*
X81582909Y-45191229D01*
X81566724Y-45254230D01*
X81546320Y-45315982D01*
X81521824Y-45376245D01*
X81493364Y-45434775D01*
X81465793Y-45483062D01*
X81461069Y-45491337D01*
G37*
X81461069Y-45491337D02*
X81425064Y-45545685D01*
X81385476Y-45597578D01*
X81342433Y-45646776D01*
X81296062Y-45693039D01*
X81246491Y-45736126D01*
X81193847Y-45775793D01*
X81138256Y-45811803D01*
X81105944Y-45830243D01*
X81072813Y-45847421D01*
X81038929Y-45863322D01*
X81004359Y-45877929D01*
X80969168Y-45891228D01*
X80933422Y-45903202D01*
X80897186Y-45913837D01*
X80860527Y-45923117D01*
X80823512Y-45931029D01*
X80786206Y-45937552D01*
X80748673Y-45942675D01*
X80710982Y-45946384D01*
X80673196Y-45948660D01*
X80635384Y-45949489D01*
X80597610Y-45948855D01*
X80559941Y-45946744D01*
X80501605Y-45940381D01*
X80443823Y-45930269D01*
X80386791Y-45916538D01*
X80330699Y-45899304D01*
X80275743Y-45878692D01*
X80222117Y-45854829D01*
X80170015Y-45827836D01*
X80119628Y-45797834D01*
X80071154Y-45764950D01*
X80024783Y-45729303D01*
X79980710Y-45691018D01*
X79939131Y-45650220D01*
X79900237Y-45607032D01*
X79864223Y-45561573D01*
X79831283Y-45513969D01*
X79801609Y-45464345D01*
X79765641Y-45399232D01*
X79765157Y-45399190D01*
X79798082Y-45399190D01*
X79798104Y-45400209D01*
X79798230Y-45401320D01*
X79798461Y-45402525D01*
X79798787Y-45403832D01*
X79799208Y-45405242D01*
X79799718Y-45406766D01*
X79800995Y-45410163D01*
X79802587Y-45414062D01*
X79804462Y-45418509D01*
X79811357Y-45433626D01*
X79819908Y-45449924D01*
X79829985Y-45467233D01*
X79841450Y-45485388D01*
X79854176Y-45504229D01*
X79868025Y-45523585D01*
X79882867Y-45543293D01*
X79898566Y-45563187D01*
X79914990Y-45583101D01*
X79932007Y-45602872D01*
X79949481Y-45622333D01*
X79967282Y-45641319D01*
X79985273Y-45659664D01*
X80003325Y-45677204D01*
X80021302Y-45693771D01*
X80039072Y-45709205D01*
X80051928Y-45719609D01*
X80066181Y-45730422D01*
X80098176Y-45752872D01*
X80133659Y-45775745D01*
X80171233Y-45798232D01*
X80209494Y-45819528D01*
X80247046Y-45838821D01*
X80282490Y-45855308D01*
X80298981Y-45862246D01*
X80314423Y-45868178D01*
X80371127Y-45886721D01*
X80428650Y-45901514D01*
X80486800Y-45912588D01*
X80545386Y-45919970D01*
X80604216Y-45923690D01*
X80663103Y-45923781D01*
X80721850Y-45920267D01*
X80780269Y-45913180D01*
X80838170Y-45902548D01*
X80895359Y-45888401D01*
X80951646Y-45870767D01*
X81006842Y-45849678D01*
X81060752Y-45825160D01*
X81113189Y-45797243D01*
X81163957Y-45765959D01*
X81212870Y-45731335D01*
X81250788Y-45700732D01*
X81287207Y-45667555D01*
X81322024Y-45632005D01*
X81355134Y-45594274D01*
X81386428Y-45554563D01*
X81415801Y-45513069D01*
X81443151Y-45469988D01*
X81468369Y-45425522D01*
X81491353Y-45379864D01*
X81511992Y-45333212D01*
X81530187Y-45285769D01*
X81545828Y-45237726D01*
X81558809Y-45189285D01*
X81569028Y-45140643D01*
X81576379Y-45091996D01*
X81580754Y-45043542D01*
X81582006Y-45009027D01*
X81581767Y-44973883D01*
X81580072Y-44938246D01*
X81576954Y-44902253D01*
X81572447Y-44866035D01*
X81566587Y-44829731D01*
X81559410Y-44793478D01*
X81550946Y-44757409D01*
X81541230Y-44721658D01*
X81530296Y-44686365D01*
X81518183Y-44651661D01*
X81504921Y-44617685D01*
X81490546Y-44584574D01*
X81475092Y-44552457D01*
X81458591Y-44521476D01*
X81441081Y-44491761D01*
X81423241Y-44463723D01*
X81405491Y-44437329D01*
X81387675Y-44412437D01*
X81369637Y-44388907D01*
X81351220Y-44366594D01*
X81332268Y-44345353D01*
X81312624Y-44325048D01*
X81292132Y-44305530D01*
X81270637Y-44286659D01*
X81247978Y-44268291D01*
X81224005Y-44250286D01*
X81198557Y-44232497D01*
X81171478Y-44214786D01*
X81142613Y-44197006D01*
X81111805Y-44179018D01*
X81078897Y-44160677D01*
X81043680Y-44141828D01*
X81012684Y-44125869D01*
X80985124Y-44112477D01*
X80960215Y-44101324D01*
X80937174Y-44092086D01*
X80915211Y-44084440D01*
X80893544Y-44078059D01*
X80871384Y-44072619D01*
X80871060Y-44072449D01*
X80853715Y-44068792D01*
X80834347Y-44065070D01*
X80813610Y-44061387D01*
X80792151Y-44057847D01*
X80770627Y-44054557D01*
X80749686Y-44051620D01*
X80729981Y-44049140D01*
X80712163Y-44047222D01*
X80631445Y-44039418D01*
X80633122Y-44045273D01*
X80664299Y-44154112D01*
X80677398Y-44204038D01*
X80687996Y-44253572D01*
X80696094Y-44302720D01*
X80701690Y-44351488D01*
X80704786Y-44399884D01*
X80705378Y-44447914D01*
X80703467Y-44495582D01*
X80699051Y-44542898D01*
X80692132Y-44589865D01*
X80682705Y-44636492D01*
X80670773Y-44682783D01*
X80656334Y-44728747D01*
X80639387Y-44774389D01*
X80619933Y-44819715D01*
X80597969Y-44864730D01*
X80573494Y-44909444D01*
X80558345Y-44935005D01*
X80542979Y-44959561D01*
X80527348Y-44983166D01*
X80511400Y-45005876D01*
X80495083Y-45027744D01*
X80478344Y-45048828D01*
X80461137Y-45069183D01*
X80443406Y-45088860D01*
X80425102Y-45107919D01*
X80406176Y-45126414D01*
X80386572Y-45144398D01*
X80366243Y-45161929D01*
X80345135Y-45179058D01*
X80323198Y-45195847D01*
X80300384Y-45212346D01*
X80276636Y-45228610D01*
X80252522Y-45244066D01*
X80227314Y-45259001D01*
X80201131Y-45273374D01*
X80174091Y-45287143D01*
X80146309Y-45300265D01*
X80117906Y-45312699D01*
X80089001Y-45324402D01*
X80059707Y-45335333D01*
X80030145Y-45345450D01*
X80000432Y-45354710D01*
X79970685Y-45363072D01*
X79941023Y-45370494D01*
X79911562Y-45376935D01*
X79882421Y-45382350D01*
X79853719Y-45386700D01*
X79825571Y-45389941D01*
X79815131Y-45391016D01*
X79810944Y-45391556D01*
X79807405Y-45392152D01*
X79805868Y-45392484D01*
X79804483Y-45392845D01*
X79803245Y-45393240D01*
X79802148Y-45393676D01*
X79801193Y-45394156D01*
X79800371Y-45394686D01*
X79799683Y-45395269D01*
X79799121Y-45395912D01*
X79798686Y-45396623D01*
X79798369Y-45397402D01*
X79798168Y-45398254D01*
X79798082Y-45399190D01*
X79765157Y-45399190D01*
X79675252Y-45391393D01*
X79606527Y-45383311D01*
X79539588Y-45371144D01*
X79474556Y-45354975D01*
X79411553Y-45334893D01*
X79350699Y-45310982D01*
X79292118Y-45283325D01*
X79235932Y-45252010D01*
X79182262Y-45217121D01*
X79131232Y-45178745D01*
X79082959Y-45136967D01*
X79037570Y-45091872D01*
X78995184Y-45043545D01*
X78955923Y-44992072D01*
X78919910Y-44937537D01*
X78887266Y-44880027D01*
X78858114Y-44819627D01*
X78831677Y-44753932D01*
X78810313Y-44688077D01*
X78793892Y-44622229D01*
X78782285Y-44556557D01*
X78775364Y-44491229D01*
X78773883Y-44450617D01*
X78798242Y-44450617D01*
X78798334Y-44466036D01*
X78798853Y-44480910D01*
X78799833Y-44495527D01*
X78801308Y-44510175D01*
X78803311Y-44525135D01*
X78805874Y-44540694D01*
X78809035Y-44557141D01*
X78812822Y-44574759D01*
X78817273Y-44593833D01*
X78822422Y-44614648D01*
X78834941Y-44662651D01*
X78843894Y-44695236D01*
X78852940Y-44725899D01*
X78862177Y-44754835D01*
X78871713Y-44782236D01*
X78881648Y-44808297D01*
X78892084Y-44833212D01*
X78903126Y-44857177D01*
X78914877Y-44880382D01*
X78927438Y-44903024D01*
X78940914Y-44925296D01*
X78955407Y-44947392D01*
X78971020Y-44969507D01*
X78987856Y-44991832D01*
X79006018Y-45014566D01*
X79025608Y-45037899D01*
X79046729Y-45062026D01*
X79065212Y-45081937D01*
X79084924Y-45101629D01*
X79105757Y-45121036D01*
X79127603Y-45140080D01*
X79150355Y-45158693D01*
X79173905Y-45176803D01*
X79198142Y-45194340D01*
X79222962Y-45211231D01*
X79248255Y-45227404D01*
X79273913Y-45242787D01*
X79299830Y-45257313D01*
X79325894Y-45270907D01*
X79352002Y-45283497D01*
X79378040Y-45295011D01*
X79403905Y-45305380D01*
X79429488Y-45314534D01*
X79467452Y-45326245D01*
X79508805Y-45337238D01*
X79551632Y-45347158D01*
X79594001Y-45355647D01*
X79633989Y-45362353D01*
X79669674Y-45366916D01*
X79685300Y-45368284D01*
X79699129Y-45368982D01*
X79710919Y-45368968D01*
X79720431Y-45368194D01*
X79724937Y-45367517D01*
X79726970Y-45367154D01*
X79728856Y-45366758D01*
X79730595Y-45366317D01*
X79732190Y-45365818D01*
X79733639Y-45365249D01*
X79734946Y-45364597D01*
X79736110Y-45363850D01*
X79736638Y-45363437D01*
X79737129Y-45362996D01*
X79737587Y-45362525D01*
X79738008Y-45362023D01*
X79738395Y-45361488D01*
X79738746Y-45360918D01*
X79739062Y-45360312D01*
X79739344Y-45359668D01*
X79739590Y-45358986D01*
X79739800Y-45358261D01*
X79739978Y-45357496D01*
X79740119Y-45356687D01*
X79740299Y-45354929D01*
X79740343Y-45352978D01*
X79740247Y-45350821D01*
X79740017Y-45348444D01*
X79739650Y-45345838D01*
X79739148Y-45342988D01*
X79738512Y-45339882D01*
X79737743Y-45336508D01*
X79736841Y-45332853D01*
X79735806Y-45328905D01*
X79734641Y-45324652D01*
X79731917Y-45315180D01*
X79728675Y-45304340D01*
X79724921Y-45292029D01*
X79714270Y-45255199D01*
X79704910Y-45218606D01*
X79696839Y-45182241D01*
X79690057Y-45146103D01*
X79684565Y-45110184D01*
X79680360Y-45074481D01*
X79677447Y-45038990D01*
X79675821Y-45003703D01*
X79675484Y-44968619D01*
X79676434Y-44933733D01*
X79678673Y-44899039D01*
X79682200Y-44864531D01*
X79687014Y-44830209D01*
X79693116Y-44796061D01*
X79700505Y-44762089D01*
X79709180Y-44728284D01*
X79725920Y-44674409D01*
X79746009Y-44621525D01*
X79769293Y-44569806D01*
X79795612Y-44519434D01*
X79824807Y-44470582D01*
X79856723Y-44423430D01*
X79891198Y-44378157D01*
X79928076Y-44334939D01*
X79967200Y-44293952D01*
X80008410Y-44255377D01*
X80051550Y-44219389D01*
X80096459Y-44186166D01*
X80142981Y-44155886D01*
X80190957Y-44128727D01*
X80240230Y-44104866D01*
X80290640Y-44084480D01*
X80303902Y-44079833D01*
X80318825Y-44074992D01*
X80352519Y-44065001D01*
X80389444Y-44055042D01*
X80427321Y-44045653D01*
X80463874Y-44037374D01*
X80496828Y-44030744D01*
X80511241Y-44028214D01*
X80523903Y-44026300D01*
X80534524Y-44025066D01*
X80542822Y-44024583D01*
X80546420Y-44024462D01*
X80549933Y-44024240D01*
X80553344Y-44023919D01*
X80556638Y-44023509D01*
X80559790Y-44023008D01*
X80562787Y-44022428D01*
X80565607Y-44021771D01*
X80568234Y-44021043D01*
X80570649Y-44020248D01*
X80572832Y-44019394D01*
X80574768Y-44018483D01*
X80576433Y-44017524D01*
X80577814Y-44016519D01*
X80578391Y-44016001D01*
X80578890Y-44015474D01*
X80579308Y-44014938D01*
X80579641Y-44014396D01*
X80579892Y-44013845D01*
X80580052Y-44013288D01*
X80580189Y-44011247D01*
X80579877Y-44008658D01*
X80579134Y-44005549D01*
X80577976Y-44001945D01*
X80574491Y-43993367D01*
X80569558Y-43983139D01*
X80563321Y-43971475D01*
X80555916Y-43958589D01*
X80547483Y-43944697D01*
X80538164Y-43930018D01*
X80528096Y-43914762D01*
X80517419Y-43899145D01*
X80506273Y-43883387D01*
X80494797Y-43867697D01*
X80483130Y-43852294D01*
X80471413Y-43837391D01*
X80459784Y-43823205D01*
X80448382Y-43809951D01*
X80417227Y-43775390D01*
X80403044Y-43760312D01*
X80389459Y-43746452D01*
X80376227Y-43733614D01*
X80363098Y-43721608D01*
X80349825Y-43710244D01*
X80336159Y-43699331D01*
X80321853Y-43688678D01*
X80306660Y-43678092D01*
X80290331Y-43667385D01*
X80272620Y-43656367D01*
X80253276Y-43644844D01*
X80232052Y-43632626D01*
X80182977Y-43605341D01*
X80143459Y-43583977D01*
X80110111Y-43566637D01*
X80081391Y-43552689D01*
X80055769Y-43541496D01*
X80043640Y-43536732D01*
X80031709Y-43532422D01*
X80019785Y-43528479D01*
X80007676Y-43524830D01*
X79982137Y-43518088D01*
X79953556Y-43511559D01*
X79919922Y-43504864D01*
X79886685Y-43499270D01*
X79853805Y-43494780D01*
X79821237Y-43491396D01*
X79788942Y-43489122D01*
X79756876Y-43487956D01*
X79724995Y-43487902D01*
X79693260Y-43488964D01*
X79661625Y-43491141D01*
X79630051Y-43494435D01*
X79598493Y-43498850D01*
X79566910Y-43504386D01*
X79535261Y-43511047D01*
X79503503Y-43518833D01*
X79471589Y-43527746D01*
X79439483Y-43537791D01*
X79395291Y-43553422D01*
X79352688Y-43570695D01*
X79311644Y-43589633D01*
X79272135Y-43610260D01*
X79234130Y-43632597D01*
X79197610Y-43656672D01*
X79162542Y-43682501D01*
X79128903Y-43710111D01*
X79096665Y-43739525D01*
X79065801Y-43770763D01*
X79036287Y-43803851D01*
X79008096Y-43838813D01*
X78981199Y-43875669D01*
X78955573Y-43914442D01*
X78931188Y-43955156D01*
X78908021Y-43997834D01*
X78881826Y-44050226D01*
X78870583Y-44074189D01*
X78860475Y-44097014D01*
X78851433Y-44118964D01*
X78843383Y-44140302D01*
X78836252Y-44161288D01*
X78829970Y-44182191D01*
X78824461Y-44203266D01*
X78819654Y-44224780D01*
X78815474Y-44246998D01*
X78811851Y-44270179D01*
X78808711Y-44294586D01*
X78805981Y-44320484D01*
X78801464Y-44377800D01*
X78799200Y-44417008D01*
X78798542Y-44434370D01*
X78798242Y-44450617D01*
X78773883Y-44450617D01*
X78773001Y-44426413D01*
X78775065Y-44362276D01*
X78781432Y-44298989D01*
X78791966Y-44236719D01*
X78806543Y-44175634D01*
X78825035Y-44115902D01*
X78847310Y-44057692D01*
X78873242Y-44001171D01*
X78902699Y-43946509D01*
X78935556Y-43893872D01*
X78971683Y-43843432D01*
X79010949Y-43795354D01*
X79053229Y-43749806D01*
X79098391Y-43706959D01*
X79146307Y-43666979D01*
X79196850Y-43630035D01*
X79249889Y-43596294D01*
X79305298Y-43565926D01*
X79362945Y-43539099D01*
X79422703Y-43515981D01*
X79484443Y-43496739D01*
X79548036Y-43481544D01*
X79613355Y-43470561D01*
X79680269Y-43463961D01*
X79748649Y-43461911D01*
X79818368Y-43464579D01*
X79889297Y-43472132D01*
X79915380Y-43476385D01*
X79942258Y-43481882D01*
X79969788Y-43488561D01*
X79997823Y-43496365D01*
X80026222Y-43505231D01*
X80054837Y-43515096D01*
X80083525Y-43525904D01*
X80112141Y-43537590D01*
X80140542Y-43550094D01*
X80168581Y-43563355D01*
X80196116Y-43577312D01*
X80223001Y-43591905D01*
X80249091Y-43607073D01*
X80274243Y-43622753D01*
X80298313Y-43638887D01*
X80321153Y-43655411D01*
X80321106Y-43655401D01*
X80341488Y-43671322D01*
X80361995Y-43688469D01*
X80382505Y-43706700D01*
X80402892Y-43725870D01*
X80423040Y-43745835D01*
X80442822Y-43766450D01*
X80462116Y-43787571D01*
X80480801Y-43809053D01*
X80498753Y-43830754D01*
X80515849Y-43852527D01*
X80531968Y-43874227D01*
X80546986Y-43895715D01*
X80560782Y-43916843D01*
X80573233Y-43937466D01*
X80584216Y-43957442D01*
X80593609Y-43976626D01*
X80610667Y-44014066D01*
X80714997Y-44022570D01*
X80761642Y-44027494D01*
X80807687Y-44034566D01*
X80853093Y-44043769D01*
X80897818Y-44055081D01*
X80941818Y-44068480D01*
X80985051Y-44083945D01*
X81027478Y-44101455D01*
X81069052Y-44120989D01*
X81109735Y-44142526D01*
X81149486Y-44166047D01*
X81188260Y-44191528D01*
X81226015Y-44218952D01*
X81262711Y-44248294D01*
X81298307Y-44279533D01*
X81332757Y-44312653D01*
X81366023Y-44347627D01*
X81377863Y-44361162D01*
X81390097Y-44376116D01*
X81402603Y-44392283D01*
X81415255Y-44409459D01*
X81440495Y-44446022D01*
X81464815Y-44484173D01*
X81487213Y-44522281D01*
X81497380Y-44540808D01*
X81506690Y-44558710D01*
X81515019Y-44575786D01*
X81522242Y-44591831D01*
X81528235Y-44606638D01*
X81532871Y-44620009D01*
X81536395Y-44631005D01*
X81539815Y-44641047D01*
X81543044Y-44649929D01*
X81546001Y-44657445D01*
X81548603Y-44663393D01*
X81549745Y-44665714D01*
X81550766Y-44667566D01*
X81551657Y-44668922D01*
X81552407Y-44669757D01*
X81552726Y-44669974D01*
X81553006Y-44670049D01*
X81553244Y-44669981D01*
X81553441Y-44669767D01*
X81554266Y-44669124D01*
X81555244Y-44669613D01*
X81556364Y-44671177D01*
X81557615Y-44673760D01*
X81560472Y-44681758D01*
X81563727Y-44693157D01*
X81567295Y-44707508D01*
X81571093Y-44724360D01*
X81579034Y-44763772D01*
X81586868Y-44807796D01*
X81593916Y-44852833D01*
X81596931Y-44874607D01*
X81599494Y-44895289D01*
X81601521Y-44914423D01*
X81602924Y-44931561D01*
X81604885Y-44997146D01*
X81602118Y-45062447D01*
X81594749Y-45127222D01*
X81582909Y-45191229D01*
X81566724Y-45254230D01*
X81546320Y-45315982D01*
X81521824Y-45376245D01*
X81493364Y-45434775D01*
X81465793Y-45483062D01*
X81461069Y-45491337D01*
D11*
X74143689Y-59211209D02*
X68186156Y-62650792D01*
D12*
G36*
X77283465Y-54343313D02*
G01*
X77527231Y-54210565D01*
X77774139Y-54091723D01*
X78023760Y-53986642D01*
X78275664Y-53895180D01*
X78529422Y-53817191D01*
X78784604Y-53752535D01*
X79040780Y-53701065D01*
X79297521Y-53662640D01*
X79554397Y-53637115D01*
X79810980Y-53624345D01*
X80066839Y-53624189D01*
X80321545Y-53636503D01*
X80574668Y-53661142D01*
X80825780Y-53697964D01*
X81074448Y-53746824D01*
X81320246Y-53807579D01*
X81562744Y-53880085D01*
X81801511Y-53964200D01*
X82036117Y-54059778D01*
X82266135Y-54166677D01*
X82491133Y-54284753D01*
X82710683Y-54413862D01*
X82924355Y-54553861D01*
X83131719Y-54704606D01*
X83332347Y-54865954D01*
X83525807Y-55037761D01*
X83711673Y-55219883D01*
X83889510Y-55412176D01*
X84058894Y-55614498D01*
X84219393Y-55826704D01*
X84370576Y-56048652D01*
X84512017Y-56280197D01*
X84641820Y-56518460D01*
X84758440Y-56760363D01*
X84861967Y-57005462D01*
X84952491Y-57253314D01*
X85030103Y-57503473D01*
X85094893Y-57755497D01*
X85146952Y-58008942D01*
X85186369Y-58263365D01*
X85213236Y-58518320D01*
X85227643Y-58773365D01*
X85229680Y-59028054D01*
X85219437Y-59281947D01*
X85197006Y-59534597D01*
X85162475Y-59785563D01*
X85115937Y-60034398D01*
X85057481Y-60280660D01*
X84987197Y-60523905D01*
X84905177Y-60763689D01*
X84811510Y-60999568D01*
X84706286Y-61231099D01*
X84589596Y-61457837D01*
X84461532Y-61679340D01*
X84322183Y-61895162D01*
X84171639Y-62104862D01*
X84009991Y-62307993D01*
X83837329Y-62504114D01*
X83653743Y-62692779D01*
X83459326Y-62873545D01*
X83254165Y-63045970D01*
X83038352Y-63209607D01*
X82811977Y-63364014D01*
X82575131Y-63508748D01*
X77883303Y-66217576D01*
X77505327Y-65562903D01*
X72751388Y-57328839D01*
X73624286Y-57328839D01*
X78160000Y-65184927D01*
X82088044Y-62917070D01*
X82293148Y-62791869D01*
X82489067Y-62658617D01*
X82675730Y-62517679D01*
X82853068Y-62369418D01*
X83021011Y-62214198D01*
X83179488Y-62052382D01*
X83328430Y-61884334D01*
X83467767Y-61710417D01*
X83597427Y-61530995D01*
X83717343Y-61346432D01*
X83827443Y-61157092D01*
X83927658Y-60963337D01*
X84017918Y-60765531D01*
X84098152Y-60564038D01*
X84168291Y-60359221D01*
X84228264Y-60151445D01*
X84278002Y-59941072D01*
X84317435Y-59728468D01*
X84346493Y-59513993D01*
X84365104Y-59298014D01*
X84373201Y-59080892D01*
X84370713Y-58862992D01*
X84357568Y-58644676D01*
X84333699Y-58426310D01*
X84299034Y-58208256D01*
X84253504Y-57990879D01*
X84197038Y-57774541D01*
X84129567Y-57559606D01*
X84051021Y-57346438D01*
X83961330Y-57135400D01*
X83860423Y-56926856D01*
X83748231Y-56721169D01*
X83626510Y-56520983D01*
X83497271Y-56328797D01*
X83360825Y-56144753D01*
X83217480Y-55968996D01*
X83067547Y-55801671D01*
X82911336Y-55642921D01*
X82749156Y-55492891D01*
X82581318Y-55351725D01*
X82408131Y-55219567D01*
X82229906Y-55096562D01*
X82046952Y-54982853D01*
X81859579Y-54878587D01*
X81668097Y-54783904D01*
X81472817Y-54698951D01*
X81274047Y-54623873D01*
X81072098Y-54558811D01*
X80867279Y-54503913D01*
X80659902Y-54459320D01*
X80450275Y-54425179D01*
X80238708Y-54401632D01*
X80025512Y-54388825D01*
X79810996Y-54386902D01*
X79595472Y-54396006D01*
X79379246Y-54416281D01*
X79162631Y-54447873D01*
X78945936Y-54490925D01*
X78729471Y-54545582D01*
X78513546Y-54611989D01*
X78298470Y-54690288D01*
X78084555Y-54780624D01*
X77872108Y-54883142D01*
X77661441Y-54997987D01*
X73624286Y-57328839D01*
X72751388Y-57328839D01*
X72591637Y-57052142D01*
X77283465Y-54343313D01*
G37*
X77283465Y-54343313D02*
X77527231Y-54210565D01*
X77774139Y-54091723D01*
X78023760Y-53986642D01*
X78275664Y-53895180D01*
X78529422Y-53817191D01*
X78784604Y-53752535D01*
X79040780Y-53701065D01*
X79297521Y-53662640D01*
X79554397Y-53637115D01*
X79810980Y-53624345D01*
X80066839Y-53624189D01*
X80321545Y-53636503D01*
X80574668Y-53661142D01*
X80825780Y-53697964D01*
X81074448Y-53746824D01*
X81320246Y-53807579D01*
X81562744Y-53880085D01*
X81801511Y-53964200D01*
X82036117Y-54059778D01*
X82266135Y-54166677D01*
X82491133Y-54284753D01*
X82710683Y-54413862D01*
X82924355Y-54553861D01*
X83131719Y-54704606D01*
X83332347Y-54865954D01*
X83525807Y-55037761D01*
X83711673Y-55219883D01*
X83889510Y-55412176D01*
X84058894Y-55614498D01*
X84219393Y-55826704D01*
X84370576Y-56048652D01*
X84512017Y-56280197D01*
X84641820Y-56518460D01*
X84758440Y-56760363D01*
X84861967Y-57005462D01*
X84952491Y-57253314D01*
X85030103Y-57503473D01*
X85094893Y-57755497D01*
X85146952Y-58008942D01*
X85186369Y-58263365D01*
X85213236Y-58518320D01*
X85227643Y-58773365D01*
X85229680Y-59028054D01*
X85219437Y-59281947D01*
X85197006Y-59534597D01*
X85162475Y-59785563D01*
X85115937Y-60034398D01*
X85057481Y-60280660D01*
X84987197Y-60523905D01*
X84905177Y-60763689D01*
X84811510Y-60999568D01*
X84706286Y-61231099D01*
X84589596Y-61457837D01*
X84461532Y-61679340D01*
X84322183Y-61895162D01*
X84171639Y-62104862D01*
X84009991Y-62307993D01*
X83837329Y-62504114D01*
X83653743Y-62692779D01*
X83459326Y-62873545D01*
X83254165Y-63045970D01*
X83038352Y-63209607D01*
X82811977Y-63364014D01*
X82575131Y-63508748D01*
X77883303Y-66217576D01*
X77505327Y-65562903D01*
X72751388Y-57328839D01*
X73624286Y-57328839D01*
X78160000Y-65184927D01*
X82088044Y-62917070D01*
X82293148Y-62791869D01*
X82489067Y-62658617D01*
X82675730Y-62517679D01*
X82853068Y-62369418D01*
X83021011Y-62214198D01*
X83179488Y-62052382D01*
X83328430Y-61884334D01*
X83467767Y-61710417D01*
X83597427Y-61530995D01*
X83717343Y-61346432D01*
X83827443Y-61157092D01*
X83927658Y-60963337D01*
X84017918Y-60765531D01*
X84098152Y-60564038D01*
X84168291Y-60359221D01*
X84228264Y-60151445D01*
X84278002Y-59941072D01*
X84317435Y-59728468D01*
X84346493Y-59513993D01*
X84365104Y-59298014D01*
X84373201Y-59080892D01*
X84370713Y-58862992D01*
X84357568Y-58644676D01*
X84333699Y-58426310D01*
X84299034Y-58208256D01*
X84253504Y-57990879D01*
X84197038Y-57774541D01*
X84129567Y-57559606D01*
X84051021Y-57346438D01*
X83961330Y-57135400D01*
X83860423Y-56926856D01*
X83748231Y-56721169D01*
X83626510Y-56520983D01*
X83497271Y-56328797D01*
X83360825Y-56144753D01*
X83217480Y-55968996D01*
X83067547Y-55801671D01*
X82911336Y-55642921D01*
X82749156Y-55492891D01*
X82581318Y-55351725D01*
X82408131Y-55219567D01*
X82229906Y-55096562D01*
X82046952Y-54982853D01*
X81859579Y-54878587D01*
X81668097Y-54783904D01*
X81472817Y-54698951D01*
X81274047Y-54623873D01*
X81072098Y-54558811D01*
X80867279Y-54503913D01*
X80659902Y-54459320D01*
X80450275Y-54425179D01*
X80238708Y-54401632D01*
X80025512Y-54388825D01*
X79810996Y-54386902D01*
X79595472Y-54396006D01*
X79379246Y-54416281D01*
X79162631Y-54447873D01*
X78945936Y-54490925D01*
X78729471Y-54545582D01*
X78513546Y-54611989D01*
X78298470Y-54690288D01*
X78084555Y-54780624D01*
X77872108Y-54883142D01*
X77661441Y-54997987D01*
X73624286Y-57328839D01*
X72751388Y-57328839D01*
X72591637Y-57052142D01*
X77283465Y-54343313D01*
D11*
X77018658Y-63661635D02*
X70831989Y-67233509D01*
D10*
X79980983Y-68250579D02*
X80805769Y-67774389D01*
X80101740Y-68840689D02*
X79679090Y-66775305D01*
X81256441Y-68174022D01*
X81833791Y-67840689D02*
X80833791Y-66108638D01*
X82823534Y-67269261D01*
X81823534Y-65537210D01*
X83648320Y-66793070D02*
X82648320Y-65061019D01*
X83060713Y-64822924D01*
X83355768Y-64762546D01*
X83615964Y-64832265D01*
X83793680Y-64949603D01*
X84066635Y-65231898D01*
X84209492Y-65479334D01*
X84317490Y-65856868D01*
X84330249Y-66069444D01*
X84260530Y-66329639D01*
X84060713Y-66554975D01*
X83648320Y-66793070D01*
X83357647Y-79035927D02*
X83833838Y-79035927D01*
X84071933Y-79178784D02*
X84405266Y-79178784D01*
X83405266Y-79369260D02*
X83786219Y-79369260D01*
X83929076Y-79559736D02*
X84167171Y-79559736D01*
X83405266Y-79559736D02*
X83786219Y-79559736D01*
X83929076Y-79702593D02*
X84167171Y-79702593D01*
X83357647Y-79750212D02*
X83833838Y-79750212D01*
X84405266Y-79988307D02*
X84548123Y-79988307D01*
X83405266Y-79178784D02*
X83405266Y-79559736D01*
X83595742Y-78845450D02*
X83595742Y-79988307D01*
X83405266Y-79178784D02*
X83833838Y-79178784D01*
X83833838Y-79559736D01*
X83929076Y-79369260D02*
X83929076Y-79988307D01*
X84357647Y-79369260D02*
X84357647Y-79797831D01*
X84548123Y-79321641D02*
X84548123Y-79988307D01*
X84262409Y-78845450D02*
X84548123Y-79178784D01*
X84214790Y-78845450D02*
X83881457Y-79178784D01*
X83929076Y-79369260D02*
X84167171Y-79369260D01*
X84167171Y-79988307D01*
X84071933Y-79988307D01*
X85119552Y-78988307D02*
X85452885Y-78988307D01*
X85548123Y-79274022D01*
X85690980Y-79654974D01*
X86024314Y-79988307D01*
X85452885Y-79083546D02*
X85405266Y-79369260D01*
X85262409Y-79654974D01*
X84929076Y-79988307D01*
X91549263Y-45472666D02*
X91311168Y-45060273D01*
X91315838Y-44782648D02*
X91149171Y-44493973D01*
X91814129Y-45264760D02*
X91623652Y-44934846D01*
X91717181Y-44715890D02*
X91598133Y-44509693D01*
X91979086Y-45169522D02*
X91788610Y-44839608D01*
X91840899Y-44644461D02*
X91721851Y-44438265D01*
X92167853Y-45115523D02*
X91929757Y-44703130D01*
X91850240Y-44089211D02*
X91778811Y-43965493D01*
X91649171Y-45359998D02*
X91979086Y-45169522D01*
X91265258Y-45361708D02*
X92255001Y-44790279D01*
X91649171Y-45359998D02*
X91434886Y-44988845D01*
X91764800Y-44798369D01*
X91552224Y-44811128D02*
X92088335Y-44501604D01*
X91337938Y-44439974D02*
X91709092Y-44225689D01*
X91201461Y-44298827D02*
X91778811Y-43965493D01*
X90931925Y-44784358D02*
X91077743Y-44370255D01*
X90955734Y-44825597D02*
X91411076Y-44947605D01*
X91552224Y-44811128D02*
X91433176Y-44604931D01*
X91969287Y-44295408D01*
X92016906Y-44377886D01*
X91076033Y-43986342D02*
X90504605Y-42996599D01*
X91553475Y-43765676D02*
X90934428Y-42693455D01*
X91223561Y-43956153D02*
X91635954Y-43718057D01*
X90746119Y-44176818D02*
X91076033Y-43986342D01*
X90336687Y-43753375D02*
X91243951Y-43229565D01*
X90174690Y-43187075D02*
X90504605Y-42996599D01*
X90604513Y-42883931D02*
X91016906Y-42645835D01*
X57680344Y-64367078D02*
X57918440Y-64779471D01*
X58037487Y-64985668D02*
X58299392Y-65439300D01*
X57474148Y-64486126D02*
X57712243Y-64898519D01*
X57831291Y-65104716D02*
X58093195Y-65558348D01*
X57510717Y-64739942D02*
X57891669Y-65399770D01*
X57280711Y-64817750D02*
X57709282Y-65560057D01*
X57396798Y-65685485D02*
X57515845Y-65891681D01*
X57804062Y-64295650D02*
X56896798Y-64819459D01*
X57804062Y-64295650D02*
X58042157Y-64708043D01*
X57753482Y-64874710D01*
X58161205Y-64914239D02*
X57872530Y-65080906D01*
X57772622Y-65193574D02*
X57277750Y-65479288D01*
X58161205Y-64914239D02*
X58423110Y-65367872D01*
X57515845Y-65891681D01*
X57564716Y-64928708D02*
X57276040Y-65095375D01*
X57104704Y-65084325D01*
X57015845Y-65025656D01*
X70726220Y-55264255D02*
X69916696Y-56666391D01*
X69352106Y-56120482D01*
X68971153Y-56780311D01*
X68701617Y-56294780D01*
X68479700Y-55726770D01*
X68517979Y-55089041D01*
X68673596Y-54629029D01*
X70440506Y-55759127D02*
X69863156Y-55425793D01*
X69580860Y-55152838D01*
X69146367Y-54572069D01*
X69041788Y-54181776D01*
X70145451Y-55698748D02*
X69130189Y-55552472D01*
X68349603Y-55761629D01*
X67721215Y-56278601D01*
X71052678Y-49084657D02*
X71572583Y-49020820D01*
X70461458Y-49349156D02*
X70934099Y-49291123D01*
X71093301Y-49415505D02*
X71613206Y-49351669D01*
X70992132Y-49763764D02*
X71748357Y-49670911D01*
X70739239Y-49267072D02*
X70808879Y-49834241D01*
X71012055Y-48753808D02*
X71133924Y-49746354D01*
X71012055Y-48753808D02*
X71531960Y-48689972D01*
X71653829Y-49682518D01*
X70462295Y-48965240D02*
X70668762Y-49083819D01*
X70508722Y-49343353D01*
X70904244Y-49438719D02*
X70974722Y-49621972D01*
X70816357Y-49113673D02*
X70939902Y-49338387D01*
X70575071Y-48711509D02*
X70515363Y-49006701D01*
X70781537Y-48830089D02*
X70668762Y-49083819D01*
X70567592Y-49432078D02*
X70560951Y-49768730D01*
X72187016Y-48945377D02*
X72848714Y-48864131D01*
X72220998Y-49612878D02*
X72977224Y-49520025D01*
X72168769Y-49187501D02*
X72226802Y-49660142D01*
X72168769Y-49187501D02*
X72924994Y-49094648D01*
X72983027Y-49567289D01*
X72465635Y-48479377D02*
X72837107Y-48769603D01*
X73138102Y-48876575D01*
X72465635Y-48479377D02*
X72133949Y-48903917D01*
X71909235Y-49027461D01*
X73717715Y-48517548D02*
X74568469Y-48413089D01*
X73823012Y-48984386D02*
X74579238Y-48891533D01*
X73581726Y-48582222D02*
X73691989Y-49480240D01*
X73788192Y-48700801D02*
X73823012Y-48984386D01*
X73788192Y-48700801D02*
X74544418Y-48607948D01*
X74579238Y-48891533D01*
X73653041Y-48381559D02*
X73546069Y-48682553D01*
X73380225Y-48894823D01*
X74125682Y-48323526D02*
X74206928Y-48985223D01*
X74135613Y-49185886D01*
X74058495Y-49339285D01*
X73833781Y-49462830D01*
X73887686Y-49120375D02*
X74247551Y-49316072D01*
X74637271Y-49364174D01*
X75022862Y-48597179D02*
X76062673Y-48469507D01*
X75063485Y-48928028D02*
X76103296Y-48800355D01*
X75866138Y-49213288D02*
X76149722Y-49178468D01*
X75454880Y-48208298D02*
X75582553Y-49248108D01*
X74982239Y-48266331D02*
X76022050Y-48138658D01*
X76149722Y-49178468D01*
X74982239Y-48266331D02*
X75057682Y-48880764D01*
X75045238Y-49170152D01*
X76653893Y-48205007D02*
X77457382Y-48106351D01*
X77108286Y-48389098D02*
X77533663Y-48336868D01*
X77125696Y-48530890D02*
X77503809Y-48484464D01*
X76617398Y-48689255D02*
X76995510Y-48642829D01*
X77148909Y-48719947D02*
X77527022Y-48673520D01*
X77166319Y-48861739D02*
X77591696Y-48809509D01*
X76811420Y-49097222D02*
X77614909Y-48998566D01*
X76630680Y-48015951D02*
X76653893Y-48205007D01*
X76847915Y-48612974D02*
X76894341Y-48991087D01*
X77143944Y-48288767D02*
X77225190Y-48950464D01*
X77333000Y-48265553D02*
X77402640Y-48832723D01*
X76299831Y-48056574D02*
X76459033Y-48180956D01*
X76883572Y-48512643D02*
X77042774Y-48637025D01*
X76629842Y-48399867D02*
X76783241Y-48476985D01*
X76334651Y-48340159D02*
X76488050Y-48417277D01*
X76322206Y-48629547D02*
X76511263Y-48606333D01*
X76510425Y-48990249D01*
X76386043Y-49149452D01*
X76760028Y-48287929D02*
X76677106Y-48394064D01*
X76913426Y-48365047D02*
X76658858Y-48636188D01*
X76954050Y-48695896D02*
X77018724Y-48831885D01*
X76670465Y-48730716D02*
X76693678Y-48919772D01*
X77132337Y-48194238D02*
X77025365Y-48495233D01*
X76867000Y-47986934D02*
X76890213Y-48175991D01*
X77150585Y-47952115D02*
X77173798Y-48141171D01*
X76630680Y-48015951D02*
X77434169Y-47917295D01*
X77410118Y-48112154D01*
X76510425Y-48990249D02*
X76758352Y-49055761D01*
X77047740Y-49068205D01*
X77735164Y-48024267D02*
X78302333Y-47954628D01*
X78408468Y-48037549D02*
X78881109Y-47979516D01*
X77823051Y-48349313D02*
X78295692Y-48291280D01*
X78496355Y-48362595D02*
X78921732Y-48310365D01*
X77846264Y-48538369D02*
X78318905Y-48480336D01*
X78519568Y-48551651D02*
X78944945Y-48499421D01*
X77822213Y-48733229D02*
X78389383Y-48663589D01*
X78495517Y-48746511D02*
X78968158Y-48688478D01*
X78406792Y-48805381D02*
X78832169Y-48753152D01*
X77799838Y-48160256D02*
X77846264Y-48538369D01*
X77995535Y-47800391D02*
X78134814Y-48934730D01*
X77799838Y-48160256D02*
X78272479Y-48102223D01*
X78318905Y-48480336D01*
X78379451Y-47801229D02*
X78408468Y-48037549D01*
X78473142Y-48173538D02*
X78542781Y-48740707D01*
X78378614Y-48185145D02*
X78945783Y-48115505D01*
X78985568Y-48830270D01*
X78379451Y-47801229D02*
X78852092Y-47743196D01*
X78881109Y-47979516D01*
X79206154Y-47891629D02*
X79678795Y-47833596D01*
X79915116Y-47804579D02*
X80435021Y-47740743D01*
X79229367Y-48080685D02*
X79702009Y-48022652D01*
X79938329Y-47993636D02*
X80458234Y-47929800D01*
X79547772Y-48329450D02*
X80209469Y-48248204D01*
X79570985Y-48518507D02*
X80232683Y-48437260D01*
X80356227Y-48661974D02*
X80545284Y-48638761D01*
X79188744Y-47749837D02*
X79316417Y-48789647D01*
X79530362Y-48187658D02*
X79576788Y-48565771D01*
X79188744Y-47749837D02*
X79708649Y-47686000D01*
X79749273Y-48016849D01*
X79861211Y-48147035D02*
X79930850Y-48714204D01*
X79897706Y-47662787D02*
X79938329Y-47993636D01*
X79530362Y-48187658D02*
X80192059Y-48106412D01*
X80238486Y-48484525D01*
X79897706Y-47662787D02*
X80417611Y-47598951D01*
X80545284Y-48638761D01*
X66930863Y-50877006D02*
X68159730Y-50726120D01*
X67159705Y-51568557D02*
X67726874Y-51498918D01*
X67814762Y-51823963D02*
X68098346Y-51789143D01*
X67107475Y-51143181D02*
X67171312Y-51663086D01*
X67107475Y-51143181D02*
X67674645Y-51073541D01*
X67726874Y-51498918D01*
X67970674Y-50749333D02*
X68098346Y-51789143D01*
X68430870Y-50980688D02*
X69659737Y-50829802D01*
X68678797Y-51046200D02*
X69435023Y-50953347D01*
X68660550Y-51288324D02*
X69511304Y-51183864D01*
X68677960Y-51430116D02*
X69528714Y-51325656D01*
X68689566Y-51524644D02*
X69540320Y-51420185D01*
X68449118Y-50738564D02*
X68466528Y-50880357D01*
X68648943Y-51193795D02*
X68689566Y-51524644D01*
X68649781Y-50809879D02*
X68678797Y-51046200D01*
X68998877Y-50527132D02*
X69016287Y-50668925D01*
X69027894Y-50763453D02*
X69009646Y-51005577D01*
X68649781Y-50809879D02*
X69453271Y-50711223D01*
X69482287Y-50947544D01*
X68648943Y-51193795D02*
X69499697Y-51089336D01*
X69540320Y-51420185D01*
X68449118Y-50738564D02*
X69583456Y-50599285D01*
X69600866Y-50741077D01*
X69268342Y-51549533D02*
X69752590Y-51586028D01*
X68937494Y-51590156D02*
X68523723Y-51736914D01*
X69861238Y-50517201D02*
X70286615Y-50464971D01*
X70451620Y-50636618D02*
X71018789Y-50566978D01*
X69949125Y-50842246D02*
X70327238Y-50795820D01*
X70480637Y-50872938D02*
X71047806Y-50803299D01*
X70503850Y-51061995D02*
X71071019Y-50992355D01*
X70934192Y-51440945D02*
X71217777Y-51406125D01*
X70097558Y-50488185D02*
X70190411Y-51244410D01*
X70428407Y-50447561D02*
X70503850Y-51061995D01*
X70881963Y-51015568D02*
X70934192Y-51440945D01*
X70428407Y-50447561D02*
X70995576Y-50377922D01*
X71071019Y-50992355D01*
X71200367Y-51264333D02*
X71217777Y-51406125D01*
X70645642Y-51044585D02*
X70585934Y-51339776D01*
X70503012Y-51445911D01*
X70367023Y-51510585D01*
X70367861Y-51126669D02*
X69959894Y-51320691D01*
X71326425Y-50337299D02*
X72508027Y-50192216D01*
X71514644Y-50698002D02*
X72459926Y-50581936D01*
X71543660Y-50934322D02*
X72488942Y-50818256D01*
X71491430Y-50508945D02*
X71543660Y-50934322D01*
X71491430Y-50508945D02*
X72436712Y-50392879D01*
X72488942Y-50818256D01*
X71643992Y-50969980D02*
X71856261Y-51135823D01*
X72062728Y-51254402D01*
X72635700Y-51232026D01*
X71940858Y-50261856D02*
X72016301Y-50876289D01*
X71986447Y-51023885D01*
X71862065Y-51183087D01*
X71501362Y-51371306D01*
X73357106Y-50855589D02*
X73386122Y-51091909D01*
X72903550Y-50287582D02*
X73801568Y-50177319D01*
X73783321Y-50419443D01*
X73782483Y-50803359D02*
X73888618Y-50886281D01*
X73069393Y-50075312D02*
X73222792Y-50152431D01*
X73593426Y-50826572D02*
X73663904Y-51009826D01*
X73120785Y-50884605D02*
X73061077Y-51179797D01*
X73488967Y-49975819D02*
X73352140Y-50424409D01*
X72973190Y-50854751D01*
X73310680Y-50477476D02*
X73925113Y-50402033D01*
X73954129Y-50638354D01*
X73103376Y-50742813D02*
X74095922Y-50620944D01*
X74100887Y-51052124D01*
X73911831Y-51075337D01*
X74835575Y-50002383D02*
X75497273Y-49921136D01*
X74870395Y-50285967D02*
X75437564Y-50216328D01*
X74887805Y-50427759D02*
X75454974Y-50358120D01*
X74481513Y-49853949D02*
X74510530Y-50090270D01*
X74545349Y-50373854D02*
X74620792Y-50988288D01*
X74847182Y-50096911D02*
X74887805Y-50427759D01*
X74847182Y-50096911D02*
X75414351Y-50027271D01*
X75454974Y-50358120D01*
X74551153Y-50421118D02*
X74763422Y-50586962D01*
X75076861Y-50404546D02*
X74828096Y-50722951D01*
X74592614Y-50368051D02*
X74338045Y-50639191D01*
X74687142Y-50356444D02*
X74657288Y-50504040D01*
X74958282Y-50611013D02*
X75170552Y-50776856D01*
X75518810Y-50878025D01*
X74280012Y-50166550D02*
X74658125Y-50120124D01*
X74556956Y-50468383D01*
X74859626Y-49807523D02*
X74805721Y-50149978D01*
X74958282Y-50611013D02*
X75430923Y-50552980D01*
X75306541Y-50712182D01*
X75129091Y-50829923D01*
X74809849Y-50965075D01*
X75775054Y-49839052D02*
X76294959Y-49775216D01*
X76454161Y-49899598D02*
X76974066Y-49835762D01*
X76483178Y-50135919D02*
X77003083Y-50072083D01*
X75797429Y-50412025D02*
X76411863Y-50336582D01*
X76517997Y-50419504D02*
X77037903Y-50355667D01*
X76552817Y-50703088D02*
X77072722Y-50639252D01*
X76041229Y-49662440D02*
X76064442Y-49851497D01*
X76116671Y-50276874D02*
X76180508Y-50796779D01*
X76489819Y-49799267D02*
X76605885Y-50744549D01*
X76726139Y-49770250D02*
X76836402Y-50668268D01*
X76182183Y-50028947D02*
X76341385Y-50153329D01*
X75898599Y-50063766D02*
X76004733Y-50146688D01*
X76086817Y-50424469D02*
X76399418Y-50625970D01*
X76128278Y-50371402D02*
X75838052Y-50742874D01*
X75928453Y-49916171D02*
X75827284Y-50264429D01*
X76164773Y-49887154D02*
X76105065Y-50182345D01*
X76755993Y-49622655D02*
X76737746Y-49864779D01*
X76513870Y-49604407D02*
X76406897Y-49905402D01*
X76471571Y-50041391D01*
X77251010Y-50137594D02*
X77723651Y-50079561D01*
X77303240Y-50562971D02*
X77775881Y-50504938D01*
X78165600Y-50553040D02*
X78449185Y-50518220D01*
X77204584Y-49759482D02*
X77314846Y-50657500D01*
X77204584Y-49759482D02*
X77677225Y-49701449D01*
X77775881Y-50504938D01*
X77995629Y-49950213D02*
X78266769Y-50204781D01*
X77411888Y-49494145D02*
X77346376Y-49742072D01*
X77979057Y-49424505D02*
X77800769Y-49926162D01*
X77913545Y-49672432D02*
X78433450Y-49608596D01*
X78491483Y-50081237D01*
X78449185Y-50518220D01*
X79047884Y-49533153D02*
X79851373Y-49434497D01*
X79502277Y-49717244D02*
X79927654Y-49665014D01*
X79519687Y-49859036D02*
X79897800Y-49812609D01*
X79011388Y-50017400D02*
X79389501Y-49970974D01*
X79542900Y-50048092D02*
X79921013Y-50001666D01*
X79560310Y-50189885D02*
X79985687Y-50137655D01*
X79205410Y-50425367D02*
X80008900Y-50326711D01*
X79024670Y-49344096D02*
X79047884Y-49533153D01*
X79241906Y-49941120D02*
X79288332Y-50319233D01*
X79537934Y-49616912D02*
X79619181Y-50278609D01*
X79726991Y-49593699D02*
X79796630Y-50160868D01*
X78693822Y-49384719D02*
X78853024Y-49509102D01*
X79277563Y-49840788D02*
X79436765Y-49965171D01*
X79023833Y-49728012D02*
X79177232Y-49805131D01*
X78728641Y-49668304D02*
X78882040Y-49745422D01*
X78716197Y-49957692D02*
X78905254Y-49934479D01*
X78904416Y-50318395D01*
X78780033Y-50477597D01*
X79154018Y-49616074D02*
X79071097Y-49722209D01*
X79307417Y-49693193D02*
X79052849Y-49964333D01*
X79348040Y-50024041D02*
X79412714Y-50160030D01*
X79064456Y-50058861D02*
X79087669Y-50247918D01*
X79526328Y-49522384D02*
X79419355Y-49823378D01*
X79260991Y-49315080D02*
X79284204Y-49504136D01*
X79544575Y-49280260D02*
X79567789Y-49469316D01*
X79024670Y-49344096D02*
X79828160Y-49245440D01*
X79804109Y-49440300D01*
X78904416Y-50318395D02*
X79152343Y-50383907D01*
X79441731Y-50396351D01*
X80129155Y-49352413D02*
X80696324Y-49282773D01*
X80802459Y-49365695D02*
X81275100Y-49307662D01*
X80217042Y-49677458D02*
X80689683Y-49619425D01*
X80890346Y-49690740D02*
X81315723Y-49638510D01*
X80240255Y-49866515D02*
X80712896Y-49808482D01*
X80913559Y-49879797D02*
X81338936Y-49827567D01*
X80216204Y-50061374D02*
X80783373Y-49991735D01*
X80889508Y-50074656D02*
X81362149Y-50016623D01*
X80800783Y-50133527D02*
X81226160Y-50081297D01*
X80193829Y-49488402D02*
X80240255Y-49866515D01*
X80389526Y-49128537D02*
X80528805Y-50262875D01*
X80193829Y-49488402D02*
X80666470Y-49430369D01*
X80712896Y-49808482D01*
X80773442Y-49129374D02*
X80802459Y-49365695D01*
X80867133Y-49501684D02*
X80936772Y-50068853D01*
X80772604Y-49513290D02*
X81339774Y-49443651D01*
X81379559Y-50158416D01*
X80773442Y-49129374D02*
X81246083Y-49071341D01*
X81275100Y-49307662D01*
X81984061Y-49220612D02*
X82787551Y-49121956D01*
X82113409Y-49492590D02*
X82727843Y-49417147D01*
X82136622Y-49681647D02*
X82751056Y-49606204D01*
X82012240Y-49840849D02*
X82910258Y-49730586D01*
X82095999Y-49350798D02*
X82130819Y-49634382D01*
X82344764Y-49032393D02*
X82455027Y-49930411D01*
X82095999Y-49350798D02*
X82710433Y-49275355D01*
X82745252Y-49558940D01*
X81925190Y-49131887D02*
X81913584Y-49037359D01*
X82764338Y-48932900D01*
X82775944Y-49027428D01*
X81624196Y-49024915D02*
X81836466Y-49190758D01*
X81634965Y-49503359D02*
X81824021Y-49480146D01*
X81876251Y-49905523D01*
X81710408Y-50117792D01*
X81834790Y-49958590D02*
X82324841Y-50042349D01*
X82939274Y-49966907D01*
X83195518Y-48927934D02*
X83620895Y-48875704D01*
X83715423Y-48864098D02*
X84282592Y-48794458D01*
X83277602Y-49205715D02*
X84175620Y-49095453D01*
X83295012Y-49347508D02*
X84193030Y-49237245D01*
X83312422Y-49489300D02*
X84210440Y-49379037D01*
X83146578Y-49701570D02*
X84375445Y-49550684D01*
X83260192Y-49063923D02*
X83312422Y-49489300D01*
X84021383Y-49402250D02*
X84073613Y-49827627D01*
X83260192Y-49063923D02*
X84158210Y-48953660D01*
X84210440Y-49379037D01*
X83904479Y-48840884D02*
X84010614Y-48923806D01*
X83178108Y-48786142D02*
X83159860Y-49028265D01*
X83751081Y-48763766D02*
X83632501Y-48970232D01*
X83384574Y-48904721D02*
X83490709Y-48987642D01*
X83554545Y-49507548D02*
X83530495Y-49702407D01*
X83447573Y-49808542D01*
X83222859Y-49932087D01*
X75148689Y-52161747D02*
X75904914Y-52068895D01*
X76248207Y-51738884D02*
X76518510Y-52377368D01*
X76649533Y-51881514D01*
X76896623Y-52330941D01*
X77004433Y-51646031D01*
X77463792Y-52261302D02*
X77382546Y-51599604D01*
X77341923Y-51268756D02*
X77300462Y-51321823D01*
X77353529Y-51363284D01*
X77394990Y-51310216D01*
X77341923Y-51268756D01*
X77353529Y-51363284D01*
X77936433Y-52203269D02*
X77814564Y-51210723D01*
X77984535Y-51813549D02*
X78314546Y-52156842D01*
X78233300Y-51495145D02*
X77901613Y-51919684D01*
X78739923Y-52104613D02*
X78658677Y-51442915D01*
X78618054Y-51112066D02*
X78576593Y-51165134D01*
X78629660Y-51206595D01*
X78671121Y-51153527D01*
X78618054Y-51112066D01*
X78629660Y-51206595D01*
X79131318Y-51384882D02*
X79253187Y-52377428D01*
X79137121Y-51432146D02*
X79225846Y-51373276D01*
X79414902Y-51350062D01*
X79515234Y-51385720D01*
X79568301Y-51427181D01*
X79627172Y-51515906D01*
X79661992Y-51799490D01*
X79626334Y-51899822D01*
X79584873Y-51952889D01*
X79496149Y-52011760D01*
X79307092Y-52034973D01*
X79206761Y-51999316D01*
X80482891Y-51842626D02*
X80394167Y-51901497D01*
X80205110Y-51924710D01*
X80104779Y-51889053D01*
X80045908Y-51800328D01*
X79999481Y-51422215D01*
X80035139Y-51321884D01*
X80123864Y-51263013D01*
X80312920Y-51239800D01*
X80413252Y-51275457D01*
X80472122Y-51364182D01*
X80483729Y-51458710D01*
X80022695Y-51611271D01*
X81386713Y-51779628D02*
X81264843Y-50787082D01*
X81380909Y-51732364D02*
X81292184Y-51791234D01*
X81103128Y-51814448D01*
X81002797Y-51778790D01*
X80949729Y-51737329D01*
X80890858Y-51648604D01*
X80856039Y-51365020D01*
X80891696Y-51264688D01*
X80933157Y-51211621D01*
X81021882Y-51152750D01*
X81210938Y-51129537D01*
X81311270Y-51165194D01*
X81859354Y-51721595D02*
X81778107Y-51059897D01*
X81737484Y-50729049D02*
X81696024Y-50782116D01*
X81749091Y-50823577D01*
X81790552Y-50770509D01*
X81737484Y-50729049D01*
X81749091Y-50823577D01*
X82757372Y-51611332D02*
X82693535Y-51091427D01*
X82634665Y-51002702D01*
X82534333Y-50967044D01*
X82345277Y-50990258D01*
X82256552Y-51049128D01*
X82751568Y-51564068D02*
X82662843Y-51622939D01*
X82426523Y-51651955D01*
X82326191Y-51616298D01*
X82267321Y-51527573D01*
X82255714Y-51433044D01*
X82291372Y-51332713D01*
X82380096Y-51273842D01*
X82616417Y-51244826D01*
X82705142Y-51185955D01*
X88841605Y-58539163D02*
X89603510Y-57219505D01*
X89501434Y-58920115D02*
X90263339Y-57600458D01*
X89840689Y-59665842D02*
X91078784Y-57521398D01*
X88264255Y-58205830D02*
X90078784Y-59253449D01*
X88264255Y-58205830D02*
X89026160Y-56886172D01*
X90840689Y-57933791D01*
X57642688Y-55298187D02*
X57404593Y-55710580D01*
X57161828Y-55845348D02*
X56995161Y-56134023D01*
X57330204Y-55172759D02*
X57139728Y-55502674D01*
X56903342Y-55531154D02*
X56784294Y-55737350D01*
X57165247Y-55077521D02*
X56974770Y-55407436D01*
X56779624Y-55459725D02*
X56660576Y-55665922D01*
X57024099Y-54941044D02*
X56786004Y-55353437D01*
X56294093Y-55729261D02*
X56222664Y-55852979D01*
X57495161Y-55267997D02*
X57165247Y-55077521D01*
X57688598Y-55599621D02*
X56698855Y-55028193D01*
X57495161Y-55267997D02*
X57280875Y-55639151D01*
X56950961Y-55448675D01*
X57068299Y-55626392D02*
X56532188Y-55316868D01*
X56854013Y-55997545D02*
X56482860Y-55783260D01*
X56800014Y-56186312D02*
X56222664Y-55852979D01*
X57355265Y-56176972D02*
X56923732Y-56257741D01*
X57379074Y-56135732D02*
X57257066Y-55680390D01*
X57068299Y-55626392D02*
X56949251Y-55832588D01*
X56413140Y-55523064D01*
X56460759Y-55440586D01*
X56802975Y-56847850D02*
X56636309Y-57136526D01*
X56341254Y-57076147D01*
X55939911Y-57009389D01*
X55484569Y-57131397D01*
X56553830Y-57088907D02*
X56330204Y-56904810D01*
X56154196Y-56638235D01*
X56032188Y-56182893D01*
%TO.C,R3*%
X81629095Y-73378841D02*
X81629095Y-74045507D01*
X81391000Y-72997888D02*
X81152904Y-73712174D01*
X81771952Y-73712174D01*
X82057666Y-73045507D02*
X82724333Y-73045507D01*
X82295761Y-74045507D01*
X83295761Y-73045507D02*
X83391000Y-73045507D01*
X83486238Y-73093127D01*
X83533857Y-73140746D01*
X83581476Y-73235984D01*
X83629095Y-73426460D01*
X83629095Y-73664555D01*
X83581476Y-73855031D01*
X83533857Y-73950269D01*
X83486238Y-73997888D01*
X83391000Y-74045507D01*
X83295761Y-74045507D01*
X83200523Y-73997888D01*
X83152904Y-73950269D01*
X83105285Y-73855031D01*
X83057666Y-73664555D01*
X83057666Y-73426460D01*
X83105285Y-73235984D01*
X83152904Y-73140746D01*
X83200523Y-73093127D01*
X83295761Y-73045507D01*
%TO.C,J2*%
X61973610Y-46562449D02*
X61735515Y-46974842D01*
X61773793Y-46337113D02*
X62473152Y-47125788D01*
X61440460Y-46914463D01*
X61273793Y-47203138D02*
X62139818Y-47703138D01*
X60988079Y-47698010D01*
X61854104Y-48198010D01*
X60749984Y-48110403D02*
X61616009Y-48610403D01*
X61496961Y-48816600D01*
X61384293Y-48916508D01*
X61254196Y-48951368D01*
X61147908Y-48944988D01*
X60959141Y-48890989D01*
X60835423Y-48819561D01*
X60694275Y-48683083D01*
X60635606Y-48594225D01*
X60600747Y-48464127D01*
X60630936Y-48316600D01*
X60749984Y-48110403D01*
X60286553Y-48722613D02*
X59905600Y-49382442D01*
X59869031Y-49636257D02*
X60735057Y-50136257D01*
X59630936Y-50048650D02*
X60496961Y-50548650D01*
X59345222Y-50543522D01*
X60211247Y-51043522D01*
X59107126Y-50955915D02*
X59973152Y-51455915D01*
X59782676Y-51785830D01*
X59693817Y-51844499D01*
X59628768Y-51861928D01*
X59522480Y-51855549D01*
X59398762Y-51784120D01*
X59340093Y-51695262D01*
X59322664Y-51630213D01*
X59329043Y-51523925D01*
X59519519Y-51194010D01*
X59473152Y-52321941D02*
X58772084Y-51917179D01*
X58665795Y-51910799D01*
X58600747Y-51928229D01*
X58511888Y-51986898D01*
X58416650Y-52151855D01*
X58410270Y-52258143D01*
X58427700Y-52323192D01*
X58486369Y-52412050D01*
X59187438Y-52816812D01*
X59020771Y-53105487D02*
X58735057Y-53600359D01*
X58011888Y-52852923D02*
X58877914Y-53352923D01*
%TO.C,R17*%
X93798751Y-62449939D02*
X93751132Y-62402320D01*
X93703512Y-62307082D01*
X93703512Y-62068986D01*
X93751132Y-61973748D01*
X93798751Y-61926129D01*
X93893989Y-61878510D01*
X93989227Y-61878510D01*
X94132084Y-61926129D01*
X94703512Y-62497558D01*
X94703512Y-61878510D01*
X93798751Y-61497558D02*
X93751132Y-61449939D01*
X93703512Y-61354701D01*
X93703512Y-61116605D01*
X93751132Y-61021367D01*
X93798751Y-60973748D01*
X93893989Y-60926129D01*
X93989227Y-60926129D01*
X94132084Y-60973748D01*
X94703512Y-61545177D01*
X94703512Y-60926129D01*
X93703512Y-60307082D02*
X93703512Y-60211844D01*
X93751132Y-60116605D01*
X93798751Y-60068986D01*
X93893989Y-60021367D01*
X94084465Y-59973748D01*
X94322560Y-59973748D01*
X94513036Y-60021367D01*
X94608274Y-60068986D01*
X94655893Y-60116605D01*
X94703512Y-60211844D01*
X94703512Y-60307082D01*
X94655893Y-60402320D01*
X94608274Y-60449939D01*
X94513036Y-60497558D01*
X94322560Y-60545177D01*
X94084465Y-60545177D01*
X93893989Y-60497558D01*
X93798751Y-60449939D01*
X93751132Y-60402320D01*
X93703512Y-60307082D01*
%TO.C,SW5*%
X88327182Y-80878357D02*
X88470039Y-80630921D01*
X88936431Y-80680249D02*
X89245955Y-80144138D01*
X88987011Y-81259309D02*
X89106059Y-81053112D01*
X88055937Y-80776739D02*
X88222603Y-80488064D01*
X88470039Y-80630921D01*
X88688995Y-80537392D02*
X88936431Y-80680249D01*
X88688995Y-80537392D02*
X88998519Y-80001281D01*
X89245955Y-80144138D01*
X89345863Y-80256806D02*
X89606059Y-80187087D01*
X88597176Y-79934523D02*
X88857371Y-79864804D01*
X88327182Y-80878357D02*
X88550808Y-81062453D01*
X88676236Y-80749968D01*
X88882432Y-80869016D01*
X89106059Y-81053112D01*
X89201297Y-80888155D02*
X89452151Y-80263186D01*
X88371840Y-80134340D02*
X88547848Y-80400915D01*
X88833562Y-79906043D01*
X88690705Y-80153479D02*
X89350534Y-80534431D01*
X88965369Y-79487270D02*
X89274893Y-78951159D01*
X89082707Y-79664987D02*
X89487469Y-78963919D01*
X89880723Y-79520878D02*
X89975961Y-79355921D01*
X90201297Y-79156104D02*
X90320344Y-78949908D01*
X89336523Y-79701556D02*
X89666437Y-79892032D01*
X88902030Y-79120787D02*
X89891773Y-79692215D01*
X89336523Y-79701556D02*
X89646047Y-79165445D01*
X89975961Y-79355921D01*
X89335271Y-78656104D02*
X89912622Y-78989438D01*
X89330601Y-78378479D02*
X90320344Y-78949908D01*
X88848031Y-79309554D02*
X89065277Y-79599938D01*
X89614606Y-78267521D02*
X89852701Y-77855128D01*
X90095467Y-77720360D02*
X90262133Y-77431685D01*
X89927091Y-78392948D02*
X90117567Y-78063034D01*
X90353952Y-78034554D02*
X90473000Y-77828357D01*
X90092048Y-78488186D02*
X90282524Y-78158272D01*
X90477670Y-78105983D02*
X90596718Y-77899786D01*
X90233195Y-78624664D02*
X90471291Y-78212271D01*
X90963201Y-77836447D02*
X91034630Y-77712729D01*
X89762133Y-78297710D02*
X90092048Y-78488186D01*
X89568696Y-77966086D02*
X90558440Y-78537515D01*
X89762133Y-78297710D02*
X89976419Y-77926556D01*
X90306333Y-78117033D01*
X90188995Y-77939316D02*
X90725106Y-78248840D01*
X90403281Y-77568162D02*
X90774435Y-77782448D01*
X90457280Y-77379395D02*
X91034630Y-77712729D01*
X89902030Y-77388736D02*
X90333562Y-77307967D01*
X89878220Y-77429975D02*
X90000229Y-77885317D01*
X90188995Y-77939316D02*
X90308043Y-77733119D01*
X90844154Y-78042643D01*
X90796535Y-78125122D01*
X90665186Y-77114530D02*
X91236614Y-76124786D01*
X91095009Y-77417674D02*
X91714056Y-76345452D01*
X90765094Y-77227198D02*
X91177487Y-77465293D01*
X90335271Y-76924054D02*
X90665186Y-77114530D01*
X90497268Y-76357753D02*
X91404532Y-76881563D01*
X90906700Y-75934310D02*
X91236614Y-76124786D01*
X91384142Y-76154976D02*
X91796535Y-76393071D01*
%TO.C,SW1*%
X61432495Y-66205011D02*
X62298521Y-65705011D01*
X62488997Y-66034925D01*
X62495377Y-66141213D01*
X62477947Y-66206262D01*
X62419278Y-66295120D01*
X62295560Y-66366549D01*
X62189272Y-66372929D01*
X62124223Y-66355499D01*
X62035364Y-66296830D01*
X61844888Y-65966915D01*
X62893759Y-66735993D02*
X62988997Y-66900951D01*
X62995377Y-67007239D01*
X62960517Y-67137336D01*
X62819369Y-67273814D01*
X62530694Y-67440480D01*
X62341927Y-67494479D01*
X62211830Y-67459620D01*
X62122971Y-67400951D01*
X62027733Y-67235993D01*
X62021354Y-67129705D01*
X62056213Y-66999608D01*
X62197361Y-66863130D01*
X62486036Y-66696463D01*
X62674803Y-66642465D01*
X62804900Y-66677324D01*
X62893759Y-66735993D01*
X63274711Y-67395822D02*
X62527733Y-68102019D01*
X63241561Y-67909833D01*
X62718209Y-68431933D01*
X63703283Y-68138130D01*
X63481366Y-68706139D02*
X63648032Y-68994814D01*
X63265829Y-69380437D02*
X63027733Y-68968044D01*
X63893759Y-68468044D01*
X64131854Y-68880437D01*
X63765829Y-70246463D02*
X64011555Y-69719692D01*
X63480114Y-69751591D02*
X64346140Y-69251591D01*
X64536616Y-69581505D01*
X64542996Y-69687793D01*
X64525566Y-69752842D01*
X64466897Y-69841701D01*
X64343179Y-69913129D01*
X64236891Y-69919509D01*
X64171842Y-69902079D01*
X64082983Y-69843410D01*
X63892507Y-69513496D01*
%TO.C,Q3*%
X87955295Y-70899387D02*
X88067963Y-70799479D01*
X88187011Y-70593283D01*
X88193391Y-70486994D01*
X88175961Y-70421946D01*
X88117292Y-70333087D01*
X88034813Y-70285468D01*
X87928525Y-70279088D01*
X87863476Y-70296518D01*
X87774618Y-70355187D01*
X87638141Y-70496335D01*
X87549282Y-70555004D01*
X87484233Y-70572434D01*
X87377945Y-70566054D01*
X87295467Y-70518435D01*
X87236798Y-70429577D01*
X87219368Y-70364528D01*
X87225747Y-70258240D01*
X87344795Y-70052043D01*
X87457463Y-69952135D01*
X88073092Y-69647739D02*
X87984233Y-69706408D01*
X87919185Y-69723838D01*
X87812896Y-69717459D01*
X87771657Y-69693649D01*
X87712988Y-69604791D01*
X87695558Y-69539742D01*
X87701938Y-69433454D01*
X87797176Y-69268496D01*
X87886034Y-69209827D01*
X87951083Y-69192398D01*
X88057371Y-69198777D01*
X88098611Y-69222587D01*
X88157280Y-69311445D01*
X88174710Y-69376494D01*
X88168330Y-69482782D01*
X88073092Y-69647739D01*
X88066712Y-69754028D01*
X88084142Y-69819076D01*
X88142811Y-69907935D01*
X88307768Y-70003173D01*
X88414056Y-70009553D01*
X88479105Y-69992123D01*
X88567963Y-69933454D01*
X88663201Y-69768496D01*
X88669581Y-69662208D01*
X88652151Y-69597160D01*
X88593482Y-69508301D01*
X88428525Y-69413063D01*
X88322237Y-69406683D01*
X88257188Y-69424113D01*
X88168330Y-69482782D01*
X88201938Y-68567428D02*
X88249557Y-68484950D01*
X88338415Y-68426281D01*
X88403464Y-68408851D01*
X88509752Y-68415231D01*
X88698519Y-68469229D01*
X88904716Y-68588277D01*
X89045863Y-68724754D01*
X89104532Y-68813613D01*
X89121962Y-68878662D01*
X89115582Y-68984950D01*
X89067963Y-69067428D01*
X88979105Y-69126097D01*
X88914056Y-69143527D01*
X88807768Y-69137147D01*
X88619001Y-69083149D01*
X88412805Y-68964101D01*
X88271657Y-68827624D01*
X88212988Y-68738765D01*
X88195558Y-68673716D01*
X88201938Y-68567428D01*
X88820986Y-67495206D02*
X88582890Y-67907599D01*
X88971474Y-68186934D01*
X88954044Y-68121885D01*
X88960424Y-68015597D01*
X89079471Y-67809400D01*
X89168330Y-67750731D01*
X89233379Y-67733302D01*
X89339667Y-67739681D01*
X89545863Y-67858729D01*
X89604532Y-67947587D01*
X89621962Y-68012636D01*
X89615582Y-68118924D01*
X89496535Y-68325121D01*
X89407676Y-68383790D01*
X89342628Y-68401220D01*
X89154319Y-66917856D02*
X89201938Y-66835377D01*
X89290796Y-66776708D01*
X89355845Y-66759279D01*
X89462133Y-66765658D01*
X89650900Y-66819657D01*
X89857097Y-66938705D01*
X89998244Y-67075182D01*
X90056913Y-67164041D01*
X90074343Y-67229089D01*
X90067963Y-67335377D01*
X90020344Y-67417856D01*
X89931486Y-67476525D01*
X89866437Y-67493955D01*
X89760149Y-67487575D01*
X89571382Y-67433576D01*
X89365186Y-67314529D01*
X89224038Y-67178051D01*
X89165369Y-67089193D01*
X89147939Y-67024144D01*
X89154319Y-66917856D01*
%TO.C,R6*%
X64337587Y-52172313D02*
X63760236Y-51838980D01*
X64786549Y-52156593D02*
X64287007Y-51593254D01*
X63977483Y-52129365D01*
X64411976Y-52710134D02*
X64078643Y-53287484D01*
X63426903Y-52416330D01*
X63792929Y-53782356D02*
X63745310Y-53864834D01*
X63656451Y-53923504D01*
X63591402Y-53940933D01*
X63485114Y-53934554D01*
X63296347Y-53880555D01*
X63090151Y-53761507D01*
X62949003Y-53625030D01*
X62890334Y-53536171D01*
X62872904Y-53471123D01*
X62879284Y-53364834D01*
X62926903Y-53282356D01*
X63015762Y-53223687D01*
X63080810Y-53206257D01*
X63187098Y-53212637D01*
X63375865Y-53266635D01*
X63582062Y-53385683D01*
X63723209Y-53522161D01*
X63781879Y-53611019D01*
X63799308Y-53676068D01*
X63792929Y-53782356D01*
%TO.C,D7*%
X73957142Y-73152380D02*
X73385714Y-73152380D01*
X73671428Y-73152380D02*
X73671428Y-72152380D01*
X73576190Y-72295238D01*
X73480952Y-72390476D01*
X73385714Y-72438095D01*
X74385714Y-73152380D02*
X74385714Y-72152380D01*
X74957142Y-73152380D01*
X74957142Y-72152380D01*
X75861904Y-72485714D02*
X75861904Y-73152380D01*
X75623809Y-72104761D02*
X75385714Y-72819047D01*
X76004761Y-72819047D01*
X76909523Y-73152380D02*
X76338095Y-73152380D01*
X76623809Y-73152380D02*
X76623809Y-72152380D01*
X76528571Y-72295238D01*
X76433333Y-72390476D01*
X76338095Y-72438095D01*
X77766666Y-72485714D02*
X77766666Y-73152380D01*
X77528571Y-72104761D02*
X77290476Y-72819047D01*
X77909523Y-72819047D01*
X78433333Y-72580952D02*
X78338095Y-72533333D01*
X78290476Y-72485714D01*
X78242857Y-72390476D01*
X78242857Y-72342857D01*
X78290476Y-72247619D01*
X78338095Y-72200000D01*
X78433333Y-72152380D01*
X78623809Y-72152380D01*
X78719047Y-72200000D01*
X78766666Y-72247619D01*
X78814285Y-72342857D01*
X78814285Y-72390476D01*
X78766666Y-72485714D01*
X78719047Y-72533333D01*
X78623809Y-72580952D01*
X78433333Y-72580952D01*
X78338095Y-72628571D01*
X78290476Y-72676190D01*
X78242857Y-72771428D01*
X78242857Y-72961904D01*
X78290476Y-73057142D01*
X78338095Y-73104761D01*
X78433333Y-73152380D01*
X78623809Y-73152380D01*
X78719047Y-73104761D01*
X78766666Y-73057142D01*
X78814285Y-72961904D01*
X78814285Y-72771428D01*
X78766666Y-72676190D01*
X78719047Y-72628571D01*
X78623809Y-72580952D01*
%TO.C,R15*%
X89170501Y-51222505D02*
X89105453Y-51205075D01*
X89016594Y-51146406D01*
X88897547Y-50940210D01*
X88891167Y-50833921D01*
X88908597Y-50768873D01*
X88967266Y-50680014D01*
X89049744Y-50632395D01*
X89197272Y-50602206D01*
X89977858Y-50811363D01*
X89668334Y-50275252D01*
X89454048Y-49904099D02*
X88588023Y-50404099D01*
X89076515Y-50012096D02*
X89263572Y-49574184D01*
X88686222Y-49907517D02*
X89206612Y-50046956D01*
X88289549Y-49696651D02*
X88224500Y-49679221D01*
X88135642Y-49620552D01*
X88016594Y-49414355D01*
X88010215Y-49308067D01*
X88027644Y-49243018D01*
X88086313Y-49154160D01*
X88168792Y-49106541D01*
X88316319Y-49076352D01*
X89096905Y-49285509D01*
X88787382Y-48749398D01*
%TO.C,J4*%
X74350476Y-80591593D02*
X74826666Y-80591593D01*
X74255238Y-80877307D02*
X74588571Y-79877307D01*
X74921904Y-80877307D01*
X75255238Y-80877307D02*
X75255238Y-79877307D01*
X75826666Y-80877307D01*
X75826666Y-79877307D01*
X76302857Y-80877307D02*
X76302857Y-79877307D01*
X76540952Y-79877307D01*
X76683809Y-79924927D01*
X76779047Y-80020165D01*
X76826666Y-80115403D01*
X76874285Y-80305879D01*
X76874285Y-80448736D01*
X76826666Y-80639212D01*
X76779047Y-80734450D01*
X76683809Y-80829688D01*
X76540952Y-80877307D01*
X76302857Y-80877307D01*
X77064761Y-80972546D02*
X77826666Y-80972546D01*
X78064761Y-80877307D02*
X78064761Y-79877307D01*
X78540952Y-80877307D02*
X78540952Y-79877307D01*
X79112380Y-80877307D01*
X79112380Y-79877307D01*
X79588571Y-80877307D02*
X79588571Y-79877307D01*
X79969523Y-79877307D01*
X80064761Y-79924927D01*
X80112380Y-79972546D01*
X80160000Y-80067784D01*
X80160000Y-80210641D01*
X80112380Y-80305879D01*
X80064761Y-80353498D01*
X79969523Y-80401117D01*
X79588571Y-80401117D01*
X80588571Y-79877307D02*
X80588571Y-80686831D01*
X80636190Y-80782069D01*
X80683809Y-80829688D01*
X80779047Y-80877307D01*
X80969523Y-80877307D01*
X81064761Y-80829688D01*
X81112380Y-80782069D01*
X81160000Y-80686831D01*
X81160000Y-79877307D01*
X81493333Y-79877307D02*
X82064761Y-79877307D01*
X81779047Y-80877307D02*
X81779047Y-79877307D01*
%TO.C,R9*%
X76580476Y-42159212D02*
X76580476Y-41492546D01*
X76818571Y-42540165D02*
X77056666Y-41825879D01*
X76437619Y-41825879D01*
X76056666Y-41492546D02*
X76056666Y-42492546D01*
X75961428Y-41873498D02*
X75675714Y-41492546D01*
X75675714Y-42159212D02*
X76056666Y-41778260D01*
X75342380Y-42492546D02*
X74675714Y-42492546D01*
X75104285Y-41492546D01*
%TO.C,J8*%
X97697432Y-53973985D02*
X97459337Y-53561592D01*
X97992487Y-53913606D02*
X96959795Y-54124931D01*
X97659154Y-53336256D01*
X97492487Y-53047581D02*
X96626462Y-53547581D01*
X97206773Y-52552709D01*
X96340747Y-53052709D01*
X96968678Y-52140316D02*
X96102652Y-52640316D01*
X95983605Y-52434120D01*
X95953415Y-52286592D01*
X95988275Y-52156495D01*
X96046944Y-52067636D01*
X96188092Y-51931159D01*
X96311810Y-51859730D01*
X96500576Y-51805731D01*
X96606865Y-51799352D01*
X96736962Y-51834211D01*
X96849630Y-51934120D01*
X96968678Y-52140316D01*
X96670204Y-51432868D02*
X96289252Y-50773039D01*
X95126462Y-50949505D02*
X95031224Y-50784547D01*
X95024844Y-50678259D01*
X95059704Y-50548162D01*
X95200851Y-50411684D01*
X95489526Y-50245018D01*
X95678293Y-50191019D01*
X95808391Y-50225878D01*
X95897249Y-50284547D01*
X95992487Y-50449505D01*
X95998867Y-50555793D01*
X95964007Y-50685890D01*
X95822860Y-50822368D01*
X95534185Y-50989035D01*
X95345418Y-51043033D01*
X95215320Y-51008174D01*
X95126462Y-50949505D01*
X94697890Y-50207197D02*
X95398959Y-49802435D01*
X95457628Y-49713577D01*
X95475057Y-49648528D01*
X95468678Y-49542240D01*
X95373440Y-49377283D01*
X95284581Y-49318614D01*
X95219532Y-49301184D01*
X95113244Y-49307564D01*
X94412176Y-49712326D01*
X94245509Y-49423650D02*
X93959795Y-48928779D01*
X94968678Y-48676215D02*
X94102652Y-49176215D01*
X94659154Y-48140104D02*
X93793128Y-48640104D01*
X93602652Y-48310189D01*
X93596273Y-48203901D01*
X93613702Y-48138852D01*
X93672371Y-48049994D01*
X93796089Y-47978565D01*
X93902377Y-47972186D01*
X93967426Y-47989615D01*
X94056285Y-48048284D01*
X94246761Y-48378199D01*
X93293128Y-47774078D02*
X93994197Y-47369316D01*
X94052866Y-47280458D01*
X94070295Y-47215409D01*
X94063916Y-47109121D01*
X93968678Y-46944164D01*
X93879819Y-46885495D01*
X93814770Y-46868065D01*
X93708482Y-46874445D01*
X93007414Y-47279207D01*
X92840747Y-46990531D02*
X92555033Y-46495660D01*
X93563916Y-46243096D02*
X92697890Y-46743096D01*
%TO.C,D4*%
X72021365Y-44850013D02*
X72516236Y-44564298D01*
X72268801Y-44707155D02*
X72768801Y-45573181D01*
X72779851Y-45401844D01*
X72814710Y-45271746D01*
X72873379Y-45182888D01*
X71650211Y-45064298D02*
X72150211Y-45930324D01*
X71155339Y-45350013D01*
X71655339Y-46216038D01*
X70705126Y-46379744D02*
X70371793Y-45802393D01*
X71101799Y-46590611D02*
X70950852Y-45852973D01*
X70414741Y-46162497D01*
X69464528Y-46326203D02*
X69959399Y-46040489D01*
X69711964Y-46183346D02*
X70211964Y-47049371D01*
X70223014Y-46878034D01*
X70257873Y-46747937D01*
X70316542Y-46659078D01*
X69055554Y-47332125D02*
X68722220Y-46754774D01*
X69452226Y-47542992D02*
X69301280Y-46805354D01*
X68765169Y-47114878D01*
X68430584Y-47582979D02*
X68536873Y-47576600D01*
X68601921Y-47594029D01*
X68690780Y-47652699D01*
X68714589Y-47693938D01*
X68720969Y-47800226D01*
X68703539Y-47865275D01*
X68644870Y-47954133D01*
X68479913Y-48049371D01*
X68373625Y-48055751D01*
X68308576Y-48038321D01*
X68219718Y-47979652D01*
X68195908Y-47938413D01*
X68189528Y-47832125D01*
X68206958Y-47767076D01*
X68265627Y-47678218D01*
X68430584Y-47582979D01*
X68489253Y-47494121D01*
X68506683Y-47429072D01*
X68500303Y-47322784D01*
X68405065Y-47157827D01*
X68316207Y-47099158D01*
X68251158Y-47081728D01*
X68144870Y-47088108D01*
X67979913Y-47183346D01*
X67921244Y-47272204D01*
X67903814Y-47337253D01*
X67910194Y-47443541D01*
X68005432Y-47608498D01*
X68094290Y-47667167D01*
X68159339Y-47684597D01*
X68265627Y-47678218D01*
%TO.C,Q6*%
X88159388Y-43816243D02*
X88059480Y-43703575D01*
X87853284Y-43584527D01*
X87746995Y-43578147D01*
X87681947Y-43595577D01*
X87593088Y-43654246D01*
X87545469Y-43736725D01*
X87539089Y-43843013D01*
X87556519Y-43908062D01*
X87615188Y-43996920D01*
X87756336Y-44133397D01*
X87815005Y-44222256D01*
X87832435Y-44287305D01*
X87826055Y-44393593D01*
X87778436Y-44476071D01*
X87689578Y-44534740D01*
X87624529Y-44552170D01*
X87518241Y-44545791D01*
X87312044Y-44426743D01*
X87212136Y-44314075D01*
X86907740Y-43698446D02*
X86966409Y-43787305D01*
X86983839Y-43852353D01*
X86977460Y-43958642D01*
X86953650Y-43999881D01*
X86864792Y-44058550D01*
X86799743Y-44075980D01*
X86693455Y-44069600D01*
X86528497Y-43974362D01*
X86469828Y-43885504D01*
X86452399Y-43820455D01*
X86458778Y-43714167D01*
X86482588Y-43672927D01*
X86571446Y-43614258D01*
X86636495Y-43596828D01*
X86742783Y-43603208D01*
X86907740Y-43698446D01*
X87014029Y-43704826D01*
X87079077Y-43687396D01*
X87167936Y-43628727D01*
X87263174Y-43463770D01*
X87269554Y-43357482D01*
X87252124Y-43292433D01*
X87193455Y-43203575D01*
X87028497Y-43108337D01*
X86922209Y-43101957D01*
X86857161Y-43119387D01*
X86768302Y-43178056D01*
X86673064Y-43343013D01*
X86666684Y-43449301D01*
X86684114Y-43514350D01*
X86742783Y-43603208D01*
X85579993Y-43426743D02*
X85992387Y-43664838D01*
X86271721Y-43276255D01*
X86206672Y-43293684D01*
X86100384Y-43287305D01*
X85894188Y-43168257D01*
X85835518Y-43079399D01*
X85818089Y-43014350D01*
X85824468Y-42908062D01*
X85943516Y-42701865D01*
X86032374Y-42643196D01*
X86097423Y-42625766D01*
X86203711Y-42632146D01*
X86409908Y-42751194D01*
X86468577Y-42840052D01*
X86486007Y-42905101D01*
X84755207Y-42950552D02*
X85167600Y-43188648D01*
X85446935Y-42800064D01*
X85381886Y-42817494D01*
X85275598Y-42811114D01*
X85069401Y-42692067D01*
X85010732Y-42603208D01*
X84993303Y-42538159D01*
X84999682Y-42431871D01*
X85118730Y-42225675D01*
X85207588Y-42167006D01*
X85272637Y-42149576D01*
X85378925Y-42155956D01*
X85585122Y-42275003D01*
X85643791Y-42363862D01*
X85661221Y-42428910D01*
X84177857Y-42617219D02*
X84095378Y-42569600D01*
X84036709Y-42480742D01*
X84019280Y-42415693D01*
X84025659Y-42309405D01*
X84079658Y-42120638D01*
X84198706Y-41914441D01*
X84335183Y-41773294D01*
X84424042Y-41714625D01*
X84489090Y-41697195D01*
X84595378Y-41703575D01*
X84677857Y-41751194D01*
X84736526Y-41840052D01*
X84753956Y-41905101D01*
X84747576Y-42011389D01*
X84693577Y-42200156D01*
X84574530Y-42406352D01*
X84438052Y-42547500D01*
X84349194Y-42606169D01*
X84284145Y-42623599D01*
X84177857Y-42617219D01*
%TO.C,D5*%
X67361336Y-64580421D02*
X67075621Y-64085550D01*
X67218478Y-64332985D02*
X68084504Y-63832985D01*
X67913167Y-63821935D01*
X67783069Y-63787076D01*
X67694211Y-63728407D01*
X67575621Y-64951575D02*
X68441647Y-64451575D01*
X67861336Y-65446447D01*
X68727361Y-64946447D01*
X68891067Y-65896660D02*
X68313716Y-66229993D01*
X69101934Y-65499987D02*
X68364296Y-65650934D01*
X68673820Y-66187045D01*
X68837526Y-67137258D02*
X68551812Y-66642387D01*
X68694669Y-66889822D02*
X69560694Y-66389822D01*
X69389357Y-66378772D01*
X69259260Y-66343913D01*
X69170401Y-66285244D01*
X69843448Y-67546232D02*
X69266097Y-67879566D01*
X70054315Y-67149560D02*
X69316677Y-67300506D01*
X69626201Y-67836617D01*
X70094302Y-68171202D02*
X70087923Y-68064913D01*
X70105352Y-67999865D01*
X70164022Y-67911006D01*
X70205261Y-67887197D01*
X70311549Y-67880817D01*
X70376598Y-67898247D01*
X70465456Y-67956916D01*
X70560694Y-68121873D01*
X70567074Y-68228161D01*
X70549644Y-68293210D01*
X70490975Y-68382068D01*
X70449736Y-68405878D01*
X70343448Y-68412258D01*
X70278399Y-68394828D01*
X70189541Y-68336159D01*
X70094302Y-68171202D01*
X70005444Y-68112533D01*
X69940395Y-68095103D01*
X69834107Y-68101483D01*
X69669150Y-68196721D01*
X69610481Y-68285579D01*
X69593051Y-68350628D01*
X69599431Y-68456916D01*
X69694669Y-68621873D01*
X69783527Y-68680542D01*
X69848576Y-68697972D01*
X69954864Y-68691592D01*
X70119821Y-68596354D01*
X70178490Y-68507496D01*
X70195920Y-68442447D01*
X70189541Y-68336159D01*
%TO.C,SW8*%
X68994500Y-80467766D02*
X69196530Y-80265736D01*
X69634263Y-80434095D02*
X70071996Y-79996362D01*
X69533248Y-81006514D02*
X69701607Y-80838156D01*
X68758798Y-80299408D02*
X68994500Y-80063705D01*
X69196530Y-80265736D01*
X69432233Y-80232064D02*
X69634263Y-80434095D01*
X69432233Y-80232064D02*
X69869965Y-79794331D01*
X70071996Y-79996362D01*
X70139339Y-80131049D02*
X70408713Y-80131049D01*
X69499576Y-79625973D02*
X69768950Y-79625973D01*
X68994500Y-80467766D02*
X69162859Y-80703469D01*
X69364889Y-80434095D01*
X69533248Y-80602453D01*
X69701607Y-80838156D01*
X69836294Y-80703469D02*
X70240355Y-80164721D01*
X69230202Y-79760660D02*
X69331217Y-80063705D01*
X69735278Y-79659644D01*
X69533248Y-79861675D02*
X70071996Y-80400423D01*
X69970981Y-79289255D02*
X70408713Y-78851522D01*
X70038324Y-79491286D02*
X70610744Y-78918866D01*
X70846446Y-79558629D02*
X70981133Y-79423942D01*
X71250507Y-79289255D02*
X71418866Y-79120896D01*
X70274026Y-79592301D02*
X70543400Y-79861675D01*
X70004652Y-78918866D02*
X70812774Y-79726988D01*
X70274026Y-79592301D02*
X70711759Y-79154568D01*
X70981133Y-79423942D01*
X70543400Y-78582148D02*
X71014805Y-79053553D01*
X70610744Y-78312774D02*
X71418866Y-79120896D01*
X69903637Y-79087225D02*
X70038324Y-79423942D01*
X70913790Y-78279103D02*
X71250507Y-77942385D01*
X71519881Y-77875042D02*
X71755583Y-77639339D01*
X71183164Y-78481133D02*
X71452538Y-78211759D01*
X71688240Y-78245431D02*
X71856599Y-78077072D01*
X71317851Y-78615820D02*
X71587225Y-78346446D01*
X71789255Y-78346446D02*
X71957614Y-78178087D01*
X71418866Y-78784179D02*
X71755583Y-78447461D01*
X72328003Y-78211759D02*
X72429018Y-78110744D01*
X71048477Y-78346446D02*
X71317851Y-78615820D01*
X70947461Y-77976057D02*
X71755583Y-78784179D01*
X71048477Y-78346446D02*
X71351522Y-78043400D01*
X71620896Y-78312774D01*
X71553553Y-78110744D02*
X71991286Y-78548477D01*
X71856599Y-77807698D02*
X72159644Y-78110744D01*
X71957614Y-77639339D02*
X72429018Y-78110744D01*
X71418866Y-77504652D02*
X71856599Y-77538324D01*
X71385194Y-77538324D02*
X71385194Y-78009729D01*
X71553553Y-78110744D02*
X71721912Y-77942385D01*
X72159644Y-78380118D01*
X72092301Y-78447461D01*
X72125973Y-76999576D02*
X72361675Y-76763874D01*
X72631049Y-76898561D01*
X73001438Y-77066920D01*
X73472843Y-77066920D01*
X72429018Y-76831217D02*
X72597377Y-77066920D01*
X72698392Y-77369965D01*
X72698392Y-77841370D01*
%TO.C,R11*%
X68654247Y-59285010D02*
X68701867Y-59332629D01*
X68749486Y-59427867D01*
X68749486Y-59665962D01*
X68701867Y-59761200D01*
X68654247Y-59808819D01*
X68559009Y-59856438D01*
X68463771Y-59856438D01*
X68320914Y-59808819D01*
X67749486Y-59237391D01*
X67749486Y-59856438D01*
X67749486Y-60285010D02*
X68749486Y-60285010D01*
X68130438Y-60380248D02*
X67749486Y-60665962D01*
X68416152Y-60665962D02*
X68035200Y-60285010D01*
X68654247Y-61046915D02*
X68701867Y-61094534D01*
X68749486Y-61189772D01*
X68749486Y-61427867D01*
X68701867Y-61523105D01*
X68654247Y-61570724D01*
X68559009Y-61618343D01*
X68463771Y-61618343D01*
X68320914Y-61570724D01*
X67749486Y-60999296D01*
X67749486Y-61618343D01*
%TO.C,SW7*%
X58640476Y-63790476D02*
X58926190Y-63790476D01*
X59116666Y-64219047D02*
X59735714Y-64219047D01*
X58640476Y-64552380D02*
X58878571Y-64552380D01*
X58592857Y-63504761D02*
X58926190Y-63504761D01*
X58926190Y-63790476D01*
X59116666Y-63933333D02*
X59116666Y-64219047D01*
X59116666Y-63933333D02*
X59735714Y-63933333D01*
X59735714Y-64219047D01*
X59688095Y-64361904D02*
X59878571Y-64552380D01*
X59592857Y-63552380D02*
X59783333Y-63742857D01*
X58640476Y-63790476D02*
X58592857Y-64076190D01*
X58926190Y-64028571D01*
X58926190Y-64266666D01*
X58878571Y-64552380D01*
X59069047Y-64552380D02*
X59735714Y-64457142D01*
X59307142Y-63457142D02*
X59164285Y-63742857D01*
X59735714Y-63742857D01*
X59450000Y-63742857D02*
X59450000Y-64504761D01*
X60164285Y-63647619D02*
X60783333Y-63647619D01*
X60069047Y-63838095D02*
X60878571Y-63838095D01*
X60592857Y-64457142D02*
X60783333Y-64457142D01*
X61069047Y-64552380D02*
X61307142Y-64552380D01*
X60164285Y-64076190D02*
X60164285Y-64457142D01*
X60450000Y-63409523D02*
X60450000Y-64552380D01*
X60164285Y-64076190D02*
X60783333Y-64076190D01*
X60783333Y-64457142D01*
X61069047Y-63552380D02*
X61069047Y-64219047D01*
X61307142Y-63409523D02*
X61307142Y-64552380D01*
X60259523Y-63457142D02*
X60116666Y-63790476D01*
X61545238Y-63600000D02*
X62021428Y-63600000D01*
X62259523Y-63742857D02*
X62592857Y-63742857D01*
X61592857Y-63933333D02*
X61973809Y-63933333D01*
X62116666Y-64123809D02*
X62354761Y-64123809D01*
X61592857Y-64123809D02*
X61973809Y-64123809D01*
X62116666Y-64266666D02*
X62354761Y-64266666D01*
X61545238Y-64314285D02*
X62021428Y-64314285D01*
X62592857Y-64552380D02*
X62735714Y-64552380D01*
X61592857Y-63742857D02*
X61592857Y-64123809D01*
X61783333Y-63409523D02*
X61783333Y-64552380D01*
X61592857Y-63742857D02*
X62021428Y-63742857D01*
X62021428Y-64123809D01*
X62116666Y-63933333D02*
X62116666Y-64552380D01*
X62545238Y-63933333D02*
X62545238Y-64361904D01*
X62735714Y-63885714D02*
X62735714Y-64552380D01*
X62450000Y-63409523D02*
X62735714Y-63742857D01*
X62402380Y-63409523D02*
X62069047Y-63742857D01*
X62116666Y-63933333D02*
X62354761Y-63933333D01*
X62354761Y-64552380D01*
X62259523Y-64552380D01*
X63307142Y-63552380D02*
X63640476Y-63552380D01*
X63735714Y-63838095D01*
X63878571Y-64219047D01*
X64211904Y-64552380D01*
X63640476Y-63647619D02*
X63592857Y-63933333D01*
X63450000Y-64219047D01*
X63116666Y-64552380D01*
D13*
%TO.C,R3*%
X82163936Y-72678127D02*
X82618064Y-72678127D01*
X82163936Y-71208127D02*
X82618064Y-71208127D01*
%TO.C,J2*%
X62768186Y-47309031D02*
X63433186Y-46157217D01*
X62133186Y-48408883D02*
X64436814Y-49738883D01*
X62133186Y-48408883D02*
X58293186Y-55059958D01*
X63433186Y-46157217D02*
X64585000Y-46822217D01*
X58293186Y-55059958D02*
X60596814Y-56389958D01*
X64436814Y-49738883D02*
X60596814Y-56389958D01*
%TO.C,R17*%
X91895000Y-61147863D02*
X91895000Y-61601991D01*
X93365000Y-61147863D02*
X93365000Y-61601991D01*
%TO.C,SW5*%
X91668975Y-73346891D02*
X90976154Y-72946891D01*
X90460129Y-71840673D02*
X91860129Y-69415802D01*
X93076154Y-69309584D02*
X93768975Y-69709584D01*
%TO.C,SW16*%
X63410000Y-56690000D02*
X56990000Y-56690000D01*
X56990000Y-63110000D02*
X63410000Y-63110000D01*
X56990000Y-62700000D02*
X56990000Y-63110000D01*
X56990000Y-56690000D02*
X56990000Y-56970000D01*
X63410000Y-57100000D02*
X63410000Y-56690000D01*
X63410000Y-63110000D02*
X63410000Y-62700000D01*
D10*
%TO.C,SW1*%
X59278864Y-67737282D02*
X62326864Y-73016572D01*
D13*
%TO.C,Q3*%
X85249000Y-67020000D02*
X84411500Y-68470593D01*
X87951000Y-68580000D02*
X88276000Y-68017083D01*
X85249000Y-67020000D02*
X85574000Y-66457083D01*
X87951000Y-68580000D02*
X87626000Y-69142917D01*
%TO.C,R6*%
X65950061Y-53720857D02*
X65722997Y-54114143D01*
X64677003Y-52985857D02*
X64449939Y-53379143D01*
%TO.C,D7*%
X74100000Y-71885000D02*
X78160000Y-71885000D01*
X78160000Y-71885000D02*
X78160000Y-68715000D01*
X78160000Y-68715000D02*
X74100000Y-68715000D01*
%TO.C,R15*%
X87027003Y-51375095D02*
X86799939Y-50981809D01*
X88300061Y-50640095D02*
X88072997Y-50246809D01*
%TO.C,J4*%
X73880000Y-79574927D02*
X72550000Y-79574927D01*
X75150000Y-76914927D02*
X82830000Y-76914927D01*
X82830000Y-79574927D02*
X82830000Y-76914927D01*
X72550000Y-79574927D02*
X72550000Y-78244927D01*
X75150000Y-79574927D02*
X75150000Y-76914927D01*
X75150000Y-79574927D02*
X82830000Y-79574927D01*
%TO.C,R9*%
X76117064Y-44329927D02*
X75662936Y-44329927D01*
X76117064Y-42859927D02*
X75662936Y-42859927D01*
%TO.C,SW18*%
X90725058Y-66615058D02*
X87515058Y-72174942D01*
X93074942Y-75384942D02*
X96284942Y-69825058D01*
X91080129Y-66820058D02*
X90725058Y-66615058D01*
X87515058Y-72174942D02*
X87757546Y-72314942D01*
X96284942Y-69825058D02*
X95929871Y-69620058D01*
X92719871Y-75179942D02*
X93074942Y-75384942D01*
%TO.C,J8*%
X93121814Y-48454779D02*
X96961814Y-55105854D01*
X94658186Y-56435854D02*
X96961814Y-55105854D01*
X90183186Y-48684927D02*
X89518186Y-47533113D01*
X90818186Y-49784779D02*
X94658186Y-56435854D01*
X90818186Y-49784779D02*
X93121814Y-48454779D01*
X89518186Y-47533113D02*
X90670000Y-46868113D01*
%TO.C,D11*%
X99244400Y-62916327D02*
X99400400Y-62916327D01*
X96928400Y-62916327D02*
X97084400Y-62916327D01*
X97084563Y-60315197D02*
G75*
G03*
X97084400Y-62397288I1079837J-1041130D01*
G01*
X97085792Y-59683992D02*
G75*
G03*
X96928884Y-62916327I1078608J-1672335D01*
G01*
X99244400Y-62397288D02*
G75*
G03*
X99244237Y-60315197I-1080000J1040961D01*
G01*
X99399916Y-62916327D02*
G75*
G03*
X99243008Y-59683992I-1235516J1560000D01*
G01*
%TO.C,D4*%
X67913865Y-46941327D02*
X71429928Y-44911327D01*
X69844928Y-42166027D02*
X66328865Y-44196027D01*
X66328865Y-44196027D02*
X67913865Y-46941327D01*
%TO.C,SW17*%
X67910086Y-79549712D02*
X68200000Y-79839626D01*
X68200000Y-79839626D02*
X72739626Y-75300000D01*
X72739626Y-75300000D02*
X72449712Y-75010086D01*
X63660374Y-75300000D02*
X63858364Y-75497990D01*
X68200000Y-70760374D02*
X63660374Y-75300000D01*
X68489914Y-71050288D02*
X68200000Y-70760374D01*
%TO.C,Q6*%
X85640000Y-43799000D02*
X86202917Y-44124000D01*
X84080000Y-46501000D02*
X85530593Y-47338500D01*
X85640000Y-43799000D02*
X85077083Y-43474000D01*
X84080000Y-46501000D02*
X83517083Y-46176000D01*
%TO.C,D5*%
X66707350Y-70272922D02*
X69452650Y-68687922D01*
X69452650Y-68687922D02*
X67422650Y-65171859D01*
X64677350Y-66756859D02*
X66707350Y-70272922D01*
%TO.C,SW8*%
X69741600Y-74006928D02*
X70307285Y-74572614D01*
X67337437Y-77542462D02*
X66771751Y-76976777D01*
X66559619Y-75774695D02*
X68539518Y-73794796D01*
%TO.C,R11*%
X65715000Y-60427064D02*
X65715000Y-59972936D01*
X67185000Y-60427064D02*
X67185000Y-59972936D01*
%TO.C,SW7*%
X58025000Y-60875000D02*
X58025000Y-60075000D01*
X62225000Y-60075000D02*
X62225000Y-60875000D01*
X58725000Y-59075000D02*
X61525000Y-59075000D01*
%TD*%
D14*
%TO.C,SW1*%
X58927031Y-69727889D03*
X60427031Y-72325965D03*
%TD*%
M02*
