%TF.GenerationSoftware,KiCad,Pcbnew,(6.0.5-0)*%
%TF.CreationDate,2022-06-08T15:29:45+08:00*%
%TF.ProjectId,dtl,64746c2e-6b69-4636-9164-5f7063625858,rev?*%
%TF.SameCoordinates,Original*%
%TF.FileFunction,Legend,Bot*%
%TF.FilePolarity,Positive*%
%FSLAX46Y46*%
G04 Gerber Fmt 4.6, Leading zero omitted, Abs format (unit mm)*
G04 Created by KiCad (PCBNEW (6.0.5-0)) date 2022-06-08 15:29:45*
%MOMM*%
%LPD*%
G01*
G04 APERTURE LIST*
%ADD10C,0.200000*%
%ADD11C,0.150000*%
%ADD12C,0.120000*%
G04 APERTURE END LIST*
D10*
G36*
X95444342Y-70992594D02*
G01*
X89703943Y-80935258D01*
X79607299Y-75105958D01*
X85347699Y-65163294D01*
X95444342Y-70992594D01*
G37*
X95444342Y-70992594D02*
X89703943Y-80935258D01*
X79607299Y-75105958D01*
X85347699Y-65163294D01*
X95444342Y-70992594D01*
D11*
X86614285Y-40599761D02*
X85995238Y-40599761D01*
X86614285Y-40790238D02*
X86042857Y-40790238D01*
X86614285Y-40980714D02*
X86042857Y-40980714D01*
X86614285Y-41218809D02*
X85947619Y-41218809D01*
X86233333Y-41647380D02*
X85995238Y-41647380D01*
X86614285Y-40599761D02*
X86614285Y-41218809D01*
X86471428Y-41361666D02*
X86423809Y-41552142D01*
X86280952Y-40599761D02*
X86280952Y-41218809D01*
X86995238Y-41266428D02*
X86804761Y-41504523D01*
X86138095Y-41314047D02*
X86090476Y-41456904D01*
X86900000Y-41361666D02*
X87138095Y-41647380D01*
X86280952Y-41314047D02*
X86280952Y-41504523D01*
X87138095Y-41218809D02*
X86900000Y-41314047D01*
X86804761Y-41123571D02*
X86995238Y-41552142D01*
X86614285Y-41361666D02*
X86709523Y-41599761D01*
X86995238Y-40504523D02*
X87138095Y-41266428D01*
X87185714Y-40790238D02*
X86757142Y-40790238D01*
X86900000Y-41361666D01*
X85947619Y-41266428D02*
X85995238Y-41647380D01*
X85138095Y-40599761D02*
X84519047Y-40599761D01*
X85138095Y-40790238D02*
X84566666Y-40790238D01*
X85138095Y-40980714D02*
X84566666Y-40980714D01*
X85138095Y-41218809D02*
X84471428Y-41218809D01*
X84757142Y-41647380D02*
X84519047Y-41647380D01*
X85138095Y-40599761D02*
X85138095Y-41218809D01*
X84995238Y-41361666D02*
X84947619Y-41552142D01*
X84804761Y-40599761D02*
X84804761Y-41218809D01*
X85519047Y-41266428D02*
X85328571Y-41504523D01*
X84661904Y-41314047D02*
X84614285Y-41456904D01*
X85423809Y-41361666D02*
X85661904Y-41647380D01*
X84804761Y-41314047D02*
X84804761Y-41504523D01*
X85661904Y-41218809D02*
X85423809Y-41314047D01*
X85328571Y-41123571D02*
X85519047Y-41552142D01*
X85138095Y-41361666D02*
X85233333Y-41599761D01*
X85519047Y-40504523D02*
X85661904Y-41266428D01*
X85709523Y-40790238D02*
X85280952Y-40790238D01*
X85423809Y-41361666D01*
X84471428Y-41266428D02*
X84519047Y-41647380D01*
X83614285Y-40837857D02*
X83090476Y-40837857D01*
X84185714Y-40933095D02*
X83804761Y-40933095D01*
X83614285Y-41075952D02*
X83090476Y-41075952D01*
X83995238Y-41171190D02*
X83757142Y-41171190D01*
X84185714Y-40599761D02*
X84185714Y-40885476D01*
X84138095Y-41123571D02*
X84138095Y-41552142D01*
X83995238Y-40933095D02*
X83995238Y-41504523D01*
X84185714Y-40599761D02*
X83804761Y-40599761D01*
X83804761Y-40885476D01*
X83614285Y-40599761D02*
X83614285Y-41599761D01*
X83614285Y-40599761D02*
X83090476Y-40599761D01*
X83090476Y-41075952D01*
X83280952Y-41409285D02*
X83042857Y-41647380D01*
X83090476Y-41266428D02*
X83280952Y-41361666D01*
X83423809Y-41075952D02*
X83233333Y-41504523D01*
X83757142Y-41456904D02*
X84233333Y-41552142D01*
X83328571Y-41552142D02*
X83757142Y-41599761D01*
X82614285Y-40695000D02*
X81804761Y-40695000D01*
X82757142Y-40980714D02*
X81519047Y-40980714D01*
X82328571Y-41647380D02*
X81614285Y-41647380D01*
X82328571Y-41171190D02*
X82328571Y-41647380D01*
X82233333Y-40504523D02*
X82233333Y-40980714D01*
X81614285Y-40552142D02*
X81995238Y-40933095D01*
X81566666Y-41456904D02*
X81614285Y-41647380D01*
X81995238Y-40980714D02*
X82757142Y-41314047D01*
X81709523Y-41218809D02*
X82328571Y-41409285D01*
X81280952Y-41266428D02*
X80042857Y-41266428D01*
X80471428Y-40504523D02*
X80471428Y-40790238D01*
X81185714Y-40552142D02*
X80995238Y-40599761D01*
X81042857Y-40885476D02*
X81280952Y-41123571D01*
X81280952Y-40695000D02*
X81090476Y-40742619D01*
X80852380Y-40647380D02*
X80090476Y-40647380D01*
X80138095Y-40742619D01*
X80709523Y-40790238D02*
X80566666Y-40933095D01*
X80423809Y-41028333D01*
X80090476Y-41123571D01*
X80852380Y-40790238D02*
X80185714Y-40790238D01*
X80328571Y-40933095D01*
X80471428Y-41028333D01*
X80804761Y-41123571D01*
X80852380Y-40647380D02*
X80852380Y-40980714D01*
X80328571Y-41266428D02*
X80471428Y-41456904D01*
X80661904Y-41552142D01*
X81233333Y-41647380D01*
X80804761Y-41218809D02*
X80995238Y-41456904D01*
X80090476Y-41647380D01*
X78995238Y-40647380D02*
X78566666Y-40647380D01*
X79804761Y-40790238D02*
X79423809Y-40790238D01*
X79328571Y-41028333D02*
X78709523Y-41028333D01*
X79328571Y-41218809D02*
X78709523Y-41218809D01*
X79423809Y-41409285D02*
X78566666Y-41409285D01*
X79804761Y-41647380D02*
X79614285Y-41647380D01*
X79614285Y-40504523D02*
X79614285Y-41647380D01*
X79328571Y-40837857D02*
X79328571Y-41218809D01*
X78995238Y-40504523D02*
X78995238Y-40837857D01*
X78995238Y-41218809D02*
X78995238Y-41647380D01*
X79328571Y-40837857D02*
X78709523Y-40837857D01*
X78709523Y-41218809D01*
X79423809Y-41123571D02*
X79804761Y-41218809D01*
X77852380Y-40790238D02*
X77138095Y-40790238D01*
X77852380Y-40980714D02*
X77185714Y-40980714D01*
X77852380Y-41218809D02*
X77185714Y-41218809D01*
X77852380Y-41456904D02*
X77090476Y-41456904D01*
X77804761Y-40695000D02*
X77804761Y-41456904D01*
X77471428Y-40647380D02*
X77471428Y-41456904D01*
X78280952Y-40552142D02*
X78090476Y-40742619D01*
X78328571Y-41028333D02*
X78138095Y-41028333D01*
X78138095Y-41456904D01*
X78328571Y-41647380D01*
X77709523Y-40552142D02*
X77947619Y-40837857D01*
X77423809Y-40552142D02*
X77471428Y-40790238D01*
X78185714Y-41504523D02*
X77709523Y-41647380D01*
X77090476Y-41647380D01*
X76519047Y-41647380D02*
X76233333Y-41647380D01*
X76233333Y-40504523D02*
X76233333Y-41647380D01*
X75709523Y-40742619D02*
X76090476Y-41123571D01*
X76233333Y-40742619D02*
X76042857Y-41218809D01*
X75804761Y-41456904D01*
X75614285Y-41504523D01*
X76804761Y-40885476D02*
X76376190Y-40885476D01*
X76566666Y-41266428D01*
X76804761Y-41504523D01*
X74804761Y-40837857D02*
X74185714Y-40837857D01*
X74804761Y-41075952D02*
X74185714Y-41075952D01*
X74852380Y-41314047D02*
X74185714Y-41314047D01*
X74900000Y-41599761D02*
X74138095Y-41599761D01*
X75138095Y-40504523D02*
X75138095Y-40742619D01*
X75090476Y-41028333D02*
X75090476Y-41647380D01*
X74804761Y-40599761D02*
X74804761Y-41075952D01*
X74519047Y-40599761D02*
X74519047Y-41599761D01*
X74804761Y-40599761D02*
X74185714Y-40599761D01*
X74185714Y-41075952D01*
X75090476Y-41075952D02*
X74900000Y-41266428D01*
X75042857Y-40980714D02*
X75376190Y-41314047D01*
X74900000Y-41028333D02*
X75042857Y-41123571D01*
X75328571Y-40790238D02*
X74947619Y-40790238D01*
X75138095Y-41123571D01*
X73661904Y-40790238D02*
X72757142Y-40790238D01*
X73900000Y-41075952D02*
X72661904Y-41075952D01*
X73280952Y-40504523D02*
X73280952Y-41075952D01*
X73614285Y-40552142D02*
X73804761Y-40980714D01*
X73471428Y-41123571D02*
X73566666Y-41456904D01*
X73661904Y-41552142D01*
X73900000Y-41647380D01*
X73042857Y-41123571D02*
X73042857Y-41647380D01*
X72709523Y-41647380D01*
X72661904Y-41456904D01*
X72423809Y-40742619D02*
X71804761Y-40742619D01*
X72280952Y-41647380D02*
X72090476Y-41647380D01*
X72090476Y-40504523D02*
X72090476Y-41647380D01*
X71423809Y-41409285D02*
X71185714Y-41647380D01*
X71995238Y-41218809D02*
X71804761Y-41409285D01*
X71947619Y-40552142D02*
X71804761Y-40647380D01*
X72233333Y-41314047D02*
X72423809Y-41409285D01*
X72328571Y-40885476D02*
X72280952Y-41123571D01*
X71566666Y-41028333D02*
X71376190Y-41504523D01*
X71852380Y-40885476D02*
X71947619Y-41075952D01*
X71328571Y-40980714D02*
X71471428Y-41361666D01*
X71661904Y-41552142D01*
X71900000Y-41647380D01*
X71614285Y-40790238D02*
X71471428Y-41361666D01*
X71661904Y-40790238D02*
X71233333Y-40790238D01*
X71471428Y-41361666D01*
X71566666Y-40504523D02*
X71709523Y-41028333D01*
X70900000Y-40552142D02*
X70519047Y-40552142D01*
X70947619Y-40742619D02*
X70471428Y-40742619D01*
X70376190Y-40790238D02*
X69709523Y-40790238D01*
X70900000Y-40885476D02*
X70519047Y-40885476D01*
X70328571Y-41028333D02*
X69757142Y-41028333D01*
X70900000Y-41075952D02*
X70519047Y-41075952D01*
X70328571Y-41314047D02*
X69757142Y-41314047D01*
X70900000Y-41552142D02*
X70519047Y-41552142D01*
X70328571Y-41599761D02*
X69709523Y-41599761D01*
X70900000Y-41266428D02*
X70900000Y-41647380D01*
X70900000Y-41266428D02*
X70519047Y-41266428D01*
X70519047Y-41552142D01*
X70328571Y-40742619D02*
X70328571Y-41647380D01*
X69995238Y-40695000D02*
X69995238Y-41552142D01*
X70233333Y-40504523D02*
X70423809Y-40933095D01*
X69947619Y-40552142D02*
X70042857Y-40790238D01*
X69328571Y-41456904D02*
X69280952Y-41504523D01*
X69328571Y-41552142D01*
X69376190Y-41504523D01*
X69328571Y-41456904D01*
X69328571Y-41552142D01*
X69280952Y-41504523D02*
X69280952Y-41647380D01*
X69328571Y-41695000D01*
X84923809Y-42209761D02*
X83780952Y-42209761D01*
X84876190Y-42638333D02*
X83828571Y-42638333D01*
X84971428Y-42828809D02*
X83733333Y-42828809D01*
X84876190Y-42400238D02*
X84876190Y-42638333D01*
X84542857Y-42209761D02*
X84542857Y-42638333D01*
X84161904Y-42209761D02*
X84161904Y-42638333D01*
X84876190Y-42400238D02*
X83828571Y-42400238D01*
X83828571Y-42638333D01*
X84019047Y-42828809D02*
X84209523Y-43066904D01*
X84400000Y-43162142D01*
X84971428Y-43257380D01*
X84495238Y-42733571D02*
X84780952Y-43066904D01*
X83828571Y-43209761D01*
X83304761Y-42543095D02*
X82257142Y-42543095D01*
X83304761Y-42876428D02*
X82257142Y-42876428D01*
X82542857Y-43257380D02*
X82257142Y-43257380D01*
X82828571Y-42209761D02*
X82828571Y-43257380D01*
X83304761Y-42209761D02*
X82257142Y-42209761D01*
X82257142Y-43257380D01*
X83304761Y-42209761D02*
X83304761Y-42828809D01*
X83352380Y-43114523D01*
X81638095Y-42590714D02*
X80780952Y-42590714D01*
X81733333Y-42352619D02*
X81733333Y-43257380D01*
X81209523Y-42114523D02*
X81209523Y-43257380D01*
X81780952Y-42447857D02*
X82019047Y-42638333D01*
X81685714Y-42114523D02*
X81828571Y-42447857D01*
X80447619Y-42257380D02*
X79304761Y-42257380D01*
X80304761Y-42400238D02*
X79923809Y-42400238D01*
X79780952Y-42400238D02*
X79352380Y-42400238D01*
X79447619Y-42733571D02*
X79304761Y-42733571D01*
X80304761Y-43257380D02*
X79352380Y-43257380D01*
X80114285Y-42305000D02*
X80114285Y-42733571D01*
X79923809Y-42495476D02*
X79923809Y-42685952D01*
X79876190Y-42114523D02*
X79876190Y-42257380D01*
X79590476Y-42305000D02*
X79590476Y-42733571D01*
X79400000Y-42495476D02*
X79400000Y-42733571D01*
X79495238Y-43114523D02*
X79352380Y-43257380D01*
X79638095Y-43066904D02*
X79495238Y-43114523D01*
X79923809Y-42781190D02*
X80114285Y-42971666D01*
X79685714Y-42876428D02*
X79876190Y-43066904D01*
X80209523Y-42924047D02*
X79971428Y-43066904D01*
X79923809Y-43114523D02*
X80114285Y-43209761D01*
X80257142Y-42543095D02*
X80304761Y-42781190D01*
X79780952Y-42495476D02*
X79780952Y-42733571D01*
X80447619Y-42257380D02*
X80447619Y-42876428D01*
X80495238Y-43257380D01*
X78685714Y-42352619D02*
X77876190Y-42352619D01*
X78257142Y-42590714D02*
X77828571Y-42590714D01*
X78257142Y-42733571D02*
X77876190Y-42733571D01*
X78780952Y-42828809D02*
X78400000Y-42828809D01*
X78257142Y-42924047D02*
X77876190Y-42924047D01*
X78257142Y-43066904D02*
X77828571Y-43066904D01*
X78638095Y-43257380D02*
X77828571Y-43257380D01*
X78685714Y-42162142D02*
X78685714Y-42352619D01*
X78542857Y-42781190D02*
X78542857Y-43162142D01*
X78209523Y-42495476D02*
X78209523Y-43162142D01*
X78019047Y-42495476D02*
X78019047Y-43066904D01*
X79019047Y-42162142D02*
X78876190Y-42305000D01*
X78495238Y-42685952D02*
X78352380Y-42828809D01*
X78733333Y-42543095D02*
X78590476Y-42638333D01*
X79019047Y-42447857D02*
X78876190Y-42543095D01*
X79066666Y-42733571D02*
X78876190Y-42733571D01*
X78923809Y-43114523D01*
X79066666Y-43257380D01*
X78590476Y-42447857D02*
X78685714Y-42543095D01*
X78447619Y-42543095D02*
X78733333Y-42781190D01*
X78447619Y-42876428D02*
X78400000Y-43019285D01*
X78733333Y-42876428D02*
X78733333Y-43066904D01*
X78209523Y-42400238D02*
X78352380Y-42685952D01*
X78447619Y-42162142D02*
X78447619Y-42352619D01*
X78161904Y-42162142D02*
X78161904Y-42352619D01*
X78685714Y-42162142D02*
X77876190Y-42162142D01*
X77923809Y-42352619D01*
X78923809Y-43114523D02*
X78685714Y-43209761D01*
X78400000Y-43257380D01*
X77590476Y-42305000D02*
X77019047Y-42305000D01*
X76923809Y-42400238D02*
X76447619Y-42400238D01*
X77542857Y-42638333D02*
X77066666Y-42638333D01*
X76876190Y-42733571D02*
X76447619Y-42733571D01*
X77542857Y-42828809D02*
X77066666Y-42828809D01*
X76876190Y-42924047D02*
X76447619Y-42924047D01*
X77590476Y-43019285D02*
X77019047Y-43019285D01*
X76923809Y-43114523D02*
X76447619Y-43114523D01*
X77019047Y-43162142D02*
X76590476Y-43162142D01*
X77542857Y-42447857D02*
X77542857Y-42828809D01*
X77304761Y-42114523D02*
X77304761Y-43257380D01*
X77542857Y-42447857D02*
X77066666Y-42447857D01*
X77066666Y-42828809D01*
X76923809Y-42162142D02*
X76923809Y-42400238D01*
X76876190Y-42543095D02*
X76876190Y-43114523D01*
X76971428Y-42543095D02*
X76400000Y-42543095D01*
X76447619Y-43257380D01*
X76923809Y-42162142D02*
X76447619Y-42162142D01*
X76447619Y-42400238D01*
X76114285Y-42352619D02*
X75638095Y-42352619D01*
X75400000Y-42352619D02*
X74876190Y-42352619D01*
X76114285Y-42543095D02*
X75638095Y-42543095D01*
X75400000Y-42543095D02*
X74876190Y-42543095D01*
X75828571Y-42828809D02*
X75161904Y-42828809D01*
X75828571Y-43019285D02*
X75161904Y-43019285D01*
X75066666Y-43257380D02*
X74876190Y-43257380D01*
X76114285Y-42209761D02*
X76114285Y-43257380D01*
X75828571Y-42685952D02*
X75828571Y-43066904D01*
X76114285Y-42209761D02*
X75590476Y-42209761D01*
X75590476Y-42543095D01*
X75495238Y-42685952D02*
X75495238Y-43257380D01*
X75400000Y-42209761D02*
X75400000Y-42543095D01*
X75828571Y-42685952D02*
X75161904Y-42685952D01*
X75161904Y-43066904D01*
X75400000Y-42209761D02*
X74876190Y-42209761D01*
X74876190Y-43257380D01*
X74590476Y-42543095D02*
X73923809Y-42543095D01*
X74638095Y-42828809D02*
X73876190Y-42828809D01*
X73685714Y-43257380D02*
X73400000Y-43257380D01*
X74257142Y-42114523D02*
X74257142Y-43257380D01*
X73780952Y-42257380D02*
X73780952Y-42924047D01*
X73400000Y-42162142D02*
X73400000Y-43257380D01*
X74542857Y-42209761D02*
X74447619Y-42447857D01*
X73971428Y-42209761D02*
X74066666Y-42447857D01*
X73114285Y-42495476D02*
X72828571Y-42495476D01*
X72780952Y-42495476D02*
X72495238Y-42495476D01*
X72400000Y-42590714D02*
X71923809Y-42590714D01*
X73161904Y-42590714D02*
X72495238Y-42590714D01*
X72780952Y-43066904D02*
X72495238Y-43066904D01*
X73161904Y-43114523D02*
X72542857Y-43114523D01*
X73161904Y-42162142D02*
X73161904Y-43209761D01*
X72066666Y-42590714D02*
X72066666Y-43257380D01*
X73066666Y-42305000D02*
X72971428Y-42400238D01*
X73066666Y-42781190D02*
X72971428Y-42924047D01*
X72971428Y-42162142D02*
X73019047Y-42305000D01*
X73114285Y-43066904D02*
X72876190Y-43019285D01*
X72876190Y-43066904D01*
X72923809Y-42257380D02*
X73019047Y-42495476D01*
X72971428Y-42685952D02*
X72971428Y-42781190D01*
X73019047Y-43019285D01*
X72685714Y-42162142D02*
X72733333Y-42305000D01*
X72638095Y-42352619D01*
X72685714Y-42495476D01*
X72685714Y-42638333D02*
X72733333Y-42781190D01*
X72638095Y-42876428D01*
X72685714Y-43019285D01*
X71923809Y-42162142D02*
X72400000Y-42257380D01*
X72400000Y-42876428D01*
X72447619Y-43162142D01*
X71257142Y-43114523D02*
X71209523Y-43162142D01*
X71257142Y-43209761D01*
X71304761Y-43162142D01*
X71257142Y-43114523D01*
X71257142Y-43209761D01*
X71447619Y-42257380D02*
X71352380Y-42209761D01*
X71114285Y-42209761D01*
X71019047Y-42257380D01*
X70971428Y-42352619D01*
X70971428Y-42447857D01*
X71019047Y-42543095D01*
X71066666Y-42590714D01*
X71161904Y-42638333D01*
X71209523Y-42685952D01*
X71257142Y-42781190D01*
X71257142Y-42828809D01*
X81157142Y-76257142D02*
X81109523Y-76304761D01*
X81157142Y-76352380D01*
X81204761Y-76304761D01*
X81157142Y-76257142D01*
X81157142Y-76352380D01*
X80680952Y-76257142D02*
X80633333Y-76304761D01*
X80680952Y-76352380D01*
X80728571Y-76304761D01*
X80680952Y-76257142D01*
X80680952Y-76352380D01*
X80204761Y-76257142D02*
X80157142Y-76304761D01*
X80204761Y-76352380D01*
X80252380Y-76304761D01*
X80204761Y-76257142D01*
X80204761Y-76352380D01*
X79728571Y-76257142D02*
X79680952Y-76304761D01*
X79728571Y-76352380D01*
X79776190Y-76304761D01*
X79728571Y-76257142D01*
X79728571Y-76352380D01*
X79252380Y-76257142D02*
X79204761Y-76304761D01*
X79252380Y-76352380D01*
X79300000Y-76304761D01*
X79252380Y-76257142D01*
X79252380Y-76352380D01*
X78776190Y-76257142D02*
X78728571Y-76304761D01*
X78776190Y-76352380D01*
X78823809Y-76304761D01*
X78776190Y-76257142D01*
X78776190Y-76352380D01*
X78300000Y-76257142D02*
X78252380Y-76304761D01*
X78300000Y-76352380D01*
X78347619Y-76304761D01*
X78300000Y-76257142D01*
X78300000Y-76352380D01*
X77823809Y-76257142D02*
X77776190Y-76304761D01*
X77823809Y-76352380D01*
X77871428Y-76304761D01*
X77823809Y-76257142D01*
X77823809Y-76352380D01*
X77395238Y-76066666D02*
X76919047Y-76066666D01*
X77490476Y-76352380D02*
X77157142Y-75352380D01*
X76823809Y-76352380D01*
X76490476Y-76352380D02*
X76490476Y-75352380D01*
X75919047Y-76352380D01*
X75919047Y-75352380D01*
X75442857Y-76352380D02*
X75442857Y-75352380D01*
X75204761Y-75352380D01*
X75061904Y-75400000D01*
X74966666Y-75495238D01*
X74919047Y-75590476D01*
X74871428Y-75780952D01*
X74871428Y-75923809D01*
X74919047Y-76114285D01*
X74966666Y-76209523D01*
X75061904Y-76304761D01*
X75204761Y-76352380D01*
X75442857Y-76352380D01*
X74585714Y-75447619D02*
X74109523Y-75447619D01*
X73871428Y-75447619D02*
X73347619Y-75447619D01*
X74585714Y-75638095D02*
X74109523Y-75638095D01*
X73871428Y-75638095D02*
X73347619Y-75638095D01*
X74300000Y-75923809D02*
X73633333Y-75923809D01*
X74300000Y-76114285D02*
X73633333Y-76114285D01*
X73538095Y-76352380D02*
X73347619Y-76352380D01*
X74585714Y-75304761D02*
X74585714Y-76352380D01*
X74300000Y-75780952D02*
X74300000Y-76161904D01*
X74585714Y-75304761D02*
X74061904Y-75304761D01*
X74061904Y-75638095D01*
X73966666Y-75780952D02*
X73966666Y-76352380D01*
X73871428Y-75304761D02*
X73871428Y-75638095D01*
X74300000Y-75780952D02*
X73633333Y-75780952D01*
X73633333Y-76161904D01*
X73871428Y-75304761D02*
X73347619Y-75304761D01*
X73347619Y-76352380D01*
X86652380Y-55380952D02*
X87366666Y-55380952D01*
X87509523Y-55333333D01*
X87604761Y-55238095D01*
X87652380Y-55095238D01*
X87652380Y-55000000D01*
X87652380Y-56333333D02*
X87652380Y-55857142D01*
X86652380Y-55857142D01*
X87557142Y-57238095D02*
X87604761Y-57190476D01*
X87652380Y-57047619D01*
X87652380Y-56952380D01*
X87604761Y-56809523D01*
X87509523Y-56714285D01*
X87414285Y-56666666D01*
X87223809Y-56619047D01*
X87080952Y-56619047D01*
X86890476Y-56666666D01*
X86795238Y-56714285D01*
X86700000Y-56809523D01*
X86652380Y-56952380D01*
X86652380Y-57047619D01*
X86700000Y-57190476D01*
X86747619Y-57238095D01*
X86652380Y-57952380D02*
X87366666Y-57952380D01*
X87509523Y-57904761D01*
X87604761Y-57809523D01*
X87652380Y-57666666D01*
X87652380Y-57571428D01*
X87652380Y-58904761D02*
X87652380Y-58428571D01*
X86652380Y-58428571D01*
X87557142Y-59809523D02*
X87604761Y-59761904D01*
X87652380Y-59619047D01*
X87652380Y-59523809D01*
X87604761Y-59380952D01*
X87509523Y-59285714D01*
X87414285Y-59238095D01*
X87223809Y-59190476D01*
X87080952Y-59190476D01*
X86890476Y-59238095D01*
X86795238Y-59285714D01*
X86700000Y-59380952D01*
X86652380Y-59523809D01*
X86652380Y-59619047D01*
X86700000Y-59761904D01*
X86747619Y-59809523D01*
X86652380Y-60523809D02*
X87366666Y-60523809D01*
X87509523Y-60476190D01*
X87604761Y-60380952D01*
X87652380Y-60238095D01*
X87652380Y-60142857D01*
X87652380Y-61476190D02*
X87652380Y-61000000D01*
X86652380Y-61000000D01*
X87557142Y-62380952D02*
X87604761Y-62333333D01*
X87652380Y-62190476D01*
X87652380Y-62095238D01*
X87604761Y-61952380D01*
X87509523Y-61857142D01*
X87414285Y-61809523D01*
X87223809Y-61761904D01*
X87080952Y-61761904D01*
X86890476Y-61809523D01*
X86795238Y-61857142D01*
X86700000Y-61952380D01*
X86652380Y-62095238D01*
X86652380Y-62190476D01*
X86700000Y-62333333D01*
X86747619Y-62380952D01*
X86652380Y-63095238D02*
X87366666Y-63095238D01*
X87509523Y-63047619D01*
X87604761Y-62952380D01*
X87652380Y-62809523D01*
X87652380Y-62714285D01*
X87652380Y-64047619D02*
X87652380Y-63571428D01*
X86652380Y-63571428D01*
X87557142Y-64952380D02*
X87604761Y-64904761D01*
X87652380Y-64761904D01*
X87652380Y-64666666D01*
X87604761Y-64523809D01*
X87509523Y-64428571D01*
X87414285Y-64380952D01*
X87223809Y-64333333D01*
X87080952Y-64333333D01*
X86890476Y-64380952D01*
X86795238Y-64428571D01*
X86700000Y-64523809D01*
X86652380Y-64666666D01*
X86652380Y-64761904D01*
X86700000Y-64904761D01*
X86747619Y-64952380D01*
X58000918Y-65262941D02*
X56968226Y-65474266D01*
X57667585Y-64685591D01*
X55992036Y-63783455D02*
X56277750Y-64278326D01*
X56134893Y-64030891D02*
X57000918Y-63530891D01*
X56924819Y-63684798D01*
X56889960Y-63814895D01*
X56896339Y-63921183D01*
X55860229Y-63364682D02*
X55795180Y-63347252D01*
X55777750Y-63412301D01*
X55842799Y-63429731D01*
X55860229Y-63364682D01*
X55777750Y-63412301D01*
X56453299Y-62582387D02*
X56143775Y-62046276D01*
X55980528Y-62525427D01*
X55909099Y-62401709D01*
X55820241Y-62343040D01*
X55755192Y-62325610D01*
X55648904Y-62331990D01*
X55442707Y-62451037D01*
X55384038Y-62539896D01*
X55366608Y-62604945D01*
X55372988Y-62711233D01*
X55515845Y-62958669D01*
X55604704Y-63017338D01*
X55669752Y-63034767D01*
X55145943Y-62127503D02*
X55080894Y-62110073D01*
X55063464Y-62175122D01*
X55128513Y-62192552D01*
X55145943Y-62127503D01*
X55063464Y-62175122D01*
X55453299Y-60850336D02*
X55691394Y-61262729D01*
X55302811Y-61542063D01*
X55320241Y-61477014D01*
X55313861Y-61370726D01*
X55194813Y-61164530D01*
X55105955Y-61105861D01*
X55040906Y-61088431D01*
X54934618Y-61094811D01*
X54728421Y-61213858D01*
X54669752Y-61302717D01*
X54652323Y-61367765D01*
X54658702Y-61474054D01*
X54777750Y-61680250D01*
X54866608Y-61738919D01*
X54931657Y-61756349D01*
X54431657Y-60890324D02*
X54366608Y-60872894D01*
X54349178Y-60937943D01*
X54414227Y-60955372D01*
X54431657Y-60890324D01*
X54349178Y-60937943D01*
X54534526Y-60116117D02*
X54623385Y-60174786D01*
X54688434Y-60192216D01*
X54794722Y-60185837D01*
X54835961Y-60162027D01*
X54894630Y-60073169D01*
X54912060Y-60008120D01*
X54905680Y-59901832D01*
X54810442Y-59736874D01*
X54721584Y-59678205D01*
X54656535Y-59660776D01*
X54550247Y-59667155D01*
X54509007Y-59690965D01*
X54450338Y-59779823D01*
X54432908Y-59844872D01*
X54439288Y-59951160D01*
X54534526Y-60116117D01*
X54540906Y-60222406D01*
X54523476Y-60287454D01*
X54464807Y-60376313D01*
X54299850Y-60471551D01*
X54193562Y-60477931D01*
X54128513Y-60460501D01*
X54039655Y-60401832D01*
X53944417Y-60236874D01*
X53938037Y-60130586D01*
X53955467Y-60065537D01*
X54014136Y-59976679D01*
X54179093Y-59881441D01*
X54285381Y-59875061D01*
X54350430Y-59892491D01*
X54439288Y-59951160D01*
D12*
%TO.C,BT3*%
X93180000Y-57514927D02*
X93180000Y-63014927D01*
X62080000Y-63014927D02*
X62080000Y-57514927D01*
X81580000Y-71114927D02*
X73680000Y-71114927D01*
X93180000Y-63014927D02*
X88380000Y-63014927D01*
X67080000Y-50764927D02*
X73780000Y-50764927D01*
X88380000Y-57514927D02*
X93180000Y-57514927D01*
X88180000Y-50764927D02*
X81480000Y-50764927D01*
X66880000Y-63014927D02*
X62080000Y-63014927D01*
X62080000Y-57514927D02*
X66880000Y-57514927D01*
X73680000Y-71114927D02*
X66880000Y-66314927D01*
X81476385Y-50763463D02*
G75*
G03*
X73780000Y-50764927I-3846385J-9501464D01*
G01*
%TO.C,G\u002A\u002A\u002A*%
G36*
X73312611Y-74552680D02*
G01*
X73292427Y-74719240D01*
X73263913Y-74886948D01*
X73225834Y-75066295D01*
X73176952Y-75267770D01*
X73157911Y-75341647D01*
X73099087Y-75551286D01*
X73036369Y-75743433D01*
X72964853Y-75931276D01*
X72879639Y-76127999D01*
X72775825Y-76346789D01*
X72601419Y-76674086D01*
X72347620Y-77072499D01*
X72062266Y-77444782D01*
X71747398Y-77789514D01*
X71405055Y-78105275D01*
X71037279Y-78390644D01*
X70646110Y-78644201D01*
X70233589Y-78864525D01*
X69801756Y-79050197D01*
X69352652Y-79199795D01*
X68888317Y-79311901D01*
X68410792Y-79385092D01*
X68347596Y-79390642D01*
X68211418Y-79397187D01*
X68048486Y-79400166D01*
X67868550Y-79399792D01*
X67681357Y-79396282D01*
X67496656Y-79389849D01*
X67324197Y-79380711D01*
X67173727Y-79369081D01*
X67054995Y-79355174D01*
X66912478Y-79330839D01*
X66717453Y-79290773D01*
X66511955Y-79242466D01*
X66309123Y-79189220D01*
X66122093Y-79134334D01*
X65964003Y-79081109D01*
X65913356Y-79061891D01*
X65737807Y-78988706D01*
X65544995Y-78900132D01*
X65346397Y-78801971D01*
X65153487Y-78700026D01*
X64977744Y-78600101D01*
X64830642Y-78507998D01*
X64804507Y-78490419D01*
X64408825Y-78198282D01*
X64044936Y-77878907D01*
X63713624Y-77533183D01*
X63415674Y-77161996D01*
X63151868Y-76766236D01*
X62922990Y-76346789D01*
X62887011Y-76272666D01*
X62789761Y-76062471D01*
X62709523Y-75870069D01*
X62641395Y-75682276D01*
X62580476Y-75485904D01*
X62521863Y-75267770D01*
X62506041Y-75204607D01*
X62462565Y-75020059D01*
X64024899Y-75020059D01*
X64030812Y-75063686D01*
X64046604Y-75101498D01*
X64075204Y-75134469D01*
X64119540Y-75163572D01*
X64182539Y-75189781D01*
X64267129Y-75214070D01*
X64376237Y-75237414D01*
X64512792Y-75260784D01*
X64679720Y-75285157D01*
X64879950Y-75311504D01*
X65116410Y-75340801D01*
X65392026Y-75374021D01*
X65424692Y-75378005D01*
X65533135Y-75392211D01*
X65626718Y-75405913D01*
X65696357Y-75417718D01*
X65732970Y-75426237D01*
X65749783Y-75434900D01*
X65765275Y-75454619D01*
X65775821Y-75491693D01*
X65783555Y-75554451D01*
X65790610Y-75651224D01*
X65797165Y-75755164D01*
X65813456Y-76026593D01*
X65826151Y-76261891D01*
X65835413Y-76465555D01*
X65841403Y-76642084D01*
X65844285Y-76795975D01*
X65844221Y-76931725D01*
X65841375Y-77053833D01*
X65838171Y-77145523D01*
X65835515Y-77243928D01*
X65835722Y-77312310D01*
X65839534Y-77357881D01*
X65847691Y-77387854D01*
X65860934Y-77409441D01*
X65880004Y-77429854D01*
X65880221Y-77430071D01*
X65931798Y-77465447D01*
X65985187Y-77480151D01*
X65986337Y-77480137D01*
X66033195Y-77466059D01*
X66084947Y-77433229D01*
X66126828Y-77393087D01*
X66144070Y-77357072D01*
X66144359Y-77355241D01*
X66166442Y-77336770D01*
X66212919Y-77318741D01*
X66262968Y-77295220D01*
X66313544Y-77233012D01*
X66314481Y-77231060D01*
X66335207Y-77195361D01*
X66362203Y-77174125D01*
X66407472Y-77161620D01*
X66483019Y-77152118D01*
X66551055Y-77142212D01*
X66622122Y-77125673D01*
X66667636Y-77107677D01*
X66712736Y-77084107D01*
X66761518Y-77080763D01*
X66802708Y-77113077D01*
X66843420Y-77184143D01*
X66875375Y-77240482D01*
X66929712Y-77294905D01*
X66987375Y-77311298D01*
X67045475Y-77291826D01*
X67101125Y-77238654D01*
X67151436Y-77153947D01*
X67193518Y-77039868D01*
X67224485Y-76898583D01*
X67227637Y-76876983D01*
X67234253Y-76806479D01*
X67236045Y-76725186D01*
X67232652Y-76627939D01*
X67223712Y-76509569D01*
X67208864Y-76364911D01*
X67187748Y-76188798D01*
X67160001Y-75976064D01*
X67153006Y-75923803D01*
X67137084Y-75802856D01*
X67126704Y-75716381D01*
X67121799Y-75658827D01*
X67122305Y-75624642D01*
X67128154Y-75608277D01*
X67139281Y-75604180D01*
X67155621Y-75606800D01*
X67157308Y-75607168D01*
X67282467Y-75633436D01*
X67419427Y-75660483D01*
X67561518Y-75687172D01*
X67702073Y-75712364D01*
X67834424Y-75734924D01*
X67951902Y-75753714D01*
X68047841Y-75767597D01*
X68115571Y-75775436D01*
X68148425Y-75776094D01*
X68186586Y-75755268D01*
X68221177Y-75708515D01*
X68222256Y-75705726D01*
X68246142Y-75669015D01*
X68278684Y-75668540D01*
X68293967Y-75674383D01*
X68379668Y-75695937D01*
X68443348Y-75687081D01*
X68492232Y-75647087D01*
X68495731Y-75642557D01*
X68525626Y-75595707D01*
X68537898Y-75561109D01*
X68527131Y-75507806D01*
X68484031Y-75443861D01*
X68418558Y-75403154D01*
X68382917Y-75390381D01*
X68343960Y-75366149D01*
X68338464Y-75332188D01*
X68361104Y-75276786D01*
X68361135Y-75276723D01*
X68382287Y-75227141D01*
X68381589Y-75191068D01*
X68358603Y-75145477D01*
X68355805Y-75140729D01*
X68334626Y-75098588D01*
X68337641Y-75070316D01*
X68366262Y-75035662D01*
X68370240Y-75031224D01*
X68402837Y-74966476D01*
X68407474Y-74892614D01*
X68382645Y-74828650D01*
X68374013Y-74820192D01*
X68320544Y-74792285D01*
X68226144Y-74760391D01*
X68091727Y-74724736D01*
X67918205Y-74685550D01*
X67706491Y-74643060D01*
X67457497Y-74597494D01*
X67364273Y-74580896D01*
X67232726Y-74556746D01*
X67119200Y-74535031D01*
X67029632Y-74516925D01*
X66969957Y-74503605D01*
X66946110Y-74496244D01*
X66942897Y-74490052D01*
X66930835Y-74450276D01*
X66913869Y-74382109D01*
X66893809Y-74294260D01*
X66872465Y-74195436D01*
X66851651Y-74094344D01*
X66833176Y-73999691D01*
X66818853Y-73920186D01*
X66810492Y-73864537D01*
X66809905Y-73841449D01*
X66824540Y-73841131D01*
X66876167Y-73845854D01*
X66959398Y-73855654D01*
X67068468Y-73869805D01*
X67197613Y-73887582D01*
X67341069Y-73908260D01*
X67467424Y-73926704D01*
X67612730Y-73946917D01*
X67724555Y-73960288D01*
X67807792Y-73966657D01*
X67867337Y-73965866D01*
X67908085Y-73957755D01*
X67934930Y-73942164D01*
X67952767Y-73918935D01*
X67966491Y-73887908D01*
X67975377Y-73833881D01*
X67955026Y-73763657D01*
X67903383Y-73704639D01*
X67826566Y-73666509D01*
X67774465Y-73647130D01*
X67729864Y-73614890D01*
X67719114Y-73580857D01*
X67745983Y-73550459D01*
X67783663Y-73523232D01*
X67829287Y-73481610D01*
X67876416Y-73448933D01*
X67932023Y-73433945D01*
X67989958Y-73425512D01*
X68051624Y-73390021D01*
X68086461Y-73335168D01*
X68089545Y-73270088D01*
X68055955Y-73203918D01*
X68026210Y-73182239D01*
X67955873Y-73152567D01*
X67847322Y-73119099D01*
X67699781Y-73081638D01*
X67512472Y-73039992D01*
X67284618Y-72993965D01*
X67015442Y-72943363D01*
X66520426Y-72853001D01*
X66491702Y-72788636D01*
X66472365Y-72745029D01*
X66440277Y-72672362D01*
X66400065Y-72581122D01*
X66356216Y-72481480D01*
X66283483Y-72320885D01*
X66216613Y-72186103D01*
X66157541Y-72084216D01*
X66103436Y-72011451D01*
X66051468Y-71964033D01*
X65998806Y-71938190D01*
X65942618Y-71930148D01*
X65913137Y-71922464D01*
X65875121Y-71889942D01*
X65860647Y-71874803D01*
X65824544Y-71852409D01*
X66849055Y-71852409D01*
X66851672Y-71889683D01*
X66859102Y-71915872D01*
X66871163Y-71937677D01*
X66914747Y-71978410D01*
X66974526Y-72004941D01*
X67035311Y-72023888D01*
X67089675Y-72050223D01*
X67096568Y-72054382D01*
X67138030Y-72068144D01*
X67200240Y-72071741D01*
X67293570Y-72065975D01*
X67355666Y-72060563D01*
X67411639Y-72058075D01*
X67442138Y-72063444D01*
X67456850Y-72078983D01*
X67465463Y-72107004D01*
X67488056Y-72152520D01*
X67531984Y-72196835D01*
X67566480Y-72213958D01*
X67652186Y-72235244D01*
X67751656Y-72242436D01*
X67847661Y-72234871D01*
X67922969Y-72211885D01*
X67932703Y-72206611D01*
X67968982Y-72181368D01*
X67997214Y-72148126D01*
X68018245Y-72101984D01*
X68032926Y-72038039D01*
X68042104Y-71951387D01*
X68046627Y-71837128D01*
X68047345Y-71690357D01*
X68045106Y-71506172D01*
X68044583Y-71475575D01*
X68044152Y-71454150D01*
X68728557Y-71454150D01*
X68728559Y-71454531D01*
X68744236Y-71502979D01*
X68789168Y-71576385D01*
X68861242Y-71671289D01*
X68876642Y-71690357D01*
X68895704Y-71713960D01*
X69066758Y-71933121D01*
X69241598Y-72168341D01*
X69415650Y-72412811D01*
X69584340Y-72659724D01*
X69743094Y-72902273D01*
X69887339Y-73133652D01*
X70012499Y-73347053D01*
X70114002Y-73535669D01*
X70142776Y-73594168D01*
X70155401Y-73628734D01*
X70150454Y-73642997D01*
X70129151Y-73645789D01*
X70098085Y-73633931D01*
X70068153Y-73587532D01*
X70060683Y-73570522D01*
X70024518Y-73514469D01*
X69976047Y-73458583D01*
X69960823Y-73443833D01*
X69916031Y-73408102D01*
X69873808Y-73395798D01*
X69814745Y-73399853D01*
X69813392Y-73400034D01*
X69754897Y-73404399D01*
X69722377Y-73394138D01*
X69700880Y-73364624D01*
X69660249Y-73300693D01*
X69596573Y-73242514D01*
X69528475Y-73222102D01*
X69465514Y-73229367D01*
X69405760Y-73263760D01*
X69374717Y-73327848D01*
X69367274Y-73355073D01*
X69343978Y-73384646D01*
X69296012Y-73391577D01*
X69295049Y-73391578D01*
X69219291Y-73399316D01*
X69143344Y-73418918D01*
X69081372Y-73445641D01*
X69047539Y-73474746D01*
X69044835Y-73482080D01*
X69037307Y-73528678D01*
X69032059Y-73601462D01*
X69030094Y-73688157D01*
X69031128Y-73750227D01*
X69037398Y-73831101D01*
X69051466Y-73912958D01*
X69075732Y-74008681D01*
X69112594Y-74131150D01*
X69140859Y-74223357D01*
X69239940Y-74581988D01*
X69326424Y-74951457D01*
X69394799Y-75308758D01*
X69395098Y-75310546D01*
X69413180Y-75423838D01*
X69433873Y-75561109D01*
X69434947Y-75568232D01*
X69459291Y-75735617D01*
X69485099Y-75917882D01*
X69511262Y-76106916D01*
X69536668Y-76294608D01*
X69560209Y-76472847D01*
X69580772Y-76633522D01*
X69597247Y-76768523D01*
X69608525Y-76869739D01*
X69622942Y-77011370D01*
X69721246Y-77036779D01*
X69737855Y-77041370D01*
X69812197Y-77075017D01*
X69862198Y-77128175D01*
X69870662Y-77140656D01*
X69916320Y-77183933D01*
X69978712Y-77199359D01*
X70047203Y-77196397D01*
X70104705Y-77167840D01*
X70135353Y-77109696D01*
X70155361Y-77070424D01*
X70199538Y-77056464D01*
X70235916Y-77053984D01*
X70283872Y-77043606D01*
X70304282Y-77040735D01*
X70317381Y-77063589D01*
X70317384Y-77064220D01*
X70336542Y-77110123D01*
X70386534Y-77142057D01*
X70457607Y-77157838D01*
X70540009Y-77155284D01*
X70623986Y-77132212D01*
X70642534Y-77123527D01*
X70676439Y-77099102D01*
X70701841Y-77063089D01*
X70719674Y-77010373D01*
X70730873Y-76935842D01*
X70736372Y-76834382D01*
X70737107Y-76700880D01*
X70734010Y-76530221D01*
X70733411Y-76508371D01*
X70720483Y-76270321D01*
X70695803Y-76001133D01*
X70660656Y-75709109D01*
X70616327Y-75402550D01*
X70564102Y-75089756D01*
X70505264Y-74779027D01*
X70441098Y-74478666D01*
X70372889Y-74196973D01*
X70363914Y-74161982D01*
X70339384Y-74062443D01*
X70320761Y-73980893D01*
X70309731Y-73924978D01*
X70307977Y-73902343D01*
X70318823Y-73910686D01*
X70344364Y-73953534D01*
X70382036Y-74028130D01*
X70430070Y-74130301D01*
X70486698Y-74255871D01*
X70550150Y-74400667D01*
X70618656Y-74560513D01*
X70690448Y-74731236D01*
X70763756Y-74908659D01*
X70836811Y-75088610D01*
X70907844Y-75266914D01*
X70975086Y-75439395D01*
X71036767Y-75601880D01*
X71091118Y-75750194D01*
X71120130Y-75824447D01*
X71160635Y-75899297D01*
X71203342Y-75938218D01*
X71252892Y-75944804D01*
X71313927Y-75922646D01*
X71345612Y-75902106D01*
X71381918Y-75852074D01*
X71392230Y-75779839D01*
X71378367Y-75678508D01*
X71376466Y-75669617D01*
X71365900Y-75610095D01*
X71368428Y-75568045D01*
X71388190Y-75526367D01*
X71429323Y-75467960D01*
X71460328Y-75421617D01*
X71491594Y-75362743D01*
X71503703Y-75321808D01*
X71504111Y-75312076D01*
X71518916Y-75284353D01*
X71563207Y-75276981D01*
X71611591Y-75272369D01*
X71665465Y-75244761D01*
X71698449Y-75187433D01*
X71715130Y-75094886D01*
X71722197Y-75030159D01*
X71733391Y-74989050D01*
X71754352Y-74968034D01*
X71791444Y-74955488D01*
X71855305Y-74919193D01*
X71893511Y-74849598D01*
X71906205Y-74746376D01*
X71906209Y-74742924D01*
X71909609Y-74690385D01*
X71924320Y-74667590D01*
X71957652Y-74662636D01*
X71995044Y-74656105D01*
X72041557Y-74630179D01*
X72048899Y-74621254D01*
X72071149Y-74576458D01*
X72088369Y-74519701D01*
X72096284Y-74467779D01*
X72090617Y-74437485D01*
X72089238Y-74434912D01*
X72092460Y-74404016D01*
X72109285Y-74354353D01*
X72116699Y-74335756D01*
X72126116Y-74299333D01*
X72123918Y-74260806D01*
X72108396Y-74207903D01*
X72077845Y-74128349D01*
X72002795Y-73947432D01*
X71857320Y-73626685D01*
X71693458Y-73296237D01*
X71517919Y-72968892D01*
X71337415Y-72657455D01*
X71158658Y-72374729D01*
X71137773Y-72343508D01*
X70992263Y-72134479D01*
X70834954Y-71921486D01*
X70671367Y-71711292D01*
X70507018Y-71510662D01*
X70347427Y-71326358D01*
X70198112Y-71165144D01*
X70064591Y-71033785D01*
X69990057Y-70966300D01*
X69923509Y-70910865D01*
X69870692Y-70875022D01*
X69823007Y-70853057D01*
X69771852Y-70839255D01*
X69746329Y-70834940D01*
X69709314Y-70838112D01*
X69673538Y-70861339D01*
X69625383Y-70911321D01*
X69575879Y-70960968D01*
X69528551Y-70989897D01*
X69477055Y-70997749D01*
X69465799Y-70998062D01*
X69418350Y-71008921D01*
X69367986Y-71040151D01*
X69303270Y-71098374D01*
X69251179Y-71151805D01*
X69210421Y-71198613D01*
X69191682Y-71226802D01*
X69188866Y-71233712D01*
X69168358Y-71244085D01*
X69123066Y-71231764D01*
X69097913Y-71223653D01*
X69051097Y-71223222D01*
X68996401Y-71248906D01*
X68994468Y-71250057D01*
X68930910Y-71281720D01*
X68871012Y-71302739D01*
X68799235Y-71335419D01*
X68747981Y-71389680D01*
X68728557Y-71454150D01*
X68044152Y-71454150D01*
X68041525Y-71323685D01*
X68037896Y-71206086D01*
X68033072Y-71115903D01*
X68026431Y-71046261D01*
X68017347Y-70990284D01*
X68005197Y-70941098D01*
X67989358Y-70891827D01*
X67962359Y-70820287D01*
X67935987Y-70761388D01*
X67916695Y-70729944D01*
X67907862Y-70723399D01*
X67864186Y-70699190D01*
X67796329Y-70666316D01*
X67714732Y-70629950D01*
X67640219Y-70598619D01*
X67579981Y-70576363D01*
X67539549Y-70567998D01*
X67508762Y-70571609D01*
X67477461Y-70585286D01*
X67458332Y-70594833D01*
X67402533Y-70613575D01*
X67361474Y-70603402D01*
X67320476Y-70562149D01*
X67286677Y-70531325D01*
X67215654Y-70500901D01*
X67133998Y-70492380D01*
X67053915Y-70504873D01*
X66987611Y-70537490D01*
X66947292Y-70589342D01*
X66939942Y-70628054D01*
X66933697Y-70699771D01*
X66929482Y-70793390D01*
X66927949Y-70898502D01*
X66927351Y-70945399D01*
X66922020Y-71073591D01*
X66912051Y-71222181D01*
X66898527Y-71376312D01*
X66882532Y-71521128D01*
X66871915Y-71607055D01*
X66864610Y-71669668D01*
X66858994Y-71717797D01*
X66851435Y-71797347D01*
X66849055Y-71852409D01*
X65824544Y-71852409D01*
X65810344Y-71843601D01*
X65742342Y-71813400D01*
X65672001Y-71790592D01*
X65614682Y-71781568D01*
X65578449Y-71793291D01*
X65533773Y-71824712D01*
X65524549Y-71832986D01*
X65485045Y-71855134D01*
X65446434Y-71845896D01*
X65387901Y-71825973D01*
X65325635Y-71838402D01*
X65264927Y-71891346D01*
X65245255Y-71916390D01*
X65219815Y-71968052D01*
X65220789Y-72021673D01*
X65221334Y-72024462D01*
X65221635Y-72077787D01*
X65193476Y-72112536D01*
X65165360Y-72139597D01*
X65146789Y-72185949D01*
X65146879Y-72251838D01*
X65165807Y-72343341D01*
X65203749Y-72466538D01*
X65226482Y-72534927D01*
X65251823Y-72613727D01*
X65269116Y-72670712D01*
X65275512Y-72696750D01*
X65258688Y-72702061D01*
X65207459Y-72704761D01*
X65130075Y-72704155D01*
X65034918Y-72700124D01*
X64965765Y-72696567D01*
X64851465Y-72693845D01*
X64770073Y-72698198D01*
X64715463Y-72710681D01*
X64681506Y-72732347D01*
X64662075Y-72764252D01*
X64638507Y-72798185D01*
X64578749Y-72826551D01*
X64572062Y-72828005D01*
X64499029Y-72860910D01*
X64447593Y-72914812D01*
X64428140Y-72979187D01*
X64435681Y-73029254D01*
X64462564Y-73101651D01*
X64501805Y-73172287D01*
X64545863Y-73228047D01*
X64587197Y-73255815D01*
X64626154Y-73274428D01*
X64637615Y-73308555D01*
X64608206Y-73349208D01*
X64585089Y-73382646D01*
X64575729Y-73442962D01*
X64589226Y-73504435D01*
X64624095Y-73548430D01*
X64631376Y-73552628D01*
X64686006Y-73572126D01*
X64775809Y-73591580D01*
X64902579Y-73611277D01*
X65068112Y-73631503D01*
X65274204Y-73652548D01*
X65537699Y-73677565D01*
X65564690Y-73783487D01*
X65571100Y-73809923D01*
X65588125Y-73889507D01*
X65605875Y-73982911D01*
X65622864Y-74080903D01*
X65637603Y-74174253D01*
X65648605Y-74253729D01*
X65654381Y-74310100D01*
X65653444Y-74334135D01*
X65633359Y-74335094D01*
X65577410Y-74331876D01*
X65492575Y-74324795D01*
X65385709Y-74314428D01*
X65263667Y-74301352D01*
X65185163Y-74292790D01*
X64994108Y-74273779D01*
X64815383Y-74258505D01*
X64653937Y-74247239D01*
X64514721Y-74240252D01*
X64402683Y-74237813D01*
X64322775Y-74240192D01*
X64279945Y-74247661D01*
X64238917Y-74282897D01*
X64219427Y-74340665D01*
X64225113Y-74406247D01*
X64254678Y-74466968D01*
X64306823Y-74510156D01*
X64337877Y-74529142D01*
X64362569Y-74561854D01*
X64353735Y-74588240D01*
X64310945Y-74599083D01*
X64279190Y-74600720D01*
X64183554Y-74630219D01*
X64108824Y-74694959D01*
X64056999Y-74792647D01*
X64030077Y-74920995D01*
X64025939Y-74969642D01*
X64024899Y-75020059D01*
X62462565Y-75020059D01*
X62461073Y-75013725D01*
X62426290Y-74841877D01*
X62400498Y-74678846D01*
X62382506Y-74514418D01*
X62371120Y-74338377D01*
X62365147Y-74140507D01*
X62363395Y-73910593D01*
X62363609Y-73815708D01*
X62366471Y-73607869D01*
X62373588Y-73427882D01*
X62386126Y-73265485D01*
X62405251Y-73110417D01*
X62432130Y-72952416D01*
X62467926Y-72781222D01*
X62513807Y-72586573D01*
X62553135Y-72433613D01*
X62624213Y-72194295D01*
X62706284Y-71964003D01*
X62804521Y-71728711D01*
X62924098Y-71474396D01*
X63034301Y-71261994D01*
X63281716Y-70853016D01*
X63390107Y-70704776D01*
X63587879Y-70704776D01*
X63604177Y-70768735D01*
X63644752Y-70855324D01*
X63709192Y-70970872D01*
X63716243Y-70983219D01*
X63768186Y-71079235D01*
X63831198Y-71202360D01*
X63900279Y-71342483D01*
X63970432Y-71489492D01*
X64036658Y-71633278D01*
X64232507Y-72067557D01*
X64308841Y-72074114D01*
X64318772Y-72074827D01*
X64383316Y-72066941D01*
X64436731Y-72029115D01*
X64490569Y-71987135D01*
X64553542Y-71954811D01*
X64596907Y-71942130D01*
X64615386Y-71949699D01*
X64618799Y-71983921D01*
X64629149Y-72028142D01*
X64661167Y-72078149D01*
X64664675Y-72081518D01*
X64721778Y-72112130D01*
X64787782Y-72116695D01*
X64850337Y-72098612D01*
X64897094Y-72061281D01*
X64915703Y-72008099D01*
X64916040Y-71997134D01*
X64934072Y-71937405D01*
X64982994Y-71902972D01*
X64991899Y-71899206D01*
X65043222Y-71852482D01*
X65076215Y-71773745D01*
X65087880Y-71669668D01*
X65087792Y-71656087D01*
X65071022Y-71464160D01*
X65027431Y-71253844D01*
X64960208Y-71035618D01*
X64872542Y-70819958D01*
X64767620Y-70617340D01*
X64755022Y-70595933D01*
X64709082Y-70523658D01*
X64668749Y-70475907D01*
X64623203Y-70441817D01*
X64561626Y-70410526D01*
X64509846Y-70389865D01*
X64429279Y-70366878D01*
X64364142Y-70358400D01*
X64317541Y-70362775D01*
X64241740Y-70383780D01*
X64179889Y-70416497D01*
X64146194Y-70454654D01*
X64138864Y-70464049D01*
X64098232Y-70485472D01*
X64036520Y-70503513D01*
X63968544Y-70514434D01*
X63909124Y-70514494D01*
X63872476Y-70518707D01*
X63809241Y-70536682D01*
X63735632Y-70564510D01*
X63688761Y-70585408D01*
X63629759Y-70619440D01*
X63596269Y-70657120D01*
X63587879Y-70704776D01*
X63390107Y-70704776D01*
X63562474Y-70469039D01*
X63874797Y-70111848D01*
X64216909Y-69783224D01*
X64587031Y-69484951D01*
X64983386Y-69218813D01*
X65404195Y-68986592D01*
X65771262Y-68819254D01*
X66202061Y-68661253D01*
X66638104Y-68543202D01*
X67083510Y-68464208D01*
X67542396Y-68423379D01*
X68018882Y-68419821D01*
X68092056Y-68422326D01*
X68375355Y-68438631D01*
X68634742Y-68466070D01*
X68884426Y-68506862D01*
X69138613Y-68563227D01*
X69411512Y-68637384D01*
X69769946Y-68756101D01*
X70200019Y-68937543D01*
X70610958Y-69154495D01*
X71000812Y-69404829D01*
X71367629Y-69686417D01*
X71709457Y-69997132D01*
X72024344Y-70334847D01*
X72310340Y-70697434D01*
X72565493Y-71082767D01*
X72787850Y-71488719D01*
X72975461Y-71913161D01*
X73126374Y-72353966D01*
X73238637Y-72809008D01*
X73241964Y-72825698D01*
X73272238Y-72985213D01*
X73295427Y-73127055D01*
X73312402Y-73261225D01*
X73324036Y-73397723D01*
X73331200Y-73546549D01*
X73334767Y-73717703D01*
X73335608Y-73921185D01*
X73335542Y-73954981D01*
X73332932Y-74181041D01*
X73328561Y-74299333D01*
X73325700Y-74376777D01*
X73312611Y-74552680D01*
G37*
%TD*%
M02*
