M48
; DRILL file {KiCad (6.0.5-0)} date Wednesday, 08 June 2022 at 15:29:48
; FORMAT={-:-/ absolute / inch / decimal}
; #@! TF.CreationDate,2022-06-08T15:29:48+08:00
; #@! TF.GenerationSoftware,Kicad,Pcbnew,(6.0.5-0)
; #@! TF.FileFunction,Plated,1,2,PTH
FMAT,2
INCH
; #@! TA.AperFunction,Plated,PTH,ViaDrill
T1C0.0157
; #@! TA.AperFunction,Plated,PTH,ComponentDrill
T2C0.0354
; #@! TA.AperFunction,Plated,PTH,ComponentDrill
T3C0.0394
%
G90
G05
T1
X2.4567Y-2.6417
X2.7402Y-2.5748
X2.7701Y-3.1752
X2.8193Y-1.8957
X3.4394Y-2.5453
T2
X2.32Y-2.7452
X2.379Y-2.8475
X3.8647Y-2.3656
X3.8647Y-2.4656
T3
X2.3689Y-2.1445
X2.4181Y-2.0592
X2.4673Y-1.974
X2.5165Y-1.8887
X2.9087Y-3.0805
X3.0071Y-3.0805
X3.1055Y-3.0805
X3.2039Y-3.0805
X3.5959Y-1.8905
X3.6451Y-1.9758
X3.6943Y-2.061
X3.7435Y-2.1463
T0
M30
