%TF.GenerationSoftware,KiCad,Pcbnew,(6.0.5-0)*%
%TF.CreationDate,2022-06-08T15:29:45+08:00*%
%TF.ProjectId,dtl,64746c2e-6b69-4636-9164-5f7063625858,rev?*%
%TF.SameCoordinates,Original*%
%TF.FileFunction,Soldermask,Top*%
%TF.FilePolarity,Negative*%
%FSLAX46Y46*%
G04 Gerber Fmt 4.6, Leading zero omitted, Abs format (unit mm)*
G04 Created by KiCad (PCBNEW (6.0.5-0)) date 2022-06-08 15:29:45*
%MOMM*%
%LPD*%
G01*
G04 APERTURE LIST*
G04 Aperture macros list*
%AMRoundRect*
0 Rectangle with rounded corners*
0 $1 Rounding radius*
0 $2 $3 $4 $5 $6 $7 $8 $9 X,Y pos of 4 corners*
0 Add a 4 corners polygon primitive as box body*
4,1,4,$2,$3,$4,$5,$6,$7,$8,$9,$2,$3,0*
0 Add four circle primitives for the rounded corners*
1,1,$1+$1,$2,$3*
1,1,$1+$1,$4,$5*
1,1,$1+$1,$6,$7*
1,1,$1+$1,$8,$9*
0 Add four rect primitives between the rounded corners*
20,1,$1+$1,$2,$3,$4,$5,0*
20,1,$1+$1,$4,$5,$6,$7,0*
20,1,$1+$1,$6,$7,$8,$9,0*
20,1,$1+$1,$8,$9,$2,$3,0*%
%AMHorizOval*
0 Thick line with rounded ends*
0 $1 width*
0 $2 $3 position (X,Y) of the first rounded end (center of the circle)*
0 $4 $5 position (X,Y) of the second rounded end (center of the circle)*
0 Add line between two ends*
20,1,$1,$2,$3,$4,$5,0*
0 Add two circle primitives to create the rounded ends*
1,1,$1,$2,$3*
1,1,$1,$4,$5*%
%AMRotRect*
0 Rectangle, with rotation*
0 The origin of the aperture is its center*
0 $1 length*
0 $2 width*
0 $3 Rotation angle, in degrees counterclockwise*
0 Add horizontal line*
21,1,$1,$2,0,0,$3*%
G04 Aperture macros list end*
%ADD10C,2.000000*%
%ADD11RoundRect,0.250000X-0.350000X-0.450000X0.350000X-0.450000X0.350000X0.450000X-0.350000X0.450000X0*%
%ADD12RotRect,1.700000X1.700000X330.000000*%
%ADD13HorizOval,1.700000X0.000000X0.000000X0.000000X0.000000X0*%
%ADD14RoundRect,0.250000X-0.450000X0.350000X-0.450000X-0.350000X0.450000X-0.350000X0.450000X0.350000X0*%
%ADD15RoundRect,0.250000X-0.591506X-0.524519X-0.158494X-0.774519X0.591506X0.524519X0.158494X0.774519X0*%
%ADD16R,2.800000X1.000000*%
%ADD17RotRect,0.800000X1.500000X300.000000*%
%ADD18RotRect,1.000000X1.000000X300.000000*%
%ADD19RotRect,1.100000X1.000000X300.000000*%
%ADD20C,1.000000*%
%ADD21RoundRect,0.150000X-0.163846X-0.583790X0.423654X0.433790X0.163846X0.583790X-0.423654X-0.433790X0*%
%ADD22RoundRect,0.250000X-0.214711X0.528109X-0.564711X-0.078109X0.214711X-0.528109X0.564711X0.078109X0*%
%ADD23RoundRect,0.250001X0.462499X1.074999X-0.462499X1.074999X-0.462499X-1.074999X0.462499X-1.074999X0*%
%ADD24RoundRect,0.250000X0.564711X-0.078109X0.214711X0.528109X-0.564711X0.078109X-0.214711X-0.528109X0*%
%ADD25R,1.700000X1.700000*%
%ADD26O,1.700000X1.700000*%
%ADD27RoundRect,0.250000X0.350000X0.450000X-0.350000X0.450000X-0.350000X-0.450000X0.350000X-0.450000X0*%
%ADD28RotRect,2.800000X1.000000X240.000000*%
%ADD29RotRect,1.700000X1.700000X30.000000*%
%ADD30HorizOval,1.700000X0.000000X0.000000X0.000000X0.000000X0*%
%ADD31R,1.800000X1.800000*%
%ADD32C,1.800000*%
%ADD33RoundRect,0.250001X0.136964X-1.162226X0.938035X-0.699727X-0.136964X1.162226X-0.938035X0.699727X0*%
%ADD34RotRect,2.800000X1.000000X225.000000*%
%ADD35RoundRect,0.150000X0.583790X-0.163846X-0.433790X0.423654X-0.583790X0.163846X0.433790X-0.423654X0*%
%ADD36RoundRect,0.250001X1.162226X0.136964X0.699727X0.938035X-1.162226X-0.136964X-0.699727X-0.938035X0*%
%ADD37RoundRect,0.250000X-0.707107X-0.353553X-0.353553X-0.707107X0.707107X0.353553X0.353553X0.707107X0*%
%ADD38RoundRect,0.250000X0.450000X-0.350000X0.450000X0.350000X-0.450000X0.350000X-0.450000X-0.350000X0*%
%ADD39C,2.200000*%
%ADD40RoundRect,0.250000X-0.750000X0.250000X-0.750000X-0.250000X0.750000X-0.250000X0.750000X0.250000X0*%
G04 APERTURE END LIST*
D10*
X90110000Y-82494927D02*
X65110000Y-82494927D01*
X65110000Y-82994927D02*
X52110000Y-59994927D01*
X52110000Y-59994927D02*
X65110000Y-37994927D01*
X103110000Y-59994927D02*
X90110000Y-82994927D01*
X90110000Y-37994927D02*
X103110000Y-59994927D01*
X65110000Y-38494927D02*
X90110000Y-38494927D01*
D11*
%TO.C,R3*%
X81391000Y-71943127D03*
X83391000Y-71943127D03*
%TD*%
D12*
%TO.C,J2*%
X63920000Y-47974031D03*
D13*
X62670000Y-50139095D03*
X61420000Y-52304158D03*
X60170000Y-54469222D03*
%TD*%
D14*
%TO.C,R17*%
X92630000Y-60374927D03*
X92630000Y-62374927D03*
%TD*%
D15*
%TO.C,SW5*%
X94835000Y-69863174D03*
X92360000Y-74150000D03*
X92731539Y-68706475D03*
X90281539Y-72950000D03*
%TD*%
D16*
%TO.C,SW16*%
X63100000Y-61900000D03*
X57300000Y-61900000D03*
X63100000Y-57900000D03*
X57300000Y-57900000D03*
%TD*%
D17*
%TO.C,SW1*%
X60457287Y-67978370D03*
X61957287Y-70576446D03*
X62707287Y-71875484D03*
D18*
X58606454Y-67372633D03*
X62306454Y-73781221D03*
D19*
X57047608Y-68272633D03*
D18*
X60747608Y-74681221D03*
D20*
X58927031Y-69727889D03*
X60427031Y-72325965D03*
%TD*%
D21*
%TO.C,Q3*%
X85308526Y-68136899D03*
X86953974Y-69086899D03*
X87068750Y-66988101D03*
%TD*%
D22*
%TO.C,R6*%
X65700000Y-52683975D03*
X64700000Y-54416025D03*
%TD*%
D23*
%TO.C,D7*%
X77187500Y-70300000D03*
X74212500Y-70300000D03*
%TD*%
D24*
%TO.C,R15*%
X88050000Y-51676977D03*
X87050000Y-49944927D03*
%TD*%
D25*
%TO.C,J4*%
X73880000Y-78244927D03*
D26*
X76380000Y-78244927D03*
X78880000Y-78244927D03*
X81380000Y-78244927D03*
%TD*%
D27*
%TO.C,R9*%
X76890000Y-43594927D03*
X74890000Y-43594927D03*
%TD*%
D28*
%TO.C,SW18*%
X95082051Y-69488526D03*
X92182051Y-74511474D03*
X91617949Y-67488526D03*
X88717949Y-72511474D03*
%TD*%
D29*
%TO.C,J8*%
X91335000Y-48019927D03*
D30*
X92585000Y-50184991D03*
X93835000Y-52350054D03*
X95085000Y-54515118D03*
%TD*%
D31*
%TO.C,D11*%
X98164400Y-62626327D03*
D32*
X98164400Y-60086327D03*
%TD*%
D33*
%TO.C,D4*%
X67963574Y-45082427D03*
X70540000Y-43594927D03*
%TD*%
D34*
%TO.C,SW17*%
X71664823Y-74663604D03*
X67563604Y-78764823D03*
X68836396Y-71835177D03*
X64735177Y-75936396D03*
%TD*%
D35*
%TO.C,Q6*%
X85196899Y-46441474D03*
X86146899Y-44796026D03*
X84048101Y-44681250D03*
%TD*%
D36*
%TO.C,D5*%
X67593750Y-68638213D03*
X66106250Y-66061787D03*
%TD*%
D37*
%TO.C,SW8*%
X71297235Y-74996878D03*
X67797056Y-78497056D03*
X69564823Y-73335177D03*
X66100000Y-76800000D03*
%TD*%
D38*
%TO.C,R11*%
X66450000Y-61200000D03*
X66450000Y-59200000D03*
%TD*%
D39*
%TO.C,H1*%
X66610000Y-41150000D03*
%TD*%
D40*
%TO.C,SW7*%
X62625000Y-61875000D03*
X57675000Y-61875000D03*
X62575000Y-59475000D03*
X57675000Y-59475000D03*
%TD*%
M02*
