<?xml version="1.0" encoding="UTF-8" standalone="no"?>
<!-- Generator: Adobe Illustrator 22.0.0, SVG Export Plug-In . SVG Version: 6.00 Build 0)  -->

<svg
   version="1.1"
   id="svg10638"
   x="0px"
   y="0px"
   viewBox="0 0 41.490002 41.490002"
   xml:space="preserve"
   sodipodi:docname="2021_logo.svg"
   width="41.490002"
   height="41.490002"
   inkscape:version="1.2 (dc2aeda, 2022-05-15)"
   inkscape:export-filename="2021_logo.png"
   inkscape:export-xdpi="1200"
   inkscape:export-ydpi="1200"
   xmlns:inkscape="http://www.inkscape.org/namespaces/inkscape"
   xmlns:sodipodi="http://sodipodi.sourceforge.net/DTD/sodipodi-0.dtd"
   xmlns="http://www.w3.org/2000/svg"
   xmlns:svg="http://www.w3.org/2000/svg"><defs
   id="defs54" /><sodipodi:namedview
   id="namedview52"
   pagecolor="#ffffff"
   bordercolor="#666666"
   borderopacity="1.0"
   inkscape:pageshadow="2"
   inkscape:pageopacity="0.0"
   inkscape:pagecheckerboard="0"
   showgrid="false"
   fit-margin-top="0"
   fit-margin-left="0"
   fit-margin-right="0"
   fit-margin-bottom="0"
   inkscape:zoom="3.5828571"
   inkscape:cx="5.4425837"
   inkscape:cy="38.098086"
   inkscape:window-width="1600"
   inkscape:window-height="847"
   inkscape:window-x="0"
   inkscape:window-y="25"
   inkscape:window-maximized="0"
   inkscape:current-layer="g49"
   inkscape:showpageshadow="2"
   inkscape:deskcolor="#d1d1d1" />
<style
   type="text/css"
   id="style2">
	.st0{fill:#FEC947;}
	.st1{fill:#7CFDA0;}
	.st2{fill:#8D55FA;}
</style>
<g
   id="g49"
   transform="translate(-1030.6872,77.761597)">
	
	
	
	
	
	
	
	
	
	
	
	
	
	
	
	
	
	
	
	
	
	
<path
   class="st0"
   d="m 1066.1022,-71.686597 c -3.915,-3.915 -9.12,-6.075 -14.67,-6.075 -5.55,0 -10.755,2.16 -14.67,6.075 -3.915,3.915 -6.075,9.120001 -6.075,14.670001 0,5.535 2.16,10.754999 6.075,14.67 3.915,3.915 9.12,6.075 14.67,6.075 5.55,0 10.755,-2.16 14.67,-6.075 3.915,-3.915001 6.075,-9.12 6.075,-14.67 0,-5.535 -2.175,-10.755001 -6.075,-14.670001 z m -15.375,3.945 c 0.075,-0.48 0.225,-0.93 0.45,-1.35 0.51,-0.18 0.975,-0.39 1.41,-0.615 0.21,0.165 0.45,0.24 0.72,0.24 l 0.21,-0.345 0.42,-0.135 c 0.345,-0.045 0.63,0.045 0.87,0.27 0.12,0.27 0.15,0.57 0.105,0.9 l -0.03,0.72 c 0.045,0.57 0.105,1.155 0.165,1.725 0.075,0.555 0.15,1.11 0.24,1.65 l -0.255,0.39 -0.42,0.135 -0.105,-0.03 c -0.18,0.225 -0.42,0.33 -0.69,0.27 l -0.315,-0.075 -0.375,0.03 -0.24,-0.105 c 0.045,0.225 -0.015,0.42 -0.165,0.585 -0.255,0.12 -0.525,0.18 -0.795,0.21 -0.39,0.03 -0.735,-0.075 -1.035,-0.27 -0.165,-0.375 -0.24,-0.765 -0.24,-1.2 v -1.455 l -0.03,-0.135 c 0.03,-0.48 0.06,-0.96 0.105,-1.41 z m -2.58,1.62 c -1.035,1.26 -2.025,2.58 -2.97,3.930001 -0.915,1.35 -1.755,2.76 -2.52,4.2 h 0.105 l 0.21,-0.075 c 0.135,-0.42 0.39,-0.72 0.765,-0.93 h 0.27 l 0.345,0.135 c 0.09,-0.255 0.225,-0.48 0.42,-0.69 0.135,-0.09 0.315,-0.135 0.525,-0.105 l 0.315,0.21 0.135,0.48 h 0.075 l 0.315,-0.03 c 0.255,0.03 0.495,0.105 0.72,0.24 0.135,0.165 0.195,0.345 0.165,0.555 l -0.135,0.42 c 0.12,0.18 0.165,0.375 0.135,0.585 -0.69,1.935 -1.185,3.9 -1.485,5.895 -0.3,1.98 -0.57,3.96 -0.795,5.97 -0.255,0.12 -0.525,0.18 -0.795,0.21 0,0.18 -0.075,0.345 -0.24,0.48 -0.135,0.09 -0.315,0.12 -0.525,0.105 l -0.315,-0.21 -0.135,-0.42 h -0.105 l -0.24,0.03 -0.21,-0.075 -0.135,0.315 c -0.135,0.12 -0.315,0.165 -0.525,0.165 -0.3,0 -0.57,-0.075 -0.825,-0.24 -0.18,-0.435 -0.24,-0.915 -0.165,-1.455001 l 0.03,-0.48 c -0.075,-0.224999 -0.09,-0.464999 -0.075,-0.719999 0.18,-1.59 0.405,-3.165 0.66,-4.755 0.255,-1.59 0.615,-3.15 1.065,-4.695 h -0.075 c -0.6,1.245 -1.155,2.505 -1.695,3.795 -0.525,1.29 -1.005,2.58 -1.455,3.855 -0.135,0.09 -0.3,0.12 -0.48,0.105 l -0.315,-0.165 c -0.135,-0.165 -0.18,-0.375 -0.135,-0.615 l 0.135,-0.66 c -0.18,-0.27 -0.375,-0.525 -0.585,-0.765 v -0.315 c -0.27,0.075 -0.51,-0.015 -0.69,-0.24 -0.09,-0.18 -0.12,-0.405 -0.105,-0.66 l 0.03,-0.135 -0.105,-0.165 c -0.18,0.015 -0.345,-0.03 -0.48,-0.18 -0.12,-0.18 -0.18,-0.39 -0.18,-0.615 l 0.03,-0.315 c -0.225,0.045 -0.42,-0.015 -0.585,-0.21 l -0.135,-0.45 0.075,-0.315 c -0.165,-0.165 -0.225,-0.36 -0.18,-0.615 0.87,-2.205 1.935,-4.32 3.18,-6.345 1.26,-2.025001 2.73,-3.885001 4.38,-5.595001 0.225,-0.21 0.465,-0.42 0.69,-0.615 0.255,-0.225 0.54,-0.345 0.87,-0.345 l 0.24,0.135 c 0.12,0.21 0.27,0.375 0.48,0.525 h 0.135 l 0.24,-0.03 0.375,0.24 c 0.165,0.165 0.315,0.345 0.48,0.555 v 0.135 h 0.105 l 0.375,-0.135 0.45,0.24 0.03,0.105 h 0.135 l 0.105,-0.03 0.42,0.21 c 0.15,0.18 0.195,0.36 0.18,0.57 z m 17.58,13.725001 -0.48,0.24 -0.03,0.075 c -0.96,0.165 -1.95,0.3 -2.97,0.42 -0.99,0.09 -1.98,0.225 -2.97,0.375 -0.045,0.645 -0.09,1.305 -0.135,1.965 -0.045,0.645 -0.075,1.29 -0.105,1.935 v 2.745 l 0.03,0.66 c -0.075,0.21 -0.21,0.345 -0.42,0.42 h -0.345 c -0.21,-0.075 -0.345,-0.21 -0.42,-0.42 v -0.135 c -0.225,0.015 -0.42,-0.03 -0.585,-0.18 -0.12,-0.12 -0.165,-0.27 -0.135,-0.45 h -0.075 l -0.375,0.03 -0.24,-0.105 -0.375,0.03 c -0.165,-0.09 -0.315,-0.195 -0.45,-0.315 l -0.24,0.075 -0.345,0.72 c -0.135,0.12 -0.315,0.165 -0.51,0.135 l -0.27,-0.135 c -0.21,-0.345 -0.36,-0.705 -0.45,-1.065 -0.09,-0.39 -0.12,-0.810001 -0.105,-1.245001 0.045,-0.659999 0.12,-1.334999 0.21,-1.994999 0.09,-0.66 0.18,-1.335 0.27,-1.995 h -0.105 c -0.6,0.12 -1.2,0.225 -1.83,0.345 -0.615,0.12 -1.23,0.24 -1.83,0.375 l -0.345,-0.165 -0.135,-0.315 h -0.18 c -0.165,0.09 -0.345,0.12 -0.555,0.105 -0.18,-0.075 -0.315,-0.195 -0.375,-0.375 l -0.03,-0.24 0.21,-0.42 0.615,-0.24 v -0.075 c -0.18,-0.165 -0.27,-0.36 -0.24,-0.585 l 0.24,-0.45 c -0.165,-0.045 -0.27,-0.15 -0.345,-0.315 l -0.03,-0.375 0.24,-0.345 c 0.855,-0.27 1.725,-0.48 2.625,-0.615 0.915,-0.165 1.83,-0.33 2.73,-0.48 l 0.51,-2.475 h -0.345 l -3.66,0.525 c -0.18,-0.075 -0.33,-0.195 -0.42,-0.375 l -0.03,-0.27 0.21,-0.42 c 0.21,-0.135 0.45,-0.21 0.72,-0.21 l 0.075,-0.315 -0.42,-0.21 -0.105,-0.27 h -0.105 l -0.42,0.03 -0.375,-0.345 -0.03,-0.345 0.21,-0.345 c 0.96,-0.3 1.935,-0.525 2.895,-0.69 0.96,-0.18 1.935,-0.36 2.895,-0.525 0.225,-0.6 0.465,-1.17 0.72,-1.725001 0.255,-0.57 0.57,-1.125 0.93,-1.65 l 0.48,-0.135 0.165,0.03 0.135,-0.24 c 0.315,-0.165 0.66,-0.27 1.005,-0.345 l 0.375,0.24 0.03,0.105 h 0.075 c 0.165,-0.135 0.36,-0.18 0.585,-0.135 l 0.375,0.345 0.03,0.375 -0.075,0.24 0.27,0.18 c 0.09,0.165 0.12,0.345 0.105,0.555 l -0.555,1.620001 h 0.27 l 1.725,-0.105 0.315,0.21 0.135,0.345 h 0.105 l 0.165,-0.03 0.42,0.24 c 0.09,0.165 0.12,0.345 0.105,0.555 -0.135,0.255 -0.27,0.525 -0.42,0.795 l -0.375,0.135 v 0.135 c 0.21,0.18 0.285,0.42 0.24,0.69 l -0.165,0.27 c -0.555,0.135 -1.125,0.225 -1.725,0.27 -0.6,0.045 -1.185,0.105 -1.755,0.165 -0.12,0.42 -0.21,0.825 -0.27,1.245 -0.075,0.42 -0.135,0.825 -0.21,1.245 h 0.075 c 0.825,-0.09 1.65,-0.18 2.475,-0.27 0.855,-0.09 1.695,-0.15 2.55,-0.165 0.18,0.075 0.315,0.195 0.375,0.375 l 0.03,0.315 -0.21,0.345 -0.345,0.135 -0.03,0.27 c 0.375,-0.075 0.675,0.015 0.93,0.24 0.21,0.3 0.315,0.63 0.345,1.005 0.075,0.285 0.015,0.54 -0.15,0.75 z m 0.48,-14.070001 c -0.36,0.825 -0.735,1.65 -1.11,2.475 -0.165,0.09 -0.345,0.135 -0.555,0.105 l -0.375,-0.345 v -0.105 c -0.18,0 -0.36,-0.045 -0.51,-0.135 0.015,0.225 -0.03,0.42 -0.18,0.585 -0.165,0.12 -0.36,0.165 -0.585,0.135 -0.21,-0.075 -0.345,-0.21 -0.42,-0.42 l -0.03,-0.375 c -0.18,0 -0.345,-0.075 -0.48,-0.24 -0.135,-0.27 -0.18,-0.6 -0.135,-0.96 0.09,-0.765 0.27,-1.5 0.51,-2.205 0.27,-0.735 0.63,-1.425 1.065,-2.07 0.345,-0.21 0.72,-0.36 1.11,-0.45 0.3,0.03 0.57,0.12 0.825,0.27 l 0.105,0.24 c 0.255,0.03 0.48,0.075 0.69,0.165 l 0.315,-0.075 c 0.315,0.135 0.645,0.27 0.96,0.42 0.12,0.165 0.165,0.345 0.135,0.555 -0.495,0.78 -0.945,1.575 -1.335,2.43 z"
   id="path242-3"
   style="fill:#000000;stroke-width:1" /></g>
</svg>
