<?xml version="1.0" encoding="UTF-8" standalone="no"?>
<!-- Created with Inkscape (http://www.inkscape.org/) -->

<svg
   width="3.732605mm"
   height="2.477478mm"
   viewBox="0 0 3.732605 2.477478"
   version="1.1"
   id="svg5"
   xml:space="preserve"
   inkscape:export-filename="or.svg"
   inkscape:export-xdpi="150"
   inkscape:export-ydpi="150"
   inkscape:version="1.2 (dc2aeda, 2022-05-15)"
   xmlns:inkscape="http://www.inkscape.org/namespaces/inkscape"
   xmlns:sodipodi="http://sodipodi.sourceforge.net/DTD/sodipodi-0.dtd"
   xmlns="http://www.w3.org/2000/svg"
   xmlns:svg="http://www.w3.org/2000/svg"><sodipodi:namedview
     id="namedview7"
     pagecolor="#ffffff"
     bordercolor="#666666"
     borderopacity="1.0"
     inkscape:showpageshadow="2"
     inkscape:pageopacity="0.0"
     inkscape:pagecheckerboard="0"
     inkscape:deskcolor="#d1d1d1"
     inkscape:document-units="mm"
     showgrid="false"
     inkscape:zoom="3.3638608"
     inkscape:cx="485.60273"
     inkscape:cy="562.15168"
     inkscape:window-width="1411"
     inkscape:window-height="480"
     inkscape:window-x="0"
     inkscape:window-y="25"
     inkscape:window-maximized="0"
     inkscape:current-layer="layer1" /><defs
     id="defs2" /><g
     inkscape:label="Layer 1"
     inkscape:groupmode="layer"
     id="layer1"
     transform="translate(-133.12499,-149.14233)"><path
       style="fill:#000000;stroke-width:0.0109141"
       d="m 135.4087,151.34627 c -0.13435,-0.0164 -0.30711,-0.0782 -0.39661,-0.14193 l -0.0335,-0.0239 -0.0946,0.0448 c -0.227,0.10741 -0.47976,0.12271 -0.72633,0.044 -0.0876,-0.028 -0.22905,-0.1048 -0.28068,-0.15246 -0.0234,-0.0216 -0.0426,-0.0364 -0.0427,-0.0328 -3.3e-4,0.0153 -0.12619,-0.13095 -0.17375,-0.20198 -0.19522,-0.29156 -0.21015,-0.68509 -0.0377,-0.99464 0.0964,-0.17308 0.25211,-0.31896 0.43336,-0.40602 0.28229,-0.13558 0.63381,-0.12048 0.89794,0.0386 l 0.0637,0.0384 0.0822,-0.0384 c 0.33739,-0.15777 0.7023,-0.12595 0.99355,0.0866 0.61767,0.45085 0.49473,1.39415 -0.21928,1.68256 -0.12803,0.0517 -0.31867,0.0752 -0.46563,0.0572 z m 0.39023,-0.0592 c 0.17566,-0.0568 0.31157,-0.14484 0.43209,-0.27975 0.1683,-0.18841 0.24244,-0.40227 0.23024,-0.66414 -0.008,-0.1675 -0.025,-0.23488 -0.0977,-0.38234 -0.0505,-0.10254 -0.0685,-0.12672 -0.17141,-0.22995 -0.13094,-0.1314 -0.21628,-0.18486 -0.38311,-0.23997 -0.13568,-0.0448 -0.31768,-0.0557 -0.45774,-0.0273 -0.0982,0.0199 -0.24361,0.0715 -0.2788,0.099 -0.0204,0.0159 -0.0192,0.0185 0.0342,0.0682 0.15069,0.14053 0.24863,0.29975 0.2955,0.48034 0.0755,0.29088 0.004,0.62662 -0.18166,0.84828 -0.0449,0.0538 -0.15616,0.15879 -0.18845,0.17796 -0.0166,0.01 -0.0285,0.0226 -0.0266,0.0284 0.006,0.0182 0.12987,0.0815 0.2157,0.11026 0.1279,0.0428 0.16805,0.0482 0.33216,0.0445 0.13101,-0.003 0.16603,-0.008 0.24557,-0.0335 z m -1.07503,-0.027 c 0.042,-0.0132 0.10962,-0.0391 0.15022,-0.0576 l 0.0738,-0.0336 -0.0858,-0.0829 c -0.19993,-0.19325 -0.29903,-0.42509 -0.29903,-0.69954 0,-0.16063 0.0287,-0.28556 0.0975,-0.42483 0.0668,-0.13527 0.18855,-0.27868 0.30997,-0.36525 0.0259,-0.0185 0.0259,-0.0188 0.004,-0.0353 -0.0664,-0.0508 -0.22765,-0.11304 -0.34853,-0.13445 -0.083,-0.0147 -0.23494,-0.0147 -0.31795,0 -0.31419,0.0556 -0.58508,0.27236 -0.70966,0.56774 -0.10043,0.23812 -0.0903,0.54894 0.0253,0.77959 0.0818,0.16311 0.23627,0.32193 0.39685,0.40802 0.15995,0.0857 0.27262,0.11058 0.4792,0.10564 0.11402,-0.003 0.16462,-0.009 0.22374,-0.0275 z"
       id="path544"
       inkscape:export-filename="and.svg"
       inkscape:export-xdpi="150"
       inkscape:export-ydpi="150" /><path
       style="fill:#000000;stroke-width:0.0109141"
       d="m 133.12498,150.38108 v -1.23875 h 1.8663 1.8663 v 1.23875 1.23874 h -1.8663 -1.8663 z m 3.69986,0 v -1.20601 h -1.83356 -1.83356 v 1.20601 1.206 h 1.83356 1.83356 z"
       id="path542" /></g></svg>
