<?xml version="1.0" encoding="UTF-8" standalone="no"?>
<svg
   xmlns:dc="http://purl.org/dc/elements/1.1/"
   xmlns:cc="http://creativecommons.org/ns#"
   xmlns:rdf="http://www.w3.org/1999/02/22-rdf-syntax-ns#"
   xmlns:svg="http://www.w3.org/2000/svg"
   xmlns="http://www.w3.org/2000/svg"
   xmlns:sodipodi="http://sodipodi.sourceforge.net/DTD/sodipodi-0.dtd"
   xmlns:inkscape="http://www.inkscape.org/namespaces/inkscape"
   width="210mm"
   height="297mm"
   viewBox="0 0 210 297"
   version="1.1"
   id="svg8"
   inkscape:version="1.0.2 (e86c8708, 2021-01-15)"
   sodipodi:docname="border.svg">
  <defs
     id="defs2">
    <marker
       id="DistanceX"
       orient="auto"
       refX="0.0"
       refY="0.0"
       style="overflow:visible">
      <path
         d="M 3,-3 L -3,3 M 0,-5 L  0,5"
         style="stroke:#000000; stroke-width:0.5"
         id="path883" />
    </marker>
    <pattern
       id="Hatch"
       patternUnits="userSpaceOnUse"
       width="8"
       height="8"
       x="0"
       y="0">
      <path
         d="M8 4 l-4,4"
         stroke="#000000"
         stroke-width="0.25"
         linecap="square"
         id="path886" />
      <path
         d="M6 2 l-4,4"
         stroke="#000000"
         stroke-width="0.25"
         linecap="square"
         id="path888" />
      <path
         d="M4 0 l-4,4"
         stroke="#000000"
         stroke-width="0.25"
         linecap="square"
         id="path890" />
    </pattern>
    <symbol
       id="*Model_Space" />
    <symbol
       id="*Paper_Space" />
    <symbol
       id="*Paper_Space0" />
  </defs>
  <sodipodi:namedview
     id="base"
     pagecolor="#ffffff"
     bordercolor="#666666"
     borderopacity="1.0"
     inkscape:pageopacity="0.0"
     inkscape:pageshadow="2"
     inkscape:zoom="1.8992044"
     inkscape:cx="558.59584"
     inkscape:cy="524.0573"
     inkscape:document-units="mm"
     inkscape:current-layer="layer1"
     inkscape:document-rotation="0"
     showgrid="false"
     inkscape:window-width="1600"
     inkscape:window-height="847"
     inkscape:window-x="150"
     inkscape:window-y="78"
     inkscape:window-maximized="1"
     inkscape:snap-global="false" />
  <metadata
     id="metadata5">
    <rdf:RDF>
      <cc:Work
         rdf:about="">
        <dc:format>image/svg+xml</dc:format>
        <dc:type
           rdf:resource="http://purl.org/dc/dcmitype/StillImage" />
        <dc:title></dc:title>
      </cc:Work>
    </rdf:RDF>
  </metadata>
  <g
     inkscape:label="Layer 1"
     inkscape:groupmode="layer"
     id="layer1">
    <g
       id="layer1-9"
       inkscape:label="Layer 1"
       transform="matrix(0.26458333,0,0,0.26458333,-223.99879,154.28062)">
      <g
         id="g4513"
         style="stroke:#000000;stroke-width:3.32616;stroke-miterlimit:4;stroke-dasharray:none"
         inkscape:label="Jigsaw:X6:Y8"
         transform="matrix(1.50815,0,0,1.5020486,25.798088,-483.35174)">
        <g
           id="g4515"
           style="stroke:#000000;stroke-width:3.32616;stroke-miterlimit:4;stroke-dasharray:none"
           inkscape:label="X_Gridlines" />
        <g
           id="g4522"
           style="stroke:#000000;stroke-width:3.32616;stroke-miterlimit:4;stroke-dasharray:none"
           inkscape:label="Y_Gridlines" />
        <path
           id="path4531"
           style="fill:none;stroke:#000000;stroke-width:3.32616;stroke-miterlimit:4;stroke-dasharray:none"
           inkscape:connector-curvature="0"
           inkscape:label="innerborder"
           d="m 0,374.2331 c 0,-15 15,-30 30,-30 h 399.16772 c 15,0 30,15 30,30 V 970 c 0,15 -15,30 -30,30 H 30 C 15,1000 0,985 0,970 V 374.2331"
           sodipodi:nodetypes="csssssssc" />
      </g>
      <path
         inkscape:connector-curvature="0"
         style="fill:none;stroke:#000000;stroke-width:5.00359;stroke-miterlimit:4;stroke-dasharray:none"
         d="m 25.796793,231.12597 c 0,0 23.527175,17.16123 52.061812,6.7916 28.534655,-10.36933 -3.348855,-9.94892 0.237507,-35.80173 3.586371,-25.85187 56.285968,-26.57163 59.585628,-2.3856 3.29923,24.18618 -13.38666,24.54836 8.02933,35.49915 21.416,10.95079 77.6669,-23.6819 105.50296,-11.23427 27.83755,12.44808 -3.12739,10.04016 0.46442,35.72379 3.59173,25.68378 59.81454,21.37437 60.20842,-0.60106 0.39384,-21.97494 -16.55629,-19.77132 4.8878,-30.85659 21.44334,-11.08558 85.03015,26.3363 113.5039,15.39467 28.47364,-10.94071 0.12276,-10.71759 2.08588,-39.45708 1.96321,-28.73857 52.48839,-28.84708 53.07698,-6.84356 0.58907,22.00245 -21.63802,32.32669 1.94727,46.00372 23.58519,13.67673 88.58993,-35.95148 116.9596,-24.58045 28.36966,11.37044 -7.84851,12.92121 -4.29042,39.07351 3.55816,26.15141 64.84724,22.24237 65.58894,0.20988 0.74139,-22.03302 -20.24376,-21.31311 1.67791,-33.56604 10.961,-6.12654 30.55385,1.27471 50.96845,8.85711"
         id="YDiv4"
         sodipodi:nodetypes="csscssssccscscscsc" />
      <path
         id="YDiv5"
         style="fill:none;stroke:#000000;stroke-width:5.00352;stroke-miterlimit:4;stroke-dasharray:none"
         inkscape:connector-curvature="0"
         d="m 25.796755,425.51454 c 0,0 23.473717,-17.71236 51.808704,-6.77005 28.334991,10.94291 -0.109647,9.40365 0.05509,38.77562 0.164739,29.37196 65.416421,21.49168 68.711491,-2.7551 3.29507,-24.24585 -30.52381,-26.21354 -9.27517,-36.63653 21.2494,-10.42407 86.26947,-13.99806 112.97172,-0.58302 26.70223,13.41501 -0.0466,8.20833 0.13724,37.57906 0.18393,29.37167 59.37939,30.35092 62.7499,5.90387 3.36991,-24.4463 -23.00343,-35.1646 -1.29443,-47.25539 21.70934,-12.0914 88.78366,-4.37576 115.59533,8.96711 26.8102,13.34287 -5.05678,5.17768 -4.56608,34.5189 0.49064,29.34105 65.25817,16.91517 66.4783,-5.28739 1.22049,-22.20318 -19.44805,-24.78598 2.03014,-36.37031 21.47862,-11.58418 84.46367,-6.95412 111.60071,6.13323 27.13705,13.08733 -9.51874,7.75634 -7.33494,36.36265 2.18395,28.60508 63.49823,25.86468 66.18991,2.6209 2.69063,-23.24517 -24.03116,-24.68937 0.1442,-38.59812 12.08736,-6.9542 34.09138,-11.08622 56.49435,-11.87153"
         sodipodi:nodetypes="ccsscsscccsccsscsc" />
      <path
         id="YDiv6"
         style="fill:none;stroke:#000000;stroke-width:5.00366;stroke-miterlimit:4;stroke-dasharray:none"
         inkscape:connector-curvature="0"
         d="m 25.796827,626.35038 c 0,0 36.659012,20.52232 61.758324,6.56341 25.099309,-13.95921 -1.490866,-11.40698 -1.195463,-40.74953 0.295387,-29.34314 57.776082,-23.35862 61.387732,2.28373 3.61107,25.64295 -29.75695,31.18559 -7.73525,43.41764 22.02171,12.23205 84.11863,-29.66577 112.52926,-17.97957 28.41062,11.68572 8.76375,6.2836 9.20009,35.61207 0.43637,29.32785 55.76929,18.9979 56.8317,-3.13064 1.06241,-22.12929 -28.90373,-19.48565 -5.90926,-32.76813 22.99537,-13.28277 95.11501,-12.86719 123.65114,-1.54138 28.53614,11.3258 -10.90641,10.38852 -9.57858,39.48503 1.32776,29.09698 66.92999,24.09407 69.63462,0.88113 2.70493,-23.21183 -24.91252,-32.06631 -2.86228,-44.34576 22.051,-12.2796 88.46996,30.03427 117.13761,19.36639 28.66763,-10.66711 -3.89916,-9.04805 -0.43644,-35.75733 3.46272,-26.70927 51.43588,-28.60158 53.13487,-6.2021 1.69839,22.39993 -23.55133,32.5573 -1.90175,43.98337 10.82452,5.7129 33.57034,-0.81862 56.85,-7.04616"
         sodipodi:nodetypes="csscscssssscscscsc" />
      <path
         id="YDiv7"
         style="fill:none;stroke:#000000;stroke-width:5.00362;stroke-miterlimit:4;stroke-dasharray:none"
         inkscape:connector-curvature="0"
         d="m 25.796802,822.40232 c 0,0 32.83455,21.07313 61.232925,9.67406 28.398353,-11.39891 -2.794457,-7.01576 -1.9029,-36.26018 0.891642,-29.24547 49.146153,-28.62306 52.704313,-3.49801 3.55789,25.12567 -18.78045,29.48558 3.95567,42.64482 22.73595,13.15862 92.47514,-32.03791 118.90469,-18.39236 26.42955,13.64525 -5.45006,14.95871 -1.85707,40.78371 3.59299,25.825 60.1823,14.30359 60.68529,-7.70163 0.50251,-22.00445 -22.63923,-18.3633 0.17892,-31.58677 22.81815,-13.22348 83.92424,-18.31437 112.47738,-7.68237 28.55313,10.63123 1.73042,10.96798 1.83191,40.32646 0.10149,29.35849 58.44263,21.44782 59.47541,-0.67622 1.03316,-22.12526 -30.50857,-24.21576 -8.19748,-36.96363 22.31034,-12.74863 86.39606,-13.61664 114.43132,-1.41012 28.03527,12.20651 0.0363,8.17371 1.39863,37.25877 1.36228,29.08492 63.27168,25.92394 66.50096,1.88558 3.22989,-24.03837 -27.03663,-21.11884 -5.65809,-31.40938 10.68939,-5.14533 33.13702,-0.33162 56.33449,4.14154"
         sodipodi:nodetypes="cssccsscscsccsscsc" />
      <path
         id="XDiv5"
         style="fill:none;stroke:#000000;stroke-width:5.00293;stroke-miterlimit:4;stroke-dasharray:none"
         inkscape:connector-curvature="0"
         d="m 204.9865,33.701481 c 1.07726,25.610235 -0.76533,52.034461 -6.04517,67.069439 -10.55893,30.06997 -10.13093,6.36952 -37.46188,9.72797 -27.33097,3.35844 -27.33372,52.16607 -4.70649,54.37224 22.6277,2.2071 30.75253,-13.83648 42.39849,8.95409 11.64579,22.79024 8.33707,98.29967 -5.44018,125.70907 -13.77726,27.40941 -9.55329,2.45624 -38.26354,4.53361 -28.711,2.07721 -13.3039,62.67983 8.64812,63.03864 21.95279,0.3578 26.2618,-28.46077 37.77644,-5.72191 11.51449,22.73853 4.93568,109.58747 -8.04543,138.43056 -12.98111,28.84311 -2.89401,0.91342 -31.97714,2.23594 -29.08357,1.32244 -31.65799,57.65799 -6.12454,61.44356 25.53345,3.78543 27.32302,-22.04284 40.17526,1.56782 12.85131,23.60972 -22.07646,100.89757 -8.18546,127.80871 13.89147,26.90962 -0.66876,0.39223 28.62856,0.77112 29.29735,0.37889 24.55927,57.36184 0.38006,60.84499 -24.17907,3.48336 -24.40047,-21.95815 -38.33683,4.16342 -13.93652,26.12301 -1.60497,98.67882 9.02267,128.74098 10.62765,30.06217 11.08084,-1.63503 38.75673,1.51291 27.67728,3.14794 13.93117,59.01482 -8.03596,59.50846 -21.96653,0.49414 -20.18459,-24.35713 -33.14524,-0.63145 -12.9637,23.73818 5.51225,70.91685 5.51225,70.91685"
         sodipodi:nodetypes="ccscssscssssccsscssccc" />
      <path
         style="fill:none;stroke:#000000;stroke-width:5.00291;stroke-miterlimit:4;stroke-dasharray:none"
         d="m 384.35172,33.701477 c 2.09674,25.696496 1.17426,52.182554 -5.25323,66.688753 -12.85425,29.01241 -8.66974,-0.0216 -37.95869,0.35719 -29.28836,0.37889 -24.77916,67.8525 -0.56219,71.3606 24.21742,3.50747 30.32177,-25.7114 40.62542,-3.17172 10.30352,22.53904 7.26859,108.18775 -5.99275,136.70438 -13.26135,28.51662 -3.35747,-4.37962 -32.53668,-3.39121 -29.17996,0.98851 -32.34738,60.47387 -9.4241,63.06416 22.92296,2.58996 33.19762,-22.30371 46.65955,2.16635 13.46193,24.47009 13.05145,98.43539 -0.8701,125.10069 -13.92156,26.66534 -11.60772,-3.49005 -39.54011,-0.53749 -27.93239,2.95256 -25.94691,69.43869 -1.43739,73.05502 24.5095,3.61634 20.37682,-27.59885 34.12877,-2.45311 13.75134,25.14501 13.00444,104.48039 1.00122,134.14539 -12.00321,29.66509 -10.63353,-9.05947 -39.1997,-6.78161 -28.56617,2.27795 -23.45113,63.37951 -0.88871,65.50386 22.56243,2.12425 35.00497,-25.85111 46.71146,-3.00233 11.70664,22.84817 10.35388,104.231 -3.46356,131.51444 -13.81759,27.28344 -4.57161,7.03152 -33.87691,7.11582 -29.30529,0.0842 -25.17452,53.93625 -2.01448,56.76495 23.1611,2.82809 28.34194,-18.56341 40.85287,4.77277 12.51705,23.2984 -12.59336,66.02012 -12.59336,66.02012"
         id="XDiv4"
         inkscape:connector-curvature="0"
         sodipodi:nodetypes="ccscssscsssssssscssccc" />
      <path
         id="XDiv3"
         style="fill:none;stroke:#000000;stroke-width:5.00296;stroke-miterlimit:4;stroke-dasharray:none"
         inkscape:connector-curvature="0"
         d="m 549.00407,33.701489 c -7.92948,24.624365 -15.85098,49.629193 -9.02007,63.551611 13.66177,27.84471 6.29745,1.926278 32.67508,5.6473 26.37855,3.72104 22.66537,61.52229 0.0582,63.71344 -22.60736,2.1899 -21.55386,-18.74516 -32.63997,3.95022 -11.08657,22.69647 25.43804,103.57265 13.30516,133.24058 -12.13318,29.66635 -5.41205,-10.13878 -32.75601,-6.7756 -27.34394,3.36318 -31.43379,64.79249 -9.49823,64.90259 21.93556,0.11043 32.96365,-27.37922 43.31689,-4.78152 10.35279,22.59895 10.99725,115.24415 -2.86061,142.43621 -13.85787,27.19206 -10.22332,-2.85339 -37.4326,0.57909 -27.20914,3.43239 -28.40767,55.50092 -2.99498,59.29494 25.41209,3.79512 34.33625,-26.89004 48.19503,-1.28318 13.85832,25.60807 -36.07832,108.32143 -23.5387,137.69993 12.53993,29.3785 17.25438,-6.54027 46.39034,-5.37415 29.13591,1.16602 17.79181,57.09274 -7.59523,60.88674 -25.38765,3.79359 -19.00562,-24.97724 -32.65523,-0.0567 -13.64853,24.91908 -10.41339,107.5397 2.05095,136.978 12.46435,29.43831 8.02701,1.75423 35.35309,5.12637 27.32608,3.37215 20.9981,61.78964 -1.43517,63.70085 -22.4333,1.91079 -32.44454,-24.73039 -42.84054,-2.12965 -10.39751,22.57222 11.71058,63.68994 11.71058,63.68994"
         sodipodi:nodetypes="csscscsccssccssccssccc" />
    </g>
    <circle
       style="fill:#c0c0c0;stroke:#000000;stroke-width:2"
       id="path861"
       cx="-114.66444"
       cy="105.60161"
       r="13.39722" />
    <rect
       style="fill:#c0c0c0;stroke:#000000;stroke-width:2"
       id="rect863"
       width="56.741165"
       height="59.893452"
       x="-105.60161"
       y="75.654884"
       ry="0" />
    <g
       inkscape:label="0"
       id="g926"
       transform="matrix(0.26458333,0,0,0.26458333,109.91315,-215.64136)"
       inkscape:export-xdpi="1200"
       inkscape:export-ydpi="1200"
       inkscape:export-filename="./g926.png">
      <path
         d="m -75.590551,1058.2677 v 39.099"
         style="fill:none;stroke:#000000;stroke-width:0.9;stroke-linecap:round"
         id="path898" />
      <path
         d="m -75.590551,1097.3667 a 27.590551,27.590551 0 1 0 0,50.306"
         style="fill:none;stroke:#000000;stroke-width:0.9;stroke-linecap:round"
         id="path900" />
      <path
         d="m -75.590551,1147.6727 v 39.099"
         style="fill:none;stroke:#000000;stroke-width:0.9;stroke-linecap:round"
         id="path902" />
      <path
         d="m -75.590551,1186.7717 a 11.338583,11.338583 0 0 0 11.338582,11.3385"
         style="fill:none;stroke:#000000;stroke-width:0.9;stroke-linecap:round"
         id="path904" />
      <path
         d="M -64.251969,1198.1102 H 64.251969"
         style="fill:none;stroke:#000000;stroke-width:0.9;stroke-linecap:round"
         id="path906" />
      <path
         d="m 64.251969,1198.1102 a 11.338583,11.338583 0 0 0 11.338582,-11.3385"
         style="fill:none;stroke:#000000;stroke-width:0.9;stroke-linecap:round"
         id="path908" />
      <path
         d="m 75.590551,1186.7717 v -35.5301"
         style="fill:none;stroke:#000000;stroke-width:0.9;stroke-linecap:round"
         id="path910" />
      <path
         d="m 75.590551,1151.2416 a 1.889764,1.889764 0 0 0 -2.480315,-1.7951"
         style="fill:none;stroke:#000000;stroke-width:0.9;stroke-linecap:round"
         id="path912" />
      <path
         d="m 73.110236,1095.5929 a 28.346457,28.346457 0 1 0 0,53.8536"
         style="fill:none;stroke:#000000;stroke-width:0.9;stroke-linecap:round"
         id="path914" />
      <path
         d="m 73.110236,1095.5929 a 1.889764,1.889764 0 0 0 2.480315,-1.7951"
         style="fill:none;stroke:#000000;stroke-width:0.9;stroke-linecap:round"
         id="path916" />
      <path
         d="m 75.590551,1093.7978 v -35.5301"
         style="fill:none;stroke:#000000;stroke-width:0.9;stroke-linecap:round"
         id="path918" />
      <path
         d="M 75.590551,1058.2677 A 11.338583,11.338583 0 0 0 64.251969,1046.9291"
         style="fill:none;stroke:#000000;stroke-width:0.9;stroke-linecap:round"
         id="path920" />
      <path
         d="M 64.251969,1046.9291 H -64.251969"
         style="fill:none;stroke:#000000;stroke-width:0.9;stroke-linecap:round"
         id="path922" />
      <path
         d="m -64.251969,1046.9291 a 11.338583,11.338583 0 0 0 -11.338582,11.3386"
         style="fill:none;stroke:#000000;stroke-width:0.9;stroke-linecap:round"
         id="path924" />
    </g>
    <path
       style="font-variation-settings:normal;opacity:1;vector-effect:none;fill:none;fill-opacity:1;stroke:#000000;stroke-width:0.1;stroke-linecap:butt;stroke-linejoin:miter;stroke-miterlimit:4;stroke-dasharray:none;stroke-dashoffset:0;stroke-opacity:1;stop-color:#000000;stop-opacity:1"
       d="m 120.64482,126.77457 0.55724,23.26523 29.39499,-0.83588 5.71182,-4.31869 0.41794,-6.82633 -0.97519,-5.29388 -4.04007,-4.73663 -4.87595,-2.229 z"
       id="path984" />
    <path
       style="font-variation-settings:normal;opacity:1;vector-effect:none;fill:none;fill-opacity:1;stroke:#000000;stroke-width:0.1;stroke-linecap:butt;stroke-linejoin:miter;stroke-miterlimit:4;stroke-dasharray:none;stroke-dashoffset:0;stroke-opacity:1;stop-color:#000000;stop-opacity:1"
       d="m 84.980758,113.26124 0.696563,21.8721 13.79196,-0.41794 c 0,0 7.801509,-1.81106 7.940819,-2.50763 0.13931,-0.69656 1.67176,-4.87595 1.67176,-4.87595 l -0.27863,-4.73663 c 0,0 -1.25381,-5.71182 -3.3435,-6.54769 -2.08969,-0.83588 -6.129759,-2.22901 -8.776704,-2.64695 -2.646942,-0.41794 -11.702268,-0.13931 -11.702268,-0.13931 z"
       id="path986"
       sodipodi:nodetypes="cccsccssc" />
    <path
       style="font-variation-settings:normal;opacity:1;vector-effect:none;fill:none;fill-opacity:1;stroke:#000000;stroke-width:0.1;stroke-linecap:butt;stroke-linejoin:miter;stroke-miterlimit:4;stroke-dasharray:none;stroke-dashoffset:0;stroke-opacity:1;stop-color:#000000;stop-opacity:1"
       d="m 86.234573,146.27835 2.368317,2.92557 -1.950378,11.84158 -1.393129,0.83588 c 0,0 6.269074,2.64694 7.104948,2.50763 0.835877,-0.13931 11.145019,-0.55725 12.120209,-1.1145 0.97519,-0.55725 6.96563,-6.40839 6.96563,-6.40839 l 1.67176,-5.4332 -6.96564,-6.40838 c 0,0 -4.17938,-1.25381 -5.01526,-1.39313 -0.83587,-0.13931 -8.080133,-0.69656 -8.776699,-0.41794 -0.696563,0.27863 -5.572508,2.64695 -6.129758,3.06488 z"
       id="path988" />
    <path
       style="font-variation-settings:normal;opacity:1;vector-effect:none;fill:none;fill-opacity:1;stroke:#000000;stroke-width:0.1;stroke-linecap:butt;stroke-linejoin:miter;stroke-miterlimit:4;stroke-dasharray:none;stroke-dashoffset:0;stroke-opacity:1;stop-color:#000000;stop-opacity:1"
       d="m 80.940689,111.7288 0.975188,27.86254 30.509483,0.27863 -1.81106,-28.4198 z"
       id="path994" />
    <path
       style="font-variation-settings:normal;opacity:1;vector-effect:none;fill:none;fill-opacity:1;stroke:#000000;stroke-width:0.1;stroke-linecap:butt;stroke-linejoin:miter;stroke-miterlimit:4;stroke-dasharray:none;stroke-dashoffset:0;stroke-opacity:1;stop-color:#000000;stop-opacity:1"
       d="m 81.915877,142.79554 0.417939,26.3301 32.181234,-0.13931 -0.83587,-25.91217 z"
       id="path996" />
    <path
       style="font-variation-settings:normal;opacity:1;vector-effect:none;fill:none;fill-opacity:1;stroke:#000000;stroke-width:0.1;stroke-linecap:butt;stroke-linejoin:miter;stroke-miterlimit:4;stroke-dasharray:none;stroke-dashoffset:0;stroke-opacity:1;stop-color:#000000;stop-opacity:1"
       d="m 119.25169,122.73451 2.36831,31.90261 37.61444,-0.13931 -1.1145,-29.5343 z"
       id="path998" />
    <path
       style="font-variation-settings:normal;opacity:1;vector-effect:none;fill:none;fill-opacity:1;stroke:#000000;stroke-width:0.1;stroke-linecap:butt;stroke-linejoin:miter;stroke-miterlimit:4;stroke-dasharray:none;stroke-dashoffset:0;stroke-opacity:1;stop-color:#000000;stop-opacity:1"
       d="m 120.36619,114.23643 c -4.2747,0.18294 -8.49385,-0.1378 -12.81677,0.13931 -2.40033,0.15387 -2.05522,0.35844 -3.62213,1.25382 -0.057,0.0326 0.0755,-0.12399 0.13931,-0.13932 1.107,-0.26568 2.21204,-0.57084 3.34351,-0.69656 2.49613,-0.27735 5.01777,-0.239 7.52288,-0.41794 0.0463,-0.003 -0.0935,-0.008 -0.13931,0 -0.23356,0.0389 -0.46075,0.11788 -0.69656,0.13931 -0.78756,0.0716 -1.57767,0.1235 -2.36832,0.13932 -1.53213,0.0306 -3.06558,-0.0464 -4.59732,0 -1.53455,0.0465 -3.06837,0.13963 -4.59732,0.27862 -0.0463,0.004 -0.0451,0.12805 0,0.13932 0.18021,0.0451 0.372,-0.0135 0.55725,0 4.13505,0.30256 7.97539,0.89689 12.12021,-0.13932 0.075,-0.0187 1.50882,0.5103 -0.55725,0.55725 -1.71838,0.0391 -3.4385,-0.0422 -5.15457,-0.13931 -0.74759,-0.0423 -1.48601,-0.18575 -2.22901,-0.27862"
       id="path1000" />
    <path
       style="font-variation-settings:normal;opacity:1;vector-effect:none;fill:none;fill-opacity:1;stroke:#000000;stroke-width:0.1;stroke-linecap:butt;stroke-linejoin:miter;stroke-miterlimit:4;stroke-dasharray:none;stroke-dashoffset:0;stroke-opacity:1;stop-color:#000000;stop-opacity:1"
       d="m 114.51505,133.6009 c 20.65926,2.26482 -17.760114,-0.79748 -13.37402,0 1.64733,0.29951 3.34366,0.1831 5.01526,0.27862 3.20435,0.18311 6.40809,0.37672 9.61258,0.55725 0.0927,0.005 0.19555,-0.0415 0.27862,0 0.0415,0.0208 0.0461,0.13356 0,0.13932 -1.48099,0.18512 -2.96656,0.3613 -4.458,0.41793 -2.181,0.0828 -4.36513,0 -6.5477,0 -0.23219,0 -0.47629,0.0734 -0.69656,0 -0.119,-0.0397 0.22319,-0.15329 0.97519,-0.27862 1.1597,-0.19329 2.31535,-0.41827 3.48281,-0.55725 0.4347,-0.0517 4.59652,-0.13851 4.87595,-0.41794 0.0328,-0.0328 -0.0934,-0.007 -0.13931,0 -0.55837,0.0859 -1.10945,0.22421 -1.67176,0.27863 -0.87942,0.0851 -1.76451,0.0952 -2.64694,0.13931 -0.0464,0.002 -0.18512,0.008 -0.13931,0 2.59482,-0.43247 5.20473,-0.047 7.80151,-0.41794 0.13791,-0.0197 -0.27863,0 -0.41794,0 -0.42784,0 -0.47588,-0.0407 -0.83587,0.13931"
       id="path1002" />
    <path
       style="font-variation-settings:normal;opacity:1;vector-effect:none;fill:none;fill-opacity:1;stroke:#000000;stroke-width:0.1;stroke-linecap:butt;stroke-linejoin:miter;stroke-miterlimit:4;stroke-dasharray:none;stroke-dashoffset:0;stroke-opacity:1;stop-color:#000000;stop-opacity:1"
       d="m 109.63911,147.53217 c 1.81728,-0.20769 8.09138,-0.97519 9.8912,-0.97519 1.21539,0 -2.40803,0.3619 -3.62213,0.41794 -14.58722,0.67325 -1.25895,-0.56239 -0.69656,0 0.17982,0.17982 -1.25233,0.32456 -1.53244,0.41794"
       id="path1004" />
    <path
       style="font-variation-settings:normal;opacity:1;vector-effect:none;fill:none;fill-opacity:1;stroke:#000000;stroke-width:0.1;stroke-linecap:butt;stroke-linejoin:miter;stroke-miterlimit:4;stroke-dasharray:none;stroke-dashoffset:0;stroke-opacity:1;stop-color:#000000;stop-opacity:1"
       d="m 112.8433,168.84701 c 1.97675,0.37083 2.8047,-2.50762 4.59732,-2.50762 0.0929,0 -0.18575,0 -0.27862,0 -0.41794,0 -0.83635,0.0199 -1.25382,0 -1.67546,-0.0798 -1.59853,-0.13459 -3.20419,-0.41794 -0.28923,-0.051 -1.09857,-0.14728 -0.83588,-0.27863 5.3e-4,-2.6e-4 5.52356,-0.13686 5.57251,-0.13931 0.2319,-0.0116 0.92875,0 0.69656,0 -2.61362,0 -5.17807,0.24862 -7.80151,0.13931 -0.0656,-0.003 0.0737,-0.13754 0.13932,-0.13931 1.67114,-0.0452 3.34429,-0.0514 5.01525,0 1.49997,0.0461 3.5087,0.18281 5.15458,0.41794 0.046,0.007 -0.0978,-0.0208 -0.13932,0 -0.50759,0.25379 0.64794,0.31503 -0.83588,0.13931 -4.66694,-0.55266 -7.84895,-0.98151 -11.98089,-1.53244"
       id="path1006" />
    <path
       style="font-variation-settings:normal;opacity:1;vector-effect:none;fill:none;fill-opacity:1;stroke:#000000;stroke-width:0.1;stroke-linecap:butt;stroke-linejoin:miter;stroke-miterlimit:4;stroke-dasharray:none;stroke-dashoffset:0;stroke-opacity:1;stop-color:#000000;stop-opacity:1"
       d="m 111.31086,128.30701 c 1.56455,0.63741 4.14425,0.81125 4.59732,2.92557 0.17514,0.81732 0.124,1.681 0,2.50763 -0.0815,0.54326 -3.13702,0.90802 -2.64694,0.41794"
       id="path1008" />
    <path
       style="font-variation-settings:normal;opacity:1;vector-effect:none;fill:none;fill-opacity:1;stroke:#000000;stroke-width:0.1;stroke-linecap:butt;stroke-linejoin:miter;stroke-miterlimit:4;stroke-dasharray:none;stroke-dashoffset:0;stroke-opacity:1;stop-color:#000000;stop-opacity:1"
       d="m 118.55512,127.47114 c 3.92367,2.7295 3.1915,1.72237 6.12976,6.12976 0.19447,0.2917 0.19757,1.68221 0,1.81106 -1.98464,1.29434 -3.02984,0.97769 -5.01526,0.83588"
       id="path1010" />
    <path
       style="font-variation-settings:normal;opacity:1;vector-effect:none;fill:none;fill-opacity:1;stroke:#000000;stroke-width:0.1;stroke-linecap:butt;stroke-linejoin:miter;stroke-miterlimit:4;stroke-dasharray:none;stroke-dashoffset:0;stroke-opacity:1;stop-color:#000000;stop-opacity:1"
       d="m 113.53987,146.55698 c 1.70822,0.24403 1.63653,0.0101 2.92556,2.50763 1.96089,3.79923 -3.28811,2.27096 -4.59732,2.92557 -0.1246,0.0623 0.28172,0.0292 0.41794,0 0.51772,-0.11094 1.02163,-0.27863 1.53244,-0.41794"
       id="path1012" />
    <path
       style="font-variation-settings:normal;opacity:1;vector-effect:none;fill:none;fill-opacity:1;stroke:#000000;stroke-width:0.1;stroke-linecap:butt;stroke-linejoin:miter;stroke-miterlimit:4;stroke-dasharray:none;stroke-dashoffset:0;stroke-opacity:1;stop-color:#000000;stop-opacity:1"
       d="m 121.62,147.67148 c -0.48299,0.69061 3.35544,4.71426 2.22901,6.82633 -0.6025,1.12968 -4.4511,0.41793 -3.62213,0.41793"
       id="path1014" />
    <path
       style="font-variation-settings:normal;opacity:1;vector-effect:none;fill:none;fill-opacity:1;stroke:#000000;stroke-width:0.1;stroke-linecap:butt;stroke-linejoin:miter;stroke-miterlimit:4;stroke-dasharray:none;stroke-dashoffset:0;stroke-opacity:1;stop-color:#000000;stop-opacity:1"
       d="m 114.09712,161.88138 c 3.02223,1.58307 3.58268,1.1833 4.73663,4.87594 0.11834,0.37871 -0.12849,0.84314 -0.41794,1.11451 -1.63562,1.53339 -2.15685,0.4851 -2.78625,1.1145"
       id="path1016" />
    <path
       style="font-variation-settings:normal;opacity:1;vector-effect:none;fill:none;fill-opacity:1;stroke:#000000;stroke-width:0.1;stroke-linecap:butt;stroke-linejoin:miter;stroke-miterlimit:4;stroke-dasharray:none;stroke-dashoffset:0;stroke-opacity:1;stop-color:#000000;stop-opacity:1"
       d="m 109.08186,113.12193 c 2.53202,-0.19477 2.88802,-0.40509 5.99045,0.83588 0.21558,0.0862 0.0468,0.46914 0,0.69656 -0.27937,1.3569 -0.38214,2.78806 -0.97519,4.04007 -1.62914,3.43929 -1.16266,0.46608 -2.08969,1.39312"
       id="path1018" />
    <path
       style="font-variation-settings:normal;opacity:1;vector-effect:none;fill:none;fill-opacity:1;stroke:#000000;stroke-width:0.1;stroke-linecap:butt;stroke-linejoin:miter;stroke-miterlimit:4;stroke-dasharray:none;stroke-dashoffset:0;stroke-opacity:1;stop-color:#000000;stop-opacity:1"
       d="m 79.268938,112.98261 c 0.278625,0.0464 0.570198,0.0434 0.835874,0.13932 1.411251,0.50961 2.913515,0.8662 4.179383,1.67175 0.743722,0.47328 0.336187,3.47494 0.139313,4.3187 -0.09955,0.42663 -0.40808,0.7848 -0.696563,1.1145 -0.112019,0.12802 -0.807744,-0.12994 -0.835877,-0.13932"
       id="path1020" />
    <path
       style="font-variation-settings:normal;opacity:1;vector-effect:none;fill:none;fill-opacity:1;stroke:#000000;stroke-width:0.1;stroke-linecap:butt;stroke-linejoin:miter;stroke-miterlimit:4;stroke-dasharray:none;stroke-dashoffset:0;stroke-opacity:1;stop-color:#000000;stop-opacity:1"
       d="m 79.826188,129.56083 c 1.160938,0.0929 2.35795,-0.0232 3.482819,0.27862 0.823362,0.22091 1.660572,0.61851 2.229003,1.25382 0.311187,0.3478 0.17807,0.92805 0.139311,1.39313 -0.287531,3.45036 0.453821,5.99044 -2.925567,5.99044"
       id="path1022" />
    <path
       style="font-variation-settings:normal;opacity:1;vector-effect:none;fill:none;fill-opacity:1;stroke:#000000;stroke-width:0.1;stroke-linecap:butt;stroke-linejoin:miter;stroke-miterlimit:4;stroke-dasharray:none;stroke-dashoffset:0;stroke-opacity:1;stop-color:#000000;stop-opacity:1"
       d="m 81.358628,147.39286 c 5.095073,2.14529 3.228136,0.79731 7.801512,8.63739 0.147987,0.25368 0.0033,0.75364 -0.278625,0.83587 -0.981773,0.28635 -2.042805,0.10407 -3.06488,0.13931 -0.41769,0.0144 -0.843992,0.082 -1.253816,0 -0.352512,-0.0705 -0.76495,-0.27862 -1.114501,-0.27862"
       id="path1024" />
    <path
       style="font-variation-settings:normal;opacity:1;vector-effect:none;fill:none;fill-opacity:1;stroke:#000000;stroke-width:0.1;stroke-linecap:butt;stroke-linejoin:miter;stroke-miterlimit:4;stroke-dasharray:none;stroke-dashoffset:0;stroke-opacity:1;stop-color:#000000;stop-opacity:1"
       d="m 83.169693,163.83176 c 2.55737,-0.25393 5.396134,3.77379 2.08969,4.87594 -1.426851,0.47562 -2.963172,0.53047 -4.458007,0.69657 -0.969796,0.10775 -0.491231,-0.20534 -0.278625,-0.41794"
       id="path1026" />
    <path
       style="font-variation-settings:normal;opacity:1;vector-effect:none;fill:none;fill-opacity:1;stroke:#000000;stroke-width:0.1;stroke-linecap:butt;stroke-linejoin:miter;stroke-miterlimit:4;stroke-dasharray:none;stroke-dashoffset:0;stroke-opacity:1;stop-color:#000000;stop-opacity:1"
       d="m 157.00543,127.74976 c 0.65013,-0.0929 1.4782,-0.73506 1.95038,-0.27862 1.16476,1.12593 1.62119,2.81704 2.22901,4.31869 0.19244,0.47545 0.45204,1.12589 0.13931,1.53244 -0.31656,0.41152 -1.01338,0.29016 -1.53244,0.27863 -2.29279,-0.051 -3.7416,-0.27579 -5.71182,-0.55725"
       id="path1028" />
    <path
       style="font-variation-settings:normal;opacity:1;vector-effect:none;fill:none;fill-opacity:1;stroke:#000000;stroke-width:0.1;stroke-linecap:butt;stroke-linejoin:miter;stroke-miterlimit:4;stroke-dasharray:none;stroke-dashoffset:0;stroke-opacity:1;stop-color:#000000;stop-opacity:1"
       d="m 158.25925,142.65622 c 1.95038,0.60369 4.36898,0.40692 5.85113,1.81107 0.78701,0.74558 -0.0592,2.24128 -0.55725,3.20419 -0.93019,1.79838 -2.28374,3.3567 -3.62213,4.87595 -0.40024,0.45432 -0.9352,1.07473 -1.53244,0.97519 -1.02935,-0.17156 -1.76463,-1.1145 -2.64694,-1.67176"
       id="path1030" />
  </g>
</svg>
