<?xml version="1.0" encoding="UTF-8" standalone="no"?>
<!-- Created with Inkscape (http://www.inkscape.org/) -->

<svg
   width="2.3901825mm"
   height="2.4774933mm"
   viewBox="0 0 2.3901825 2.4774933"
   version="1.1"
   id="svg5"
   xml:space="preserve"
   inkscape:export-filename="or.svg"
   inkscape:export-xdpi="150"
   inkscape:export-ydpi="150"
   inkscape:version="1.2 (dc2aeda, 2022-05-15)"
   xmlns:inkscape="http://www.inkscape.org/namespaces/inkscape"
   xmlns:sodipodi="http://sodipodi.sourceforge.net/DTD/sodipodi-0.dtd"
   xmlns="http://www.w3.org/2000/svg"
   xmlns:svg="http://www.w3.org/2000/svg"><sodipodi:namedview
     id="namedview7"
     pagecolor="#ffffff"
     bordercolor="#666666"
     borderopacity="1.0"
     inkscape:showpageshadow="2"
     inkscape:pageopacity="0.0"
     inkscape:pagecheckerboard="0"
     inkscape:deskcolor="#d1d1d1"
     inkscape:document-units="mm"
     showgrid="false"
     inkscape:zoom="3.3638608"
     inkscape:cx="485.60273"
     inkscape:cy="562.15168"
     inkscape:window-width="1411"
     inkscape:window-height="480"
     inkscape:window-x="0"
     inkscape:window-y="25"
     inkscape:window-maximized="0"
     inkscape:current-layer="layer1" /><defs
     id="defs2" /><g
     inkscape:label="Layer 1"
     inkscape:groupmode="layer"
     id="layer1"
     transform="translate(-130.44011,-152.60209)"><path
       style="fill:#000000;stroke-width:0.0109141"
       d="m 130.44012,153.84084 v -1.23875 h 1.19508 1.1951 v 1.23875 1.23875 h -1.1951 -1.19508 z m 1.4348,0.91654 c 0.20841,-0.0577 0.41102,-0.20132 0.52843,-0.37448 0.12359,-0.18227 0.17263,-0.35948 0.16208,-0.58572 -0.007,-0.15156 -0.0309,-0.24459 -0.0949,-0.37021 -0.12008,-0.23587 -0.29759,-0.38795 -0.55706,-0.47728 -0.10004,-0.0344 -0.10981,-0.0357 -0.27831,-0.036 -0.15312,-2.3e-4 -0.1847,0.003 -0.25647,0.0253 -0.17016,0.0532 -0.30057,0.12914 -0.40291,0.23454 -0.0265,0.0273 -0.0535,0.0466 -0.06,0.0429 -0.006,-0.004 -0.008,-0.003 -0.004,0.002 0.004,0.005 -0.0112,0.0328 -0.0346,0.0621 -0.0576,0.0724 -0.13603,0.23671 -0.16054,0.33647 -0.0151,0.0617 -0.0199,0.12086 -0.0192,0.2401 6.6e-4,0.1396 0.004,0.16978 0.0306,0.25594 0.10222,0.33586 0.36348,0.5787 0.70523,0.65552 0.0929,0.0209 0.3492,0.0143 0.44163,-0.0113 z"
       id="path518"
       inkscape:export-filename="not.svg"
       inkscape:export-xdpi="150"
       inkscape:export-ydpi="150" /></g></svg>
