%TF.GenerationSoftware,KiCad,Pcbnew,(6.0.5-0)*%
%TF.CreationDate,2022-06-08T15:30:43+08:00*%
%TF.ProjectId,dtl,64746c2e-6b69-4636-9164-5f7063625858,rev?*%
%TF.SameCoordinates,Original*%
%TF.FileFunction,Copper,L2,Bot*%
%TF.FilePolarity,Positive*%
%FSLAX46Y46*%
G04 Gerber Fmt 4.6, Leading zero omitted, Abs format (unit mm)*
G04 Created by KiCad (PCBNEW (6.0.5-0)) date 2022-06-08 15:30:43*
%MOMM*%
%LPD*%
G01*
G04 APERTURE LIST*
G04 Aperture macros list*
%AMHorizOval*
0 Thick line with rounded ends*
0 $1 width*
0 $2 $3 position (X,Y) of the first rounded end (center of the circle)*
0 $4 $5 position (X,Y) of the second rounded end (center of the circle)*
0 Add line between two ends*
20,1,$1,$2,$3,$4,$5,0*
0 Add two circle primitives to create the rounded ends*
1,1,$1,$2,$3*
1,1,$1,$4,$5*%
%AMRotRect*
0 Rectangle, with rotation*
0 The origin of the aperture is its center*
0 $1 length*
0 $2 width*
0 $3 Rotation angle, in degrees counterclockwise*
0 Add horizontal line*
21,1,$1,$2,0,0,$3*%
G04 Aperture macros list end*
%TA.AperFunction,ComponentPad*%
%ADD10R,1.800000X1.800000*%
%TD*%
%TA.AperFunction,ComponentPad*%
%ADD11C,1.800000*%
%TD*%
%TA.AperFunction,ComponentPad*%
%ADD12C,1.000000*%
%TD*%
%TA.AperFunction,ComponentPad*%
%ADD13RotRect,1.700000X1.700000X30.000000*%
%TD*%
%TA.AperFunction,ComponentPad*%
%ADD14HorizOval,1.700000X0.000000X0.000000X0.000000X0.000000X0*%
%TD*%
%TA.AperFunction,ComponentPad*%
%ADD15RotRect,1.700000X1.700000X330.000000*%
%TD*%
%TA.AperFunction,ComponentPad*%
%ADD16HorizOval,1.700000X0.000000X0.000000X0.000000X0.000000X0*%
%TD*%
%TA.AperFunction,SMDPad,CuDef*%
%ADD17R,5.100000X5.100000*%
%TD*%
%TA.AperFunction,SMDPad,CuDef*%
%ADD18C,17.800000*%
%TD*%
%TA.AperFunction,ViaPad*%
%ADD19C,0.800000*%
%TD*%
%TA.AperFunction,Conductor*%
%ADD20C,0.250000*%
%TD*%
G04 APERTURE END LIST*
D10*
%TO.P,D10,1,K*%
%TO.N,Net-(D10-Pad1)*%
X167881705Y-61904927D03*
D11*
%TO.P,D10,2,A*%
%TO.N,Net-(D10-Pad2)*%
X167881705Y-59364927D03*
%TD*%
D12*
%TO.P,SW3,8*%
%TO.N,N/C*%
X129178831Y-70100962D03*
%TO.P,SW3,9*%
X130678831Y-72699038D03*
%TD*%
D13*
%TO.P,J7,1,Pin_1*%
%TO.N,unconnected-(J7-Pad1)*%
X161346705Y-48069927D03*
D14*
%TO.P,J7,2,Pin_2*%
%TO.N,Net-(J7-Pad2)*%
X162596705Y-50234991D03*
%TO.P,J7,3,Pin_3*%
X163846705Y-52400054D03*
%TO.P,J7,4,Pin_4*%
%TO.N,GND3*%
X165096705Y-54565118D03*
%TD*%
D15*
%TO.P,J5,1,Pin_1*%
%TO.N,Net-(R10-Pad1)*%
X133911705Y-48074031D03*
D16*
%TO.P,J5,2,Pin_2*%
%TO.N,Net-(D3-Pad1)*%
X132661705Y-50239095D03*
%TO.P,J5,3,Pin_3*%
%TO.N,unconnected-(J5-Pad3)*%
X131411705Y-52404158D03*
%TO.P,J5,4,Pin_4*%
%TO.N,GND3*%
X130161705Y-54569222D03*
%TD*%
D17*
%TO.P,BT2,1,+*%
%TO.N,Net-(BT2-Pad1)*%
X134836705Y-60319927D03*
X160436705Y-60319927D03*
D18*
%TO.P,BT2,2,-*%
%TO.N,GND3*%
X147636705Y-60319927D03*
%TD*%
D19*
%TO.N,Net-(BT2-Pad1)*%
X134860000Y-69150000D03*
%TO.N,GND3*%
X157610000Y-80400000D03*
X136360000Y-80400000D03*
%TD*%
D20*
%TO.N,GND3*%
X130161705Y-54569222D02*
X141886000Y-54569222D01*
X153391514Y-54565118D02*
X147636705Y-60319927D01*
X141886000Y-54569222D02*
X147636705Y-60319927D01*
X165096705Y-54565118D02*
X153391514Y-54565118D01*
%TO.N,Net-(BT2-Pad1)*%
X156910305Y-71433327D02*
X160436705Y-67906927D01*
X134836705Y-70400000D02*
X135360000Y-71433327D01*
X135360000Y-71433327D02*
X156910305Y-71433327D01*
X134836705Y-60319927D02*
X134836705Y-70400000D01*
X160436705Y-67906927D02*
X160436705Y-60319927D01*
%TD*%
%TA.AperFunction,Conductor*%
%TO.N,GND3*%
G36*
X158855010Y-38319927D02*
G01*
X158869845Y-38322237D01*
X158869846Y-38322237D01*
X158878716Y-38323618D01*
X158887618Y-38322454D01*
X158887620Y-38322454D01*
X158896323Y-38321316D01*
X158919983Y-38320465D01*
X159166917Y-38334847D01*
X159181459Y-38336546D01*
X159452347Y-38384310D01*
X159466594Y-38387687D01*
X159730111Y-38466578D01*
X159743873Y-38471588D01*
X159996434Y-38580532D01*
X160009528Y-38587108D01*
X160247737Y-38724639D01*
X160259979Y-38732691D01*
X160480602Y-38896940D01*
X160491827Y-38906358D01*
X160691902Y-39095120D01*
X160701957Y-39105778D01*
X160878758Y-39316483D01*
X160887508Y-39328236D01*
X161019439Y-39528829D01*
X161031680Y-39552605D01*
X161035057Y-39561335D01*
X161040514Y-39568459D01*
X161054416Y-39586610D01*
X161063505Y-39600226D01*
X161701830Y-40705838D01*
X172069144Y-58662550D01*
X172276339Y-59021423D01*
X172284729Y-59038953D01*
X172293387Y-59061332D01*
X172298847Y-59068460D01*
X172304179Y-59075422D01*
X172316750Y-59095494D01*
X172320066Y-59102096D01*
X172427755Y-59316533D01*
X172433558Y-59329985D01*
X172527633Y-59588460D01*
X172531835Y-59602498D01*
X172595264Y-59870137D01*
X172597808Y-59884564D01*
X172606085Y-59955388D01*
X172629738Y-60157762D01*
X172630590Y-60172390D01*
X172630588Y-60447447D01*
X172629736Y-60462075D01*
X172597801Y-60735278D01*
X172595256Y-60749707D01*
X172531824Y-61017340D01*
X172527622Y-61031377D01*
X172433543Y-61289853D01*
X172427743Y-61303299D01*
X172427734Y-61303317D01*
X172319937Y-61517955D01*
X172305468Y-61540442D01*
X172299667Y-61547644D01*
X172296225Y-61555933D01*
X172296221Y-61555940D01*
X172287457Y-61577046D01*
X172280210Y-61591726D01*
X170240902Y-65123911D01*
X165282454Y-73712196D01*
X161067377Y-81012923D01*
X161056389Y-81028955D01*
X161041337Y-81047642D01*
X161036819Y-81058524D01*
X161034531Y-81064034D01*
X161023435Y-81084954D01*
X160887513Y-81291610D01*
X160878767Y-81303358D01*
X160749289Y-81457661D01*
X160701959Y-81514065D01*
X160691904Y-81524723D01*
X160491828Y-81713482D01*
X160480603Y-81722900D01*
X160259979Y-81887146D01*
X160247737Y-81895198D01*
X160009523Y-82032729D01*
X159996429Y-82039304D01*
X159743872Y-82148245D01*
X159730104Y-82153257D01*
X159466598Y-82232144D01*
X159452343Y-82235522D01*
X159452196Y-82235548D01*
X159181458Y-82283286D01*
X159166914Y-82284985D01*
X159044197Y-82292132D01*
X158927138Y-82298949D01*
X158900431Y-82297662D01*
X158900145Y-82297618D01*
X158900144Y-82297618D01*
X158891268Y-82296236D01*
X158882366Y-82297400D01*
X158882364Y-82297400D01*
X158867315Y-82299368D01*
X158859706Y-82300363D01*
X158843371Y-82301427D01*
X136417692Y-82301427D01*
X136398308Y-82299927D01*
X136383474Y-82297617D01*
X136383471Y-82297617D01*
X136374601Y-82296236D01*
X136365699Y-82297400D01*
X136365695Y-82297400D01*
X136356996Y-82298538D01*
X136333336Y-82299389D01*
X136086400Y-82285009D01*
X136071860Y-82283310D01*
X135800971Y-82235547D01*
X135786724Y-82232170D01*
X135523208Y-82153279D01*
X135509443Y-82148269D01*
X135509388Y-82148245D01*
X135256884Y-82039325D01*
X135243791Y-82032750D01*
X135005588Y-81895222D01*
X134993345Y-81887170D01*
X134772710Y-81722911D01*
X134761496Y-81713501D01*
X134561406Y-81524723D01*
X134551380Y-81514096D01*
X134374558Y-81303363D01*
X134365818Y-81291622D01*
X134233871Y-81091000D01*
X134221629Y-81067221D01*
X134218265Y-81058524D01*
X134198901Y-81033241D01*
X134189820Y-81019637D01*
X129983539Y-73734145D01*
X129966801Y-73665150D01*
X129990021Y-73598058D01*
X130045829Y-73554171D01*
X130116504Y-73547422D01*
X130154129Y-73561157D01*
X130273125Y-73627662D01*
X130461223Y-73688778D01*
X130657608Y-73712196D01*
X130663743Y-73711724D01*
X130663745Y-73711724D01*
X130848661Y-73697495D01*
X130848665Y-73697494D01*
X130854803Y-73697022D01*
X131045294Y-73643836D01*
X131050798Y-73641056D01*
X131050800Y-73641055D01*
X131216326Y-73557442D01*
X131216328Y-73557441D01*
X131221827Y-73554663D01*
X131377678Y-73432899D01*
X131506909Y-73283183D01*
X131604600Y-73111217D01*
X131667028Y-72923551D01*
X131691816Y-72727333D01*
X131692211Y-72699038D01*
X131672911Y-72502205D01*
X131615747Y-72312869D01*
X131522897Y-72138242D01*
X131437533Y-72033576D01*
X131401791Y-71989751D01*
X131401788Y-71989748D01*
X131397896Y-71984976D01*
X131391555Y-71979730D01*
X131250256Y-71862837D01*
X131250252Y-71862835D01*
X131245506Y-71858908D01*
X131071532Y-71764840D01*
X130882599Y-71706356D01*
X130876474Y-71705712D01*
X130876473Y-71705712D01*
X130692035Y-71686327D01*
X130692033Y-71686327D01*
X130685906Y-71685683D01*
X130603407Y-71693191D01*
X130495082Y-71703049D01*
X130495079Y-71703050D01*
X130488943Y-71703608D01*
X130483037Y-71705346D01*
X130483033Y-71705347D01*
X130377907Y-71736287D01*
X130299212Y-71759448D01*
X130293754Y-71762301D01*
X130293750Y-71762303D01*
X130255969Y-71782055D01*
X130123941Y-71851078D01*
X129969806Y-71975006D01*
X129842677Y-72126512D01*
X129839710Y-72131910D01*
X129839706Y-72131915D01*
X129836228Y-72138242D01*
X129747398Y-72299825D01*
X129745537Y-72305692D01*
X129745536Y-72305694D01*
X129689458Y-72482474D01*
X129687596Y-72488344D01*
X129665550Y-72684889D01*
X129666739Y-72699038D01*
X129667365Y-72706498D01*
X129653134Y-72776054D01*
X129603558Y-72826874D01*
X129534376Y-72842824D01*
X129467553Y-72818839D01*
X129432688Y-72780043D01*
X128483539Y-71136069D01*
X128466801Y-71067074D01*
X128490021Y-70999982D01*
X128545829Y-70956095D01*
X128616504Y-70949346D01*
X128654129Y-70963081D01*
X128773125Y-71029586D01*
X128961223Y-71090702D01*
X129157608Y-71114120D01*
X129163743Y-71113648D01*
X129163745Y-71113648D01*
X129348661Y-71099419D01*
X129348665Y-71099418D01*
X129354803Y-71098946D01*
X129545294Y-71045760D01*
X129550798Y-71042980D01*
X129550800Y-71042979D01*
X129716326Y-70959366D01*
X129716328Y-70959365D01*
X129721827Y-70956587D01*
X129877678Y-70834823D01*
X130006909Y-70685107D01*
X130104600Y-70513141D01*
X130167028Y-70325475D01*
X130191816Y-70129257D01*
X130192211Y-70100962D01*
X130172911Y-69904129D01*
X130115747Y-69714793D01*
X130022897Y-69540166D01*
X129952540Y-69453900D01*
X129901791Y-69391675D01*
X129901788Y-69391672D01*
X129897896Y-69386900D01*
X129891555Y-69381654D01*
X129750256Y-69264761D01*
X129750252Y-69264759D01*
X129745506Y-69260832D01*
X129571532Y-69166764D01*
X129382599Y-69108280D01*
X129376474Y-69107636D01*
X129376473Y-69107636D01*
X129192035Y-69088251D01*
X129192033Y-69088251D01*
X129185906Y-69087607D01*
X129103407Y-69095115D01*
X128995082Y-69104973D01*
X128995079Y-69104974D01*
X128988943Y-69105532D01*
X128983037Y-69107270D01*
X128983033Y-69107271D01*
X128877907Y-69138211D01*
X128799212Y-69161372D01*
X128793754Y-69164225D01*
X128793750Y-69164227D01*
X128702978Y-69211682D01*
X128623941Y-69253002D01*
X128469806Y-69376930D01*
X128342677Y-69528436D01*
X128339710Y-69533834D01*
X128339706Y-69533839D01*
X128325134Y-69560346D01*
X128247398Y-69701749D01*
X128245537Y-69707616D01*
X128245536Y-69707618D01*
X128191362Y-69878396D01*
X128187596Y-69890268D01*
X128165550Y-70086813D01*
X128166739Y-70100962D01*
X128167365Y-70108422D01*
X128153134Y-70177978D01*
X128103558Y-70228798D01*
X128034376Y-70244748D01*
X127967553Y-70220763D01*
X127932688Y-70181967D01*
X124705045Y-64591527D01*
X123738869Y-62918061D01*
X131778205Y-62918061D01*
X131784960Y-62980243D01*
X131836090Y-63116632D01*
X131923444Y-63233188D01*
X132040000Y-63320542D01*
X132176389Y-63371672D01*
X132238571Y-63378427D01*
X134077205Y-63378427D01*
X134145326Y-63398429D01*
X134191819Y-63452085D01*
X134203205Y-63504427D01*
X134203205Y-68473347D01*
X134183203Y-68541468D01*
X134170842Y-68557656D01*
X134120960Y-68613056D01*
X134025473Y-68778444D01*
X133966458Y-68960072D01*
X133965768Y-68966633D01*
X133965768Y-68966635D01*
X133959142Y-69029680D01*
X133946496Y-69150000D01*
X133947186Y-69156565D01*
X133957115Y-69251030D01*
X133966458Y-69339928D01*
X134025473Y-69521556D01*
X134028776Y-69527278D01*
X134028777Y-69527279D01*
X134039359Y-69545607D01*
X134120960Y-69686944D01*
X134125378Y-69691851D01*
X134125379Y-69691852D01*
X134170841Y-69742342D01*
X134201558Y-69806350D01*
X134203205Y-69826653D01*
X134203205Y-70387115D01*
X134203133Y-70391384D01*
X134200857Y-70458521D01*
X134202568Y-70466264D01*
X134202568Y-70466267D01*
X134210599Y-70502619D01*
X134212572Y-70514006D01*
X134217237Y-70550931D01*
X134218231Y-70558797D01*
X134221150Y-70566169D01*
X134221150Y-70566170D01*
X134225339Y-70576751D01*
X134231220Y-70595951D01*
X134235387Y-70614811D01*
X134238968Y-70621882D01*
X134255788Y-70655095D01*
X134260531Y-70665633D01*
X134277153Y-70707617D01*
X134288507Y-70723244D01*
X134298974Y-70740373D01*
X134768259Y-71667051D01*
X134775684Y-71685038D01*
X134782236Y-71705202D01*
X134799875Y-71732997D01*
X134805423Y-71741740D01*
X134809623Y-71749123D01*
X134811056Y-71751560D01*
X134812845Y-71755092D01*
X134815063Y-71758373D01*
X134829009Y-71779003D01*
X134830995Y-71782034D01*
X134868000Y-71840345D01*
X134873479Y-71845490D01*
X134875780Y-71848191D01*
X134879986Y-71854413D01*
X134885918Y-71859669D01*
X134931642Y-71900182D01*
X134934335Y-71902638D01*
X134942928Y-71910707D01*
X134984679Y-71949913D01*
X134991261Y-71953532D01*
X134994168Y-71955581D01*
X134999787Y-71960559D01*
X135006836Y-71964172D01*
X135006841Y-71964176D01*
X135061209Y-71992047D01*
X135064431Y-71993757D01*
X135117996Y-72023205D01*
X135117999Y-72023206D01*
X135124940Y-72027022D01*
X135132216Y-72028890D01*
X135135541Y-72030152D01*
X135142221Y-72033576D01*
X135149951Y-72035324D01*
X135149954Y-72035325D01*
X135209560Y-72048803D01*
X135213105Y-72049659D01*
X135272292Y-72064856D01*
X135272295Y-72064856D01*
X135279970Y-72066827D01*
X135287482Y-72066827D01*
X135291016Y-72067222D01*
X135298339Y-72068878D01*
X135306260Y-72068649D01*
X135306263Y-72068649D01*
X135367351Y-72066880D01*
X135370997Y-72066827D01*
X156831538Y-72066827D01*
X156842721Y-72067354D01*
X156850214Y-72069029D01*
X156858140Y-72068780D01*
X156858141Y-72068780D01*
X156918291Y-72066889D01*
X156922250Y-72066827D01*
X156950161Y-72066827D01*
X156954096Y-72066330D01*
X156954161Y-72066322D01*
X156965998Y-72065389D01*
X156998256Y-72064375D01*
X157002275Y-72064249D01*
X157010194Y-72064000D01*
X157029648Y-72058348D01*
X157049005Y-72054340D01*
X157061235Y-72052795D01*
X157061236Y-72052795D01*
X157069102Y-72051801D01*
X157076473Y-72048882D01*
X157076475Y-72048882D01*
X157110217Y-72035523D01*
X157121447Y-72031678D01*
X157156288Y-72021556D01*
X157156289Y-72021556D01*
X157163898Y-72019345D01*
X157170717Y-72015312D01*
X157170722Y-72015310D01*
X157181333Y-72009034D01*
X157199081Y-72000339D01*
X157217922Y-71992879D01*
X157242523Y-71975006D01*
X157253692Y-71966891D01*
X157263612Y-71960375D01*
X157294840Y-71941907D01*
X157294843Y-71941905D01*
X157301667Y-71937869D01*
X157315988Y-71923548D01*
X157331022Y-71910707D01*
X157340999Y-71903458D01*
X157347412Y-71898799D01*
X157375603Y-71864722D01*
X157383593Y-71855943D01*
X160828952Y-68410584D01*
X160837242Y-68403040D01*
X160843723Y-68398927D01*
X160890364Y-68349259D01*
X160893118Y-68346418D01*
X160912840Y-68326696D01*
X160915324Y-68323494D01*
X160923022Y-68314482D01*
X160947866Y-68288025D01*
X160953291Y-68282248D01*
X160963052Y-68264493D01*
X160973903Y-68247974D01*
X160986319Y-68231968D01*
X160989469Y-68224689D01*
X161003879Y-68191390D01*
X161009096Y-68180740D01*
X161030400Y-68141987D01*
X161035438Y-68122364D01*
X161041842Y-68103661D01*
X161046738Y-68092347D01*
X161046738Y-68092346D01*
X161049886Y-68085072D01*
X161051125Y-68077249D01*
X161051128Y-68077239D01*
X161056804Y-68041403D01*
X161059210Y-68029783D01*
X161068233Y-67994638D01*
X161068233Y-67994637D01*
X161070205Y-67986957D01*
X161070205Y-67966703D01*
X161071756Y-67946992D01*
X161073685Y-67934813D01*
X161074925Y-67926984D01*
X161070764Y-67882965D01*
X161070205Y-67871108D01*
X161070205Y-63504427D01*
X161090207Y-63436306D01*
X161143863Y-63389813D01*
X161196205Y-63378427D01*
X163034839Y-63378427D01*
X163097021Y-63371672D01*
X163233410Y-63320542D01*
X163349966Y-63233188D01*
X163437320Y-63116632D01*
X163488450Y-62980243D01*
X163495205Y-62918061D01*
X163495205Y-59330396D01*
X166468800Y-59330396D01*
X166469097Y-59335549D01*
X166469097Y-59335552D01*
X166474772Y-59433968D01*
X166482132Y-59561624D01*
X166483269Y-59566670D01*
X166483270Y-59566676D01*
X166515446Y-59709450D01*
X166533051Y-59787569D01*
X166534993Y-59792351D01*
X166534994Y-59792355D01*
X166599469Y-59951137D01*
X166620189Y-60002164D01*
X166622888Y-60006568D01*
X166724504Y-60172390D01*
X166741206Y-60199646D01*
X166744587Y-60203549D01*
X166853009Y-60328715D01*
X166882491Y-60393300D01*
X166872376Y-60463573D01*
X166825875Y-60517221D01*
X166802001Y-60529194D01*
X166746220Y-60550106D01*
X166735000Y-60554312D01*
X166618444Y-60641666D01*
X166531090Y-60758222D01*
X166479960Y-60894611D01*
X166473205Y-60956793D01*
X166473205Y-62853061D01*
X166479960Y-62915243D01*
X166531090Y-63051632D01*
X166618444Y-63168188D01*
X166735000Y-63255542D01*
X166871389Y-63306672D01*
X166933571Y-63313427D01*
X168829839Y-63313427D01*
X168892021Y-63306672D01*
X169028410Y-63255542D01*
X169144966Y-63168188D01*
X169232320Y-63051632D01*
X169283450Y-62915243D01*
X169290205Y-62853061D01*
X169290205Y-60956793D01*
X169283450Y-60894611D01*
X169232320Y-60758222D01*
X169144966Y-60641666D01*
X169028410Y-60554312D01*
X169020001Y-60551160D01*
X169020000Y-60551159D01*
X168961509Y-60529232D01*
X168904744Y-60486591D01*
X168880044Y-60420030D01*
X168895251Y-60350681D01*
X168916798Y-60322000D01*
X168954341Y-60284587D01*
X168954345Y-60284582D01*
X168958008Y-60280932D01*
X169093163Y-60092844D01*
X169140346Y-59997377D01*
X169193489Y-59889849D01*
X169193490Y-59889847D01*
X169195783Y-59885207D01*
X169263113Y-59663598D01*
X169293345Y-59433968D01*
X169295032Y-59364927D01*
X169288737Y-59288361D01*
X169276478Y-59139245D01*
X169276477Y-59139239D01*
X169276054Y-59134094D01*
X169219630Y-58909460D01*
X169217571Y-58904724D01*
X169129335Y-58701795D01*
X169129333Y-58701792D01*
X169127275Y-58697058D01*
X169001469Y-58502592D01*
X168845592Y-58331285D01*
X168841541Y-58328086D01*
X168841537Y-58328082D01*
X168667882Y-58190938D01*
X168667877Y-58190935D01*
X168663828Y-58187737D01*
X168659312Y-58185244D01*
X168659309Y-58185242D01*
X168465584Y-58078300D01*
X168465580Y-58078298D01*
X168461060Y-58075803D01*
X168456191Y-58074079D01*
X168456187Y-58074077D01*
X168247608Y-58000215D01*
X168247604Y-58000214D01*
X168242733Y-57998489D01*
X168237640Y-57997582D01*
X168237637Y-57997581D01*
X168019800Y-57958778D01*
X168019794Y-57958777D01*
X168014711Y-57957872D01*
X167941801Y-57956981D01*
X167788286Y-57955106D01*
X167788284Y-57955106D01*
X167783116Y-57955043D01*
X167554169Y-57990077D01*
X167334019Y-58062033D01*
X167329431Y-58064421D01*
X167329427Y-58064423D01*
X167214011Y-58124505D01*
X167128577Y-58168979D01*
X167124444Y-58172082D01*
X167124441Y-58172084D01*
X167099330Y-58190938D01*
X166943360Y-58308044D01*
X166783344Y-58475491D01*
X166780430Y-58479763D01*
X166780429Y-58479764D01*
X166722958Y-58564014D01*
X166652824Y-58666826D01*
X166555307Y-58876908D01*
X166493412Y-59100096D01*
X166468800Y-59330396D01*
X163495205Y-59330396D01*
X163495205Y-57721793D01*
X163488450Y-57659611D01*
X163437320Y-57523222D01*
X163349966Y-57406666D01*
X163233410Y-57319312D01*
X163097021Y-57268182D01*
X163034839Y-57261427D01*
X157838571Y-57261427D01*
X157776389Y-57268182D01*
X157640000Y-57319312D01*
X157523444Y-57406666D01*
X157436090Y-57523222D01*
X157384960Y-57659611D01*
X157378205Y-57721793D01*
X157378205Y-62918061D01*
X157384960Y-62980243D01*
X157436090Y-63116632D01*
X157523444Y-63233188D01*
X157640000Y-63320542D01*
X157776389Y-63371672D01*
X157838571Y-63378427D01*
X159677205Y-63378427D01*
X159745326Y-63398429D01*
X159791819Y-63452085D01*
X159803205Y-63504427D01*
X159803205Y-67592333D01*
X159783203Y-67660454D01*
X159766300Y-67681428D01*
X156684805Y-70762922D01*
X156622493Y-70796948D01*
X156595710Y-70799827D01*
X135826713Y-70799827D01*
X135758592Y-70779825D01*
X135714305Y-70730752D01*
X135673369Y-70649918D01*
X135483797Y-70275577D01*
X135470205Y-70218653D01*
X135470205Y-69878396D01*
X135490207Y-69810275D01*
X135502569Y-69794086D01*
X135594621Y-69691852D01*
X135594622Y-69691851D01*
X135599040Y-69686944D01*
X135680641Y-69545607D01*
X135691223Y-69527279D01*
X135691224Y-69527278D01*
X135694527Y-69521556D01*
X135753542Y-69339928D01*
X135762886Y-69251030D01*
X135772814Y-69156565D01*
X135773504Y-69150000D01*
X135760858Y-69029680D01*
X135754232Y-68966635D01*
X135754232Y-68966633D01*
X135753542Y-68960072D01*
X135694527Y-68778444D01*
X135599040Y-68613056D01*
X135549160Y-68557658D01*
X135502569Y-68505914D01*
X135471851Y-68441907D01*
X135470205Y-68421604D01*
X135470205Y-67151814D01*
X141170358Y-67151814D01*
X141170382Y-67152153D01*
X141176205Y-67160785D01*
X141509420Y-67465587D01*
X141512551Y-67468271D01*
X141983319Y-67846102D01*
X141986602Y-67848567D01*
X142480793Y-68195246D01*
X142484220Y-68197489D01*
X142999765Y-68511562D01*
X143003300Y-68513562D01*
X143538073Y-68793729D01*
X143541711Y-68795488D01*
X144093417Y-69040546D01*
X144097207Y-69042085D01*
X144663577Y-69251030D01*
X144667442Y-69252316D01*
X145246120Y-69424277D01*
X145250061Y-69425311D01*
X145838622Y-69559569D01*
X145842617Y-69560346D01*
X146438635Y-69656346D01*
X146442674Y-69656863D01*
X147043623Y-69714199D01*
X147047692Y-69714455D01*
X147651089Y-69732891D01*
X147655175Y-69732883D01*
X148258517Y-69712341D01*
X148262561Y-69712072D01*
X148863327Y-69652637D01*
X148867363Y-69652106D01*
X149463026Y-69554029D01*
X149467029Y-69553236D01*
X150055130Y-69416922D01*
X150059050Y-69415879D01*
X150637147Y-69241891D01*
X150640980Y-69240601D01*
X151206619Y-69029680D01*
X151210412Y-69028124D01*
X151761249Y-68781146D01*
X151764910Y-68779360D01*
X152298692Y-68497333D01*
X152302198Y-68495333D01*
X152816668Y-68179448D01*
X152820065Y-68177207D01*
X153313072Y-67828785D01*
X153316296Y-67826347D01*
X153785805Y-67446824D01*
X153788872Y-67444177D01*
X154094559Y-67162590D01*
X154102737Y-67148973D01*
X154102723Y-67148514D01*
X154097378Y-67139810D01*
X147649517Y-60691949D01*
X147635573Y-60684335D01*
X147633740Y-60684466D01*
X147627125Y-60688717D01*
X141177972Y-67137870D01*
X141170358Y-67151814D01*
X135470205Y-67151814D01*
X135470205Y-63504427D01*
X135490207Y-63436306D01*
X135543863Y-63389813D01*
X135596205Y-63378427D01*
X137434839Y-63378427D01*
X137497021Y-63371672D01*
X137633410Y-63320542D01*
X137749966Y-63233188D01*
X137837320Y-63116632D01*
X137888450Y-62980243D01*
X137895205Y-62918061D01*
X137895205Y-60531441D01*
X138226108Y-60531441D01*
X138226200Y-60535515D01*
X138259372Y-61138295D01*
X138259727Y-61142347D01*
X138331733Y-61741749D01*
X138332343Y-61745739D01*
X138442878Y-62339244D01*
X138443750Y-62343209D01*
X138592352Y-62928332D01*
X138593477Y-62932230D01*
X138779532Y-63506551D01*
X138780908Y-63510372D01*
X139003628Y-64071468D01*
X139005259Y-64075219D01*
X139263720Y-64620766D01*
X139265578Y-64624380D01*
X139558724Y-65152144D01*
X139560799Y-65155611D01*
X139887388Y-65663351D01*
X139889704Y-65666708D01*
X140248358Y-66152286D01*
X140250889Y-66155491D01*
X140640139Y-66616922D01*
X140642866Y-66619951D01*
X140794260Y-66777548D01*
X140808045Y-66785438D01*
X140809209Y-66785378D01*
X140816842Y-66780580D01*
X147264683Y-60332739D01*
X147271061Y-60321059D01*
X148001113Y-60321059D01*
X148001244Y-60322892D01*
X148005495Y-60329507D01*
X154453667Y-66777679D01*
X154467611Y-66785293D01*
X154468655Y-66785219D01*
X154476348Y-66780145D01*
X154652492Y-66595500D01*
X154655215Y-66592454D01*
X155042857Y-66129661D01*
X155045351Y-66126481D01*
X155402326Y-65639628D01*
X155404626Y-65636268D01*
X155729437Y-65127399D01*
X155731508Y-65123911D01*
X156022809Y-64595129D01*
X156024645Y-64591527D01*
X156281217Y-64045047D01*
X156282819Y-64041328D01*
X156503589Y-63479429D01*
X156504946Y-63475619D01*
X156688998Y-62900641D01*
X156690104Y-62896759D01*
X156836671Y-62311092D01*
X156837523Y-62307148D01*
X156945986Y-61713262D01*
X156946587Y-61709237D01*
X157016495Y-61109625D01*
X157016837Y-61105548D01*
X157047943Y-60501939D01*
X157048023Y-60499322D01*
X157049732Y-60321264D01*
X157049702Y-60318588D01*
X157030191Y-59714515D01*
X157029928Y-59710457D01*
X156971541Y-59109589D01*
X156971021Y-59105579D01*
X156873980Y-58509723D01*
X156873192Y-58505710D01*
X156737911Y-57917401D01*
X156736865Y-57913445D01*
X156563900Y-57335090D01*
X156562602Y-57331209D01*
X156352664Y-56765189D01*
X156351138Y-56761451D01*
X156105110Y-56210158D01*
X156103330Y-56206493D01*
X155822242Y-55672230D01*
X155820233Y-55668695D01*
X155688032Y-55452539D01*
X164075005Y-55452539D01*
X164081193Y-55466991D01*
X164139922Y-55534790D01*
X164147284Y-55542000D01*
X164311139Y-55678034D01*
X164319586Y-55683949D01*
X164503461Y-55791397D01*
X164512747Y-55795847D01*
X164711706Y-55871821D01*
X164721604Y-55874697D01*
X164930300Y-55917156D01*
X164940528Y-55918375D01*
X165153355Y-55926180D01*
X165163641Y-55925713D01*
X165374890Y-55898652D01*
X165384967Y-55896510D01*
X165527115Y-55853863D01*
X165538931Y-55846171D01*
X165537495Y-55836588D01*
X165012792Y-54927777D01*
X165001297Y-54916817D01*
X164999489Y-54916468D01*
X164992002Y-54918861D01*
X164084019Y-55443085D01*
X164075005Y-55452539D01*
X155688032Y-55452539D01*
X155505255Y-55153689D01*
X155503027Y-55150298D01*
X155155453Y-54656666D01*
X155153027Y-54653447D01*
X154774324Y-54183276D01*
X154771680Y-54180203D01*
X154479518Y-53861921D01*
X154465914Y-53853719D01*
X154465515Y-53853731D01*
X154456722Y-53859120D01*
X148008727Y-60307115D01*
X148001113Y-60321059D01*
X147271061Y-60321059D01*
X147272297Y-60318795D01*
X147272166Y-60316962D01*
X147267915Y-60310347D01*
X140817511Y-53859943D01*
X140803567Y-53852329D01*
X140801762Y-53852458D01*
X140795109Y-53856737D01*
X140765088Y-53886812D01*
X140762326Y-53889762D01*
X140364265Y-54343664D01*
X140361700Y-54346787D01*
X139993765Y-54825424D01*
X139991402Y-54828712D01*
X139655118Y-55330099D01*
X139652976Y-55333528D01*
X139349757Y-55855557D01*
X139347831Y-55859135D01*
X139078937Y-56399633D01*
X139077240Y-56403342D01*
X138843783Y-56960073D01*
X138842343Y-56963843D01*
X138645291Y-57534506D01*
X138644095Y-57538370D01*
X138484291Y-58120518D01*
X138483334Y-58124505D01*
X138361434Y-58715733D01*
X138360738Y-58719762D01*
X138277244Y-59317640D01*
X138276812Y-59321684D01*
X138232072Y-59923729D01*
X138231902Y-59927787D01*
X138226108Y-60531441D01*
X137895205Y-60531441D01*
X137895205Y-57721793D01*
X137888450Y-57659611D01*
X137837320Y-57523222D01*
X137749966Y-57406666D01*
X137633410Y-57319312D01*
X137497021Y-57268182D01*
X137434839Y-57261427D01*
X132238571Y-57261427D01*
X132176389Y-57268182D01*
X132040000Y-57319312D01*
X131923444Y-57406666D01*
X131836090Y-57523222D01*
X131784960Y-57659611D01*
X131778205Y-57721793D01*
X131778205Y-62918061D01*
X123738869Y-62918061D01*
X122976980Y-61598430D01*
X122968587Y-61580893D01*
X122963169Y-61566888D01*
X122959929Y-61558513D01*
X122949128Y-61544412D01*
X122936558Y-61524341D01*
X122825554Y-61303317D01*
X122819750Y-61289863D01*
X122725670Y-61031385D01*
X122721468Y-61017349D01*
X122658035Y-60749713D01*
X122655490Y-60735283D01*
X122623554Y-60462076D01*
X122622702Y-60447448D01*
X122622700Y-60172389D01*
X122623552Y-60157761D01*
X122655482Y-59884563D01*
X122658026Y-59870133D01*
X122721457Y-59602488D01*
X122725659Y-59588451D01*
X122819736Y-59329971D01*
X122825540Y-59316517D01*
X122903585Y-59161113D01*
X122933226Y-59102093D01*
X122947695Y-59079607D01*
X122953657Y-59072204D01*
X122965867Y-59042797D01*
X122973110Y-59028127D01*
X123038730Y-58914471D01*
X124808127Y-55849786D01*
X129720141Y-55849786D01*
X129731732Y-55858751D01*
X129776711Y-55875927D01*
X129786596Y-55878799D01*
X129995300Y-55921260D01*
X130005528Y-55922479D01*
X130218355Y-55930284D01*
X130228641Y-55929817D01*
X130439890Y-55902756D01*
X130449967Y-55900614D01*
X130653960Y-55839413D01*
X130663547Y-55835655D01*
X130854800Y-55741961D01*
X130863650Y-55736686D01*
X131037033Y-55613014D01*
X131044905Y-55606361D01*
X131180705Y-55471032D01*
X131187486Y-55458666D01*
X131182356Y-55451788D01*
X130270365Y-54925250D01*
X130254930Y-54921505D01*
X130253190Y-54922108D01*
X130247903Y-54927924D01*
X129723384Y-55836416D01*
X129720141Y-55849786D01*
X124808127Y-55849786D01*
X125563706Y-54541085D01*
X128799755Y-54541085D01*
X128812014Y-54753699D01*
X128813450Y-54763919D01*
X128860270Y-54971668D01*
X128863350Y-54981497D01*
X128943475Y-55178825D01*
X128948118Y-55188016D01*
X129059399Y-55369610D01*
X129065482Y-55377921D01*
X129204918Y-55538889D01*
X129212285Y-55546104D01*
X129260621Y-55586234D01*
X129273042Y-55591592D01*
X129284044Y-55581376D01*
X129805677Y-54677882D01*
X129809422Y-54662447D01*
X129808819Y-54660707D01*
X129803003Y-54655420D01*
X128892463Y-54129718D01*
X128878758Y-54126393D01*
X128873237Y-54133415D01*
X128824569Y-54308904D01*
X128822638Y-54319022D01*
X128800007Y-54530796D01*
X128799755Y-54541085D01*
X125563706Y-54541085D01*
X126060439Y-53680719D01*
X129137801Y-53680719D01*
X129143622Y-53688138D01*
X130068735Y-54222252D01*
X131429378Y-55007819D01*
X131443083Y-55011144D01*
X131449155Y-55003422D01*
X131492083Y-54862129D01*
X131494260Y-54852059D01*
X131522295Y-54639109D01*
X131522814Y-54632434D01*
X131524277Y-54572586D01*
X131524083Y-54565868D01*
X131506486Y-54351826D01*
X131504801Y-54341646D01*
X131452919Y-54135097D01*
X131449599Y-54125346D01*
X131369588Y-53941332D01*
X131360768Y-53870886D01*
X131391435Y-53806854D01*
X131451852Y-53769566D01*
X131473572Y-53766143D01*
X131473542Y-53765911D01*
X131689993Y-53738183D01*
X131689994Y-53738183D01*
X131695121Y-53737526D01*
X131700071Y-53736041D01*
X131904134Y-53674819D01*
X131904139Y-53674817D01*
X131909089Y-53673332D01*
X132109699Y-53575054D01*
X132230714Y-53488735D01*
X141168795Y-53488735D01*
X141168930Y-53490597D01*
X141173158Y-53497170D01*
X147623893Y-59947905D01*
X147637837Y-59955519D01*
X147639670Y-59955388D01*
X147646285Y-59951137D01*
X154094508Y-53502914D01*
X154102122Y-53488970D01*
X154102044Y-53487868D01*
X154097031Y-53480252D01*
X153924512Y-53315102D01*
X153921482Y-53312383D01*
X153459355Y-52923925D01*
X153456183Y-52921429D01*
X152969954Y-52563604D01*
X152966596Y-52561296D01*
X152458306Y-52235606D01*
X152454788Y-52233509D01*
X151926550Y-51941304D01*
X151922925Y-51939449D01*
X151376930Y-51681941D01*
X151373162Y-51680311D01*
X150811693Y-51458576D01*
X150807864Y-51457205D01*
X150233207Y-51272149D01*
X150229332Y-51271038D01*
X149643934Y-51123453D01*
X149639973Y-51122590D01*
X149046293Y-51013094D01*
X149042271Y-51012485D01*
X148442734Y-50941525D01*
X148438732Y-50941182D01*
X147835841Y-50909058D01*
X147831824Y-50908974D01*
X147228147Y-50915823D01*
X147224085Y-50916000D01*
X146622121Y-50961791D01*
X146618094Y-50962228D01*
X146020365Y-51046766D01*
X146016328Y-51047470D01*
X145425292Y-51170405D01*
X145421344Y-51171361D01*
X144839470Y-51332181D01*
X144835578Y-51333394D01*
X144265284Y-51531433D01*
X144261501Y-51532886D01*
X143705186Y-51767311D01*
X143701487Y-51769012D01*
X143161463Y-52038847D01*
X143157861Y-52040795D01*
X142636398Y-52344902D01*
X142632934Y-52347075D01*
X142132157Y-52684219D01*
X142128866Y-52686592D01*
X141650900Y-53055341D01*
X141647745Y-53057940D01*
X141194553Y-53456781D01*
X141191605Y-53459549D01*
X141176395Y-53474786D01*
X141168795Y-53488735D01*
X132230714Y-53488735D01*
X132291565Y-53445331D01*
X132295684Y-53441227D01*
X132446140Y-53291295D01*
X132449801Y-53287647D01*
X132505510Y-53210120D01*
X132577140Y-53110435D01*
X132580158Y-53106235D01*
X132584654Y-53097139D01*
X132676841Y-52910611D01*
X132676842Y-52910609D01*
X132679135Y-52905969D01*
X132744075Y-52692227D01*
X132773234Y-52470748D01*
X132774861Y-52404158D01*
X132756557Y-52181519D01*
X132702136Y-51964860D01*
X132620123Y-51776243D01*
X132611303Y-51705799D01*
X132641970Y-51641767D01*
X132702386Y-51604479D01*
X132723579Y-51601138D01*
X132723542Y-51600848D01*
X132939993Y-51573120D01*
X132939994Y-51573120D01*
X132945121Y-51572463D01*
X132958894Y-51568331D01*
X133154134Y-51509756D01*
X133154139Y-51509754D01*
X133159089Y-51508269D01*
X133359699Y-51409991D01*
X133541565Y-51280268D01*
X133549713Y-51272149D01*
X133663066Y-51159191D01*
X133699801Y-51122584D01*
X133729528Y-51081215D01*
X133827140Y-50945372D01*
X133830158Y-50941172D01*
X133873236Y-50854011D01*
X133926841Y-50745548D01*
X133926842Y-50745546D01*
X133929135Y-50740906D01*
X133994075Y-50527164D01*
X134023234Y-50305685D01*
X134024861Y-50239095D01*
X134006557Y-50016456D01*
X134004266Y-50007333D01*
X133974315Y-49888094D01*
X133977119Y-49817153D01*
X134017832Y-49758990D01*
X134083527Y-49732071D01*
X134117203Y-49733109D01*
X134168661Y-49741674D01*
X134202314Y-49747275D01*
X134202316Y-49747275D01*
X134211172Y-49748749D01*
X134257605Y-49743171D01*
X134346877Y-49732447D01*
X134346880Y-49732446D01*
X134355789Y-49731376D01*
X134439721Y-49695490D01*
X134481465Y-49677642D01*
X134481467Y-49677641D01*
X134489718Y-49674113D01*
X134554022Y-49621200D01*
X134596088Y-49586586D01*
X134596090Y-49586584D01*
X134602193Y-49581562D01*
X134639134Y-49531088D01*
X135537268Y-47975474D01*
X135562509Y-47918245D01*
X135586423Y-47774564D01*
X135585930Y-47770460D01*
X159671987Y-47770460D01*
X159695901Y-47914141D01*
X159721142Y-47971370D01*
X160619276Y-49526984D01*
X160656217Y-49577458D01*
X160662320Y-49582480D01*
X160662322Y-49582482D01*
X160740443Y-49646764D01*
X160768692Y-49670009D01*
X160776943Y-49673537D01*
X160776945Y-49673538D01*
X160786544Y-49677642D01*
X160902621Y-49727272D01*
X160911530Y-49728342D01*
X160911533Y-49728343D01*
X160988094Y-49737540D01*
X161047238Y-49744645D01*
X161056094Y-49743171D01*
X161056096Y-49743171D01*
X161120526Y-49732447D01*
X161141273Y-49728994D01*
X161211752Y-49737540D01*
X161266424Y-49782835D01*
X161287928Y-49850496D01*
X161283376Y-49886956D01*
X161257694Y-49979561D01*
X161233956Y-50201686D01*
X161234253Y-50206839D01*
X161234253Y-50206842D01*
X161239716Y-50301581D01*
X161246815Y-50424706D01*
X161247952Y-50429752D01*
X161247953Y-50429758D01*
X161248878Y-50433862D01*
X161295927Y-50642630D01*
X161379971Y-50849607D01*
X161420548Y-50915823D01*
X161480156Y-51013094D01*
X161496692Y-51040079D01*
X161642955Y-51208929D01*
X161814831Y-51351623D01*
X162007705Y-51464329D01*
X162216397Y-51544021D01*
X162221465Y-51545052D01*
X162221468Y-51545053D01*
X162317108Y-51564511D01*
X162435302Y-51588558D01*
X162440477Y-51588748D01*
X162440479Y-51588748D01*
X162531211Y-51592075D01*
X162598553Y-51614560D01*
X162643049Y-51669883D01*
X162650571Y-51740480D01*
X162640882Y-51771039D01*
X162567393Y-51929359D01*
X162507694Y-52144624D01*
X162483956Y-52366749D01*
X162484253Y-52371902D01*
X162484253Y-52371905D01*
X162489716Y-52466644D01*
X162496815Y-52589769D01*
X162497952Y-52594815D01*
X162497953Y-52594821D01*
X162518635Y-52686592D01*
X162545927Y-52807693D01*
X162629971Y-53014670D01*
X162746692Y-53205142D01*
X162750072Y-53209044D01*
X162761057Y-53221725D01*
X162892955Y-53373992D01*
X162992675Y-53456781D01*
X163048243Y-53502914D01*
X163064831Y-53516686D01*
X163257705Y-53629392D01*
X163466397Y-53709084D01*
X163471465Y-53710115D01*
X163471468Y-53710116D01*
X163579084Y-53732011D01*
X163685302Y-53753621D01*
X163690476Y-53753811D01*
X163690478Y-53753811D01*
X163781754Y-53757158D01*
X163849095Y-53779643D01*
X163893591Y-53834966D01*
X163901113Y-53905563D01*
X163891424Y-53936123D01*
X163820043Y-54089901D01*
X163816480Y-54099588D01*
X163759569Y-54304799D01*
X163757638Y-54314918D01*
X163735007Y-54526692D01*
X163734755Y-54536981D01*
X163747014Y-54749595D01*
X163748450Y-54759815D01*
X163795270Y-54967564D01*
X163798349Y-54977393D01*
X163806019Y-54996282D01*
X163814856Y-55007405D01*
X163828388Y-55004087D01*
X164420322Y-54662334D01*
X165448055Y-54662334D01*
X165450448Y-54669821D01*
X165976487Y-55580948D01*
X165986693Y-55590679D01*
X165994767Y-55587447D01*
X166130758Y-55451928D01*
X166137436Y-55444081D01*
X166261708Y-55271138D01*
X166267018Y-55262301D01*
X166361375Y-55071385D01*
X166365174Y-55061790D01*
X166427081Y-54858033D01*
X166429260Y-54847952D01*
X166457295Y-54635005D01*
X166457814Y-54628330D01*
X166459277Y-54568482D01*
X166459083Y-54561764D01*
X166441486Y-54347722D01*
X166439801Y-54337542D01*
X166387919Y-54130993D01*
X166387767Y-54130547D01*
X166380167Y-54121446D01*
X166367503Y-54124716D01*
X165459364Y-54649031D01*
X165448404Y-54660526D01*
X165448055Y-54662334D01*
X164420322Y-54662334D01*
X165189675Y-54218148D01*
X166109813Y-53686907D01*
X166119544Y-53676701D01*
X166115684Y-53667061D01*
X166029511Y-53572358D01*
X166021978Y-53565333D01*
X165854844Y-53433340D01*
X165846257Y-53427635D01*
X165659822Y-53324717D01*
X165650410Y-53320487D01*
X165449664Y-53249398D01*
X165439694Y-53246764D01*
X165230032Y-53209419D01*
X165219778Y-53208449D01*
X165164225Y-53207770D01*
X165096354Y-53186937D01*
X165050520Y-53132717D01*
X165041276Y-53062325D01*
X165052806Y-53025956D01*
X165114135Y-52901865D01*
X165179075Y-52688123D01*
X165208234Y-52466644D01*
X165209861Y-52400054D01*
X165191557Y-52177415D01*
X165137136Y-51960756D01*
X165048059Y-51755894D01*
X164942080Y-51592075D01*
X164929527Y-51572671D01*
X164929525Y-51572668D01*
X164926719Y-51568331D01*
X164776375Y-51403105D01*
X164772324Y-51399906D01*
X164772320Y-51399902D01*
X164605119Y-51267854D01*
X164605115Y-51267852D01*
X164601064Y-51264652D01*
X164575727Y-51250665D01*
X164506103Y-51212231D01*
X164405494Y-51156692D01*
X164400625Y-51154968D01*
X164400621Y-51154966D01*
X164199792Y-51083849D01*
X164199788Y-51083848D01*
X164194917Y-51082123D01*
X164189824Y-51081216D01*
X164189821Y-51081215D01*
X163980078Y-51043854D01*
X163980072Y-51043853D01*
X163974989Y-51042948D01*
X163914471Y-51042209D01*
X163846601Y-51021376D01*
X163800767Y-50967157D01*
X163791522Y-50896765D01*
X163803054Y-50860391D01*
X163861841Y-50741444D01*
X163861842Y-50741442D01*
X163864135Y-50736802D01*
X163929075Y-50523060D01*
X163958234Y-50301581D01*
X163959861Y-50234991D01*
X163941557Y-50012352D01*
X163887136Y-49795693D01*
X163798059Y-49590831D01*
X163676719Y-49403268D01*
X163526375Y-49238042D01*
X163522324Y-49234843D01*
X163522320Y-49234839D01*
X163355119Y-49102791D01*
X163355115Y-49102789D01*
X163351064Y-49099589D01*
X163325727Y-49085602D01*
X163298841Y-49070760D01*
X163155494Y-48991629D01*
X163150625Y-48989905D01*
X163150621Y-48989903D01*
X162944917Y-48917060D01*
X162945708Y-48914828D01*
X162893411Y-48883178D01*
X162862187Y-48819416D01*
X162870393Y-48748895D01*
X162889077Y-48718073D01*
X162946787Y-48647940D01*
X163004050Y-48514011D01*
X163021423Y-48369394D01*
X162997509Y-48225713D01*
X162972268Y-48168484D01*
X162074134Y-46612870D01*
X162037193Y-46562396D01*
X162031090Y-46557374D01*
X162031088Y-46557372D01*
X161931651Y-46475550D01*
X161931652Y-46475550D01*
X161924718Y-46469845D01*
X161916467Y-46466317D01*
X161916465Y-46466316D01*
X161857754Y-46441214D01*
X161790789Y-46412582D01*
X161781880Y-46411512D01*
X161781877Y-46411511D01*
X161689250Y-46400384D01*
X161646172Y-46395209D01*
X161637316Y-46396683D01*
X161637314Y-46396683D01*
X161510281Y-46417826D01*
X161510278Y-46417827D01*
X161502491Y-46419123D01*
X161445262Y-46444364D01*
X159889648Y-47342498D01*
X159839174Y-47379439D01*
X159746623Y-47491914D01*
X159743095Y-47500165D01*
X159743094Y-47500167D01*
X159717992Y-47558878D01*
X159689360Y-47625843D01*
X159671987Y-47770460D01*
X135585930Y-47770460D01*
X135569050Y-47629947D01*
X135511787Y-47496018D01*
X135419236Y-47383543D01*
X135368762Y-47346602D01*
X133813148Y-46448468D01*
X133755919Y-46423227D01*
X133748132Y-46421931D01*
X133748129Y-46421930D01*
X133621096Y-46400787D01*
X133621094Y-46400787D01*
X133612238Y-46399313D01*
X133567983Y-46404629D01*
X133476533Y-46415615D01*
X133476530Y-46415616D01*
X133467621Y-46416686D01*
X133452323Y-46423227D01*
X133341945Y-46470420D01*
X133341943Y-46470421D01*
X133333692Y-46473949D01*
X133326758Y-46479654D01*
X133326759Y-46479654D01*
X133227322Y-46561476D01*
X133227320Y-46561478D01*
X133221217Y-46566500D01*
X133184276Y-46616974D01*
X132286142Y-48172588D01*
X132260901Y-48229817D01*
X132236987Y-48373498D01*
X132254360Y-48518115D01*
X132257889Y-48526368D01*
X132306340Y-48639687D01*
X132311623Y-48652044D01*
X132317328Y-48658977D01*
X132370864Y-48724038D01*
X132398703Y-48789349D01*
X132386812Y-48859343D01*
X132338968Y-48911797D01*
X132312715Y-48923863D01*
X132133461Y-48982452D01*
X131935312Y-49085602D01*
X131931179Y-49088705D01*
X131931176Y-49088707D01*
X131916683Y-49099589D01*
X131756670Y-49219730D01*
X131602334Y-49381233D01*
X131599420Y-49385505D01*
X131599419Y-49385506D01*
X131587303Y-49403268D01*
X131476448Y-49565775D01*
X131462613Y-49595581D01*
X131391515Y-49748749D01*
X131382393Y-49768400D01*
X131322694Y-49983665D01*
X131298956Y-50205790D01*
X131299253Y-50210943D01*
X131299253Y-50210946D01*
X131304670Y-50304899D01*
X131311815Y-50428810D01*
X131312952Y-50433856D01*
X131312953Y-50433862D01*
X131331899Y-50517930D01*
X131360927Y-50646734D01*
X131444971Y-50853711D01*
X131447665Y-50858107D01*
X131449508Y-50861756D01*
X131462367Y-50931578D01*
X131435435Y-50997268D01*
X131377264Y-51037970D01*
X131335502Y-51044554D01*
X131326223Y-51044440D01*
X131321784Y-51044386D01*
X131321782Y-51044386D01*
X131316616Y-51044323D01*
X131095796Y-51078113D01*
X130883461Y-51147515D01*
X130685312Y-51250665D01*
X130681179Y-51253768D01*
X130681176Y-51253770D01*
X130575127Y-51333394D01*
X130506670Y-51384793D01*
X130352334Y-51546296D01*
X130349420Y-51550568D01*
X130349419Y-51550569D01*
X130337303Y-51568331D01*
X130226448Y-51730838D01*
X130132393Y-51933463D01*
X130072694Y-52148728D01*
X130048956Y-52370853D01*
X130049253Y-52376006D01*
X130049253Y-52376009D01*
X130054670Y-52469962D01*
X130061815Y-52593873D01*
X130062952Y-52598919D01*
X130062953Y-52598925D01*
X130081899Y-52682993D01*
X130110927Y-52811797D01*
X130194971Y-53018774D01*
X130197672Y-53023182D01*
X130199761Y-53027317D01*
X130212623Y-53097139D01*
X130185694Y-53162830D01*
X130127524Y-53203535D01*
X130085759Y-53210120D01*
X130071823Y-53209950D01*
X130061537Y-53210670D01*
X129851026Y-53242883D01*
X129840998Y-53245272D01*
X129638573Y-53311434D01*
X129629064Y-53315431D01*
X129440168Y-53413764D01*
X129431443Y-53419258D01*
X129261138Y-53547127D01*
X129253431Y-53553970D01*
X129144276Y-53668194D01*
X129137801Y-53680719D01*
X126060439Y-53680719D01*
X133006377Y-41650000D01*
X134996526Y-41650000D01*
X135016391Y-41902403D01*
X135075495Y-42148591D01*
X135172384Y-42382502D01*
X135304672Y-42598376D01*
X135469102Y-42790898D01*
X135661624Y-42955328D01*
X135877498Y-43087616D01*
X135882068Y-43089509D01*
X135882072Y-43089511D01*
X136106836Y-43182611D01*
X136111409Y-43184505D01*
X136196032Y-43204821D01*
X136352784Y-43242454D01*
X136352790Y-43242455D01*
X136357597Y-43243609D01*
X136457416Y-43251465D01*
X136544345Y-43258307D01*
X136544352Y-43258307D01*
X136546801Y-43258500D01*
X136673199Y-43258500D01*
X136675648Y-43258307D01*
X136675655Y-43258307D01*
X136762584Y-43251465D01*
X136862403Y-43243609D01*
X136867210Y-43242455D01*
X136867216Y-43242454D01*
X137023968Y-43204821D01*
X137108591Y-43184505D01*
X137113164Y-43182611D01*
X137337928Y-43089511D01*
X137337932Y-43089509D01*
X137342502Y-43087616D01*
X137558376Y-42955328D01*
X137750898Y-42790898D01*
X137915328Y-42598376D01*
X138047616Y-42382502D01*
X138144505Y-42148591D01*
X138203609Y-41902403D01*
X138223474Y-41650000D01*
X138203609Y-41397597D01*
X138144505Y-41151409D01*
X138047616Y-40917498D01*
X137915328Y-40701624D01*
X137750898Y-40509102D01*
X137558376Y-40344672D01*
X137342502Y-40212384D01*
X137337932Y-40210491D01*
X137337928Y-40210489D01*
X137113164Y-40117389D01*
X137113162Y-40117388D01*
X137108591Y-40115495D01*
X137023968Y-40095179D01*
X136867216Y-40057546D01*
X136867210Y-40057545D01*
X136862403Y-40056391D01*
X136762584Y-40048535D01*
X136675655Y-40041693D01*
X136675648Y-40041693D01*
X136673199Y-40041500D01*
X136546801Y-40041500D01*
X136544352Y-40041693D01*
X136544345Y-40041693D01*
X136457416Y-40048535D01*
X136357597Y-40056391D01*
X136352790Y-40057545D01*
X136352784Y-40057546D01*
X136196032Y-40095179D01*
X136111409Y-40115495D01*
X136106838Y-40117388D01*
X136106836Y-40117389D01*
X135882072Y-40210489D01*
X135882068Y-40210491D01*
X135877498Y-40212384D01*
X135661624Y-40344672D01*
X135469102Y-40509102D01*
X135304672Y-40701624D01*
X135172384Y-40917498D01*
X135075495Y-41151409D01*
X135016391Y-41397597D01*
X134996526Y-41650000D01*
X133006377Y-41650000D01*
X134185946Y-39606927D01*
X134196931Y-39590899D01*
X134211983Y-39572212D01*
X134218791Y-39555817D01*
X134229885Y-39534900D01*
X134365813Y-39328236D01*
X134374556Y-39316492D01*
X134551378Y-39105766D01*
X134561403Y-39095139D01*
X134761500Y-38906358D01*
X134772717Y-38896947D01*
X134993344Y-38732695D01*
X135005585Y-38724643D01*
X135243800Y-38587107D01*
X135256894Y-38580531D01*
X135509459Y-38471582D01*
X135523227Y-38466571D01*
X135786732Y-38387679D01*
X135800986Y-38384301D01*
X136071871Y-38336531D01*
X136086407Y-38334831D01*
X136325983Y-38320872D01*
X136352694Y-38322159D01*
X136362066Y-38323618D01*
X136393621Y-38319491D01*
X136409962Y-38318427D01*
X158835625Y-38318427D01*
X158855010Y-38319927D01*
G37*
%TD.AperFunction*%
%TD*%
M02*
