%TF.GenerationSoftware,KiCad,Pcbnew,(6.0.5-0)*%
%TF.CreationDate,2022-06-08T15:30:43+08:00*%
%TF.ProjectId,dtl,64746c2e-6b69-4636-9164-5f7063625858,rev?*%
%TF.SameCoordinates,Original*%
%TF.FileFunction,Paste,Top*%
%TF.FilePolarity,Positive*%
%FSLAX46Y46*%
G04 Gerber Fmt 4.6, Leading zero omitted, Abs format (unit mm)*
G04 Created by KiCad (PCBNEW (6.0.5-0)) date 2022-06-08 15:30:43*
%MOMM*%
%LPD*%
G01*
G04 APERTURE LIST*
G04 Aperture macros list*
%AMRoundRect*
0 Rectangle with rounded corners*
0 $1 Rounding radius*
0 $2 $3 $4 $5 $6 $7 $8 $9 X,Y pos of 4 corners*
0 Add a 4 corners polygon primitive as box body*
4,1,4,$2,$3,$4,$5,$6,$7,$8,$9,$2,$3,0*
0 Add four circle primitives for the rounded corners*
1,1,$1+$1,$2,$3*
1,1,$1+$1,$4,$5*
1,1,$1+$1,$6,$7*
1,1,$1+$1,$8,$9*
0 Add four rect primitives between the rounded corners*
20,1,$1+$1,$2,$3,$4,$5,0*
20,1,$1+$1,$4,$5,$6,$7,0*
20,1,$1+$1,$6,$7,$8,$9,0*
20,1,$1+$1,$8,$9,$2,$3,0*%
%AMRotRect*
0 Rectangle, with rotation*
0 The origin of the aperture is its center*
0 $1 length*
0 $2 width*
0 $3 Rotation angle, in degrees counterclockwise*
0 Add horizontal line*
21,1,$1,$2,0,0,$3*%
G04 Aperture macros list end*
%ADD10RotRect,0.800000X1.500000X300.000000*%
%ADD11RotRect,1.000000X1.000000X300.000000*%
%ADD12RotRect,1.100000X1.000000X300.000000*%
%ADD13RoundRect,0.250000X0.350000X0.450000X-0.350000X0.450000X-0.350000X-0.450000X0.350000X-0.450000X0*%
%ADD14RoundRect,0.250001X-0.938035X-0.699727X-0.136964X-1.162226X0.938035X0.699727X0.136964X1.162226X0*%
%ADD15RoundRect,0.150000X0.587500X0.150000X-0.587500X0.150000X-0.587500X-0.150000X0.587500X-0.150000X0*%
%ADD16RoundRect,0.150000X0.150000X-0.587500X0.150000X0.587500X-0.150000X0.587500X-0.150000X-0.587500X0*%
%ADD17RoundRect,0.250000X0.214711X-0.528109X0.564711X0.078109X-0.214711X0.528109X-0.564711X-0.078109X0*%
%ADD18RoundRect,0.250000X-0.750000X0.250000X-0.750000X-0.250000X0.750000X-0.250000X0.750000X0.250000X0*%
%ADD19R,2.800000X1.000000*%
%ADD20RoundRect,0.250001X0.462499X1.074999X-0.462499X1.074999X-0.462499X-1.074999X0.462499X-1.074999X0*%
%ADD21RotRect,2.800000X1.000000X240.000000*%
%ADD22RoundRect,0.250000X-0.591506X-0.524519X-0.158494X-0.774519X0.591506X0.524519X0.158494X0.774519X0*%
%ADD23RoundRect,0.250000X-0.214711X0.528109X-0.564711X-0.078109X0.214711X-0.528109X0.564711X0.078109X0*%
%ADD24RoundRect,0.250000X-0.528109X-0.214711X0.078109X-0.564711X0.528109X0.214711X-0.078109X0.564711X0*%
G04 APERTURE END LIST*
D10*
%TO.C,SW3*%
X130709087Y-68351443D03*
X132209087Y-70949519D03*
X132959087Y-72248557D03*
D11*
X128858254Y-67745706D03*
X132558254Y-74154294D03*
D12*
X127299408Y-68645706D03*
D11*
X130999408Y-75054294D03*
%TD*%
D13*
%TO.C,R10*%
X155700000Y-73400000D03*
X153700000Y-73400000D03*
%TD*%
D14*
%TO.C,D3*%
X139523574Y-74912500D03*
X142100000Y-76400000D03*
%TD*%
D15*
%TO.C,Q2*%
X152137500Y-77350000D03*
X152137500Y-75450000D03*
X150262500Y-76400000D03*
%TD*%
D16*
%TO.C,Q5*%
X161100000Y-59600000D03*
X163000000Y-59600000D03*
X162050000Y-57725000D03*
%TD*%
D17*
%TO.C,R13*%
X157000000Y-68566025D03*
X158000000Y-66833975D03*
%TD*%
D18*
%TO.C,SW11*%
X132900000Y-62500000D03*
X127950000Y-62500000D03*
X132850000Y-60100000D03*
X127950000Y-60100000D03*
%TD*%
D19*
%TO.C,SW13*%
X133300000Y-62600000D03*
X127500000Y-62600000D03*
X133300000Y-58600000D03*
X127500000Y-58600000D03*
%TD*%
D20*
%TO.C,D6*%
X147787500Y-76500000D03*
X144812500Y-76500000D03*
%TD*%
D21*
%TO.C,SW12*%
X165182051Y-69388526D03*
X162282051Y-74411474D03*
X161717949Y-67388526D03*
X158817949Y-72411474D03*
%TD*%
D22*
%TO.C,SW4*%
X164963461Y-69806699D03*
X162488461Y-74093525D03*
X162860000Y-68650000D03*
X160410000Y-72893525D03*
%TD*%
D17*
%TO.C,R14*%
X159600000Y-63932050D03*
X160600000Y-62200000D03*
%TD*%
D23*
%TO.C,R5*%
X137031705Y-53254927D03*
X136031705Y-54986977D03*
%TD*%
D24*
%TO.C,R8*%
X137627950Y-70650000D03*
X139360000Y-71650000D03*
%TD*%
M02*
